<?xml version="1.0" encoding="UTF-8" standalone="no"?>
<!DOCTYPE svg PUBLIC "-//W3C//DTD SVG 1.1//EN"
 "http://www.w3.org/Graphics/SVG/1.1/DTD/svg11.dtd">
<!-- Generated by graphviz version 2.40.1 (20161225.0304)
 -->
<!-- Title: dependencies Pages: 1 -->
<svg width="3866pt" height="211pt"
 viewBox="0.00 0.00 3866.00 211.00" xmlns="http://www.w3.org/2000/svg" xmlns:xlink="http://www.w3.org/1999/xlink">
<g id="graph0" class="graph" transform="scale(1 1) rotate(0) translate(4 207)">
<title>dependencies</title>
<polygon fill="#ffffff" stroke="transparent" points="-4,4 -4,-207 3862,-207 3862,4 -4,4"/>
<text text-anchor="start" x="1908.0091" y="-42.4" font-family="sans-serif" font-weight="bold" font-size="14.00" fill="#000000">Legend</text>
<polygon fill="#ffffb3" stroke="transparent" points="1695,-10 1695,-30 1715,-30 1715,-10 1695,-10"/>
<text text-anchor="start" x="1718.629" y="-15.4" font-family="sans-serif" font-size="14.00" fill="#000000"> &#160;Declarations</text>
<polygon fill="#8dd3c7" stroke="transparent" points="1808,-10 1808,-30 1828,-30 1828,-10 1808,-10"/>
<text text-anchor="start" x="1831.7251" y="-15.4" font-family="sans-serif" font-size="14.00" fill="#000000"> &#160;Module</text>
<polygon fill="#80b1d3" stroke="transparent" points="1894,-10 1894,-30 1914,-30 1914,-10 1894,-10"/>
<text text-anchor="start" x="1917.7812" y="-15.4" font-family="sans-serif" font-size="14.00" fill="#000000"> &#160;Bootstrap</text>
<polygon fill="#fdb462" stroke="transparent" points="1991,-10 1991,-30 2011,-30 2011,-10 1991,-10"/>
<text text-anchor="start" x="2014.6732" y="-15.4" font-family="sans-serif" font-size="14.00" fill="#000000"> &#160;Providers</text>
<polygon fill="#fb8072" stroke="transparent" points="2087,-10 2087,-30 2107,-30 2107,-10 2087,-10"/>
<text text-anchor="start" x="2110.7258" y="-15.4" font-family="sans-serif" font-size="14.00" fill="#000000"> &#160;Exports</text>
<g id="clust1" class="cluster">
<title>cluster_NgsAuthenticationModule</title>
<polygon fill="none" stroke="#000000" stroke-dasharray="1,5" points="8,-70 8,-195 3850,-195 3850,-70 8,-70"/>
</g>
<g id="clust2" class="cluster">
<title>cluster_NgsAuthenticationModule_declarations</title>
<polygon fill="none" stroke="#000000" points="3278,-78 3278,-130 3842,-130 3842,-78 3278,-78"/>
</g>
<g id="clust6" class="cluster">
<title>cluster_NgsAuthenticationModule_imports</title>
<polygon fill="none" stroke="#000000" points="16,-78 16,-130 3270,-130 3270,-78 16,-78"/>
</g>
<!-- SigninContainerComponent -->
<g id="node1" class="node">
<title>SigninContainerComponent</title>
<polygon fill="#ffffb3" stroke="#000000" points="3833.6038,-122 3660.3962,-122 3660.3962,-86 3833.6038,-86 3833.6038,-122"/>
<text text-anchor="middle" x="3747" y="-99.8" font-family="Times,serif" font-size="14.00" fill="#000000">SigninContainerComponent</text>
</g>
<!-- NgsAuthenticationModule -->
<g id="node4" class="node">
<title>NgsAuthenticationModule</title>
<polygon fill="#8dd3c7" stroke="#000000" points="2097.8047,-187 2094.8047,-191 2073.8047,-191 2070.8047,-187 1932.1953,-187 1932.1953,-151 2097.8047,-151 2097.8047,-187"/>
<text text-anchor="middle" x="2015" y="-164.8" font-family="Times,serif" font-size="14.00" fill="#000000">NgsAuthenticationModule</text>
</g>
<!-- SigninContainerComponent&#45;&gt;NgsAuthenticationModule -->
<g id="edge1" class="edge">
<title>SigninContainerComponent&#45;&gt;NgsAuthenticationModule</title>
<path fill="none" stroke="#000000" d="M3747,-122.3802C3747,-146.2785 3747,-185 3747,-185 3747,-185 2107.6634,-185 2107.6634,-185"/>
<polygon fill="#000000" stroke="#000000" points="2107.6634,-181.5001 2097.6634,-185 2107.6634,-188.5001 2107.6634,-181.5001"/>
</g>
<!-- SigninComponent -->
<g id="node2" class="node">
<title>SigninComponent</title>
<polygon fill="#ffffb3" stroke="#000000" points="3641.8962,-122 3524.1038,-122 3524.1038,-86 3641.8962,-86 3641.8962,-122"/>
<text text-anchor="middle" x="3583" y="-99.8" font-family="Times,serif" font-size="14.00" fill="#000000">SigninComponent</text>
</g>
<!-- SigninComponent&#45;&gt;NgsAuthenticationModule -->
<g id="edge2" class="edge">
<title>SigninComponent&#45;&gt;NgsAuthenticationModule</title>
<path fill="none" stroke="#000000" d="M3583,-122.0908C3583,-145.1328 3583,-182 3583,-182 3583,-182 2107.9197,-182 2107.9197,-182"/>
<polygon fill="#000000" stroke="#000000" points="2107.9197,-178.5001 2097.9197,-182 2107.9196,-185.5001 2107.9197,-178.5001"/>
</g>
<!-- AuthenticationContainerComponent -->
<g id="node3" class="node">
<title>AuthenticationContainerComponent</title>
<polygon fill="#ffffb3" stroke="#000000" points="3505.7435,-122 3286.2565,-122 3286.2565,-86 3505.7435,-86 3505.7435,-122"/>
<text text-anchor="middle" x="3396" y="-99.8" font-family="Times,serif" font-size="14.00" fill="#000000">AuthenticationContainerComponent</text>
</g>
<!-- AuthenticationContainerComponent&#45;&gt;NgsAuthenticationModule -->
<g id="edge3" class="edge">
<title>AuthenticationContainerComponent&#45;&gt;NgsAuthenticationModule</title>
<path fill="none" stroke="#000000" d="M3396,-122.1554C3396,-144.3519 3396,-179 3396,-179 3396,-179 2107.7642,-179 2107.7642,-179"/>
<polygon fill="#000000" stroke="#000000" points="2107.7643,-175.5001 2097.7642,-179 2107.7642,-182.5001 2107.7643,-175.5001"/>
</g>
<!-- CommonModule -->
<g id="node5" class="node">
<title>CommonModule</title>
<polygon fill="#8dd3c7" stroke="#000000" points="3261.6681,-122 3258.6681,-126 3237.6681,-126 3234.6681,-122 3150.3319,-122 3150.3319,-86 3261.6681,-86 3261.6681,-122"/>
<text text-anchor="middle" x="3206" y="-99.8" font-family="Times,serif" font-size="14.00" fill="#000000">CommonModule</text>
</g>
<!-- CommonModule&#45;&gt;NgsAuthenticationModule -->
<g id="edge4" class="edge">
<title>CommonModule&#45;&gt;NgsAuthenticationModule</title>
<path fill="none" stroke="#000000" d="M3206,-122.1686C3206,-143.498 3206,-176 3206,-176 3206,-176 2107.8032,-176 2107.8032,-176"/>
<polygon fill="#000000" stroke="#000000" points="2107.8033,-172.5001 2097.8032,-176 2107.8032,-179.5001 2107.8033,-172.5001"/>
</g>
<!-- RouterModule -->
<g id="node6" class="node">
<title>RouterModule</title>
<polygon fill="#8dd3c7" stroke="#000000" points="3131.6528,-122 3128.6528,-126 3107.6528,-126 3104.6528,-122 3034.3472,-122 3034.3472,-86 3131.6528,-86 3131.6528,-122"/>
<text text-anchor="middle" x="3083" y="-99.8" font-family="Times,serif" font-size="14.00" fill="#000000">RouterModule</text>
</g>
<!-- RouterModule&#45;&gt;NgsAuthenticationModule -->
<g id="edge5" class="edge">
<title>RouterModule&#45;&gt;NgsAuthenticationModule</title>
<path fill="none" stroke="#000000" d="M3083,-122.0267C3083,-142.7672 3083,-174 3083,-174 3083,-174 2107.9155,-174 2107.9155,-174"/>
<polygon fill="#000000" stroke="#000000" points="2107.9155,-170.5001 2097.9155,-174 2107.9154,-177.5001 2107.9155,-170.5001"/>
</g>
<!-- FormsModule -->
<g id="node7" class="node">
<title>FormsModule</title>
<polygon fill="#8dd3c7" stroke="#000000" points="3016.8288,-122 3013.8288,-126 2992.8288,-126 2989.8288,-122 2921.1712,-122 2921.1712,-86 3016.8288,-86 3016.8288,-122"/>
<text text-anchor="middle" x="2969" y="-99.8" font-family="Times,serif" font-size="14.00" fill="#000000">FormsModule</text>
</g>
<!-- FormsModule&#45;&gt;NgsAuthenticationModule -->
<g id="edge6" class="edge">
<title>FormsModule&#45;&gt;NgsAuthenticationModule</title>
<path fill="none" stroke="#000000" d="M2984.888,-122.308C2984.888,-142.1455 2984.888,-171 2984.888,-171 2984.888,-171 2107.6921,-171 2107.6921,-171"/>
<polygon fill="#000000" stroke="#000000" points="2107.6921,-167.5001 2097.6921,-171 2107.6921,-174.5001 2107.6921,-167.5001"/>
</g>
<!-- FormsModule&#45;&gt;NgsAuthenticationModule -->
<g id="edge26" class="edge">
<title>FormsModule&#45;&gt;NgsAuthenticationModule</title>
<path fill="none" stroke="#000000" d="M2953.112,-122.1686C2953.112,-141.0898 2953.112,-168 2953.112,-168 2953.112,-168 2107.8397,-168 2107.8397,-168"/>
<polygon fill="#000000" stroke="#000000" points="2107.8397,-164.5001 2097.8397,-168 2107.8396,-171.5001 2107.8397,-164.5001"/>
</g>
<!-- HttpClientModule -->
<g id="node8" class="node">
<title>HttpClientModule</title>
<polygon fill="#8dd3c7" stroke="#000000" points="2903.1611,-122 2900.1611,-126 2879.1611,-126 2876.1611,-122 2784.8389,-122 2784.8389,-86 2903.1611,-86 2903.1611,-122"/>
<text text-anchor="middle" x="2844" y="-99.8" font-family="Times,serif" font-size="14.00" fill="#000000">HttpClientModule</text>
</g>
<!-- HttpClientModule&#45;&gt;NgsAuthenticationModule -->
<g id="edge7" class="edge">
<title>HttpClientModule&#45;&gt;NgsAuthenticationModule</title>
<path fill="none" stroke="#000000" d="M2844,-122.302C2844,-140.2699 2844,-165 2844,-165 2844,-165 2107.9005,-165 2107.9005,-165"/>
<polygon fill="#000000" stroke="#000000" points="2107.9006,-161.5001 2097.9005,-165 2107.9005,-168.5001 2107.9006,-161.5001"/>
</g>
<!-- FlexLayoutModule -->
<g id="node9" class="node">
<title>FlexLayoutModule</title>
<polygon fill="#8dd3c7" stroke="#000000" points="2767.0954,-122 2764.0954,-126 2743.0954,-126 2740.0954,-122 2642.9046,-122 2642.9046,-86 2767.0954,-86 2767.0954,-122"/>
<text text-anchor="middle" x="2705" y="-99.8" font-family="Times,serif" font-size="14.00" fill="#000000">FlexLayoutModule</text>
</g>
<!-- FlexLayoutModule&#45;&gt;NgsAuthenticationModule -->
<g id="edge8" class="edge">
<title>FlexLayoutModule&#45;&gt;NgsAuthenticationModule</title>
<path fill="none" stroke="#000000" d="M2705,-122.0225C2705,-139.3734 2705,-163 2705,-163 2705,-163 2107.8872,-163 2107.8872,-163"/>
<polygon fill="#000000" stroke="#000000" points="2107.8872,-159.5001 2097.8872,-163 2107.8871,-166.5001 2107.8872,-159.5001"/>
</g>
<!-- MatIconModule -->
<g id="node10" class="node">
<title>MatIconModule</title>
<polygon fill="#8dd3c7" stroke="#000000" points="2624.4748,-122 2621.4748,-126 2600.4748,-126 2597.4748,-122 2517.5252,-122 2517.5252,-86 2624.4748,-86 2624.4748,-122"/>
<text text-anchor="middle" x="2571" y="-99.8" font-family="Times,serif" font-size="14.00" fill="#000000">MatIconModule</text>
</g>
<!-- MatIconModule&#45;&gt;NgsAuthenticationModule -->
<g id="edge9" class="edge">
<title>MatIconModule&#45;&gt;NgsAuthenticationModule</title>
<path fill="none" stroke="#000000" d="M2571,-122.027C2571,-138.3976 2571,-160 2571,-160 2571,-160 2107.9384,-160 2107.9384,-160"/>
<polygon fill="#000000" stroke="#000000" points="2107.9385,-156.5001 2097.9384,-160 2107.9384,-163.5001 2107.9385,-156.5001"/>
</g>
<!-- MatButtonModule -->
<g id="node11" class="node">
<title>MatButtonModule</title>
<polygon fill="#8dd3c7" stroke="#000000" points="2499.2176,-122 2496.2176,-126 2475.2176,-126 2472.2176,-122 2378.7824,-122 2378.7824,-86 2499.2176,-86 2499.2176,-122"/>
<text text-anchor="middle" x="2439" y="-99.8" font-family="Times,serif" font-size="14.00" fill="#000000">MatButtonModule</text>
</g>
<!-- MatButtonModule&#45;&gt;NgsAuthenticationModule -->
<g id="edge10" class="edge">
<title>MatButtonModule&#45;&gt;NgsAuthenticationModule</title>
<path fill="none" stroke="#000000" d="M2439,-122.2396C2439,-137.5706 2439,-157 2439,-157 2439,-157 2107.758,-157 2107.758,-157"/>
<polygon fill="#000000" stroke="#000000" points="2107.758,-153.5001 2097.758,-157 2107.758,-160.5001 2107.758,-153.5001"/>
</g>
<!-- MatCardModule -->
<g id="node12" class="node">
<title>MatCardModule</title>
<polygon fill="#8dd3c7" stroke="#000000" points="2360.8118,-122 2357.8118,-126 2336.8118,-126 2333.8118,-122 2251.1882,-122 2251.1882,-86 2360.8118,-86 2360.8118,-122"/>
<text text-anchor="middle" x="2306" y="-99.8" font-family="Times,serif" font-size="14.00" fill="#000000">MatCardModule</text>
</g>
<!-- MatCardModule&#45;&gt;NgsAuthenticationModule -->
<g id="edge11" class="edge">
<title>MatCardModule&#45;&gt;NgsAuthenticationModule</title>
<path fill="none" stroke="#000000" d="M2306,-122.0511C2306,-136.373 2306,-154 2306,-154 2306,-154 2107.9995,-154 2107.9995,-154"/>
<polygon fill="#000000" stroke="#000000" points="2107.9995,-150.5001 2097.9995,-154 2107.9994,-157.5001 2107.9995,-150.5001"/>
</g>
<!-- MatSnackBarModule -->
<g id="node13" class="node">
<title>MatSnackBarModule</title>
<polygon fill="#8dd3c7" stroke="#000000" points="2233.024,-122 2230.024,-126 2209.024,-126 2206.024,-122 2096.976,-122 2096.976,-86 2233.024,-86 2233.024,-122"/>
<text text-anchor="middle" x="2165" y="-99.8" font-family="Times,serif" font-size="14.00" fill="#000000">MatSnackBarModule</text>
</g>
<!-- MatSnackBarModule&#45;&gt;NgsAuthenticationModule -->
<g id="edge12" class="edge">
<title>MatSnackBarModule&#45;&gt;NgsAuthenticationModule</title>
<path fill="none" stroke="#000000" d="M2096.8442,-104C2091.2391,-104 2087.6697,-104 2087.6697,-104 2087.6697,-104 2087.6697,-140.8939 2087.6697,-140.8939"/>
<polygon fill="#000000" stroke="#000000" points="2084.1698,-140.8938 2087.6697,-150.8939 2091.1698,-140.8939 2084.1698,-140.8938"/>
</g>
<!-- MatSidenavModule -->
<g id="node14" class="node">
<title>MatSidenavModule</title>
<polygon fill="#8dd3c7" stroke="#000000" points="2078.7022,-122 2075.7022,-126 2054.7022,-126 2051.7022,-122 1951.2978,-122 1951.2978,-86 2078.7022,-86 2078.7022,-122"/>
<text text-anchor="middle" x="2015" y="-99.8" font-family="Times,serif" font-size="14.00" fill="#000000">MatSidenavModule</text>
</g>
<!-- MatSidenavModule&#45;&gt;NgsAuthenticationModule -->
<g id="edge13" class="edge">
<title>MatSidenavModule&#45;&gt;NgsAuthenticationModule</title>
<path fill="none" stroke="#000000" d="M2015,-122.1061C2015,-122.1061 2015,-140.991 2015,-140.991"/>
<polygon fill="#000000" stroke="#000000" points="2011.5001,-140.9909 2015,-150.991 2018.5001,-140.991 2011.5001,-140.9909"/>
</g>
<!-- MatExpansionModule -->
<g id="node15" class="node">
<title>MatExpansionModule</title>
<polygon fill="#8dd3c7" stroke="#000000" points="1933.7021,-122 1930.7021,-126 1909.7021,-126 1906.7021,-122 1792.2979,-122 1792.2979,-86 1933.7021,-86 1933.7021,-122"/>
<text text-anchor="middle" x="1863" y="-99.8" font-family="Times,serif" font-size="14.00" fill="#000000">MatExpansionModule</text>
</g>
<!-- MatExpansionModule&#45;&gt;NgsAuthenticationModule -->
<g id="edge14" class="edge">
<title>MatExpansionModule&#45;&gt;NgsAuthenticationModule</title>
<path fill="none" stroke="#000000" d="M1933.6884,-104C1939.0925,-104 1942.5,-104 1942.5,-104 1942.5,-104 1942.5,-140.8939 1942.5,-140.8939"/>
<polygon fill="#000000" stroke="#000000" points="1939.0001,-140.8938 1942.5,-150.8939 1946.0001,-140.8939 1939.0001,-140.8938"/>
</g>
<!-- MatSelectModule -->
<g id="node16" class="node">
<title>MatSelectModule</title>
<polygon fill="#8dd3c7" stroke="#000000" points="1774.3076,-122 1771.3076,-126 1750.3076,-126 1747.3076,-122 1657.6924,-122 1657.6924,-86 1774.3076,-86 1774.3076,-122"/>
<text text-anchor="middle" x="1716" y="-99.8" font-family="Times,serif" font-size="14.00" fill="#000000">MatSelectModule</text>
</g>
<!-- MatSelectModule&#45;&gt;NgsAuthenticationModule -->
<g id="edge15" class="edge">
<title>MatSelectModule&#45;&gt;NgsAuthenticationModule</title>
<path fill="none" stroke="#000000" d="M1716,-122.0511C1716,-136.373 1716,-154 1716,-154 1716,-154 1922.1089,-154 1922.1089,-154"/>
<polygon fill="#000000" stroke="#000000" points="1922.1089,-157.5001 1932.1089,-154 1922.1089,-150.5001 1922.1089,-157.5001"/>
</g>
<!-- MatFormFieldModule -->
<g id="node17" class="node">
<title>MatFormFieldModule</title>
<polygon fill="#8dd3c7" stroke="#000000" points="1639.712,-122 1636.712,-126 1615.712,-126 1612.712,-122 1498.288,-122 1498.288,-86 1639.712,-86 1639.712,-122"/>
<text text-anchor="middle" x="1569" y="-99.8" font-family="Times,serif" font-size="14.00" fill="#000000">MatFormFieldModule</text>
</g>
<!-- MatFormFieldModule&#45;&gt;NgsAuthenticationModule -->
<g id="edge16" class="edge">
<title>MatFormFieldModule&#45;&gt;NgsAuthenticationModule</title>
<path fill="none" stroke="#000000" d="M1569,-122.2396C1569,-137.5706 1569,-157 1569,-157 1569,-157 1922.1561,-157 1922.1561,-157"/>
<polygon fill="#000000" stroke="#000000" points="1922.1561,-160.5001 1932.1561,-157 1922.156,-153.5001 1922.1561,-160.5001"/>
</g>
<!-- MatListModule -->
<g id="node18" class="node">
<title>MatListModule</title>
<polygon fill="#8dd3c7" stroke="#000000" points="1479.8781,-122 1476.8781,-126 1455.8781,-126 1452.8781,-122 1376.1219,-122 1376.1219,-86 1479.8781,-86 1479.8781,-122"/>
<text text-anchor="middle" x="1428" y="-99.8" font-family="Times,serif" font-size="14.00" fill="#000000">MatListModule</text>
</g>
<!-- MatListModule&#45;&gt;NgsAuthenticationModule -->
<g id="edge17" class="edge">
<title>MatListModule&#45;&gt;NgsAuthenticationModule</title>
<path fill="none" stroke="#000000" d="M1428,-122.027C1428,-138.3976 1428,-160 1428,-160 1428,-160 1922.1422,-160 1922.1422,-160"/>
<polygon fill="#000000" stroke="#000000" points="1922.1423,-163.5001 1932.1422,-160 1922.1422,-156.5001 1922.1423,-163.5001"/>
</g>
<!-- MatMenuModule -->
<g id="node19" class="node">
<title>MatMenuModule</title>
<polygon fill="#8dd3c7" stroke="#000000" points="1358.2591,-122 1355.2591,-126 1334.2591,-126 1331.2591,-122 1243.7409,-122 1243.7409,-86 1358.2591,-86 1358.2591,-122"/>
<text text-anchor="middle" x="1301" y="-99.8" font-family="Times,serif" font-size="14.00" fill="#000000">MatMenuModule</text>
</g>
<!-- MatMenuModule&#45;&gt;NgsAuthenticationModule -->
<g id="edge18" class="edge">
<title>MatMenuModule&#45;&gt;NgsAuthenticationModule</title>
<path fill="none" stroke="#000000" d="M1301,-122.0225C1301,-139.3734 1301,-163 1301,-163 1301,-163 1922.048,-163 1922.048,-163"/>
<polygon fill="#000000" stroke="#000000" points="1922.048,-166.5001 1932.048,-163 1922.0479,-159.5001 1922.048,-166.5001"/>
</g>
<!-- MatRadioModule -->
<g id="node20" class="node">
<title>MatRadioModule</title>
<polygon fill="#8dd3c7" stroke="#000000" points="1225.5423,-122 1222.5423,-126 1201.5423,-126 1198.5423,-122 1110.4577,-122 1110.4577,-86 1225.5423,-86 1225.5423,-122"/>
<text text-anchor="middle" x="1168" y="-99.8" font-family="Times,serif" font-size="14.00" fill="#000000">MatRadioModule</text>
</g>
<!-- MatRadioModule&#45;&gt;NgsAuthenticationModule -->
<g id="edge19" class="edge">
<title>MatRadioModule&#45;&gt;NgsAuthenticationModule</title>
<path fill="none" stroke="#000000" d="M1168,-122.302C1168,-140.2699 1168,-165 1168,-165 1168,-165 1922.2439,-165 1922.2439,-165"/>
<polygon fill="#000000" stroke="#000000" points="1922.2439,-168.5001 1932.2439,-165 1922.2439,-161.5001 1922.2439,-168.5001"/>
</g>
<!-- MatInputModule -->
<g id="node21" class="node">
<title>MatInputModule</title>
<polygon fill="#8dd3c7" stroke="#000000" points="1091.6513,-122 1088.6513,-126 1067.6513,-126 1064.6513,-122 980.3487,-122 980.3487,-86 1091.6513,-86 1091.6513,-122"/>
<text text-anchor="middle" x="1036" y="-99.8" font-family="Times,serif" font-size="14.00" fill="#000000">MatInputModule</text>
</g>
<!-- MatInputModule&#45;&gt;NgsAuthenticationModule -->
<g id="edge20" class="edge">
<title>MatInputModule&#45;&gt;NgsAuthenticationModule</title>
<path fill="none" stroke="#000000" d="M1036,-122.1686C1036,-141.0898 1036,-168 1036,-168 1036,-168 1921.9533,-168 1921.9533,-168"/>
<polygon fill="#000000" stroke="#000000" points="1921.9534,-171.5001 1931.9533,-168 1921.9533,-164.5001 1921.9534,-171.5001"/>
</g>
<!-- MatToolbarModule -->
<g id="node22" class="node">
<title>MatToolbarModule</title>
<polygon fill="#8dd3c7" stroke="#000000" points="962.4187,-122 959.4187,-126 938.4187,-126 935.4187,-122 835.5813,-122 835.5813,-86 962.4187,-86 962.4187,-122"/>
<text text-anchor="middle" x="899" y="-99.8" font-family="Times,serif" font-size="14.00" fill="#000000">MatToolbarModule</text>
</g>
<!-- MatToolbarModule&#45;&gt;NgsAuthenticationModule -->
<g id="edge21" class="edge">
<title>MatToolbarModule&#45;&gt;NgsAuthenticationModule</title>
<path fill="none" stroke="#000000" d="M899,-122.308C899,-142.1455 899,-171 899,-171 899,-171 1922.0304,-171 1922.0304,-171"/>
<polygon fill="#000000" stroke="#000000" points="1922.0304,-174.5001 1932.0304,-171 1922.0303,-167.5001 1922.0304,-174.5001"/>
</g>
<!-- MatDatepickerModule -->
<g id="node23" class="node">
<title>MatDatepickerModule</title>
<polygon fill="#8dd3c7" stroke="#000000" points="817.5072,-122 814.5072,-126 793.5072,-126 790.5072,-122 674.4928,-122 674.4928,-86 817.5072,-86 817.5072,-122"/>
<text text-anchor="middle" x="746" y="-99.8" font-family="Times,serif" font-size="14.00" fill="#000000">MatDatepickerModule</text>
</g>
<!-- MatDatepickerModule&#45;&gt;NgsAuthenticationModule -->
<g id="edge22" class="edge">
<title>MatDatepickerModule&#45;&gt;NgsAuthenticationModule</title>
<path fill="none" stroke="#000000" d="M746,-122.0267C746,-142.7672 746,-174 746,-174 746,-174 1922.2269,-174 1922.2269,-174"/>
<polygon fill="#000000" stroke="#000000" points="1922.2269,-177.5001 1932.2269,-174 1922.2268,-170.5001 1922.2269,-177.5001"/>
</g>
<!-- MatProgressBarModule -->
<g id="node24" class="node">
<title>MatProgressBarModule</title>
<polygon fill="#8dd3c7" stroke="#000000" points="656.0198,-122 653.0198,-126 632.0198,-126 629.0198,-122 505.9802,-122 505.9802,-86 656.0198,-86 656.0198,-122"/>
<text text-anchor="middle" x="581" y="-99.8" font-family="Times,serif" font-size="14.00" fill="#000000">MatProgressBarModule</text>
</g>
<!-- MatProgressBarModule&#45;&gt;NgsAuthenticationModule -->
<g id="edge23" class="edge">
<title>MatProgressBarModule&#45;&gt;NgsAuthenticationModule</title>
<path fill="none" stroke="#000000" d="M581,-122.1686C581,-143.498 581,-176 581,-176 581,-176 1922.2284,-176 1922.2284,-176"/>
<polygon fill="#000000" stroke="#000000" points="1922.2284,-179.5001 1932.2284,-176 1922.2283,-172.5001 1922.2284,-179.5001"/>
</g>
<!-- BrowserAnimationsModule -->
<g id="node25" class="node">
<title>BrowserAnimationsModule</title>
<polygon fill="#8dd3c7" stroke="#000000" points="488.3019,-122 485.3019,-126 464.3019,-126 461.3019,-122 315.6981,-122 315.6981,-86 488.3019,-86 488.3019,-122"/>
<text text-anchor="middle" x="402" y="-99.8" font-family="Times,serif" font-size="14.00" fill="#000000">BrowserAnimationsModule</text>
</g>
<!-- BrowserAnimationsModule&#45;&gt;NgsAuthenticationModule -->
<g id="edge24" class="edge">
<title>BrowserAnimationsModule&#45;&gt;NgsAuthenticationModule</title>
<path fill="none" stroke="#000000" d="M402,-122.1554C402,-144.3519 402,-179 402,-179 402,-179 1922.2349,-179 1922.2349,-179"/>
<polygon fill="#000000" stroke="#000000" points="1922.235,-182.5001 1932.2349,-179 1922.2349,-175.5001 1922.235,-182.5001"/>
</g>
<!-- ReactiveFormsModule -->
<g id="node26" class="node">
<title>ReactiveFormsModule</title>
<polygon fill="#8dd3c7" stroke="#000000" points="298.3047,-122 295.3047,-126 274.3047,-126 271.3047,-122 153.6953,-122 153.6953,-86 298.3047,-86 298.3047,-122"/>
<text text-anchor="middle" x="226" y="-99.8" font-family="Times,serif" font-size="14.00" fill="#000000">ReactiveFormsModule</text>
</g>
<!-- ReactiveFormsModule&#45;&gt;NgsAuthenticationModule -->
<g id="edge25" class="edge">
<title>ReactiveFormsModule&#45;&gt;NgsAuthenticationModule</title>
<path fill="none" stroke="#000000" d="M226,-122.0908C226,-145.1328 226,-182 226,-182 226,-182 1922.3008,-182 1922.3008,-182"/>
<polygon fill="#000000" stroke="#000000" points="1922.3008,-185.5001 1932.3008,-182 1922.3007,-178.5001 1922.3008,-185.5001"/>
</g>
<!-- NgsFormModule -->
<g id="node27" class="node">
<title>NgsFormModule</title>
<polygon fill="#8dd3c7" stroke="#000000" points="136.4356,-122 133.4356,-126 112.4356,-126 109.4356,-122 23.5644,-122 23.5644,-86 136.4356,-86 136.4356,-122"/>
<text text-anchor="middle" x="80" y="-99.8" font-family="Times,serif" font-size="14.00" fill="#000000">NgsFormModule</text>
</g>
<!-- NgsFormModule&#45;&gt;NgsAuthenticationModule -->
<g id="edge27" class="edge">
<title>NgsFormModule&#45;&gt;NgsAuthenticationModule</title>
<path fill="none" stroke="#000000" d="M80,-122.3802C80,-146.2785 80,-185 80,-185 80,-185 1922.1652,-185 1922.1652,-185"/>
<polygon fill="#000000" stroke="#000000" points="1922.1653,-188.5001 1932.1652,-185 1922.1652,-181.5001 1922.1653,-188.5001"/>
</g>
</g>
</svg>
