<?xml version="1.0" encoding="UTF-8" standalone="no"?>
<!DOCTYPE svg PUBLIC "-//W3C//DTD SVG 1.1//EN"
 "http://www.w3.org/Graphics/SVG/1.1/DTD/svg11.dtd">
<!-- Generated by graphviz version 2.40.1 (20161225.0304)
 -->
<!-- Title: dependencies Pages: 1 -->
<svg width="704pt" height="284pt"
 viewBox="0.00 0.00 704.00 284.00" xmlns="http://www.w3.org/2000/svg" xmlns:xlink="http://www.w3.org/1999/xlink">
<g id="graph0" class="graph" transform="scale(1 1) rotate(0) translate(4 280)">
<title>dependencies</title>
<polygon fill="#ffffff" stroke="transparent" points="-4,4 -4,-280 700,-280 700,4 -4,4"/>
<text text-anchor="start" x="327.0091" y="-42.4" font-family="sans-serif" font-weight="bold" font-size="14.00" fill="#000000">Legend</text>
<polygon fill="#ffffb3" stroke="transparent" points="114,-10 114,-30 134,-30 134,-10 114,-10"/>
<text text-anchor="start" x="137.629" y="-15.4" font-family="sans-serif" font-size="14.00" fill="#000000"> &#160;Declarations</text>
<polygon fill="#8dd3c7" stroke="transparent" points="227,-10 227,-30 247,-30 247,-10 227,-10"/>
<text text-anchor="start" x="250.7251" y="-15.4" font-family="sans-serif" font-size="14.00" fill="#000000"> &#160;Module</text>
<polygon fill="#80b1d3" stroke="transparent" points="313,-10 313,-30 333,-30 333,-10 313,-10"/>
<text text-anchor="start" x="336.7812" y="-15.4" font-family="sans-serif" font-size="14.00" fill="#000000"> &#160;Bootstrap</text>
<polygon fill="#fdb462" stroke="transparent" points="410,-10 410,-30 430,-30 430,-10 410,-10"/>
<text text-anchor="start" x="433.6732" y="-15.4" font-family="sans-serif" font-size="14.00" fill="#000000"> &#160;Providers</text>
<polygon fill="#fb8072" stroke="transparent" points="506,-10 506,-30 526,-30 526,-10 506,-10"/>
<text text-anchor="start" x="529.7258" y="-15.4" font-family="sans-serif" font-size="14.00" fill="#000000"> &#160;Exports</text>
<g id="clust1" class="cluster">
<title>cluster_RootNgsFormModule</title>
<polygon fill="none" stroke="#000000" stroke-dasharray="1,5" points="8,-70 8,-268 688,-268 688,-70 8,-70"/>
</g>
<g id="clust3" class="cluster">
<title>cluster_RootNgsFormModule_imports</title>
<polygon fill="none" stroke="#000000" points="16,-78 16,-130 680,-130 680,-78 16,-78"/>
</g>
<g id="clust4" class="cluster">
<title>cluster_RootNgsFormModule_exports</title>
<polygon fill="none" stroke="#000000" points="280,-208 280,-260 412,-260 412,-208 280,-208"/>
</g>
<!-- NgsFormModule -->
<g id="node1" class="node">
<title>NgsFormModule</title>
<polygon fill="#8dd3c7" stroke="#000000" points="672.4356,-122 669.4356,-126 648.4356,-126 645.4356,-122 559.5644,-122 559.5644,-86 672.4356,-86 672.4356,-122"/>
<text text-anchor="middle" x="616" y="-99.8" font-family="Times,serif" font-size="14.00" fill="#000000">NgsFormModule</text>
</g>
<!-- RootNgsFormModule -->
<g id="node5" class="node">
<title>RootNgsFormModule</title>
<polygon fill="#8dd3c7" stroke="#000000" points="415.6624,-187 412.6624,-191 391.6624,-191 388.6624,-187 276.3376,-187 276.3376,-151 415.6624,-151 415.6624,-187"/>
<text text-anchor="middle" x="346" y="-164.8" font-family="Times,serif" font-size="14.00" fill="#000000">RootNgsFormModule</text>
</g>
<!-- NgsFormModule&#45;&gt;RootNgsFormModule -->
<g id="edge1" class="edge">
<title>NgsFormModule&#45;&gt;RootNgsFormModule</title>
<path fill="none" stroke="#000000" d="M616,-122.1061C616,-141.3391 616,-169 616,-169 616,-169 425.8828,-169 425.8828,-169"/>
<polygon fill="#000000" stroke="#000000" points="425.8829,-165.5001 415.8828,-169 425.8828,-172.5001 425.8829,-165.5001"/>
</g>
<!-- StoreModule.forFeature(args) -->
<g id="node2" class="node">
<title>StoreModule.forFeature(args)</title>
<polygon fill="#8dd3c7" stroke="#000000" points="541.5386,-122 538.5386,-126 517.5386,-126 514.5386,-122 358.4614,-122 358.4614,-86 541.5386,-86 541.5386,-122"/>
<text text-anchor="middle" x="450" y="-99.8" font-family="Times,serif" font-size="14.00" fill="#000000">StoreModule.forFeature(args)</text>
</g>
<!-- StoreModule.forFeature(args)&#45;&gt;RootNgsFormModule -->
<g id="edge2" class="edge">
<title>StoreModule.forFeature(args)&#45;&gt;RootNgsFormModule</title>
<path fill="none" stroke="#000000" d="M387.031,-122.1061C387.031,-122.1061 387.031,-140.991 387.031,-140.991"/>
<polygon fill="#000000" stroke="#000000" points="383.5311,-140.9909 387.031,-150.991 390.5311,-140.991 383.5311,-140.9909"/>
</g>
<!-- EffectsModule.forFeature(args) -->
<g id="node3" class="node">
<title>EffectsModule.forFeature(args)</title>
<polygon fill="#8dd3c7" stroke="#000000" points="339.6282,-122 336.6282,-126 315.6282,-126 312.6282,-122 146.3718,-122 146.3718,-86 339.6282,-86 339.6282,-122"/>
<text text-anchor="middle" x="243" y="-99.8" font-family="Times,serif" font-size="14.00" fill="#000000">EffectsModule.forFeature(args)</text>
</g>
<!-- EffectsModule.forFeature(args)&#45;&gt;RootNgsFormModule -->
<g id="edge3" class="edge">
<title>EffectsModule.forFeature(args)&#45;&gt;RootNgsFormModule</title>
<path fill="none" stroke="#000000" d="M307.9915,-122.1061C307.9915,-122.1061 307.9915,-140.991 307.9915,-140.991"/>
<polygon fill="#000000" stroke="#000000" points="304.4915,-140.9909 307.9915,-150.991 311.4915,-140.991 304.4915,-140.9909"/>
</g>
<!-- RoutingModule -->
<g id="node4" class="node">
<title>RoutingModule</title>
<polygon fill="#8dd3c7" stroke="#000000" points="128.1681,-122 125.1681,-126 104.1681,-126 101.1681,-122 23.8319,-122 23.8319,-86 128.1681,-86 128.1681,-122"/>
<text text-anchor="middle" x="76" y="-99.8" font-family="Times,serif" font-size="14.00" fill="#000000">RoutingModule</text>
</g>
<!-- RoutingModule&#45;&gt;RootNgsFormModule -->
<g id="edge4" class="edge">
<title>RoutingModule&#45;&gt;RootNgsFormModule</title>
<path fill="none" stroke="#000000" d="M76,-122.1061C76,-141.3391 76,-169 76,-169 76,-169 266.1172,-169 266.1172,-169"/>
<polygon fill="#000000" stroke="#000000" points="266.1172,-172.5001 276.1172,-169 266.1171,-165.5001 266.1172,-172.5001"/>
</g>
<!-- NgsFormModule  -->
<g id="node6" class="node">
<title>NgsFormModule </title>
<polygon fill="#fb8072" stroke="#000000" points="403.9348,-252 288.0652,-252 288.0652,-216 403.9348,-216 403.9348,-252"/>
<text text-anchor="middle" x="346" y="-229.8" font-family="Times,serif" font-size="14.00" fill="#000000">NgsFormModule </text>
</g>
<!-- RootNgsFormModule&#45;&gt;NgsFormModule  -->
<g id="edge5" class="edge">
<title>RootNgsFormModule&#45;&gt;NgsFormModule </title>
<path fill="none" stroke="#000000" stroke-dasharray="5,2" d="M346,-187.1061C346,-187.1061 346,-205.991 346,-205.991"/>
<polygon fill="#000000" stroke="#000000" points="342.5001,-205.9909 346,-215.991 349.5001,-205.991 342.5001,-205.9909"/>
</g>
</g>
</svg>
