<?xml version="1.0" encoding="UTF-8" standalone="no"?>
<!DOCTYPE svg PUBLIC "-//W3C//DTD SVG 1.1//EN"
 "http://www.w3.org/Graphics/SVG/1.1/DTD/svg11.dtd">
<!-- Generated by graphviz version 2.40.1 (20161225.0304)
 -->
<!-- Title: dependencies Pages: 1 -->
<svg width="4676pt" height="211pt"
 viewBox="0.00 0.00 4676.00 211.00" xmlns="http://www.w3.org/2000/svg" xmlns:xlink="http://www.w3.org/1999/xlink">
<g id="graph0" class="graph" transform="scale(1 1) rotate(0) translate(4 207)">
<title>dependencies</title>
<polygon fill="#ffffff" stroke="transparent" points="-4,4 -4,-207 4672,-207 4672,4 -4,4"/>
<text text-anchor="start" x="2313.0091" y="-42.4" font-family="sans-serif" font-weight="bold" font-size="14.00" fill="#000000">Legend</text>
<polygon fill="#ffffb3" stroke="transparent" points="2100,-10 2100,-30 2120,-30 2120,-10 2100,-10"/>
<text text-anchor="start" x="2123.629" y="-15.4" font-family="sans-serif" font-size="14.00" fill="#000000"> &#160;Declarations</text>
<polygon fill="#8dd3c7" stroke="transparent" points="2213,-10 2213,-30 2233,-30 2233,-10 2213,-10"/>
<text text-anchor="start" x="2236.7251" y="-15.4" font-family="sans-serif" font-size="14.00" fill="#000000"> &#160;Module</text>
<polygon fill="#80b1d3" stroke="transparent" points="2299,-10 2299,-30 2319,-30 2319,-10 2299,-10"/>
<text text-anchor="start" x="2322.7812" y="-15.4" font-family="sans-serif" font-size="14.00" fill="#000000"> &#160;Bootstrap</text>
<polygon fill="#fdb462" stroke="transparent" points="2396,-10 2396,-30 2416,-30 2416,-10 2396,-10"/>
<text text-anchor="start" x="2419.6732" y="-15.4" font-family="sans-serif" font-size="14.00" fill="#000000"> &#160;Providers</text>
<polygon fill="#fb8072" stroke="transparent" points="2492,-10 2492,-30 2512,-30 2512,-10 2492,-10"/>
<text text-anchor="start" x="2515.7258" y="-15.4" font-family="sans-serif" font-size="14.00" fill="#000000"> &#160;Exports</text>
<g id="clust1" class="cluster">
<title>cluster_SourceModule</title>
<polygon fill="none" stroke="#000000" stroke-dasharray="1,5" points="8,-70 8,-195 4660,-195 4660,-70 8,-70"/>
</g>
<g id="clust2" class="cluster">
<title>cluster_SourceModule_declarations</title>
<polygon fill="none" stroke="#000000" points="4082,-78 4082,-130 4652,-130 4652,-78 4082,-78"/>
</g>
<g id="clust6" class="cluster">
<title>cluster_SourceModule_imports</title>
<polygon fill="none" stroke="#000000" points="16,-78 16,-130 4074,-130 4074,-78 16,-78"/>
</g>
<!-- SourceListComponent -->
<g id="node1" class="node">
<title>SourceListComponent</title>
<polygon fill="#ffffb3" stroke="#000000" points="4643.9832,-122 4502.0168,-122 4502.0168,-86 4643.9832,-86 4643.9832,-122"/>
<text text-anchor="middle" x="4573" y="-99.8" font-family="Times,serif" font-size="14.00" fill="#000000">SourceListComponent</text>
</g>
<!-- SourceModule -->
<g id="node4" class="node">
<title>SourceModule</title>
<polygon fill="#8dd3c7" stroke="#000000" points="2407.4231,-187 2404.4231,-191 2383.4231,-191 2380.4231,-187 2308.5769,-187 2308.5769,-151 2407.4231,-151 2407.4231,-187"/>
<text text-anchor="middle" x="2358" y="-164.8" font-family="Times,serif" font-size="14.00" fill="#000000">SourceModule</text>
</g>
<!-- SourceListComponent&#45;&gt;SourceModule -->
<g id="edge1" class="edge">
<title>SourceListComponent&#45;&gt;SourceModule</title>
<path fill="none" stroke="#000000" d="M4573,-122.3802C4573,-146.2785 4573,-185 4573,-185 4573,-185 2417.369,-185 2417.369,-185"/>
<polygon fill="#000000" stroke="#000000" points="2417.3691,-181.5001 2407.369,-185 2417.369,-188.5001 2417.3691,-181.5001"/>
</g>
<!-- SourceUpsertComponent -->
<g id="node2" class="node">
<title>SourceUpsertComponent</title>
<polygon fill="#ffffb3" stroke="#000000" points="4483.5225,-122 4326.4775,-122 4326.4775,-86 4483.5225,-86 4483.5225,-122"/>
<text text-anchor="middle" x="4405" y="-99.8" font-family="Times,serif" font-size="14.00" fill="#000000">SourceUpsertComponent</text>
</g>
<!-- SourceUpsertComponent&#45;&gt;SourceModule -->
<g id="edge2" class="edge">
<title>SourceUpsertComponent&#45;&gt;SourceModule</title>
<path fill="none" stroke="#000000" d="M4405,-122.3228C4405,-145.6602 4405,-183 4405,-183 4405,-183 2417.3339,-183 2417.3339,-183"/>
<polygon fill="#000000" stroke="#000000" points="2417.334,-179.5001 2407.3339,-183 2417.3339,-186.5001 2417.334,-179.5001"/>
</g>
<!-- SourceModuleContainerComponent -->
<g id="node3" class="node">
<title>SourceModuleContainerComponent</title>
<polygon fill="#ffffb3" stroke="#000000" points="4308.4622,-122 4089.5378,-122 4089.5378,-86 4308.4622,-86 4308.4622,-122"/>
<text text-anchor="middle" x="4199" y="-99.8" font-family="Times,serif" font-size="14.00" fill="#000000">SourceModuleContainerComponent</text>
</g>
<!-- SourceModuleContainerComponent&#45;&gt;SourceModule -->
<g id="edge3" class="edge">
<title>SourceModuleContainerComponent&#45;&gt;SourceModule</title>
<path fill="none" stroke="#000000" d="M4199,-122.2479C4199,-145.0179 4199,-181 4199,-181 4199,-181 2417.2423,-181 2417.2423,-181"/>
<polygon fill="#000000" stroke="#000000" points="2417.2423,-177.5001 2407.2423,-181 2417.2423,-184.5001 2417.2423,-177.5001"/>
</g>
<!-- CommonModule -->
<g id="node5" class="node">
<title>CommonModule</title>
<polygon fill="#8dd3c7" stroke="#000000" points="4065.6681,-122 4062.6681,-126 4041.6681,-126 4038.6681,-122 3954.3319,-122 3954.3319,-86 4065.6681,-86 4065.6681,-122"/>
<text text-anchor="middle" x="4010" y="-99.8" font-family="Times,serif" font-size="14.00" fill="#000000">CommonModule</text>
</g>
<!-- CommonModule&#45;&gt;SourceModule -->
<g id="edge4" class="edge">
<title>CommonModule&#45;&gt;SourceModule</title>
<path fill="none" stroke="#000000" d="M4010,-122.2921C4010,-144.2057 4010,-178 4010,-178 4010,-178 2417.4411,-178 2417.4411,-178"/>
<polygon fill="#000000" stroke="#000000" points="2417.4411,-174.5001 2407.4411,-178 2417.441,-181.5001 2417.4411,-174.5001"/>
</g>
<!-- RouterModule -->
<g id="node6" class="node">
<title>RouterModule</title>
<polygon fill="#8dd3c7" stroke="#000000" points="3935.6528,-122 3932.6528,-126 3911.6528,-126 3908.6528,-122 3838.3472,-122 3838.3472,-86 3935.6528,-86 3935.6528,-122"/>
<text text-anchor="middle" x="3887" y="-99.8" font-family="Times,serif" font-size="14.00" fill="#000000">RouterModule</text>
</g>
<!-- RouterModule&#45;&gt;SourceModule -->
<g id="edge5" class="edge">
<title>RouterModule&#45;&gt;SourceModule</title>
<path fill="none" stroke="#000000" d="M3887,-122.1686C3887,-143.498 3887,-176 3887,-176 3887,-176 2417.5712,-176 2417.5712,-176"/>
<polygon fill="#000000" stroke="#000000" points="2417.5712,-172.5001 2407.5712,-176 2417.5712,-179.5001 2417.5712,-172.5001"/>
</g>
<!-- FormsModule -->
<g id="node7" class="node">
<title>FormsModule</title>
<polygon fill="#8dd3c7" stroke="#000000" points="3820.8288,-122 3817.8288,-126 3796.8288,-126 3793.8288,-122 3725.1712,-122 3725.1712,-86 3820.8288,-86 3820.8288,-122"/>
<text text-anchor="middle" x="3773" y="-99.8" font-family="Times,serif" font-size="14.00" fill="#000000">FormsModule</text>
</g>
<!-- FormsModule&#45;&gt;SourceModule -->
<g id="edge6" class="edge">
<title>FormsModule&#45;&gt;SourceModule</title>
<path fill="none" stroke="#000000" d="M3773,-122.0267C3773,-142.7672 3773,-174 3773,-174 3773,-174 2417.5309,-174 2417.5309,-174"/>
<polygon fill="#000000" stroke="#000000" points="2417.5309,-170.5001 2407.5309,-174 2417.5309,-177.5001 2417.5309,-170.5001"/>
</g>
<!-- ReactiveFormsModule -->
<g id="node8" class="node">
<title>ReactiveFormsModule</title>
<polygon fill="#8dd3c7" stroke="#000000" points="3707.3047,-122 3704.3047,-126 3683.3047,-126 3680.3047,-122 3562.6953,-122 3562.6953,-86 3707.3047,-86 3707.3047,-122"/>
<text text-anchor="middle" x="3635" y="-99.8" font-family="Times,serif" font-size="14.00" fill="#000000">ReactiveFormsModule</text>
</g>
<!-- ReactiveFormsModule&#45;&gt;SourceModule -->
<g id="edge7" class="edge">
<title>ReactiveFormsModule&#45;&gt;SourceModule</title>
<path fill="none" stroke="#000000" d="M3635,-122.2228C3635,-142.3652 3635,-172 3635,-172 3635,-172 2417.2774,-172 2417.2774,-172"/>
<polygon fill="#000000" stroke="#000000" points="2417.2775,-168.5001 2407.2774,-172 2417.2774,-175.5001 2417.2775,-168.5001"/>
</g>
<!-- HttpClientModule -->
<g id="node9" class="node">
<title>HttpClientModule</title>
<polygon fill="#8dd3c7" stroke="#000000" points="3545.1611,-122 3542.1611,-126 3521.1611,-126 3518.1611,-122 3426.8389,-122 3426.8389,-86 3545.1611,-86 3545.1611,-122"/>
<text text-anchor="middle" x="3486" y="-99.8" font-family="Times,serif" font-size="14.00" fill="#000000">HttpClientModule</text>
</g>
<!-- HttpClientModule&#45;&gt;SourceModule -->
<g id="edge8" class="edge">
<title>HttpClientModule&#45;&gt;SourceModule</title>
<path fill="none" stroke="#000000" d="M3486,-122.1061C3486,-141.3391 3486,-169 3486,-169 3486,-169 2417.5585,-169 2417.5585,-169"/>
<polygon fill="#000000" stroke="#000000" points="2417.5586,-165.5001 2407.5585,-169 2417.5585,-172.5001 2417.5586,-165.5001"/>
</g>
<!-- FlexLayoutModule -->
<g id="node10" class="node">
<title>FlexLayoutModule</title>
<polygon fill="#8dd3c7" stroke="#000000" points="3409.0954,-122 3406.0954,-126 3385.0954,-126 3382.0954,-122 3284.9046,-122 3284.9046,-86 3409.0954,-86 3409.0954,-122"/>
<text text-anchor="middle" x="3347" y="-99.8" font-family="Times,serif" font-size="14.00" fill="#000000">FlexLayoutModule</text>
</g>
<!-- FlexLayoutModule&#45;&gt;SourceModule -->
<g id="edge9" class="edge">
<title>FlexLayoutModule&#45;&gt;SourceModule</title>
<path fill="none" stroke="#000000" d="M3347,-122.2222C3347,-140.8285 3347,-167 3347,-167 3347,-167 2417.383,-167 2417.383,-167"/>
<polygon fill="#000000" stroke="#000000" points="2417.3831,-163.5001 2407.383,-167 2417.383,-170.5001 2417.3831,-163.5001"/>
</g>
<!-- MatIconModule -->
<g id="node11" class="node">
<title>MatIconModule</title>
<polygon fill="#8dd3c7" stroke="#000000" points="3266.4748,-122 3263.4748,-126 3242.4748,-126 3239.4748,-122 3159.5252,-122 3159.5252,-86 3266.4748,-86 3266.4748,-122"/>
<text text-anchor="middle" x="3213" y="-99.8" font-family="Times,serif" font-size="14.00" fill="#000000">MatIconModule</text>
</g>
<!-- MatIconModule&#45;&gt;SourceModule -->
<g id="edge10" class="edge">
<title>MatIconModule&#45;&gt;SourceModule</title>
<path fill="none" stroke="#000000" d="M3213,-122.302C3213,-140.2699 3213,-165 3213,-165 3213,-165 2417.3513,-165 2417.3513,-165"/>
<polygon fill="#000000" stroke="#000000" points="2417.3513,-161.5001 2407.3513,-165 2417.3513,-168.5001 2417.3513,-161.5001"/>
</g>
<!-- MatButtonModule -->
<g id="node12" class="node">
<title>MatButtonModule</title>
<polygon fill="#8dd3c7" stroke="#000000" points="3141.2176,-122 3138.2176,-126 3117.2176,-126 3114.2176,-122 3020.7824,-122 3020.7824,-86 3141.2176,-86 3141.2176,-122"/>
<text text-anchor="middle" x="3081" y="-99.8" font-family="Times,serif" font-size="14.00" fill="#000000">MatButtonModule</text>
</g>
<!-- MatButtonModule&#45;&gt;SourceModule -->
<g id="edge11" class="edge">
<title>MatButtonModule&#45;&gt;SourceModule</title>
<path fill="none" stroke="#000000" d="M3081,-122.0225C3081,-139.3734 3081,-163 3081,-163 3081,-163 2417.4102,-163 2417.4102,-163"/>
<polygon fill="#000000" stroke="#000000" points="2417.4102,-159.5001 2407.4102,-163 2417.4101,-166.5001 2417.4102,-159.5001"/>
</g>
<!-- MatCardModule -->
<g id="node13" class="node">
<title>MatCardModule</title>
<polygon fill="#8dd3c7" stroke="#000000" points="3002.8118,-122 2999.8118,-126 2978.8118,-126 2975.8118,-122 2893.1882,-122 2893.1882,-86 3002.8118,-86 3002.8118,-122"/>
<text text-anchor="middle" x="2948" y="-99.8" font-family="Times,serif" font-size="14.00" fill="#000000">MatCardModule</text>
</g>
<!-- MatCardModule&#45;&gt;SourceModule -->
<g id="edge12" class="edge">
<title>MatCardModule&#45;&gt;SourceModule</title>
<path fill="none" stroke="#000000" d="M2948,-122.027C2948,-138.3976 2948,-160 2948,-160 2948,-160 2417.2883,-160 2417.2883,-160"/>
<polygon fill="#000000" stroke="#000000" points="2417.2883,-156.5001 2407.2883,-160 2417.2882,-163.5001 2417.2883,-156.5001"/>
</g>
<!-- MatSnackBarModule -->
<g id="node14" class="node">
<title>MatSnackBarModule</title>
<polygon fill="#8dd3c7" stroke="#000000" points="2875.024,-122 2872.024,-126 2851.024,-126 2848.024,-122 2738.976,-122 2738.976,-86 2875.024,-86 2875.024,-122"/>
<text text-anchor="middle" x="2807" y="-99.8" font-family="Times,serif" font-size="14.00" fill="#000000">MatSnackBarModule</text>
</g>
<!-- MatSnackBarModule&#45;&gt;SourceModule -->
<g id="edge13" class="edge">
<title>MatSnackBarModule&#45;&gt;SourceModule</title>
<path fill="none" stroke="#000000" d="M2807,-122.2819C2807,-137.9478 2807,-158 2807,-158 2807,-158 2417.3352,-158 2417.3352,-158"/>
<polygon fill="#000000" stroke="#000000" points="2417.3353,-154.5001 2407.3352,-158 2417.3352,-161.5001 2417.3353,-154.5001"/>
</g>
<!-- MatSidenavModule -->
<g id="node15" class="node">
<title>MatSidenavModule</title>
<polygon fill="#8dd3c7" stroke="#000000" points="2720.7022,-122 2717.7022,-126 2696.7022,-126 2693.7022,-122 2593.2978,-122 2593.2978,-86 2720.7022,-86 2720.7022,-122"/>
<text text-anchor="middle" x="2657" y="-99.8" font-family="Times,serif" font-size="14.00" fill="#000000">MatSidenavModule</text>
</g>
<!-- MatSidenavModule&#45;&gt;SourceModule -->
<g id="edge14" class="edge">
<title>MatSidenavModule&#45;&gt;SourceModule</title>
<path fill="none" stroke="#000000" d="M2657,-122.1871C2657,-137.1824 2657,-156 2657,-156 2657,-156 2417.3738,-156 2417.3738,-156"/>
<polygon fill="#000000" stroke="#000000" points="2417.3738,-152.5001 2407.3738,-156 2417.3737,-159.5001 2417.3738,-152.5001"/>
</g>
<!-- MatExpansionModule -->
<g id="node16" class="node">
<title>MatExpansionModule</title>
<polygon fill="#8dd3c7" stroke="#000000" points="2575.7021,-122 2572.7021,-126 2551.7021,-126 2548.7021,-122 2434.2979,-122 2434.2979,-86 2575.7021,-86 2575.7021,-122"/>
<text text-anchor="middle" x="2505" y="-99.8" font-family="Times,serif" font-size="14.00" fill="#000000">MatExpansionModule</text>
</g>
<!-- MatExpansionModule&#45;&gt;SourceModule -->
<g id="edge15" class="edge">
<title>MatExpansionModule&#45;&gt;SourceModule</title>
<path fill="none" stroke="#000000" d="M2505,-122.0511C2505,-136.373 2505,-154 2505,-154 2505,-154 2417.3578,-154 2417.3578,-154"/>
<polygon fill="#000000" stroke="#000000" points="2417.3578,-150.5001 2407.3578,-154 2417.3578,-157.5001 2417.3578,-150.5001"/>
</g>
<!-- MatSelectModule -->
<g id="node17" class="node">
<title>MatSelectModule</title>
<polygon fill="#8dd3c7" stroke="#000000" points="2416.3076,-122 2413.3076,-126 2392.3076,-126 2389.3076,-122 2299.6924,-122 2299.6924,-86 2416.3076,-86 2416.3076,-122"/>
<text text-anchor="middle" x="2358" y="-99.8" font-family="Times,serif" font-size="14.00" fill="#000000">MatSelectModule</text>
</g>
<!-- MatSelectModule&#45;&gt;SourceModule -->
<g id="edge16" class="edge">
<title>MatSelectModule&#45;&gt;SourceModule</title>
<path fill="none" stroke="#000000" d="M2358,-122.1061C2358,-122.1061 2358,-140.991 2358,-140.991"/>
<polygon fill="#000000" stroke="#000000" points="2354.5001,-140.9909 2358,-150.991 2361.5001,-140.991 2354.5001,-140.9909"/>
</g>
<!-- MatFormFieldModule -->
<g id="node18" class="node">
<title>MatFormFieldModule</title>
<polygon fill="#8dd3c7" stroke="#000000" points="2281.712,-122 2278.712,-126 2257.712,-126 2254.712,-122 2140.288,-122 2140.288,-86 2281.712,-86 2281.712,-122"/>
<text text-anchor="middle" x="2211" y="-99.8" font-family="Times,serif" font-size="14.00" fill="#000000">MatFormFieldModule</text>
</g>
<!-- MatFormFieldModule&#45;&gt;SourceModule -->
<g id="edge17" class="edge">
<title>MatFormFieldModule&#45;&gt;SourceModule</title>
<path fill="none" stroke="#000000" d="M2211,-122.0511C2211,-136.373 2211,-154 2211,-154 2211,-154 2298.6422,-154 2298.6422,-154"/>
<polygon fill="#000000" stroke="#000000" points="2298.6422,-157.5001 2308.6422,-154 2298.6422,-150.5001 2298.6422,-157.5001"/>
</g>
<!-- MatListModule -->
<g id="node19" class="node">
<title>MatListModule</title>
<polygon fill="#8dd3c7" stroke="#000000" points="2121.8781,-122 2118.8781,-126 2097.8781,-126 2094.8781,-122 2018.1219,-122 2018.1219,-86 2121.8781,-86 2121.8781,-122"/>
<text text-anchor="middle" x="2070" y="-99.8" font-family="Times,serif" font-size="14.00" fill="#000000">MatListModule</text>
</g>
<!-- MatListModule&#45;&gt;SourceModule -->
<g id="edge18" class="edge">
<title>MatListModule&#45;&gt;SourceModule</title>
<path fill="none" stroke="#000000" d="M2070,-122.1871C2070,-137.1824 2070,-156 2070,-156 2070,-156 2298.491,-156 2298.491,-156"/>
<polygon fill="#000000" stroke="#000000" points="2298.4911,-159.5001 2308.491,-156 2298.491,-152.5001 2298.4911,-159.5001"/>
</g>
<!-- MatMenuModule -->
<g id="node20" class="node">
<title>MatMenuModule</title>
<polygon fill="#8dd3c7" stroke="#000000" points="2000.2591,-122 1997.2591,-126 1976.2591,-126 1973.2591,-122 1885.7409,-122 1885.7409,-86 2000.2591,-86 2000.2591,-122"/>
<text text-anchor="middle" x="1943" y="-99.8" font-family="Times,serif" font-size="14.00" fill="#000000">MatMenuModule</text>
</g>
<!-- MatMenuModule&#45;&gt;SourceModule -->
<g id="edge19" class="edge">
<title>MatMenuModule&#45;&gt;SourceModule</title>
<path fill="none" stroke="#000000" d="M1943,-122.2819C1943,-137.9478 1943,-158 1943,-158 1943,-158 2298.7644,-158 2298.7644,-158"/>
<polygon fill="#000000" stroke="#000000" points="2298.7644,-161.5001 2308.7644,-158 2298.7643,-154.5001 2298.7644,-161.5001"/>
</g>
<!-- MatCheckboxModule -->
<g id="node21" class="node">
<title>MatCheckboxModule</title>
<polygon fill="#8dd3c7" stroke="#000000" points="1867.3655,-122 1864.3655,-126 1843.3655,-126 1840.3655,-122 1728.6345,-122 1728.6345,-86 1867.3655,-86 1867.3655,-122"/>
<text text-anchor="middle" x="1798" y="-99.8" font-family="Times,serif" font-size="14.00" fill="#000000">MatCheckboxModule</text>
</g>
<!-- MatCheckboxModule&#45;&gt;SourceModule -->
<g id="edge20" class="edge">
<title>MatCheckboxModule&#45;&gt;SourceModule</title>
<path fill="none" stroke="#000000" d="M1798,-122.027C1798,-138.3976 1798,-160 1798,-160 1798,-160 2298.3037,-160 2298.3037,-160"/>
<polygon fill="#000000" stroke="#000000" points="2298.3038,-163.5001 2308.3037,-160 2298.3037,-156.5001 2298.3038,-163.5001"/>
</g>
<!-- MatRadioModule -->
<g id="node22" class="node">
<title>MatRadioModule</title>
<polygon fill="#8dd3c7" stroke="#000000" points="1710.5423,-122 1707.5423,-126 1686.5423,-126 1683.5423,-122 1595.4577,-122 1595.4577,-86 1710.5423,-86 1710.5423,-122"/>
<text text-anchor="middle" x="1653" y="-99.8" font-family="Times,serif" font-size="14.00" fill="#000000">MatRadioModule</text>
</g>
<!-- MatRadioModule&#45;&gt;SourceModule -->
<g id="edge21" class="edge">
<title>MatRadioModule&#45;&gt;SourceModule</title>
<path fill="none" stroke="#000000" d="M1653,-122.0225C1653,-139.3734 1653,-163 1653,-163 1653,-163 2298.706,-163 2298.706,-163"/>
<polygon fill="#000000" stroke="#000000" points="2298.706,-166.5001 2308.706,-163 2298.7059,-159.5001 2298.706,-166.5001"/>
</g>
<!-- MatInputModule -->
<g id="node23" class="node">
<title>MatInputModule</title>
<polygon fill="#8dd3c7" stroke="#000000" points="1576.6513,-122 1573.6513,-126 1552.6513,-126 1549.6513,-122 1465.3487,-122 1465.3487,-86 1576.6513,-86 1576.6513,-122"/>
<text text-anchor="middle" x="1521" y="-99.8" font-family="Times,serif" font-size="14.00" fill="#000000">MatInputModule</text>
</g>
<!-- MatInputModule&#45;&gt;SourceModule -->
<g id="edge22" class="edge">
<title>MatInputModule&#45;&gt;SourceModule</title>
<path fill="none" stroke="#000000" d="M1521,-122.302C1521,-140.2699 1521,-165 1521,-165 1521,-165 2298.7667,-165 2298.7667,-165"/>
<polygon fill="#000000" stroke="#000000" points="2298.7667,-168.5001 2308.7667,-165 2298.7666,-161.5001 2298.7667,-168.5001"/>
</g>
<!-- MatToolbarModule -->
<g id="node24" class="node">
<title>MatToolbarModule</title>
<polygon fill="#8dd3c7" stroke="#000000" points="1447.4187,-122 1444.4187,-126 1423.4187,-126 1420.4187,-122 1320.5813,-122 1320.5813,-86 1447.4187,-86 1447.4187,-122"/>
<text text-anchor="middle" x="1384" y="-99.8" font-family="Times,serif" font-size="14.00" fill="#000000">MatToolbarModule</text>
</g>
<!-- MatToolbarModule&#45;&gt;SourceModule -->
<g id="edge23" class="edge">
<title>MatToolbarModule&#45;&gt;SourceModule</title>
<path fill="none" stroke="#000000" d="M1384,-122.2222C1384,-140.8285 1384,-167 1384,-167 1384,-167 2298.6964,-167 2298.6964,-167"/>
<polygon fill="#000000" stroke="#000000" points="2298.6965,-170.5001 2308.6964,-167 2298.6964,-163.5001 2298.6965,-170.5001"/>
</g>
<!-- MatDatepickerModule -->
<g id="node25" class="node">
<title>MatDatepickerModule</title>
<polygon fill="#8dd3c7" stroke="#000000" points="1302.5072,-122 1299.5072,-126 1278.5072,-126 1275.5072,-122 1159.4928,-122 1159.4928,-86 1302.5072,-86 1302.5072,-122"/>
<text text-anchor="middle" x="1231" y="-99.8" font-family="Times,serif" font-size="14.00" fill="#000000">MatDatepickerModule</text>
</g>
<!-- MatDatepickerModule&#45;&gt;SourceModule -->
<g id="edge24" class="edge">
<title>MatDatepickerModule&#45;&gt;SourceModule</title>
<path fill="none" stroke="#000000" d="M1231,-122.1061C1231,-141.3391 1231,-169 1231,-169 1231,-169 2298.4854,-169 2298.4854,-169"/>
<polygon fill="#000000" stroke="#000000" points="2298.4854,-172.5001 2308.4854,-169 2298.4854,-165.5001 2298.4854,-172.5001"/>
</g>
<!-- MatProgressBarModule -->
<g id="node26" class="node">
<title>MatProgressBarModule</title>
<polygon fill="#8dd3c7" stroke="#000000" points="1141.0198,-122 1138.0198,-126 1117.0198,-126 1114.0198,-122 990.9802,-122 990.9802,-86 1141.0198,-86 1141.0198,-122"/>
<text text-anchor="middle" x="1066" y="-99.8" font-family="Times,serif" font-size="14.00" fill="#000000">MatProgressBarModule</text>
</g>
<!-- MatProgressBarModule&#45;&gt;SourceModule -->
<g id="edge25" class="edge">
<title>MatProgressBarModule&#45;&gt;SourceModule</title>
<path fill="none" stroke="#000000" d="M1066,-122.2228C1066,-142.3652 1066,-172 1066,-172 1066,-172 2298.5374,-172 2298.5374,-172"/>
<polygon fill="#000000" stroke="#000000" points="2298.5375,-175.5001 2308.5374,-172 2298.5374,-168.5001 2298.5375,-175.5001"/>
</g>
<!-- BrowserModule -->
<g id="node27" class="node">
<title>BrowserModule</title>
<polygon fill="#8dd3c7" stroke="#000000" points="972.4734,-122 969.4734,-126 948.4734,-126 945.4734,-122 865.5266,-122 865.5266,-86 972.4734,-86 972.4734,-122"/>
<text text-anchor="middle" x="919" y="-99.8" font-family="Times,serif" font-size="14.00" fill="#000000">BrowserModule</text>
</g>
<!-- BrowserModule&#45;&gt;SourceModule -->
<g id="edge26" class="edge">
<title>BrowserModule&#45;&gt;SourceModule</title>
<path fill="none" stroke="#000000" d="M919,-122.0267C919,-142.7672 919,-174 919,-174 919,-174 2298.4664,-174 2298.4664,-174"/>
<polygon fill="#000000" stroke="#000000" points="2298.4664,-177.5001 2308.4664,-174 2298.4663,-170.5001 2298.4664,-177.5001"/>
</g>
<!-- StoreModule.forFeature(args) -->
<g id="node28" class="node">
<title>StoreModule.forFeature(args)</title>
<polygon fill="#8dd3c7" stroke="#000000" points="847.5386,-122 844.5386,-126 823.5386,-126 820.5386,-122 664.4614,-122 664.4614,-86 847.5386,-86 847.5386,-122"/>
<text text-anchor="middle" x="756" y="-99.8" font-family="Times,serif" font-size="14.00" fill="#000000">StoreModule.forFeature(args)</text>
</g>
<!-- StoreModule.forFeature(args)&#45;&gt;SourceModule -->
<g id="edge27" class="edge">
<title>StoreModule.forFeature(args)&#45;&gt;SourceModule</title>
<path fill="none" stroke="#000000" d="M756,-122.1686C756,-143.498 756,-176 756,-176 756,-176 2298.7405,-176 2298.7405,-176"/>
<polygon fill="#000000" stroke="#000000" points="2298.7406,-179.5001 2308.7405,-176 2298.7405,-172.5001 2298.7406,-179.5001"/>
</g>
<!-- BrowserAnimationsModule -->
<g id="node29" class="node">
<title>BrowserAnimationsModule</title>
<polygon fill="#8dd3c7" stroke="#000000" points="646.3019,-122 643.3019,-126 622.3019,-126 619.3019,-122 473.6981,-122 473.6981,-86 646.3019,-86 646.3019,-122"/>
<text text-anchor="middle" x="560" y="-99.8" font-family="Times,serif" font-size="14.00" fill="#000000">BrowserAnimationsModule</text>
</g>
<!-- BrowserAnimationsModule&#45;&gt;SourceModule -->
<g id="edge28" class="edge">
<title>BrowserAnimationsModule&#45;&gt;SourceModule</title>
<path fill="none" stroke="#000000" d="M560,-122.2921C560,-144.2057 560,-178 560,-178 560,-178 2298.506,-178 2298.506,-178"/>
<polygon fill="#000000" stroke="#000000" points="2298.506,-181.5001 2308.506,-178 2298.506,-174.5001 2298.506,-181.5001"/>
</g>
<!-- RoutingModule -->
<g id="node30" class="node">
<title>RoutingModule</title>
<polygon fill="#8dd3c7" stroke="#000000" points="456.1681,-122 453.1681,-126 432.1681,-126 429.1681,-122 351.8319,-122 351.8319,-86 456.1681,-86 456.1681,-122"/>
<text text-anchor="middle" x="404" y="-99.8" font-family="Times,serif" font-size="14.00" fill="#000000">RoutingModule</text>
</g>
<!-- RoutingModule&#45;&gt;SourceModule -->
<g id="edge29" class="edge">
<title>RoutingModule&#45;&gt;SourceModule</title>
<path fill="none" stroke="#000000" d="M404,-122.2479C404,-145.0179 404,-181 404,-181 404,-181 2298.7213,-181 2298.7213,-181"/>
<polygon fill="#000000" stroke="#000000" points="2298.7214,-184.5001 2308.7213,-181 2298.7213,-177.5001 2298.7214,-184.5001"/>
</g>
<!-- EffectsModule.forFeature(args) -->
<g id="node31" class="node">
<title>EffectsModule.forFeature(args)</title>
<polygon fill="#8dd3c7" stroke="#000000" points="333.6282,-122 330.6282,-126 309.6282,-126 306.6282,-122 140.3718,-122 140.3718,-86 333.6282,-86 333.6282,-122"/>
<text text-anchor="middle" x="237" y="-99.8" font-family="Times,serif" font-size="14.00" fill="#000000">EffectsModule.forFeature(args)</text>
</g>
<!-- EffectsModule.forFeature(args)&#45;&gt;SourceModule -->
<g id="edge30" class="edge">
<title>EffectsModule.forFeature(args)&#45;&gt;SourceModule</title>
<path fill="none" stroke="#000000" d="M237,-122.3228C237,-145.6602 237,-183 237,-183 237,-183 2298.6936,-183 2298.6936,-183"/>
<polygon fill="#000000" stroke="#000000" points="2298.6937,-186.5001 2308.6936,-183 2298.6936,-179.5001 2298.6937,-186.5001"/>
</g>
<!-- SharedModule -->
<g id="node32" class="node">
<title>SharedModule</title>
<polygon fill="#8dd3c7" stroke="#000000" points="122.4231,-122 119.4231,-126 98.4231,-126 95.4231,-122 23.5769,-122 23.5769,-86 122.4231,-86 122.4231,-122"/>
<text text-anchor="middle" x="73" y="-99.8" font-family="Times,serif" font-size="14.00" fill="#000000">SharedModule</text>
</g>
<!-- SharedModule&#45;&gt;SourceModule -->
<g id="edge31" class="edge">
<title>SharedModule&#45;&gt;SourceModule</title>
<path fill="none" stroke="#000000" d="M73,-122.3802C73,-146.2785 73,-185 73,-185 73,-185 2298.6848,-185 2298.6848,-185"/>
<polygon fill="#000000" stroke="#000000" points="2298.6848,-188.5001 2308.6848,-185 2298.6848,-181.5001 2298.6848,-188.5001"/>
</g>
</g>
</svg>
