<?xml version="1.0" encoding="UTF-8" standalone="no"?>
<!DOCTYPE svg PUBLIC "-//W3C//DTD SVG 1.1//EN"
 "http://www.w3.org/Graphics/SVG/1.1/DTD/svg11.dtd">
<!-- Generated by graphviz version 2.40.1 (20161225.0304)
 -->
<!-- Title: dependencies Pages: 1 -->
<svg width="6227pt" height="284pt"
 viewBox="0.00 0.00 6227.00 284.00" xmlns="http://www.w3.org/2000/svg" xmlns:xlink="http://www.w3.org/1999/xlink">
<g id="graph0" class="graph" transform="scale(1 1) rotate(0) translate(4 280)">
<title>dependencies</title>
<polygon fill="#ffffff" stroke="transparent" points="-4,4 -4,-280 6223,-280 6223,4 -4,4"/>
<text text-anchor="start" x="3088.5091" y="-42.4" font-family="sans-serif" font-weight="bold" font-size="14.00" fill="#000000">Legend</text>
<polygon fill="#ffffb3" stroke="transparent" points="2875.5,-10 2875.5,-30 2895.5,-30 2895.5,-10 2875.5,-10"/>
<text text-anchor="start" x="2899.129" y="-15.4" font-family="sans-serif" font-size="14.00" fill="#000000"> &#160;Declarations</text>
<polygon fill="#8dd3c7" stroke="transparent" points="2988.5,-10 2988.5,-30 3008.5,-30 3008.5,-10 2988.5,-10"/>
<text text-anchor="start" x="3012.2251" y="-15.4" font-family="sans-serif" font-size="14.00" fill="#000000"> &#160;Module</text>
<polygon fill="#80b1d3" stroke="transparent" points="3074.5,-10 3074.5,-30 3094.5,-30 3094.5,-10 3074.5,-10"/>
<text text-anchor="start" x="3098.2812" y="-15.4" font-family="sans-serif" font-size="14.00" fill="#000000"> &#160;Bootstrap</text>
<polygon fill="#fdb462" stroke="transparent" points="3171.5,-10 3171.5,-30 3191.5,-30 3191.5,-10 3171.5,-10"/>
<text text-anchor="start" x="3195.1732" y="-15.4" font-family="sans-serif" font-size="14.00" fill="#000000"> &#160;Providers</text>
<polygon fill="#fb8072" stroke="transparent" points="3267.5,-10 3267.5,-30 3287.5,-30 3287.5,-10 3267.5,-10"/>
<text text-anchor="start" x="3291.2258" y="-15.4" font-family="sans-serif" font-size="14.00" fill="#000000"> &#160;Exports</text>
<g id="clust1" class="cluster">
<title>cluster_OrderModule</title>
<polygon fill="none" stroke="#000000" stroke-dasharray="1,5" points="8,-70 8,-268 6211,-268 6211,-70 8,-70"/>
</g>
<g id="clust2" class="cluster">
<title>cluster_OrderModule_declarations</title>
<polygon fill="none" stroke="#000000" points="4108,-78 4108,-130 6203,-130 6203,-78 4108,-78"/>
</g>
<g id="clust16" class="cluster">
<title>cluster_OrderModule_imports</title>
<polygon fill="none" stroke="#000000" points="16,-78 16,-130 4100,-130 4100,-78 16,-78"/>
</g>
<g id="clust17" class="cluster">
<title>cluster_OrderModule_exports</title>
<polygon fill="none" stroke="#000000" points="2918,-208 2918,-260 3078,-260 3078,-208 2918,-208"/>
</g>
<!-- TestComponent -->
<g id="node1" class="node">
<title>TestComponent</title>
<polygon fill="#ffffb3" stroke="#000000" points="6194.9357,-122 6089.0643,-122 6089.0643,-86 6194.9357,-86 6194.9357,-122"/>
<text text-anchor="middle" x="6142" y="-99.8" font-family="Times,serif" font-size="14.00" fill="#000000">TestComponent</text>
</g>
<!-- OrderModule -->
<g id="node14" class="node">
<title>OrderModule</title>
<polygon fill="#8dd3c7" stroke="#000000" points="3044.1924,-187 3041.1924,-191 3020.1924,-191 3017.1924,-187 2951.8076,-187 2951.8076,-151 3044.1924,-151 3044.1924,-187"/>
<text text-anchor="middle" x="2998" y="-164.8" font-family="Times,serif" font-size="14.00" fill="#000000">OrderModule</text>
</g>
<!-- TestComponent&#45;&gt;OrderModule -->
<g id="edge1" class="edge">
<title>TestComponent&#45;&gt;OrderModule</title>
<path fill="none" stroke="#000000" d="M6142,-122.1985C6142,-146.3563 6142,-186 6142,-186 6142,-186 3054.2683,-186 3054.2683,-186"/>
<polygon fill="#000000" stroke="#000000" points="3054.2683,-182.5001 3044.2683,-186 3054.2682,-189.5001 3054.2683,-182.5001"/>
</g>
<!-- OrderComponent -->
<g id="node2" class="node">
<title>OrderComponent</title>
<polygon fill="#ffffb3" stroke="#000000" points="6070.9748,-122 5957.0252,-122 5957.0252,-86 6070.9748,-86 6070.9748,-122"/>
<text text-anchor="middle" x="6014" y="-99.8" font-family="Times,serif" font-size="14.00" fill="#000000">OrderComponent</text>
</g>
<!-- OrderComponent&#45;&gt;OrderModule -->
<g id="edge2" class="edge">
<title>OrderComponent&#45;&gt;OrderModule</title>
<path fill="none" stroke="#000000" d="M6014,-122.1532C6014,-145.7566 6014,-184 6014,-184 6014,-184 3054.1673,-184 3054.1673,-184"/>
<polygon fill="#000000" stroke="#000000" points="3054.1673,-180.5001 3044.1673,-184 3054.1672,-187.5001 3054.1673,-180.5001"/>
</g>
<!-- NewOrderComponent -->
<g id="node3" class="node">
<title>NewOrderComponent</title>
<polygon fill="#ffffb3" stroke="#000000" points="5939.4032,-122 5798.5968,-122 5798.5968,-86 5939.4032,-86 5939.4032,-122"/>
<text text-anchor="middle" x="5869" y="-99.8" font-family="Times,serif" font-size="14.00" fill="#000000">NewOrderComponent</text>
</g>
<!-- NewOrderComponent&#45;&gt;OrderModule -->
<g id="edge3" class="edge">
<title>NewOrderComponent&#45;&gt;OrderModule</title>
<path fill="none" stroke="#000000" d="M5869,-122.0908C5869,-145.1328 5869,-182 5869,-182 5869,-182 3054.2594,-182 3054.2594,-182"/>
<polygon fill="#000000" stroke="#000000" points="3054.2594,-178.5001 3044.2594,-182 3054.2594,-185.5001 3054.2594,-178.5001"/>
</g>
<!-- CompareComponent -->
<g id="node4" class="node">
<title>CompareComponent</title>
<polygon fill="#ffffb3" stroke="#000000" points="5780.1499,-122 5647.8501,-122 5647.8501,-86 5780.1499,-86 5780.1499,-122"/>
<text text-anchor="middle" x="5714" y="-99.8" font-family="Times,serif" font-size="14.00" fill="#000000">CompareComponent</text>
</g>
<!-- CompareComponent&#45;&gt;OrderModule -->
<g id="edge4" class="edge">
<title>CompareComponent&#45;&gt;OrderModule</title>
<path fill="none" stroke="#000000" d="M5714,-122.2479C5714,-145.0179 5714,-181 5714,-181 5714,-181 3054.2853,-181 3054.2853,-181"/>
<polygon fill="#000000" stroke="#000000" points="3054.2854,-177.5001 3044.2853,-181 3054.2853,-184.5001 3054.2854,-177.5001"/>
</g>
<!-- PoliciesCompareItemComponent -->
<g id="node5" class="node">
<title>PoliciesCompareItemComponent</title>
<polygon fill="#ffffb3" stroke="#000000" points="5629.1343,-122 5426.8657,-122 5426.8657,-86 5629.1343,-86 5629.1343,-122"/>
<text text-anchor="middle" x="5528" y="-99.8" font-family="Times,serif" font-size="14.00" fill="#000000">PoliciesCompareItemComponent</text>
</g>
<!-- PoliciesCompareItemComponent&#45;&gt;OrderModule -->
<g id="edge5" class="edge">
<title>PoliciesCompareItemComponent&#45;&gt;OrderModule</title>
<path fill="none" stroke="#000000" d="M5528,-122.1554C5528,-144.3519 5528,-179 5528,-179 5528,-179 3054.346,-179 3054.346,-179"/>
<polygon fill="#000000" stroke="#000000" points="3054.346,-175.5001 3044.346,-179 3054.346,-182.5001 3054.346,-175.5001"/>
</g>
<!-- InsurerInfoComponent -->
<g id="node6" class="node">
<title>InsurerInfoComponent</title>
<polygon fill="#ffffb3" stroke="#000000" points="5409.2949,-122 5264.7051,-122 5264.7051,-86 5409.2949,-86 5409.2949,-122"/>
<text text-anchor="middle" x="5337" y="-99.8" font-family="Times,serif" font-size="14.00" fill="#000000">InsurerInfoComponent</text>
</g>
<!-- InsurerInfoComponent&#45;&gt;OrderModule -->
<g id="edge6" class="edge">
<title>InsurerInfoComponent&#45;&gt;OrderModule</title>
<path fill="none" stroke="#000000" d="M5337,-122.0449C5337,-143.6623 5337,-177 5337,-177 5337,-177 3054.1966,-177 3054.1966,-177"/>
<polygon fill="#000000" stroke="#000000" points="3054.1967,-173.5001 3044.1966,-177 3054.1966,-180.5001 3054.1967,-173.5001"/>
</g>
<!-- PurchaseComponent -->
<g id="node7" class="node">
<title>PurchaseComponent</title>
<polygon fill="#ffffb3" stroke="#000000" points="5246.8641,-122 5115.1359,-122 5115.1359,-86 5246.8641,-86 5246.8641,-122"/>
<text text-anchor="middle" x="5181" y="-99.8" font-family="Times,serif" font-size="14.00" fill="#000000">PurchaseComponent</text>
</g>
<!-- PurchaseComponent&#45;&gt;OrderModule -->
<g id="edge7" class="edge">
<title>PurchaseComponent&#45;&gt;OrderModule</title>
<path fill="none" stroke="#000000" d="M5181,-122.2843C5181,-143.3211 5181,-175 5181,-175 5181,-175 3054.0987,-175 3054.0987,-175"/>
<polygon fill="#000000" stroke="#000000" points="3054.0988,-171.5001 3044.0987,-175 3054.0987,-178.5001 3054.0988,-171.5001"/>
</g>
<!-- ReviewOrderComponent -->
<g id="node8" class="node">
<title>ReviewOrderComponent</title>
<polygon fill="#ffffb3" stroke="#000000" points="5097.238,-122 4940.762,-122 4940.762,-86 5097.238,-86 5097.238,-122"/>
<text text-anchor="middle" x="5019" y="-99.8" font-family="Times,serif" font-size="14.00" fill="#000000">ReviewOrderComponent</text>
</g>
<!-- ReviewOrderComponent&#45;&gt;OrderModule -->
<g id="edge8" class="edge">
<title>ReviewOrderComponent&#45;&gt;OrderModule</title>
<path fill="none" stroke="#000000" d="M5019,-122.0267C5019,-142.7672 5019,-174 5019,-174 5019,-174 3054.494,-174 3054.494,-174"/>
<polygon fill="#000000" stroke="#000000" points="3054.494,-170.5001 3044.494,-174 3054.4939,-177.5001 3054.494,-170.5001"/>
</g>
<!-- MyOrdersComponent -->
<g id="node9" class="node">
<title>MyOrdersComponent</title>
<polygon fill="#ffffb3" stroke="#000000" points="4922.3641,-122 4783.6359,-122 4783.6359,-86 4922.3641,-86 4922.3641,-122"/>
<text text-anchor="middle" x="4853" y="-99.8" font-family="Times,serif" font-size="14.00" fill="#000000">MyOrdersComponent</text>
</g>
<!-- MyOrdersComponent&#45;&gt;OrderModule -->
<g id="edge9" class="edge">
<title>MyOrdersComponent&#45;&gt;OrderModule</title>
<path fill="none" stroke="#000000" d="M4853,-122.2228C4853,-142.3652 4853,-172 4853,-172 4853,-172 3054.317,-172 3054.317,-172"/>
<polygon fill="#000000" stroke="#000000" points="3054.317,-168.5001 3044.317,-172 3054.317,-175.5001 3054.317,-168.5001"/>
</g>
<!-- ViewOrderComponent -->
<g id="node10" class="node">
<title>ViewOrderComponent</title>
<polygon fill="#ffffb3" stroke="#000000" points="4765.2935,-122 4620.7065,-122 4620.7065,-86 4765.2935,-86 4765.2935,-122"/>
<text text-anchor="middle" x="4693" y="-99.8" font-family="Times,serif" font-size="14.00" fill="#000000">ViewOrderComponent</text>
</g>
<!-- ViewOrderComponent&#45;&gt;OrderModule -->
<g id="edge10" class="edge">
<title>ViewOrderComponent&#45;&gt;OrderModule</title>
<path fill="none" stroke="#000000" d="M4693,-122.0348C4693,-141.5762 4693,-170 4693,-170 4693,-170 3054.2162,-170 3054.2162,-170"/>
<polygon fill="#000000" stroke="#000000" points="3054.2163,-166.5001 3044.2162,-170 3054.2162,-173.5001 3054.2163,-166.5001"/>
</g>
<!-- CartableComponent -->
<g id="node11" class="node">
<title>CartableComponent</title>
<polygon fill="#ffffb3" stroke="#000000" points="4602.2548,-122 4473.7452,-122 4473.7452,-86 4602.2548,-86 4602.2548,-122"/>
<text text-anchor="middle" x="4538" y="-99.8" font-family="Times,serif" font-size="14.00" fill="#000000">CartableComponent</text>
</g>
<!-- CartableComponent&#45;&gt;OrderModule -->
<g id="edge11" class="edge">
<title>CartableComponent&#45;&gt;OrderModule</title>
<path fill="none" stroke="#000000" d="M4538,-122.1061C4538,-141.3391 4538,-169 4538,-169 4538,-169 3054.5087,-169 3054.5087,-169"/>
<polygon fill="#000000" stroke="#000000" points="3054.5087,-165.5001 3044.5087,-169 3054.5087,-172.5001 3054.5087,-165.5001"/>
</g>
<!-- RedirectToBankComponent -->
<g id="node12" class="node">
<title>RedirectToBankComponent</title>
<polygon fill="#ffffb3" stroke="#000000" points="4455.8585,-122 4282.1415,-122 4282.1415,-86 4455.8585,-86 4455.8585,-122"/>
<text text-anchor="middle" x="4369" y="-99.8" font-family="Times,serif" font-size="14.00" fill="#000000">RedirectToBankComponent</text>
</g>
<!-- RedirectToBankComponent&#45;&gt;OrderModule -->
<g id="edge12" class="edge">
<title>RedirectToBankComponent&#45;&gt;OrderModule</title>
<path fill="none" stroke="#000000" d="M4369,-122.2222C4369,-140.8285 4369,-167 4369,-167 4369,-167 3054.4012,-167 3054.4012,-167"/>
<polygon fill="#000000" stroke="#000000" points="3054.4013,-163.5001 3044.4012,-167 3054.4012,-170.5001 3054.4013,-163.5001"/>
</g>
<!-- DestroyableComponent -->
<g id="node13" class="node">
<title>DestroyableComponent</title>
<polygon fill="#ffffb3" stroke="#000000" points="4264.4692,-122 4115.5308,-122 4115.5308,-86 4264.4692,-86 4264.4692,-122"/>
<text text-anchor="middle" x="4190" y="-99.8" font-family="Times,serif" font-size="14.00" fill="#000000">DestroyableComponent</text>
</g>
<!-- DestroyableComponent&#45;&gt;OrderModule -->
<g id="edge13" class="edge">
<title>DestroyableComponent&#45;&gt;OrderModule</title>
<path fill="none" stroke="#000000" d="M4190,-122.302C4190,-140.2699 4190,-165 4190,-165 4190,-165 3054.362,-165 3054.362,-165"/>
<polygon fill="#000000" stroke="#000000" points="3054.362,-161.5001 3044.362,-165 3054.3619,-168.5001 3054.362,-161.5001"/>
</g>
<!-- NewOrderComponent  -->
<g id="node44" class="node">
<title>NewOrderComponent </title>
<polygon fill="#fb8072" stroke="#000000" points="3069.9026,-252 2926.0974,-252 2926.0974,-216 3069.9026,-216 3069.9026,-252"/>
<text text-anchor="middle" x="2998" y="-229.8" font-family="Times,serif" font-size="14.00" fill="#000000">NewOrderComponent </text>
</g>
<!-- OrderModule&#45;&gt;NewOrderComponent  -->
<g id="edge43" class="edge">
<title>OrderModule&#45;&gt;NewOrderComponent </title>
<path fill="none" stroke="#000000" stroke-dasharray="5,2" d="M2998,-187.1061C2998,-187.1061 2998,-205.991 2998,-205.991"/>
<polygon fill="#000000" stroke="#000000" points="2994.5001,-205.9909 2998,-215.991 3001.5001,-205.991 2994.5001,-205.9909"/>
</g>
<!-- CommonModule -->
<g id="node15" class="node">
<title>CommonModule</title>
<polygon fill="#8dd3c7" stroke="#000000" points="4091.6681,-122 4088.6681,-126 4067.6681,-126 4064.6681,-122 3980.3319,-122 3980.3319,-86 4091.6681,-86 4091.6681,-122"/>
<text text-anchor="middle" x="4036" y="-99.8" font-family="Times,serif" font-size="14.00" fill="#000000">CommonModule</text>
</g>
<!-- CommonModule&#45;&gt;OrderModule -->
<g id="edge14" class="edge">
<title>CommonModule&#45;&gt;OrderModule</title>
<path fill="none" stroke="#000000" d="M4036,-122.0225C4036,-139.3734 4036,-163 4036,-163 4036,-163 3054.2785,-163 3054.2785,-163"/>
<polygon fill="#000000" stroke="#000000" points="3054.2785,-159.5001 3044.2785,-163 3054.2785,-166.5001 3054.2785,-159.5001"/>
</g>
<!-- RouterModule -->
<g id="node16" class="node">
<title>RouterModule</title>
<polygon fill="#8dd3c7" stroke="#000000" points="3961.6528,-122 3958.6528,-126 3937.6528,-126 3934.6528,-122 3864.3472,-122 3864.3472,-86 3961.6528,-86 3961.6528,-122"/>
<text text-anchor="middle" x="3913" y="-99.8" font-family="Times,serif" font-size="14.00" fill="#000000">RouterModule</text>
</g>
<!-- RouterModule&#45;&gt;OrderModule -->
<g id="edge15" class="edge">
<title>RouterModule&#45;&gt;OrderModule</title>
<path fill="none" stroke="#000000" d="M3913,-122.0336C3913,-139.0597 3913,-162 3913,-162 3913,-162 3054.317,-162 3054.317,-162"/>
<polygon fill="#000000" stroke="#000000" points="3054.3171,-158.5001 3044.317,-162 3054.317,-165.5001 3054.3171,-158.5001"/>
</g>
<!-- MatFormFieldModule -->
<g id="node17" class="node">
<title>MatFormFieldModule</title>
<polygon fill="#8dd3c7" stroke="#000000" points="3846.712,-122 3843.712,-126 3822.712,-126 3819.712,-122 3705.288,-122 3705.288,-86 3846.712,-86 3846.712,-122"/>
<text text-anchor="middle" x="3776" y="-99.8" font-family="Times,serif" font-size="14.00" fill="#000000">MatFormFieldModule</text>
</g>
<!-- MatFormFieldModule&#45;&gt;OrderModule -->
<g id="edge16" class="edge">
<title>MatFormFieldModule&#45;&gt;OrderModule</title>
<path fill="none" stroke="#000000" d="M3776,-122.027C3776,-138.3976 3776,-160 3776,-160 3776,-160 3054.3375,-160 3054.3375,-160"/>
<polygon fill="#000000" stroke="#000000" points="3054.3376,-156.5001 3044.3375,-160 3054.3375,-163.5001 3054.3376,-156.5001"/>
</g>
<!-- ReactiveFormsModule -->
<g id="node18" class="node">
<title>ReactiveFormsModule</title>
<polygon fill="#8dd3c7" stroke="#000000" points="3687.3047,-122 3684.3047,-126 3663.3047,-126 3660.3047,-122 3542.6953,-122 3542.6953,-86 3687.3047,-86 3687.3047,-122"/>
<text text-anchor="middle" x="3615" y="-99.8" font-family="Times,serif" font-size="14.00" fill="#000000">ReactiveFormsModule</text>
</g>
<!-- ReactiveFormsModule&#45;&gt;OrderModule -->
<g id="edge17" class="edge">
<title>ReactiveFormsModule&#45;&gt;OrderModule</title>
<path fill="none" stroke="#000000" d="M3615,-122.2819C3615,-137.9478 3615,-158 3615,-158 3615,-158 3054.123,-158 3054.123,-158"/>
<polygon fill="#000000" stroke="#000000" points="3054.123,-154.5001 3044.123,-158 3054.1229,-161.5001 3054.123,-154.5001"/>
</g>
<!-- FormsModule -->
<g id="node19" class="node">
<title>FormsModule</title>
<polygon fill="#8dd3c7" stroke="#000000" points="3524.8288,-122 3521.8288,-126 3500.8288,-126 3497.8288,-122 3429.1712,-122 3429.1712,-86 3524.8288,-86 3524.8288,-122"/>
<text text-anchor="middle" x="3477" y="-99.8" font-family="Times,serif" font-size="14.00" fill="#000000">FormsModule</text>
</g>
<!-- FormsModule&#45;&gt;OrderModule -->
<g id="edge18" class="edge">
<title>FormsModule&#45;&gt;OrderModule</title>
<path fill="none" stroke="#000000" d="M3477,-122.2396C3477,-137.5706 3477,-157 3477,-157 3477,-157 3054.3638,-157 3054.3638,-157"/>
<polygon fill="#000000" stroke="#000000" points="3054.3638,-153.5001 3044.3638,-157 3054.3637,-160.5001 3054.3638,-153.5001"/>
</g>
<!-- MatSelectModule -->
<g id="node20" class="node">
<title>MatSelectModule</title>
<polygon fill="#8dd3c7" stroke="#000000" points="3411.3076,-122 3408.3076,-126 3387.3076,-126 3384.3076,-122 3294.6924,-122 3294.6924,-86 3411.3076,-86 3411.3076,-122"/>
<text text-anchor="middle" x="3353" y="-99.8" font-family="Times,serif" font-size="14.00" fill="#000000">MatSelectModule</text>
</g>
<!-- MatSelectModule&#45;&gt;OrderModule -->
<g id="edge19" class="edge">
<title>MatSelectModule&#45;&gt;OrderModule</title>
<path fill="none" stroke="#000000" d="M3353,-122.1243C3353,-136.7832 3353,-155 3353,-155 3353,-155 3054.4101,-155 3054.4101,-155"/>
<polygon fill="#000000" stroke="#000000" points="3054.4101,-151.5001 3044.4101,-155 3054.41,-158.5001 3054.4101,-151.5001"/>
</g>
<!-- MatInputModule -->
<g id="node21" class="node">
<title>MatInputModule</title>
<polygon fill="#8dd3c7" stroke="#000000" points="3276.6513,-122 3273.6513,-126 3252.6513,-126 3249.6513,-122 3165.3487,-122 3165.3487,-86 3276.6513,-86 3276.6513,-122"/>
<text text-anchor="middle" x="3221" y="-99.8" font-family="Times,serif" font-size="14.00" fill="#000000">MatInputModule</text>
</g>
<!-- MatInputModule&#45;&gt;OrderModule -->
<g id="edge20" class="edge">
<title>MatInputModule&#45;&gt;OrderModule</title>
<path fill="none" stroke="#000000" d="M3221,-122.2458C3221,-136.1772 3221,-153 3221,-153 3221,-153 3054.2057,-153 3054.2057,-153"/>
<polygon fill="#000000" stroke="#000000" points="3054.2058,-149.5001 3044.2057,-153 3054.2057,-156.5001 3054.2058,-149.5001"/>
</g>
<!-- MatSlideToggleModule -->
<g id="node22" class="node">
<title>MatSlideToggleModule</title>
<polygon fill="#8dd3c7" stroke="#000000" points="3147.0365,-122 3144.0365,-126 3123.0365,-126 3120.0365,-122 2996.9635,-122 2996.9635,-86 3147.0365,-86 3147.0365,-122"/>
<text text-anchor="middle" x="3072" y="-99.8" font-family="Times,serif" font-size="14.00" fill="#000000">MatSlideToggleModule</text>
</g>
<!-- MatSlideToggleModule&#45;&gt;OrderModule -->
<g id="edge21" class="edge">
<title>MatSlideToggleModule&#45;&gt;OrderModule</title>
<path fill="none" stroke="#000000" d="M3020.4141,-122.1061C3020.4141,-122.1061 3020.4141,-140.991 3020.4141,-140.991"/>
<polygon fill="#000000" stroke="#000000" points="3016.9142,-140.9909 3020.4141,-150.991 3023.9142,-140.991 3016.9142,-140.9909"/>
</g>
<!-- MatTabsModule -->
<g id="node23" class="node">
<title>MatTabsModule</title>
<polygon fill="#8dd3c7" stroke="#000000" points="2978.8118,-122 2975.8118,-126 2954.8118,-126 2951.8118,-122 2869.1882,-122 2869.1882,-86 2978.8118,-86 2978.8118,-122"/>
<text text-anchor="middle" x="2924" y="-99.8" font-family="Times,serif" font-size="14.00" fill="#000000">MatTabsModule</text>
</g>
<!-- MatTabsModule&#45;&gt;OrderModule -->
<g id="edge22" class="edge">
<title>MatTabsModule&#45;&gt;OrderModule</title>
<path fill="none" stroke="#000000" d="M2965.2798,-122.1061C2965.2798,-122.1061 2965.2798,-140.991 2965.2798,-140.991"/>
<polygon fill="#000000" stroke="#000000" points="2961.7799,-140.9909 2965.2798,-150.991 2968.7799,-140.991 2961.7799,-140.9909"/>
</g>
<!-- MatListModule -->
<g id="node24" class="node">
<title>MatListModule</title>
<polygon fill="#8dd3c7" stroke="#000000" points="2850.8781,-122 2847.8781,-126 2826.8781,-126 2823.8781,-122 2747.1219,-122 2747.1219,-86 2850.8781,-86 2850.8781,-122"/>
<text text-anchor="middle" x="2799" y="-99.8" font-family="Times,serif" font-size="14.00" fill="#000000">MatListModule</text>
</g>
<!-- MatListModule&#45;&gt;OrderModule -->
<g id="edge23" class="edge">
<title>MatListModule&#45;&gt;OrderModule</title>
<path fill="none" stroke="#000000" d="M2799,-122.2458C2799,-136.1772 2799,-153 2799,-153 2799,-153 2941.8452,-153 2941.8452,-153"/>
<polygon fill="#000000" stroke="#000000" points="2941.8452,-156.5001 2951.8452,-153 2941.8452,-149.5001 2941.8452,-156.5001"/>
</g>
<!-- MatIconModule -->
<g id="node25" class="node">
<title>MatIconModule</title>
<polygon fill="#8dd3c7" stroke="#000000" points="2729.4748,-122 2726.4748,-126 2705.4748,-126 2702.4748,-122 2622.5252,-122 2622.5252,-86 2729.4748,-86 2729.4748,-122"/>
<text text-anchor="middle" x="2676" y="-99.8" font-family="Times,serif" font-size="14.00" fill="#000000">MatIconModule</text>
</g>
<!-- MatIconModule&#45;&gt;OrderModule -->
<g id="edge24" class="edge">
<title>MatIconModule&#45;&gt;OrderModule</title>
<path fill="none" stroke="#000000" d="M2676,-122.1243C2676,-136.7832 2676,-155 2676,-155 2676,-155 2941.8653,-155 2941.8653,-155"/>
<polygon fill="#000000" stroke="#000000" points="2941.8653,-158.5001 2951.8653,-155 2941.8652,-151.5001 2941.8653,-158.5001"/>
</g>
<!-- MatButtonModule -->
<g id="node26" class="node">
<title>MatButtonModule</title>
<polygon fill="#8dd3c7" stroke="#000000" points="2604.2176,-122 2601.2176,-126 2580.2176,-126 2577.2176,-122 2483.7824,-122 2483.7824,-86 2604.2176,-86 2604.2176,-122"/>
<text text-anchor="middle" x="2544" y="-99.8" font-family="Times,serif" font-size="14.00" fill="#000000">MatButtonModule</text>
</g>
<!-- MatButtonModule&#45;&gt;OrderModule -->
<g id="edge25" class="edge">
<title>MatButtonModule&#45;&gt;OrderModule</title>
<path fill="none" stroke="#000000" d="M2544,-122.2396C2544,-137.5706 2544,-157 2544,-157 2544,-157 2941.5476,-157 2941.5476,-157"/>
<polygon fill="#000000" stroke="#000000" points="2941.5476,-160.5001 2951.5476,-157 2941.5476,-153.5001 2941.5476,-160.5001"/>
</g>
<!-- MatTooltipModule -->
<g id="node27" class="node">
<title>MatTooltipModule</title>
<polygon fill="#8dd3c7" stroke="#000000" points="2465.8244,-122 2462.8244,-126 2441.8244,-126 2438.8244,-122 2342.1756,-122 2342.1756,-86 2465.8244,-86 2465.8244,-122"/>
<text text-anchor="middle" x="2404" y="-99.8" font-family="Times,serif" font-size="14.00" fill="#000000">MatTooltipModule</text>
</g>
<!-- MatTooltipModule&#45;&gt;OrderModule -->
<g id="edge26" class="edge">
<title>MatTooltipModule&#45;&gt;OrderModule</title>
<path fill="none" stroke="#000000" d="M2404,-122.2819C2404,-137.9478 2404,-158 2404,-158 2404,-158 2941.8841,-158 2941.8841,-158"/>
<polygon fill="#000000" stroke="#000000" points="2941.8841,-161.5001 2951.8841,-158 2941.8841,-154.5001 2941.8841,-161.5001"/>
</g>
<!-- MatChipsModule -->
<g id="node28" class="node">
<title>MatChipsModule</title>
<polygon fill="#8dd3c7" stroke="#000000" points="2324.2716,-122 2321.2716,-126 2300.2716,-126 2297.2716,-122 2209.7284,-122 2209.7284,-86 2324.2716,-86 2324.2716,-122"/>
<text text-anchor="middle" x="2267" y="-99.8" font-family="Times,serif" font-size="14.00" fill="#000000">MatChipsModule</text>
</g>
<!-- MatChipsModule&#45;&gt;OrderModule -->
<g id="edge27" class="edge">
<title>MatChipsModule&#45;&gt;OrderModule</title>
<path fill="none" stroke="#000000" d="M2267,-122.027C2267,-138.3976 2267,-160 2267,-160 2267,-160 2941.7181,-160 2941.7181,-160"/>
<polygon fill="#000000" stroke="#000000" points="2941.7181,-163.5001 2951.7181,-160 2941.7181,-156.5001 2941.7181,-163.5001"/>
</g>
<!-- MatRadioModule -->
<g id="node29" class="node">
<title>MatRadioModule</title>
<polygon fill="#8dd3c7" stroke="#000000" points="2191.5423,-122 2188.5423,-126 2167.5423,-126 2164.5423,-122 2076.4577,-122 2076.4577,-86 2191.5423,-86 2191.5423,-122"/>
<text text-anchor="middle" x="2134" y="-99.8" font-family="Times,serif" font-size="14.00" fill="#000000">MatRadioModule</text>
</g>
<!-- MatRadioModule&#45;&gt;OrderModule -->
<g id="edge28" class="edge">
<title>MatRadioModule&#45;&gt;OrderModule</title>
<path fill="none" stroke="#000000" d="M2134,-122.0336C2134,-139.0597 2134,-162 2134,-162 2134,-162 2941.8531,-162 2941.8531,-162"/>
<polygon fill="#000000" stroke="#000000" points="2941.8531,-165.5001 2951.8531,-162 2941.853,-158.5001 2941.8531,-165.5001"/>
</g>
<!-- SharedModule -->
<g id="node30" class="node">
<title>SharedModule</title>
<polygon fill="#8dd3c7" stroke="#000000" points="2058.4231,-122 2055.4231,-126 2034.4231,-126 2031.4231,-122 1959.5769,-122 1959.5769,-86 2058.4231,-86 2058.4231,-122"/>
<text text-anchor="middle" x="2009" y="-99.8" font-family="Times,serif" font-size="14.00" fill="#000000">SharedModule</text>
</g>
<!-- SharedModule&#45;&gt;OrderModule -->
<g id="edge29" class="edge">
<title>SharedModule&#45;&gt;OrderModule</title>
<path fill="none" stroke="#000000" d="M2009,-122.0225C2009,-139.3734 2009,-163 2009,-163 2009,-163 2941.625,-163 2941.625,-163"/>
<polygon fill="#000000" stroke="#000000" points="2941.625,-166.5001 2951.625,-163 2941.625,-159.5001 2941.625,-166.5001"/>
</g>
<!-- MatTableModule -->
<g id="node31" class="node">
<title>MatTableModule</title>
<polygon fill="#8dd3c7" stroke="#000000" points="1941.972,-122 1938.972,-126 1917.972,-126 1914.972,-122 1828.028,-122 1828.028,-86 1941.972,-86 1941.972,-122"/>
<text text-anchor="middle" x="1885" y="-99.8" font-family="Times,serif" font-size="14.00" fill="#000000">MatTableModule</text>
</g>
<!-- MatTableModule&#45;&gt;OrderModule -->
<g id="edge30" class="edge">
<title>MatTableModule&#45;&gt;OrderModule</title>
<path fill="none" stroke="#000000" d="M1885,-122.302C1885,-140.2699 1885,-165 1885,-165 1885,-165 2941.5928,-165 2941.5928,-165"/>
<polygon fill="#000000" stroke="#000000" points="2941.5928,-168.5001 2951.5928,-165 2941.5928,-161.5001 2941.5928,-168.5001"/>
</g>
<!-- MatStepperModule -->
<g id="node32" class="node">
<title>MatStepperModule</title>
<polygon fill="#8dd3c7" stroke="#000000" points="1810.3627,-122 1807.3627,-126 1786.3627,-126 1783.3627,-122 1685.6373,-122 1685.6373,-86 1810.3627,-86 1810.3627,-122"/>
<text text-anchor="middle" x="1748" y="-99.8" font-family="Times,serif" font-size="14.00" fill="#000000">MatStepperModule</text>
</g>
<!-- MatStepperModule&#45;&gt;OrderModule -->
<g id="edge31" class="edge">
<title>MatStepperModule&#45;&gt;OrderModule</title>
<path fill="none" stroke="#000000" d="M1748,-122.2222C1748,-140.8285 1748,-167 1748,-167 1748,-167 2941.6553,-167 2941.6553,-167"/>
<polygon fill="#000000" stroke="#000000" points="2941.6554,-170.5001 2951.6553,-167 2941.6553,-163.5001 2941.6554,-170.5001"/>
</g>
<!-- MatSidenavModule -->
<g id="node33" class="node">
<title>MatSidenavModule</title>
<polygon fill="#8dd3c7" stroke="#000000" points="1667.7022,-122 1664.7022,-126 1643.7022,-126 1640.7022,-122 1540.2978,-122 1540.2978,-86 1667.7022,-86 1667.7022,-122"/>
<text text-anchor="middle" x="1604" y="-99.8" font-family="Times,serif" font-size="14.00" fill="#000000">MatSidenavModule</text>
</g>
<!-- MatSidenavModule&#45;&gt;OrderModule -->
<g id="edge32" class="edge">
<title>MatSidenavModule&#45;&gt;OrderModule</title>
<path fill="none" stroke="#000000" d="M1604,-122.1061C1604,-141.3391 1604,-169 1604,-169 1604,-169 2941.6191,-169 2941.6191,-169"/>
<polygon fill="#000000" stroke="#000000" points="2941.6192,-172.5001 2951.6191,-169 2941.6191,-165.5001 2941.6192,-172.5001"/>
</g>
<!-- MatCheckboxModule -->
<g id="node34" class="node">
<title>MatCheckboxModule</title>
<polygon fill="#8dd3c7" stroke="#000000" points="1522.3655,-122 1519.3655,-126 1498.3655,-126 1495.3655,-122 1383.6345,-122 1383.6345,-86 1522.3655,-86 1522.3655,-122"/>
<text text-anchor="middle" x="1453" y="-99.8" font-family="Times,serif" font-size="14.00" fill="#000000">MatCheckboxModule</text>
</g>
<!-- MatCheckboxModule&#45;&gt;OrderModule -->
<g id="edge33" class="edge">
<title>MatCheckboxModule&#45;&gt;OrderModule</title>
<path fill="none" stroke="#000000" d="M1453,-122.0348C1453,-141.5762 1453,-170 1453,-170 1453,-170 2941.7612,-170 2941.7612,-170"/>
<polygon fill="#000000" stroke="#000000" points="2941.7613,-173.5001 2951.7612,-170 2941.7612,-166.5001 2941.7613,-173.5001"/>
</g>
<!-- MatCardModule -->
<g id="node35" class="node">
<title>MatCardModule</title>
<polygon fill="#8dd3c7" stroke="#000000" points="1365.8118,-122 1362.8118,-126 1341.8118,-126 1338.8118,-122 1256.1882,-122 1256.1882,-86 1365.8118,-86 1365.8118,-122"/>
<text text-anchor="middle" x="1311" y="-99.8" font-family="Times,serif" font-size="14.00" fill="#000000">MatCardModule</text>
</g>
<!-- MatCardModule&#45;&gt;OrderModule -->
<g id="edge34" class="edge">
<title>MatCardModule&#45;&gt;OrderModule</title>
<path fill="none" stroke="#000000" d="M1311,-122.2228C1311,-142.3652 1311,-172 1311,-172 1311,-172 2941.5615,-172 2941.5615,-172"/>
<polygon fill="#000000" stroke="#000000" points="2941.5616,-175.5001 2951.5615,-172 2941.5615,-168.5001 2941.5616,-175.5001"/>
</g>
<!-- MatDatepickerModule -->
<g id="node36" class="node">
<title>MatDatepickerModule</title>
<polygon fill="#8dd3c7" stroke="#000000" points="1238.5072,-122 1235.5072,-126 1214.5072,-126 1211.5072,-122 1095.4928,-122 1095.4928,-86 1238.5072,-86 1238.5072,-122"/>
<text text-anchor="middle" x="1167" y="-99.8" font-family="Times,serif" font-size="14.00" fill="#000000">MatDatepickerModule</text>
</g>
<!-- MatDatepickerModule&#45;&gt;OrderModule -->
<g id="edge35" class="edge">
<title>MatDatepickerModule&#45;&gt;OrderModule</title>
<path fill="none" stroke="#000000" d="M1167,-122.0267C1167,-142.7672 1167,-174 1167,-174 1167,-174 2941.8233,-174 2941.8233,-174"/>
<polygon fill="#000000" stroke="#000000" points="2941.8234,-177.5001 2951.8233,-174 2941.8233,-170.5001 2941.8234,-177.5001"/>
</g>
<!-- MatNativeDateModule -->
<g id="node37" class="node">
<title>MatNativeDateModule</title>
<polygon fill="#8dd3c7" stroke="#000000" points="1076.8431,-122 1073.8431,-126 1052.8431,-126 1049.8431,-122 931.1569,-122 931.1569,-86 1076.8431,-86 1076.8431,-122"/>
<text text-anchor="middle" x="1004" y="-99.8" font-family="Times,serif" font-size="14.00" fill="#000000">MatNativeDateModule</text>
</g>
<!-- MatNativeDateModule&#45;&gt;OrderModule -->
<g id="edge36" class="edge">
<title>MatNativeDateModule&#45;&gt;OrderModule</title>
<path fill="none" stroke="#000000" d="M1004,-122.2843C1004,-143.3211 1004,-175 1004,-175 1004,-175 2941.646,-175 2941.646,-175"/>
<polygon fill="#000000" stroke="#000000" points="2941.646,-178.5001 2951.646,-175 2941.6459,-171.5001 2941.646,-178.5001"/>
</g>
<!-- MatExpansionModule -->
<g id="node38" class="node">
<title>MatExpansionModule</title>
<polygon fill="#8dd3c7" stroke="#000000" points="912.7021,-122 909.7021,-126 888.7021,-126 885.7021,-122 771.2979,-122 771.2979,-86 912.7021,-86 912.7021,-122"/>
<text text-anchor="middle" x="842" y="-99.8" font-family="Times,serif" font-size="14.00" fill="#000000">MatExpansionModule</text>
</g>
<!-- MatExpansionModule&#45;&gt;OrderModule -->
<g id="edge37" class="edge">
<title>MatExpansionModule&#45;&gt;OrderModule</title>
<path fill="none" stroke="#000000" d="M842,-122.0449C842,-143.6623 842,-177 842,-177 842,-177 2941.7205,-177 2941.7205,-177"/>
<polygon fill="#000000" stroke="#000000" points="2941.7205,-180.5001 2951.7205,-177 2941.7204,-173.5001 2941.7205,-180.5001"/>
</g>
<!-- MatGridListModule -->
<g id="node39" class="node">
<title>MatGridListModule</title>
<polygon fill="#8dd3c7" stroke="#000000" points="753.5366,-122 750.5366,-126 729.5366,-126 726.5366,-122 624.4634,-122 624.4634,-86 753.5366,-86 753.5366,-122"/>
<text text-anchor="middle" x="689" y="-99.8" font-family="Times,serif" font-size="14.00" fill="#000000">MatGridListModule</text>
</g>
<!-- MatGridListModule&#45;&gt;OrderModule -->
<g id="edge38" class="edge">
<title>MatGridListModule&#45;&gt;OrderModule</title>
<path fill="none" stroke="#000000" d="M689,-122.1554C689,-144.3519 689,-179 689,-179 689,-179 2941.8768,-179 2941.8768,-179"/>
<polygon fill="#000000" stroke="#000000" points="2941.8769,-182.5001 2951.8768,-179 2941.8768,-175.5001 2941.8769,-182.5001"/>
</g>
<!-- FlexLayoutModule -->
<g id="node40" class="node">
<title>FlexLayoutModule</title>
<polygon fill="#8dd3c7" stroke="#000000" points="606.0954,-122 603.0954,-126 582.0954,-126 579.0954,-122 481.9046,-122 481.9046,-86 606.0954,-86 606.0954,-122"/>
<text text-anchor="middle" x="544" y="-99.8" font-family="Times,serif" font-size="14.00" fill="#000000">FlexLayoutModule</text>
</g>
<!-- FlexLayoutModule&#45;&gt;OrderModule -->
<g id="edge39" class="edge">
<title>FlexLayoutModule&#45;&gt;OrderModule</title>
<path fill="none" stroke="#000000" d="M544,-122.2479C544,-145.0179 544,-181 544,-181 544,-181 2941.7093,-181 2941.7093,-181"/>
<polygon fill="#000000" stroke="#000000" points="2941.7093,-184.5001 2951.7093,-181 2941.7093,-177.5001 2941.7093,-184.5001"/>
</g>
<!-- FileDropModule -->
<g id="node41" class="node">
<title>FileDropModule</title>
<polygon fill="#8dd3c7" stroke="#000000" points="464.0954,-122 461.0954,-126 440.0954,-126 437.0954,-122 353.9046,-122 353.9046,-86 464.0954,-86 464.0954,-122"/>
<text text-anchor="middle" x="409" y="-99.8" font-family="Times,serif" font-size="14.00" fill="#000000">FileDropModule</text>
</g>
<!-- FileDropModule&#45;&gt;OrderModule -->
<g id="edge40" class="edge">
<title>FileDropModule&#45;&gt;OrderModule</title>
<path fill="none" stroke="#000000" d="M409,-122.0908C409,-145.1328 409,-182 409,-182 409,-182 2941.6876,-182 2941.6876,-182"/>
<polygon fill="#000000" stroke="#000000" points="2941.6876,-185.5001 2951.6876,-182 2941.6876,-178.5001 2941.6876,-185.5001"/>
</g>
<!-- NgsFormModule.forRoot() -->
<g id="node42" class="node">
<title>NgsFormModule.forRoot()</title>
<polygon fill="#8dd3c7" stroke="#000000" points="336.3045,-122 333.3045,-126 312.3045,-126 309.3045,-122 167.6955,-122 167.6955,-86 336.3045,-86 336.3045,-122"/>
<text text-anchor="middle" x="252" y="-99.8" font-family="Times,serif" font-size="14.00" fill="#000000">NgsFormModule.forRoot()</text>
</g>
<!-- NgsFormModule.forRoot()&#45;&gt;OrderModule -->
<g id="edge41" class="edge">
<title>NgsFormModule.forRoot()&#45;&gt;OrderModule</title>
<path fill="none" stroke="#000000" d="M252,-122.1532C252,-145.7566 252,-184 252,-184 252,-184 2941.7762,-184 2941.7762,-184"/>
<polygon fill="#000000" stroke="#000000" points="2941.7762,-187.5001 2951.7762,-184 2941.7761,-180.5001 2941.7762,-187.5001"/>
</g>
<!-- OiCommonModule -->
<g id="node43" class="node">
<title>OiCommonModule</title>
<polygon fill="#8dd3c7" stroke="#000000" points="149.6652,-122 146.6652,-126 125.6652,-126 122.6652,-122 24.3348,-122 24.3348,-86 149.6652,-86 149.6652,-122"/>
<text text-anchor="middle" x="87" y="-99.8" font-family="Times,serif" font-size="14.00" fill="#000000">OiCommonModule</text>
</g>
<!-- OiCommonModule&#45;&gt;OrderModule -->
<g id="edge42" class="edge">
<title>OiCommonModule&#45;&gt;OrderModule</title>
<path fill="none" stroke="#000000" d="M87,-122.1985C87,-146.3563 87,-186 87,-186 87,-186 2941.6874,-186 2941.6874,-186"/>
<polygon fill="#000000" stroke="#000000" points="2941.6874,-189.5001 2951.6874,-186 2941.6874,-182.5001 2941.6874,-189.5001"/>
</g>
</g>
</svg>
