<?xml version="1.0" encoding="UTF-8" standalone="no"?>
<!DOCTYPE svg PUBLIC "-//W3C//DTD SVG 1.1//EN"
 "http://www.w3.org/Graphics/SVG/1.1/DTD/svg11.dtd">
<!-- Generated by graphviz version 2.40.1 (20161225.0304)
 -->
<!-- Title: dependencies Pages: 1 -->
<svg width="717pt" height="284pt"
 viewBox="0.00 0.00 717.00 284.00" xmlns="http://www.w3.org/2000/svg" xmlns:xlink="http://www.w3.org/1999/xlink">
<g id="graph0" class="graph" transform="scale(1 1) rotate(0) translate(4 280)">
<title>dependencies</title>
<polygon fill="#ffffff" stroke="transparent" points="-4,4 -4,-280 713,-280 713,4 -4,4"/>
<text text-anchor="start" x="333.5091" y="-42.4" font-family="sans-serif" font-weight="bold" font-size="14.00" fill="#000000">Legend</text>
<polygon fill="#ffffb3" stroke="transparent" points="120.5,-10 120.5,-30 140.5,-30 140.5,-10 120.5,-10"/>
<text text-anchor="start" x="144.129" y="-15.4" font-family="sans-serif" font-size="14.00" fill="#000000"> &#160;Declarations</text>
<polygon fill="#8dd3c7" stroke="transparent" points="233.5,-10 233.5,-30 253.5,-30 253.5,-10 233.5,-10"/>
<text text-anchor="start" x="257.2251" y="-15.4" font-family="sans-serif" font-size="14.00" fill="#000000"> &#160;Module</text>
<polygon fill="#80b1d3" stroke="transparent" points="319.5,-10 319.5,-30 339.5,-30 339.5,-10 319.5,-10"/>
<text text-anchor="start" x="343.2812" y="-15.4" font-family="sans-serif" font-size="14.00" fill="#000000"> &#160;Bootstrap</text>
<polygon fill="#fdb462" stroke="transparent" points="416.5,-10 416.5,-30 436.5,-30 436.5,-10 416.5,-10"/>
<text text-anchor="start" x="440.1732" y="-15.4" font-family="sans-serif" font-size="14.00" fill="#000000"> &#160;Providers</text>
<polygon fill="#fb8072" stroke="transparent" points="512.5,-10 512.5,-30 532.5,-30 532.5,-10 512.5,-10"/>
<text text-anchor="start" x="536.2258" y="-15.4" font-family="sans-serif" font-size="14.00" fill="#000000"> &#160;Exports</text>
<g id="clust1" class="cluster">
<title>cluster_RootOrderModule</title>
<polygon fill="none" stroke="#000000" stroke-dasharray="1,5" points="8,-70 8,-268 701,-268 701,-70 8,-70"/>
</g>
<g id="clust3" class="cluster">
<title>cluster_RootOrderModule_imports</title>
<polygon fill="none" stroke="#000000" points="16,-78 16,-130 693,-130 693,-78 16,-78"/>
</g>
<g id="clust4" class="cluster">
<title>cluster_RootOrderModule_exports</title>
<polygon fill="none" stroke="#000000" points="323,-208 323,-260 435,-260 435,-208 323,-208"/>
</g>
<!-- OrderModule -->
<g id="node1" class="node">
<title>OrderModule</title>
<polygon fill="#8dd3c7" stroke="#000000" points="685.1924,-122 682.1924,-126 661.1924,-126 658.1924,-122 592.8076,-122 592.8076,-86 685.1924,-86 685.1924,-122"/>
<text text-anchor="middle" x="639" y="-99.8" font-family="Times,serif" font-size="14.00" fill="#000000">OrderModule</text>
</g>
<!-- RootOrderModule -->
<g id="node5" class="node">
<title>RootOrderModule</title>
<polygon fill="#8dd3c7" stroke="#000000" points="438.9201,-187 435.9201,-191 414.9201,-191 411.9201,-187 319.0799,-187 319.0799,-151 438.9201,-151 438.9201,-187"/>
<text text-anchor="middle" x="379" y="-164.8" font-family="Times,serif" font-size="14.00" fill="#000000">RootOrderModule</text>
</g>
<!-- OrderModule&#45;&gt;RootOrderModule -->
<g id="edge1" class="edge">
<title>OrderModule&#45;&gt;RootOrderModule</title>
<path fill="none" stroke="#000000" d="M639,-122.1061C639,-141.3391 639,-169 639,-169 639,-169 448.9757,-169 448.9757,-169"/>
<polygon fill="#000000" stroke="#000000" points="448.9757,-165.5001 438.9757,-169 448.9757,-172.5001 448.9757,-165.5001"/>
</g>
<!-- StoreModule.forFeature(args) -->
<g id="node2" class="node">
<title>StoreModule.forFeature(args)</title>
<polygon fill="#8dd3c7" stroke="#000000" points="574.5386,-122 571.5386,-126 550.5386,-126 547.5386,-122 391.4614,-122 391.4614,-86 574.5386,-86 574.5386,-122"/>
<text text-anchor="middle" x="483" y="-99.8" font-family="Times,serif" font-size="14.00" fill="#000000">StoreModule.forFeature(args)</text>
</g>
<!-- StoreModule.forFeature(args)&#45;&gt;RootOrderModule -->
<g id="edge2" class="edge">
<title>StoreModule.forFeature(args)&#45;&gt;RootOrderModule</title>
<path fill="none" stroke="#000000" d="M414.9704,-122.1061C414.9704,-122.1061 414.9704,-140.991 414.9704,-140.991"/>
<polygon fill="#000000" stroke="#000000" points="411.4704,-140.9909 414.9704,-150.991 418.4704,-140.991 411.4704,-140.9909"/>
</g>
<!-- EffectsModule.forFeature(args) -->
<g id="node3" class="node">
<title>EffectsModule.forFeature(args)</title>
<polygon fill="#8dd3c7" stroke="#000000" points="372.6282,-122 369.6282,-126 348.6282,-126 345.6282,-122 179.3718,-122 179.3718,-86 372.6282,-86 372.6282,-122"/>
<text text-anchor="middle" x="276" y="-99.8" font-family="Times,serif" font-size="14.00" fill="#000000">EffectsModule.forFeature(args)</text>
</g>
<!-- EffectsModule.forFeature(args)&#45;&gt;RootOrderModule -->
<g id="edge3" class="edge">
<title>EffectsModule.forFeature(args)&#45;&gt;RootOrderModule</title>
<path fill="none" stroke="#000000" d="M346.0521,-122.1061C346.0521,-122.1061 346.0521,-140.991 346.0521,-140.991"/>
<polygon fill="#000000" stroke="#000000" points="342.5522,-140.9909 346.0521,-150.991 349.5522,-140.991 342.5522,-140.9909"/>
</g>
<!-- OrderRoutingModule -->
<g id="node4" class="node">
<title>OrderRoutingModule</title>
<polygon fill="#8dd3c7" stroke="#000000" points="161.8104,-122 158.8104,-126 137.8104,-126 134.8104,-122 24.1896,-122 24.1896,-86 161.8104,-86 161.8104,-122"/>
<text text-anchor="middle" x="93" y="-99.8" font-family="Times,serif" font-size="14.00" fill="#000000">OrderRoutingModule</text>
</g>
<!-- OrderRoutingModule&#45;&gt;RootOrderModule -->
<g id="edge4" class="edge">
<title>OrderRoutingModule&#45;&gt;RootOrderModule</title>
<path fill="none" stroke="#000000" d="M93,-122.1061C93,-141.3391 93,-169 93,-169 93,-169 309.045,-169 309.045,-169"/>
<polygon fill="#000000" stroke="#000000" points="309.0451,-172.5001 319.045,-169 309.045,-165.5001 309.0451,-172.5001"/>
</g>
<!-- OrderModule  -->
<g id="node6" class="node">
<title>OrderModule </title>
<polygon fill="#fb8072" stroke="#000000" points="426.6927,-252 331.3073,-252 331.3073,-216 426.6927,-216 426.6927,-252"/>
<text text-anchor="middle" x="379" y="-229.8" font-family="Times,serif" font-size="14.00" fill="#000000">OrderModule </text>
</g>
<!-- RootOrderModule&#45;&gt;OrderModule  -->
<g id="edge5" class="edge">
<title>RootOrderModule&#45;&gt;OrderModule </title>
<path fill="none" stroke="#000000" stroke-dasharray="5,2" d="M379,-187.1061C379,-187.1061 379,-205.991 379,-205.991"/>
<polygon fill="#000000" stroke="#000000" points="375.5001,-205.9909 379,-215.991 382.5001,-205.991 375.5001,-205.9909"/>
</g>
</g>
</svg>
