<?xml version="1.0" encoding="UTF-8" standalone="no"?>
<!DOCTYPE svg PUBLIC "-//W3C//DTD SVG 1.1//EN"
 "http://www.w3.org/Graphics/SVG/1.1/DTD/svg11.dtd">
<!-- Generated by graphviz version 2.40.1 (20161225.0304)
 -->
<!-- Title: dependencies Pages: 1 -->
<svg width="3322pt" height="211pt"
 viewBox="0.00 0.00 3322.00 211.00" xmlns="http://www.w3.org/2000/svg" xmlns:xlink="http://www.w3.org/1999/xlink">
<g id="graph0" class="graph" transform="scale(1 1) rotate(0) translate(4 207)">
<title>dependencies</title>
<polygon fill="#ffffff" stroke="transparent" points="-4,4 -4,-207 3318,-207 3318,4 -4,4"/>
<text text-anchor="start" x="1636.0091" y="-42.4" font-family="sans-serif" font-weight="bold" font-size="14.00" fill="#000000">Legend</text>
<polygon fill="#ffffb3" stroke="transparent" points="1423,-10 1423,-30 1443,-30 1443,-10 1423,-10"/>
<text text-anchor="start" x="1446.629" y="-15.4" font-family="sans-serif" font-size="14.00" fill="#000000"> &#160;Declarations</text>
<polygon fill="#8dd3c7" stroke="transparent" points="1536,-10 1536,-30 1556,-30 1556,-10 1536,-10"/>
<text text-anchor="start" x="1559.7251" y="-15.4" font-family="sans-serif" font-size="14.00" fill="#000000"> &#160;Module</text>
<polygon fill="#80b1d3" stroke="transparent" points="1622,-10 1622,-30 1642,-30 1642,-10 1622,-10"/>
<text text-anchor="start" x="1645.7812" y="-15.4" font-family="sans-serif" font-size="14.00" fill="#000000"> &#160;Bootstrap</text>
<polygon fill="#fdb462" stroke="transparent" points="1719,-10 1719,-30 1739,-30 1739,-10 1719,-10"/>
<text text-anchor="start" x="1742.6732" y="-15.4" font-family="sans-serif" font-size="14.00" fill="#000000"> &#160;Providers</text>
<polygon fill="#fb8072" stroke="transparent" points="1815,-10 1815,-30 1835,-30 1835,-10 1815,-10"/>
<text text-anchor="start" x="1838.7258" y="-15.4" font-family="sans-serif" font-size="14.00" fill="#000000"> &#160;Exports</text>
<g id="clust1" class="cluster">
<title>cluster_GeoBoundaryModule</title>
<polygon fill="none" stroke="#000000" stroke-dasharray="1,5" points="8,-70 8,-195 3306,-195 3306,-70 8,-70"/>
</g>
<g id="clust2" class="cluster">
<title>cluster_GeoBoundaryModule_declarations</title>
<polygon fill="none" stroke="#000000" points="2998,-78 2998,-130 3298,-130 3298,-78 2998,-78"/>
</g>
<g id="clust5" class="cluster">
<title>cluster_GeoBoundaryModule_imports</title>
<polygon fill="none" stroke="#000000" points="16,-78 16,-130 2990,-130 2990,-78 16,-78"/>
</g>
<!-- GeoBoundaryComponent -->
<g id="node1" class="node">
<title>GeoBoundaryComponent</title>
<polygon fill="#ffffb3" stroke="#000000" points="3289.8655,-122 3130.1345,-122 3130.1345,-86 3289.8655,-86 3289.8655,-122"/>
<text text-anchor="middle" x="3210" y="-99.8" font-family="Times,serif" font-size="14.00" fill="#000000">GeoBoundaryComponent</text>
</g>
<!-- GeoBoundaryModule -->
<g id="node3" class="node">
<title>GeoBoundaryModule</title>
<polygon fill="#8dd3c7" stroke="#000000" points="1782.0828,-187 1779.0828,-191 1758.0828,-191 1755.0828,-187 1643.9172,-187 1643.9172,-151 1782.0828,-151 1782.0828,-187"/>
<text text-anchor="middle" x="1713" y="-164.8" font-family="Times,serif" font-size="14.00" fill="#000000">GeoBoundaryModule</text>
</g>
<!-- GeoBoundaryComponent&#45;&gt;GeoBoundaryModule -->
<g id="edge1" class="edge">
<title>GeoBoundaryComponent&#45;&gt;GeoBoundaryModule</title>
<path fill="none" stroke="#000000" d="M3210,-122.1532C3210,-145.7566 3210,-184 3210,-184 3210,-184 1792.2011,-184 1792.2011,-184"/>
<polygon fill="#000000" stroke="#000000" points="1792.2011,-180.5001 1782.2011,-184 1792.201,-187.5001 1792.2011,-180.5001"/>
</g>
<!-- TestComponent -->
<g id="node2" class="node">
<title>TestComponent</title>
<polygon fill="#ffffb3" stroke="#000000" points="3111.9357,-122 3006.0643,-122 3006.0643,-86 3111.9357,-86 3111.9357,-122"/>
<text text-anchor="middle" x="3059" y="-99.8" font-family="Times,serif" font-size="14.00" fill="#000000">TestComponent</text>
</g>
<!-- TestComponent&#45;&gt;GeoBoundaryModule -->
<g id="edge2" class="edge">
<title>TestComponent&#45;&gt;GeoBoundaryModule</title>
<path fill="none" stroke="#000000" d="M3059,-122.0908C3059,-145.1328 3059,-182 3059,-182 3059,-182 1792.0649,-182 1792.0649,-182"/>
<polygon fill="#000000" stroke="#000000" points="1792.065,-178.5001 1782.0649,-182 1792.0649,-185.5001 1792.065,-178.5001"/>
</g>
<!-- HttpClientModule -->
<g id="node4" class="node">
<title>HttpClientModule</title>
<polygon fill="#8dd3c7" stroke="#000000" points="2982.1611,-122 2979.1611,-126 2958.1611,-126 2955.1611,-122 2863.8389,-122 2863.8389,-86 2982.1611,-86 2982.1611,-122"/>
<text text-anchor="middle" x="2923" y="-99.8" font-family="Times,serif" font-size="14.00" fill="#000000">HttpClientModule</text>
</g>
<!-- HttpClientModule&#45;&gt;GeoBoundaryModule -->
<g id="edge3" class="edge">
<title>HttpClientModule&#45;&gt;GeoBoundaryModule</title>
<path fill="none" stroke="#000000" d="M2923,-122.2921C2923,-144.2057 2923,-178 2923,-178 2923,-178 1792.4008,-178 1792.4008,-178"/>
<polygon fill="#000000" stroke="#000000" points="1792.4008,-174.5001 1782.4008,-178 1792.4008,-181.5001 1792.4008,-174.5001"/>
</g>
<!-- FormsModule -->
<g id="node5" class="node">
<title>FormsModule</title>
<polygon fill="#8dd3c7" stroke="#000000" points="2845.8288,-122 2842.8288,-126 2821.8288,-126 2818.8288,-122 2750.1712,-122 2750.1712,-86 2845.8288,-86 2845.8288,-122"/>
<text text-anchor="middle" x="2798" y="-99.8" font-family="Times,serif" font-size="14.00" fill="#000000">FormsModule</text>
</g>
<!-- FormsModule&#45;&gt;GeoBoundaryModule -->
<g id="edge4" class="edge">
<title>FormsModule&#45;&gt;GeoBoundaryModule</title>
<path fill="none" stroke="#000000" d="M2798,-122.2843C2798,-143.3211 2798,-175 2798,-175 2798,-175 1792.1079,-175 1792.1079,-175"/>
<polygon fill="#000000" stroke="#000000" points="1792.1079,-171.5001 1782.1079,-175 1792.1079,-178.5001 1792.1079,-171.5001"/>
</g>
<!-- RouterModule -->
<g id="node6" class="node">
<title>RouterModule</title>
<polygon fill="#8dd3c7" stroke="#000000" points="2732.6528,-122 2729.6528,-126 2708.6528,-126 2705.6528,-122 2635.3472,-122 2635.3472,-86 2732.6528,-86 2732.6528,-122"/>
<text text-anchor="middle" x="2684" y="-99.8" font-family="Times,serif" font-size="14.00" fill="#000000">RouterModule</text>
</g>
<!-- RouterModule&#45;&gt;GeoBoundaryModule -->
<g id="edge5" class="edge">
<title>RouterModule&#45;&gt;GeoBoundaryModule</title>
<path fill="none" stroke="#000000" d="M2684,-122.2228C2684,-142.3652 2684,-172 2684,-172 2684,-172 1792.0535,-172 1792.0535,-172"/>
<polygon fill="#000000" stroke="#000000" points="1792.0535,-168.5001 1782.0535,-172 1792.0535,-175.5001 1792.0535,-168.5001"/>
</g>
<!-- CommonModule -->
<g id="node7" class="node">
<title>CommonModule</title>
<polygon fill="#8dd3c7" stroke="#000000" points="2616.6681,-122 2613.6681,-126 2592.6681,-126 2589.6681,-122 2505.3319,-122 2505.3319,-86 2616.6681,-86 2616.6681,-122"/>
<text text-anchor="middle" x="2561" y="-99.8" font-family="Times,serif" font-size="14.00" fill="#000000">CommonModule</text>
</g>
<!-- CommonModule&#45;&gt;GeoBoundaryModule -->
<g id="edge6" class="edge">
<title>CommonModule&#45;&gt;GeoBoundaryModule</title>
<path fill="none" stroke="#000000" d="M2561,-122.1061C2561,-141.3391 2561,-169 2561,-169 2561,-169 1792.3954,-169 1792.3954,-169"/>
<polygon fill="#000000" stroke="#000000" points="1792.3954,-165.5001 1782.3954,-169 1792.3954,-172.5001 1792.3954,-165.5001"/>
</g>
<!-- MatExpansionModule -->
<g id="node8" class="node">
<title>MatExpansionModule</title>
<polygon fill="#8dd3c7" stroke="#000000" points="2487.7021,-122 2484.7021,-126 2463.7021,-126 2460.7021,-122 2346.2979,-122 2346.2979,-86 2487.7021,-86 2487.7021,-122"/>
<text text-anchor="middle" x="2417" y="-99.8" font-family="Times,serif" font-size="14.00" fill="#000000">MatExpansionModule</text>
</g>
<!-- MatExpansionModule&#45;&gt;GeoBoundaryModule -->
<g id="edge7" class="edge">
<title>MatExpansionModule&#45;&gt;GeoBoundaryModule</title>
<path fill="none" stroke="#000000" d="M2417,-122.2222C2417,-140.8285 2417,-167 2417,-167 2417,-167 1792.1063,-167 1792.1063,-167"/>
<polygon fill="#000000" stroke="#000000" points="1792.1063,-163.5001 1782.1063,-167 1792.1063,-170.5001 1792.1063,-163.5001"/>
</g>
<!-- MatSnackBarModule -->
<g id="node9" class="node">
<title>MatSnackBarModule</title>
<polygon fill="#8dd3c7" stroke="#000000" points="2328.024,-122 2325.024,-126 2304.024,-126 2301.024,-122 2191.976,-122 2191.976,-86 2328.024,-86 2328.024,-122"/>
<text text-anchor="middle" x="2260" y="-99.8" font-family="Times,serif" font-size="14.00" fill="#000000">MatSnackBarModule</text>
</g>
<!-- MatSnackBarModule&#45;&gt;GeoBoundaryModule -->
<g id="edge8" class="edge">
<title>MatSnackBarModule&#45;&gt;GeoBoundaryModule</title>
<path fill="none" stroke="#000000" d="M2260,-122.0225C2260,-139.3734 2260,-163 2260,-163 2260,-163 1792.2779,-163 1792.2779,-163"/>
<polygon fill="#000000" stroke="#000000" points="1792.278,-159.5001 1782.2779,-163 1792.2779,-166.5001 1792.278,-159.5001"/>
</g>
<!-- MatIconModule -->
<g id="node10" class="node">
<title>MatIconModule</title>
<polygon fill="#8dd3c7" stroke="#000000" points="2173.4748,-122 2170.4748,-126 2149.4748,-126 2146.4748,-122 2066.5252,-122 2066.5252,-86 2173.4748,-86 2173.4748,-122"/>
<text text-anchor="middle" x="2120" y="-99.8" font-family="Times,serif" font-size="14.00" fill="#000000">MatIconModule</text>
</g>
<!-- MatIconModule&#45;&gt;GeoBoundaryModule -->
<g id="edge9" class="edge">
<title>MatIconModule&#45;&gt;GeoBoundaryModule</title>
<path fill="none" stroke="#000000" d="M2120,-122.027C2120,-138.3976 2120,-160 2120,-160 2120,-160 1792.042,-160 1792.042,-160"/>
<polygon fill="#000000" stroke="#000000" points="1792.042,-156.5001 1782.042,-160 1792.042,-163.5001 1792.042,-156.5001"/>
</g>
<!-- MatButtonModule -->
<g id="node11" class="node">
<title>MatButtonModule</title>
<polygon fill="#8dd3c7" stroke="#000000" points="2048.2176,-122 2045.2176,-126 2024.2176,-126 2021.2176,-122 1927.7824,-122 1927.7824,-86 2048.2176,-86 2048.2176,-122"/>
<text text-anchor="middle" x="1988" y="-99.8" font-family="Times,serif" font-size="14.00" fill="#000000">MatButtonModule</text>
</g>
<!-- MatButtonModule&#45;&gt;GeoBoundaryModule -->
<g id="edge10" class="edge">
<title>MatButtonModule&#45;&gt;GeoBoundaryModule</title>
<path fill="none" stroke="#000000" d="M1988,-122.2396C1988,-137.5706 1988,-157 1988,-157 1988,-157 1792.3941,-157 1792.3941,-157"/>
<polygon fill="#000000" stroke="#000000" points="1792.3941,-153.5001 1782.3941,-157 1792.3941,-160.5001 1792.3941,-153.5001"/>
</g>
<!-- MatCardModule -->
<g id="node12" class="node">
<title>MatCardModule</title>
<polygon fill="#8dd3c7" stroke="#000000" points="1909.8118,-122 1906.8118,-126 1885.8118,-126 1882.8118,-122 1800.1882,-122 1800.1882,-86 1909.8118,-86 1909.8118,-122"/>
<text text-anchor="middle" x="1855" y="-99.8" font-family="Times,serif" font-size="14.00" fill="#000000">MatCardModule</text>
</g>
<!-- MatCardModule&#45;&gt;GeoBoundaryModule -->
<g id="edge11" class="edge">
<title>MatCardModule&#45;&gt;GeoBoundaryModule</title>
<path fill="none" stroke="#000000" d="M1855,-122.0511C1855,-136.373 1855,-154 1855,-154 1855,-154 1792.3361,-154 1792.3361,-154"/>
<polygon fill="#000000" stroke="#000000" points="1792.3361,-150.5001 1782.3361,-154 1792.336,-157.5001 1792.3361,-150.5001"/>
</g>
<!-- MatCheckboxModule -->
<g id="node13" class="node">
<title>MatCheckboxModule</title>
<polygon fill="#8dd3c7" stroke="#000000" points="1782.3655,-122 1779.3655,-126 1758.3655,-126 1755.3655,-122 1643.6345,-122 1643.6345,-86 1782.3655,-86 1782.3655,-122"/>
<text text-anchor="middle" x="1713" y="-99.8" font-family="Times,serif" font-size="14.00" fill="#000000">MatCheckboxModule</text>
</g>
<!-- MatCheckboxModule&#45;&gt;GeoBoundaryModule -->
<g id="edge12" class="edge">
<title>MatCheckboxModule&#45;&gt;GeoBoundaryModule</title>
<path fill="none" stroke="#000000" d="M1713,-122.1061C1713,-122.1061 1713,-140.991 1713,-140.991"/>
<polygon fill="#000000" stroke="#000000" points="1709.5001,-140.9909 1713,-150.991 1716.5001,-140.991 1709.5001,-140.9909"/>
</g>
<!-- MatTableModule -->
<g id="node14" class="node">
<title>MatTableModule</title>
<polygon fill="#8dd3c7" stroke="#000000" points="1625.972,-122 1622.972,-126 1601.972,-126 1598.972,-122 1512.028,-122 1512.028,-86 1625.972,-86 1625.972,-122"/>
<text text-anchor="middle" x="1569" y="-99.8" font-family="Times,serif" font-size="14.00" fill="#000000">MatTableModule</text>
</g>
<!-- MatTableModule&#45;&gt;GeoBoundaryModule -->
<g id="edge13" class="edge">
<title>MatTableModule&#45;&gt;GeoBoundaryModule</title>
<path fill="none" stroke="#000000" d="M1569,-122.0511C1569,-136.373 1569,-154 1569,-154 1569,-154 1633.9524,-154 1633.9524,-154"/>
<polygon fill="#000000" stroke="#000000" points="1633.9524,-157.5001 1643.9524,-154 1633.9524,-150.5001 1633.9524,-157.5001"/>
</g>
<!-- MatSelectModule -->
<g id="node15" class="node">
<title>MatSelectModule</title>
<polygon fill="#8dd3c7" stroke="#000000" points="1494.3076,-122 1491.3076,-126 1470.3076,-126 1467.3076,-122 1377.6924,-122 1377.6924,-86 1494.3076,-86 1494.3076,-122"/>
<text text-anchor="middle" x="1436" y="-99.8" font-family="Times,serif" font-size="14.00" fill="#000000">MatSelectModule</text>
</g>
<!-- MatSelectModule&#45;&gt;GeoBoundaryModule -->
<g id="edge14" class="edge">
<title>MatSelectModule&#45;&gt;GeoBoundaryModule</title>
<path fill="none" stroke="#000000" d="M1436,-122.2396C1436,-137.5706 1436,-157 1436,-157 1436,-157 1633.8157,-157 1633.8157,-157"/>
<polygon fill="#000000" stroke="#000000" points="1633.8158,-160.5001 1643.8157,-157 1633.8157,-153.5001 1633.8158,-160.5001"/>
</g>
<!-- MatInputModule -->
<g id="node16" class="node">
<title>MatInputModule</title>
<polygon fill="#8dd3c7" stroke="#000000" points="1359.6513,-122 1356.6513,-126 1335.6513,-126 1332.6513,-122 1248.3487,-122 1248.3487,-86 1359.6513,-86 1359.6513,-122"/>
<text text-anchor="middle" x="1304" y="-99.8" font-family="Times,serif" font-size="14.00" fill="#000000">MatInputModule</text>
</g>
<!-- MatInputModule&#45;&gt;GeoBoundaryModule -->
<g id="edge15" class="edge">
<title>MatInputModule&#45;&gt;GeoBoundaryModule</title>
<path fill="none" stroke="#000000" d="M1304,-122.027C1304,-138.3976 1304,-160 1304,-160 1304,-160 1633.6187,-160 1633.6187,-160"/>
<polygon fill="#000000" stroke="#000000" points="1633.6188,-163.5001 1643.6187,-160 1633.6187,-156.5001 1633.6188,-163.5001"/>
</g>
<!-- MatFormFieldModule -->
<g id="node17" class="node">
<title>MatFormFieldModule</title>
<polygon fill="#8dd3c7" stroke="#000000" points="1230.712,-122 1227.712,-126 1206.712,-126 1203.712,-122 1089.288,-122 1089.288,-86 1230.712,-86 1230.712,-122"/>
<text text-anchor="middle" x="1160" y="-99.8" font-family="Times,serif" font-size="14.00" fill="#000000">MatFormFieldModule</text>
</g>
<!-- MatFormFieldModule&#45;&gt;GeoBoundaryModule -->
<g id="edge16" class="edge">
<title>MatFormFieldModule&#45;&gt;GeoBoundaryModule</title>
<path fill="none" stroke="#000000" d="M1160,-122.0225C1160,-139.3734 1160,-163 1160,-163 1160,-163 1633.8014,-163 1633.8014,-163"/>
<polygon fill="#000000" stroke="#000000" points="1633.8015,-166.5001 1643.8014,-163 1633.8014,-159.5001 1633.8015,-166.5001"/>
</g>
<!-- MatTabsModule -->
<g id="node18" class="node">
<title>MatTabsModule</title>
<polygon fill="#8dd3c7" stroke="#000000" points="1071.8118,-122 1068.8118,-126 1047.8118,-126 1044.8118,-122 962.1882,-122 962.1882,-86 1071.8118,-86 1071.8118,-122"/>
<text text-anchor="middle" x="1017" y="-99.8" font-family="Times,serif" font-size="14.00" fill="#000000">MatTabsModule</text>
</g>
<!-- MatTabsModule&#45;&gt;GeoBoundaryModule -->
<g id="edge17" class="edge">
<title>MatTabsModule&#45;&gt;GeoBoundaryModule</title>
<path fill="none" stroke="#000000" d="M1017,-122.2222C1017,-140.8285 1017,-167 1017,-167 1017,-167 1633.7203,-167 1633.7203,-167"/>
<polygon fill="#000000" stroke="#000000" points="1633.7204,-170.5001 1643.7203,-167 1633.7203,-163.5001 1633.7204,-170.5001"/>
</g>
<!-- MatDividerModule -->
<g id="node19" class="node">
<title>MatDividerModule</title>
<polygon fill="#8dd3c7" stroke="#000000" points="944.3627,-122 941.3627,-126 920.3627,-126 917.3627,-122 819.6373,-122 819.6373,-86 944.3627,-86 944.3627,-122"/>
<text text-anchor="middle" x="882" y="-99.8" font-family="Times,serif" font-size="14.00" fill="#000000">MatDividerModule</text>
</g>
<!-- MatDividerModule&#45;&gt;GeoBoundaryModule -->
<g id="edge18" class="edge">
<title>MatDividerModule&#45;&gt;GeoBoundaryModule</title>
<path fill="none" stroke="#000000" d="M882,-122.1061C882,-141.3391 882,-169 882,-169 882,-169 1633.9341,-169 1633.9341,-169"/>
<polygon fill="#000000" stroke="#000000" points="1633.9342,-172.5001 1643.9341,-169 1633.9341,-165.5001 1633.9342,-172.5001"/>
</g>
<!-- FlexLayoutModule -->
<g id="node20" class="node">
<title>FlexLayoutModule</title>
<polygon fill="#8dd3c7" stroke="#000000" points="802.0954,-122 799.0954,-126 778.0954,-126 775.0954,-122 677.9046,-122 677.9046,-86 802.0954,-86 802.0954,-122"/>
<text text-anchor="middle" x="740" y="-99.8" font-family="Times,serif" font-size="14.00" fill="#000000">FlexLayoutModule</text>
</g>
<!-- FlexLayoutModule&#45;&gt;GeoBoundaryModule -->
<g id="edge19" class="edge">
<title>FlexLayoutModule&#45;&gt;GeoBoundaryModule</title>
<path fill="none" stroke="#000000" d="M740,-122.2228C740,-142.3652 740,-172 740,-172 740,-172 1633.8043,-172 1633.8043,-172"/>
<polygon fill="#000000" stroke="#000000" points="1633.8043,-175.5001 1643.8043,-172 1633.8042,-168.5001 1633.8043,-175.5001"/>
</g>
<!-- MatRadioModule -->
<g id="node21" class="node">
<title>MatRadioModule</title>
<polygon fill="#8dd3c7" stroke="#000000" points="659.5423,-122 656.5423,-126 635.5423,-126 632.5423,-122 544.4577,-122 544.4577,-86 659.5423,-86 659.5423,-122"/>
<text text-anchor="middle" x="602" y="-99.8" font-family="Times,serif" font-size="14.00" fill="#000000">MatRadioModule</text>
</g>
<!-- MatRadioModule&#45;&gt;GeoBoundaryModule -->
<g id="edge20" class="edge">
<title>MatRadioModule&#45;&gt;GeoBoundaryModule</title>
<path fill="none" stroke="#000000" d="M602,-122.2843C602,-143.3211 602,-175 602,-175 602,-175 1633.9217,-175 1633.9217,-175"/>
<polygon fill="#000000" stroke="#000000" points="1633.9218,-178.5001 1643.9217,-175 1633.9217,-171.5001 1633.9218,-178.5001"/>
</g>
<!-- MatSlideToggleModule -->
<g id="node22" class="node">
<title>MatSlideToggleModule</title>
<polygon fill="#8dd3c7" stroke="#000000" points="526.0365,-122 523.0365,-126 502.0365,-126 499.0365,-122 375.9635,-122 375.9635,-86 526.0365,-86 526.0365,-122"/>
<text text-anchor="middle" x="451" y="-99.8" font-family="Times,serif" font-size="14.00" fill="#000000">MatSlideToggleModule</text>
</g>
<!-- MatSlideToggleModule&#45;&gt;GeoBoundaryModule -->
<g id="edge21" class="edge">
<title>MatSlideToggleModule&#45;&gt;GeoBoundaryModule</title>
<path fill="none" stroke="#000000" d="M451,-122.2921C451,-144.2057 451,-178 451,-178 451,-178 1633.8031,-178 1633.8031,-178"/>
<polygon fill="#000000" stroke="#000000" points="1633.8032,-181.5001 1643.8031,-178 1633.8031,-174.5001 1633.8032,-181.5001"/>
</g>
<!-- ReactiveFormsModule -->
<g id="node23" class="node">
<title>ReactiveFormsModule</title>
<polygon fill="#8dd3c7" stroke="#000000" points="358.3047,-122 355.3047,-126 334.3047,-126 331.3047,-122 213.6953,-122 213.6953,-86 358.3047,-86 358.3047,-122"/>
<text text-anchor="middle" x="286" y="-99.8" font-family="Times,serif" font-size="14.00" fill="#000000">ReactiveFormsModule</text>
</g>
<!-- ReactiveFormsModule&#45;&gt;GeoBoundaryModule -->
<g id="edge22" class="edge">
<title>ReactiveFormsModule&#45;&gt;GeoBoundaryModule</title>
<path fill="none" stroke="#000000" d="M286,-122.0908C286,-145.1328 286,-182 286,-182 286,-182 1633.6906,-182 1633.6906,-182"/>
<polygon fill="#000000" stroke="#000000" points="1633.6906,-185.5001 1643.6906,-182 1633.6905,-178.5001 1633.6906,-185.5001"/>
</g>
<!-- BrowserAnimationsModule -->
<g id="node24" class="node">
<title>BrowserAnimationsModule</title>
<polygon fill="#8dd3c7" stroke="#000000" points="196.3019,-122 193.3019,-126 172.3019,-126 169.3019,-122 23.6981,-122 23.6981,-86 196.3019,-86 196.3019,-122"/>
<text text-anchor="middle" x="110" y="-99.8" font-family="Times,serif" font-size="14.00" fill="#000000">BrowserAnimationsModule</text>
</g>
<!-- BrowserAnimationsModule&#45;&gt;GeoBoundaryModule -->
<g id="edge23" class="edge">
<title>BrowserAnimationsModule&#45;&gt;GeoBoundaryModule</title>
<path fill="none" stroke="#000000" d="M110,-122.1532C110,-145.7566 110,-184 110,-184 110,-184 1633.8641,-184 1633.8641,-184"/>
<polygon fill="#000000" stroke="#000000" points="1633.8641,-187.5001 1643.8641,-184 1633.864,-180.5001 1633.8641,-187.5001"/>
</g>
</g>
</svg>
