<?xml version="1.0" encoding="UTF-8" standalone="no"?>
<!DOCTYPE svg PUBLIC "-//W3C//DTD SVG 1.1//EN"
 "http://www.w3.org/Graphics/SVG/1.1/DTD/svg11.dtd">
<!-- Generated by graphviz version 2.40.1 (20161225.0304)
 -->
<!-- Title: dependencies Pages: 1 -->
<svg width="888pt" height="211pt"
 viewBox="0.00 0.00 888.00 211.00" xmlns="http://www.w3.org/2000/svg" xmlns:xlink="http://www.w3.org/1999/xlink">
<g id="graph0" class="graph" transform="scale(1 1) rotate(0) translate(4 207)">
<title>dependencies</title>
<polygon fill="#ffffff" stroke="transparent" points="-4,4 -4,-207 884,-207 884,4 -4,4"/>
<text text-anchor="start" x="419.0091" y="-42.4" font-family="sans-serif" font-weight="bold" font-size="14.00" fill="#000000">Legend</text>
<polygon fill="#ffffb3" stroke="transparent" points="206,-10 206,-30 226,-30 226,-10 206,-10"/>
<text text-anchor="start" x="229.629" y="-15.4" font-family="sans-serif" font-size="14.00" fill="#000000"> &#160;Declarations</text>
<polygon fill="#8dd3c7" stroke="transparent" points="319,-10 319,-30 339,-30 339,-10 319,-10"/>
<text text-anchor="start" x="342.7251" y="-15.4" font-family="sans-serif" font-size="14.00" fill="#000000"> &#160;Module</text>
<polygon fill="#80b1d3" stroke="transparent" points="405,-10 405,-30 425,-30 425,-10 405,-10"/>
<text text-anchor="start" x="428.7812" y="-15.4" font-family="sans-serif" font-size="14.00" fill="#000000"> &#160;Bootstrap</text>
<polygon fill="#fdb462" stroke="transparent" points="502,-10 502,-30 522,-30 522,-10 502,-10"/>
<text text-anchor="start" x="525.6732" y="-15.4" font-family="sans-serif" font-size="14.00" fill="#000000"> &#160;Providers</text>
<polygon fill="#fb8072" stroke="transparent" points="598,-10 598,-30 618,-30 618,-10 598,-10"/>
<text text-anchor="start" x="621.7258" y="-15.4" font-family="sans-serif" font-size="14.00" fill="#000000"> &#160;Exports</text>
<g id="clust1" class="cluster">
<title>cluster_DashboardModule</title>
<polygon fill="none" stroke="#000000" stroke-dasharray="1,5" points="8,-70 8,-195 872,-195 872,-70 8,-70"/>
</g>
<g id="clust2" class="cluster">
<title>cluster_DashboardModule_declarations</title>
<polygon fill="none" stroke="#000000" points="706,-78 706,-130 864,-130 864,-78 706,-78"/>
</g>
<g id="clust4" class="cluster">
<title>cluster_DashboardModule_imports</title>
<polygon fill="none" stroke="#000000" points="16,-78 16,-130 698,-130 698,-78 16,-78"/>
</g>
<!-- DashboardComponent -->
<g id="node1" class="node">
<title>DashboardComponent</title>
<polygon fill="#ffffb3" stroke="#000000" points="855.9734,-122 714.0266,-122 714.0266,-86 855.9734,-86 855.9734,-122"/>
<text text-anchor="middle" x="785" y="-99.8" font-family="Times,serif" font-size="14.00" fill="#000000">DashboardComponent</text>
</g>
<!-- DashboardModule -->
<g id="node2" class="node">
<title>DashboardModule</title>
<polygon fill="#8dd3c7" stroke="#000000" points="496.191,-187 493.191,-191 472.191,-191 469.191,-187 375.809,-187 375.809,-151 496.191,-151 496.191,-187"/>
<text text-anchor="middle" x="436" y="-164.8" font-family="Times,serif" font-size="14.00" fill="#000000">DashboardModule</text>
</g>
<!-- DashboardComponent&#45;&gt;DashboardModule -->
<g id="edge1" class="edge">
<title>DashboardComponent&#45;&gt;DashboardModule</title>
<path fill="none" stroke="#000000" d="M785,-122.2843C785,-143.3211 785,-175 785,-175 785,-175 506.3927,-175 506.3927,-175"/>
<polygon fill="#000000" stroke="#000000" points="506.3928,-171.5001 496.3927,-175 506.3927,-178.5001 506.3928,-171.5001"/>
</g>
<!-- CommonModule -->
<g id="node3" class="node">
<title>CommonModule</title>
<polygon fill="#8dd3c7" stroke="#000000" points="689.6681,-122 686.6681,-126 665.6681,-126 662.6681,-122 578.3319,-122 578.3319,-86 689.6681,-86 689.6681,-122"/>
<text text-anchor="middle" x="634" y="-99.8" font-family="Times,serif" font-size="14.00" fill="#000000">CommonModule</text>
</g>
<!-- CommonModule&#45;&gt;DashboardModule -->
<g id="edge2" class="edge">
<title>CommonModule&#45;&gt;DashboardModule</title>
<path fill="none" stroke="#000000" d="M634,-122.0225C634,-139.3734 634,-163 634,-163 634,-163 506.213,-163 506.213,-163"/>
<polygon fill="#000000" stroke="#000000" points="506.213,-159.5001 496.213,-163 506.2129,-166.5001 506.213,-159.5001"/>
</g>
<!-- SharedModule -->
<g id="node4" class="node">
<title>SharedModule</title>
<polygon fill="#8dd3c7" stroke="#000000" points="560.4231,-122 557.4231,-126 536.4231,-126 533.4231,-122 461.5769,-122 461.5769,-86 560.4231,-86 560.4231,-122"/>
<text text-anchor="middle" x="511" y="-99.8" font-family="Times,serif" font-size="14.00" fill="#000000">SharedModule</text>
</g>
<!-- SharedModule&#45;&gt;DashboardModule -->
<g id="edge3" class="edge">
<title>SharedModule&#45;&gt;DashboardModule</title>
<path fill="none" stroke="#000000" d="M478.9422,-122.1061C478.9422,-122.1061 478.9422,-140.991 478.9422,-140.991"/>
<polygon fill="#000000" stroke="#000000" points="475.4422,-140.9909 478.9422,-150.991 482.4422,-140.991 475.4422,-140.9909"/>
</g>
<!-- DashboardRoutingModule -->
<g id="node5" class="node">
<title>DashboardRoutingModule</title>
<polygon fill="#8dd3c7" stroke="#000000" points="443.8089,-122 440.8089,-126 419.8089,-126 416.8089,-122 278.1911,-122 278.1911,-86 443.8089,-86 443.8089,-122"/>
<text text-anchor="middle" x="361" y="-99.8" font-family="Times,serif" font-size="14.00" fill="#000000">DashboardRoutingModule</text>
</g>
<!-- DashboardRoutingModule&#45;&gt;DashboardModule -->
<g id="edge4" class="edge">
<title>DashboardRoutingModule&#45;&gt;DashboardModule</title>
<path fill="none" stroke="#000000" d="M409.7795,-122.1061C409.7795,-122.1061 409.7795,-140.991 409.7795,-140.991"/>
<polygon fill="#000000" stroke="#000000" points="406.2795,-140.9909 409.7795,-150.991 413.2795,-140.991 406.2795,-140.9909"/>
</g>
<!-- OrderModule -->
<g id="node6" class="node">
<title>OrderModule</title>
<polygon fill="#8dd3c7" stroke="#000000" points="260.1924,-122 257.1924,-126 236.1924,-126 233.1924,-122 167.8076,-122 167.8076,-86 260.1924,-86 260.1924,-122"/>
<text text-anchor="middle" x="214" y="-99.8" font-family="Times,serif" font-size="14.00" fill="#000000">OrderModule</text>
</g>
<!-- OrderModule&#45;&gt;DashboardModule -->
<g id="edge5" class="edge">
<title>OrderModule&#45;&gt;DashboardModule</title>
<path fill="none" stroke="#000000" d="M214,-122.0225C214,-139.3734 214,-163 214,-163 214,-163 365.6308,-163 365.6308,-163"/>
<polygon fill="#000000" stroke="#000000" points="365.6308,-166.5001 375.6308,-163 365.6307,-159.5001 365.6308,-166.5001"/>
</g>
<!-- OiCommonModule -->
<g id="node7" class="node">
<title>OiCommonModule</title>
<polygon fill="#8dd3c7" stroke="#000000" points="149.6652,-122 146.6652,-126 125.6652,-126 122.6652,-122 24.3348,-122 24.3348,-86 149.6652,-86 149.6652,-122"/>
<text text-anchor="middle" x="87" y="-99.8" font-family="Times,serif" font-size="14.00" fill="#000000">OiCommonModule</text>
</g>
<!-- OiCommonModule&#45;&gt;DashboardModule -->
<g id="edge6" class="edge">
<title>OiCommonModule&#45;&gt;DashboardModule</title>
<path fill="none" stroke="#000000" d="M87,-122.2843C87,-143.3211 87,-175 87,-175 87,-175 365.6073,-175 365.6073,-175"/>
<polygon fill="#000000" stroke="#000000" points="365.6073,-178.5001 375.6073,-175 365.6072,-171.5001 365.6073,-178.5001"/>
</g>
</g>
</svg>
