<?xml version="1.0" encoding="UTF-8" standalone="no"?>
<!DOCTYPE svg PUBLIC "-//W3C//DTD SVG 1.1//EN"
 "http://www.w3.org/Graphics/SVG/1.1/DTD/svg11.dtd">
<!-- Generated by graphviz version 2.40.1 (20161225.0304)
 -->
<!-- Title: dependencies Pages: 1 -->
<svg width="824pt" height="284pt"
 viewBox="0.00 0.00 824.00 284.00" xmlns="http://www.w3.org/2000/svg" xmlns:xlink="http://www.w3.org/1999/xlink">
<g id="graph0" class="graph" transform="scale(1 1) rotate(0) translate(4 280)">
<title>dependencies</title>
<polygon fill="#ffffff" stroke="transparent" points="-4,4 -4,-280 820,-280 820,4 -4,4"/>
<text text-anchor="start" x="387.0091" y="-42.4" font-family="sans-serif" font-weight="bold" font-size="14.00" fill="#000000">Legend</text>
<polygon fill="#ffffb3" stroke="transparent" points="174,-10 174,-30 194,-30 194,-10 174,-10"/>
<text text-anchor="start" x="197.629" y="-15.4" font-family="sans-serif" font-size="14.00" fill="#000000"> &#160;Declarations</text>
<polygon fill="#8dd3c7" stroke="transparent" points="287,-10 287,-30 307,-30 307,-10 287,-10"/>
<text text-anchor="start" x="310.7251" y="-15.4" font-family="sans-serif" font-size="14.00" fill="#000000"> &#160;Module</text>
<polygon fill="#80b1d3" stroke="transparent" points="373,-10 373,-30 393,-30 393,-10 373,-10"/>
<text text-anchor="start" x="396.7812" y="-15.4" font-family="sans-serif" font-size="14.00" fill="#000000"> &#160;Bootstrap</text>
<polygon fill="#fdb462" stroke="transparent" points="470,-10 470,-30 490,-30 490,-10 470,-10"/>
<text text-anchor="start" x="493.6732" y="-15.4" font-family="sans-serif" font-size="14.00" fill="#000000"> &#160;Providers</text>
<polygon fill="#fb8072" stroke="transparent" points="566,-10 566,-30 586,-30 586,-10 566,-10"/>
<text text-anchor="start" x="589.7258" y="-15.4" font-family="sans-serif" font-size="14.00" fill="#000000"> &#160;Exports</text>
<g id="clust1" class="cluster">
<title>cluster_SharedModule</title>
<polygon fill="none" stroke="#000000" stroke-dasharray="1,5" points="8,-70 8,-268 808,-268 808,-70 8,-70"/>
</g>
<g id="clust2" class="cluster">
<title>cluster_SharedModule_declarations</title>
<polygon fill="none" stroke="#000000" points="28,-78 28,-130 792,-130 792,-78 28,-78"/>
</g>
<g id="clust10" class="cluster">
<title>cluster_SharedModule_exports</title>
<polygon fill="none" stroke="#000000" points="16,-208 16,-260 800,-260 800,-208 16,-208"/>
</g>
<!-- DataUnitPipe -->
<g id="node1" class="node">
<title>DataUnitPipe</title>
<polygon fill="#ffffb3" stroke="#000000" points="784.2022,-122 691.7978,-122 691.7978,-86 784.2022,-86 784.2022,-122"/>
<text text-anchor="middle" x="738" y="-99.8" font-family="Times,serif" font-size="14.00" fill="#000000">DataUnitPipe</text>
</g>
<!-- SharedModule -->
<g id="node7" class="node">
<title>SharedModule</title>
<polygon fill="#8dd3c7" stroke="#000000" points="428.4231,-187 425.4231,-191 404.4231,-191 401.4231,-187 329.5769,-187 329.5769,-151 428.4231,-151 428.4231,-187"/>
<text text-anchor="middle" x="379" y="-164.8" font-family="Times,serif" font-size="14.00" fill="#000000">SharedModule</text>
</g>
<!-- DataUnitPipe&#45;&gt;SharedModule -->
<g id="edge1" class="edge">
<title>DataUnitPipe&#45;&gt;SharedModule</title>
<path fill="none" stroke="#000000" d="M754.7837,-122.2222C754.7837,-140.8285 754.7837,-167 754.7837,-167 754.7837,-167 438.5136,-167 438.5136,-167"/>
<polygon fill="#000000" stroke="#000000" points="438.5136,-163.5001 428.5136,-167 438.5135,-170.5001 438.5136,-163.5001"/>
</g>
<!-- TimeUnitPipe -->
<g id="node2" class="node">
<title>TimeUnitPipe</title>
<polygon fill="#ffffb3" stroke="#000000" points="673.8246,-122 578.1754,-122 578.1754,-86 673.8246,-86 673.8246,-122"/>
<text text-anchor="middle" x="626" y="-99.8" font-family="Times,serif" font-size="14.00" fill="#000000">TimeUnitPipe</text>
</g>
<!-- TimeUnitPipe&#45;&gt;SharedModule -->
<g id="edge2" class="edge">
<title>TimeUnitPipe&#45;&gt;SharedModule</title>
<path fill="none" stroke="#000000" d="M642.304,-122.0336C642.304,-139.0597 642.304,-162 642.304,-162 642.304,-162 438.2166,-162 438.2166,-162"/>
<polygon fill="#000000" stroke="#000000" points="438.2166,-158.5001 428.2166,-162 438.2166,-165.5001 438.2166,-158.5001"/>
</g>
<!-- PersianDatePipe -->
<g id="node3" class="node">
<title>PersianDatePipe</title>
<polygon fill="#ffffb3" stroke="#000000" points="560.0228,-122 451.9772,-122 451.9772,-86 560.0228,-86 560.0228,-122"/>
<text text-anchor="middle" x="506" y="-99.8" font-family="Times,serif" font-size="14.00" fill="#000000">PersianDatePipe</text>
</g>
<!-- PersianDatePipe&#45;&gt;SharedModule -->
<g id="edge3" class="edge">
<title>PersianDatePipe&#45;&gt;SharedModule</title>
<path fill="none" stroke="#000000" d="M524.087,-122.2396C524.087,-137.5706 524.087,-157 524.087,-157 524.087,-157 438.5249,-157 438.5249,-157"/>
<polygon fill="#000000" stroke="#000000" points="438.5249,-153.5001 428.5249,-157 438.5249,-160.5001 438.5249,-153.5001"/>
</g>
<!-- CurrencyUnitPipe -->
<g id="node4" class="node">
<title>CurrencyUnitPipe</title>
<polygon fill="#ffffb3" stroke="#000000" points="433.8627,-122 316.1373,-122 316.1373,-86 433.8627,-86 433.8627,-122"/>
<text text-anchor="middle" x="375" y="-99.8" font-family="Times,serif" font-size="14.00" fill="#000000">CurrencyUnitPipe</text>
</g>
<!-- CurrencyUnitPipe&#45;&gt;SharedModule -->
<g id="edge4" class="edge">
<title>CurrencyUnitPipe&#45;&gt;SharedModule</title>
<path fill="none" stroke="#000000" d="M379,-122.1061C379,-122.1061 379,-140.991 379,-140.991"/>
<polygon fill="#000000" stroke="#000000" points="375.5001,-140.9909 379,-150.991 382.5001,-140.991 375.5001,-140.9909"/>
</g>
<!-- PersianNumberPipe -->
<g id="node5" class="node">
<title>PersianNumberPipe</title>
<polygon fill="#ffffb3" stroke="#000000" points="297.9678,-122 170.0322,-122 170.0322,-86 297.9678,-86 297.9678,-122"/>
<text text-anchor="middle" x="234" y="-99.8" font-family="Times,serif" font-size="14.00" fill="#000000">PersianNumberPipe</text>
</g>
<!-- PersianNumberPipe&#45;&gt;SharedModule -->
<g id="edge5" class="edge">
<title>PersianNumberPipe&#45;&gt;SharedModule</title>
<path fill="none" stroke="#000000" d="M251.828,-122.0091C251.828,-138.0494 251.828,-159 251.828,-159 251.828,-159 319.4678,-159 319.4678,-159"/>
<polygon fill="#000000" stroke="#000000" points="319.4679,-162.5001 329.4678,-159 319.4678,-155.5001 319.4679,-162.5001"/>
</g>
<!-- TimeCounterPipe -->
<g id="node6" class="node">
<title>TimeCounterPipe</title>
<polygon fill="#ffffb3" stroke="#000000" points="151.5395,-122 36.4605,-122 36.4605,-86 151.5395,-86 151.5395,-122"/>
<text text-anchor="middle" x="94" y="-99.8" font-family="Times,serif" font-size="14.00" fill="#000000">TimeCounterPipe</text>
</g>
<!-- TimeCounterPipe&#45;&gt;SharedModule -->
<g id="edge6" class="edge">
<title>TimeCounterPipe&#45;&gt;SharedModule</title>
<path fill="none" stroke="#000000" d="M147.6443,-122.2667C147.6443,-140.5552 147.6443,-166 147.6443,-166 147.6443,-166 319.6522,-166 319.6522,-166"/>
<polygon fill="#000000" stroke="#000000" points="319.6522,-169.5001 329.6522,-166 319.6521,-162.5001 319.6522,-169.5001"/>
</g>
<!-- DataUnitPipe  -->
<g id="node8" class="node">
<title>DataUnitPipe </title>
<polygon fill="#fb8072" stroke="#000000" points="791.7025,-252 696.2975,-252 696.2975,-216 791.7025,-216 791.7025,-252"/>
<text text-anchor="middle" x="744" y="-229.8" font-family="Times,serif" font-size="14.00" fill="#000000">DataUnitPipe </text>
</g>
<!-- SharedModule&#45;&gt;DataUnitPipe  -->
<g id="edge7" class="edge">
<title>SharedModule&#45;&gt;DataUnitPipe </title>
<path fill="none" stroke="#000000" stroke-dasharray="5,2" d="M428.2722,-172C523.9254,-172 725.4663,-172 725.4663,-172 725.4663,-172 725.4663,-205.7333 725.4663,-205.7333"/>
<polygon fill="#000000" stroke="#000000" points="721.9664,-205.7333 725.4663,-215.7333 728.9664,-205.7333 721.9664,-205.7333"/>
</g>
<!-- TimeUnitPipe  -->
<g id="node9" class="node">
<title>TimeUnitPipe </title>
<polygon fill="#fb8072" stroke="#000000" points="678.3242,-252 579.6758,-252 579.6758,-216 678.3242,-216 678.3242,-252"/>
<text text-anchor="middle" x="629" y="-229.8" font-family="Times,serif" font-size="14.00" fill="#000000">TimeUnitPipe </text>
</g>
<!-- SharedModule&#45;&gt;TimeUnitPipe  -->
<g id="edge8" class="edge">
<title>SharedModule&#45;&gt;TimeUnitPipe </title>
<path fill="none" stroke="#000000" stroke-dasharray="5,2" d="M428.4737,-177C496.5937,-177 610.946,-177 610.946,-177 610.946,-177 610.946,-205.9648 610.946,-205.9648"/>
<polygon fill="#000000" stroke="#000000" points="607.4461,-205.9648 610.946,-215.9648 614.4461,-205.9649 607.4461,-205.9648"/>
</g>
<!-- PersianDatePipe  -->
<g id="node10" class="node">
<title>PersianDatePipe </title>
<polygon fill="#fb8072" stroke="#000000" points="562.0218,-252 449.9782,-252 449.9782,-216 562.0218,-216 562.0218,-252"/>
<text text-anchor="middle" x="506" y="-229.8" font-family="Times,serif" font-size="14.00" fill="#000000">PersianDatePipe </text>
</g>
<!-- SharedModule&#45;&gt;PersianDatePipe  -->
<g id="edge9" class="edge">
<title>SharedModule&#45;&gt;PersianDatePipe </title>
<path fill="none" stroke="#000000" stroke-dasharray="5,2" d="M428.3579,-182C457.1749,-182 487.913,-182 487.913,-182 487.913,-182 487.913,-205.8129 487.913,-205.8129"/>
<polygon fill="#000000" stroke="#000000" points="484.4131,-205.8129 487.913,-215.8129 491.4131,-205.813 484.4131,-205.8129"/>
</g>
<!-- CurrencyUnitPipe  -->
<g id="node11" class="node">
<title>CurrencyUnitPipe </title>
<polygon fill="#fb8072" stroke="#000000" points="431.8631,-252 310.1369,-252 310.1369,-216 431.8631,-216 431.8631,-252"/>
<text text-anchor="middle" x="371" y="-229.8" font-family="Times,serif" font-size="14.00" fill="#000000">CurrencyUnitPipe </text>
</g>
<!-- SharedModule&#45;&gt;CurrencyUnitPipe  -->
<g id="edge10" class="edge">
<title>SharedModule&#45;&gt;CurrencyUnitPipe </title>
<path fill="none" stroke="#000000" stroke-dasharray="5,2" d="M379,-187.1061C379,-187.1061 379,-205.991 379,-205.991"/>
<polygon fill="#000000" stroke="#000000" points="375.5001,-205.9909 379,-215.991 382.5001,-205.991 375.5001,-205.9909"/>
</g>
<!-- PersianNumberPipe  -->
<g id="node12" class="node">
<title>PersianNumberPipe </title>
<polygon fill="#fb8072" stroke="#000000" points="292.9686,-252 161.0314,-252 161.0314,-216 292.9686,-216 292.9686,-252"/>
<text text-anchor="middle" x="227" y="-229.8" font-family="Times,serif" font-size="14.00" fill="#000000">PersianNumberPipe </text>
</g>
<!-- SharedModule&#45;&gt;PersianNumberPipe  -->
<g id="edge11" class="edge">
<title>SharedModule&#45;&gt;PersianNumberPipe </title>
<path fill="none" stroke="#000000" stroke-dasharray="5,2" d="M329.4801,-180C279.9013,-180 210.922,-180 210.922,-180 210.922,-180 210.922,-205.7181 210.922,-205.7181"/>
<polygon fill="#000000" stroke="#000000" points="207.4221,-205.718 210.922,-215.7181 214.4221,-205.7181 207.4221,-205.718"/>
</g>
<!-- TimeCounterPipe  -->
<g id="node13" class="node">
<title>TimeCounterPipe </title>
<polygon fill="#fb8072" stroke="#000000" points="143.5386,-252 24.4614,-252 24.4614,-216 143.5386,-216 143.5386,-252"/>
<text text-anchor="middle" x="84" y="-229.8" font-family="Times,serif" font-size="14.00" fill="#000000">TimeCounterPipe </text>
</g>
<!-- SharedModule&#45;&gt;TimeCounterPipe  -->
<g id="edge12" class="edge">
<title>SharedModule&#45;&gt;TimeCounterPipe </title>
<path fill="none" stroke="#000000" stroke-dasharray="5,2" d="M329.6262,-173C247.0486,-173 89.875,-173 89.875,-173 89.875,-173 89.875,-205.698 89.875,-205.698"/>
<polygon fill="#000000" stroke="#000000" points="86.3751,-205.698 89.875,-215.698 93.3751,-205.698 86.3751,-205.698"/>
</g>
</g>
</svg>
