<?xml version="1.0" encoding="UTF-8" standalone="no"?>
<!DOCTYPE svg PUBLIC "-//W3C//DTD SVG 1.1//EN"
 "http://www.w3.org/Graphics/SVG/1.1/DTD/svg11.dtd">
<!-- Generated by graphviz version 2.40.1 (20161225.0304)
 -->
<!-- Title: dependencies Pages: 1 -->
<svg width="5818pt" height="284pt"
 viewBox="0.00 0.00 5818.00 284.00" xmlns="http://www.w3.org/2000/svg" xmlns:xlink="http://www.w3.org/1999/xlink">
<g id="graph0" class="graph" transform="scale(1 1) rotate(0) translate(4 280)">
<title>dependencies</title>
<polygon fill="#ffffff" stroke="transparent" points="-4,4 -4,-280 5814,-280 5814,4 -4,4"/>
<text text-anchor="start" x="2884.0091" y="-42.4" font-family="sans-serif" font-weight="bold" font-size="14.00" fill="#000000">Legend</text>
<polygon fill="#ffffb3" stroke="transparent" points="2671,-10 2671,-30 2691,-30 2691,-10 2671,-10"/>
<text text-anchor="start" x="2694.629" y="-15.4" font-family="sans-serif" font-size="14.00" fill="#000000"> &#160;Declarations</text>
<polygon fill="#8dd3c7" stroke="transparent" points="2784,-10 2784,-30 2804,-30 2804,-10 2784,-10"/>
<text text-anchor="start" x="2807.7251" y="-15.4" font-family="sans-serif" font-size="14.00" fill="#000000"> &#160;Module</text>
<polygon fill="#80b1d3" stroke="transparent" points="2870,-10 2870,-30 2890,-30 2890,-10 2870,-10"/>
<text text-anchor="start" x="2893.7812" y="-15.4" font-family="sans-serif" font-size="14.00" fill="#000000"> &#160;Bootstrap</text>
<polygon fill="#fdb462" stroke="transparent" points="2967,-10 2967,-30 2987,-30 2987,-10 2967,-10"/>
<text text-anchor="start" x="2990.6732" y="-15.4" font-family="sans-serif" font-size="14.00" fill="#000000"> &#160;Providers</text>
<polygon fill="#fb8072" stroke="transparent" points="3063,-10 3063,-30 3083,-30 3083,-10 3063,-10"/>
<text text-anchor="start" x="3086.7258" y="-15.4" font-family="sans-serif" font-size="14.00" fill="#000000"> &#160;Exports</text>
<g id="clust1" class="cluster">
<title>cluster_AppModule</title>
<polygon fill="none" stroke="#000000" stroke-dasharray="1,5" points="8,-70 8,-268 5802,-268 5802,-70 8,-70"/>
</g>
<g id="clust2" class="cluster">
<title>cluster_AppModule_declarations</title>
<polygon fill="none" stroke="#000000" points="5672,-78 5672,-130 5794,-130 5794,-78 5672,-78"/>
</g>
<g id="clust4" class="cluster">
<title>cluster_AppModule_imports</title>
<polygon fill="none" stroke="#000000" points="1893,-78 1893,-130 5664,-130 5664,-78 1893,-78"/>
</g>
<g id="clust6" class="cluster">
<title>cluster_AppModule_bootstrap</title>
<polygon fill="none" stroke="#000000" points="3410,-208 3410,-260 3534,-260 3534,-208 3410,-208"/>
</g>
<g id="clust7" class="cluster">
<title>cluster_AppModule_providers</title>
<polygon fill="none" stroke="#000000" points="16,-78 16,-130 1885,-130 1885,-78 16,-78"/>
</g>
<!-- AppComponent -->
<g id="node1" class="node">
<title>AppComponent</title>
<polygon fill="#ffffb3" stroke="#000000" points="5785.9399,-122 5680.0601,-122 5680.0601,-86 5785.9399,-86 5785.9399,-122"/>
<text text-anchor="middle" x="5733" y="-99.8" font-family="Times,serif" font-size="14.00" fill="#000000">AppComponent</text>
</g>
<!-- AppModule -->
<g id="node2" class="node">
<title>AppModule</title>
<polygon fill="#8dd3c7" stroke="#000000" points="3513.6571,-187 3510.6571,-191 3489.6571,-191 3486.6571,-187 3430.3429,-187 3430.3429,-151 3513.6571,-151 3513.6571,-187"/>
<text text-anchor="middle" x="3472" y="-164.8" font-family="Times,serif" font-size="14.00" fill="#000000">AppModule</text>
</g>
<!-- AppComponent&#45;&gt;AppModule -->
<g id="edge1" class="edge">
<title>AppComponent&#45;&gt;AppModule</title>
<path fill="none" stroke="#000000" d="M5733,-122.3802C5733,-146.2785 5733,-185 5733,-185 5733,-185 3523.6633,-185 3523.6633,-185"/>
<polygon fill="#000000" stroke="#000000" points="3523.6633,-181.5001 3513.6633,-185 3523.6633,-188.5001 3523.6633,-181.5001"/>
</g>
<!-- AppComponent  -->
<g id="node26" class="node">
<title>AppComponent </title>
<polygon fill="#80b1d3" stroke="#000000" points="3526.439,-252 3417.561,-252 3417.561,-216 3526.439,-216 3526.439,-252"/>
<text text-anchor="middle" x="3472" y="-229.8" font-family="Times,serif" font-size="14.00" fill="#000000">AppComponent </text>
</g>
<!-- AppModule&#45;&gt;AppComponent  -->
<g id="edge25" class="edge">
<title>AppModule&#45;&gt;AppComponent </title>
<path fill="none" stroke="#000000" stroke-dasharray="1,5" d="M3472,-187.1061C3472,-187.1061 3472,-205.991 3472,-205.991"/>
<polygon fill="#000000" stroke="#000000" points="3468.5001,-205.9909 3472,-215.991 3475.5001,-205.991 3468.5001,-205.9909"/>
</g>
<!-- CoreModule -->
<g id="node3" class="node">
<title>CoreModule</title>
<polygon fill="#8dd3c7" stroke="#000000" points="5656.2619,-122 5653.2619,-126 5632.2619,-126 5629.2619,-122 5569.7381,-122 5569.7381,-86 5656.2619,-86 5656.2619,-122"/>
<text text-anchor="middle" x="5613" y="-99.8" font-family="Times,serif" font-size="14.00" fill="#000000">CoreModule</text>
</g>
<!-- CoreModule&#45;&gt;AppModule -->
<g id="edge2" class="edge">
<title>CoreModule&#45;&gt;AppModule</title>
<path fill="none" stroke="#000000" d="M5613,-122.0908C5613,-145.1328 5613,-182 5613,-182 5613,-182 3523.8073,-182 3523.8073,-182"/>
<polygon fill="#000000" stroke="#000000" points="3523.8073,-178.5001 3513.8073,-182 3523.8073,-185.5001 3523.8073,-178.5001"/>
</g>
<!-- MatSidenavModule -->
<g id="node4" class="node">
<title>MatSidenavModule</title>
<polygon fill="#8dd3c7" stroke="#000000" points="5551.7022,-122 5548.7022,-126 5527.7022,-126 5524.7022,-122 5424.2978,-122 5424.2978,-86 5551.7022,-86 5551.7022,-122"/>
<text text-anchor="middle" x="5488" y="-99.8" font-family="Times,serif" font-size="14.00" fill="#000000">MatSidenavModule</text>
</g>
<!-- MatSidenavModule&#45;&gt;AppModule -->
<g id="edge3" class="edge">
<title>MatSidenavModule&#45;&gt;AppModule</title>
<path fill="none" stroke="#000000" d="M5488,-122.0109C5488,-144.4852 5488,-180 5488,-180 5488,-180 3524.107,-180 3524.107,-180"/>
<polygon fill="#000000" stroke="#000000" points="3524.1071,-176.5001 3514.107,-180 3524.107,-183.5001 3524.1071,-176.5001"/>
</g>
<!-- MatToolbarModule -->
<g id="node5" class="node">
<title>MatToolbarModule</title>
<polygon fill="#8dd3c7" stroke="#000000" points="5406.4187,-122 5403.4187,-126 5382.4187,-126 5379.4187,-122 5279.5813,-122 5279.5813,-86 5406.4187,-86 5406.4187,-122"/>
<text text-anchor="middle" x="5343" y="-99.8" font-family="Times,serif" font-size="14.00" fill="#000000">MatToolbarModule</text>
</g>
<!-- MatToolbarModule&#45;&gt;AppModule -->
<g id="edge4" class="edge">
<title>MatToolbarModule&#45;&gt;AppModule</title>
<path fill="none" stroke="#000000" d="M5343,-122.0449C5343,-143.6623 5343,-177 5343,-177 5343,-177 3523.7018,-177 3523.7018,-177"/>
<polygon fill="#000000" stroke="#000000" points="3523.7018,-173.5001 3513.7018,-177 3523.7017,-180.5001 3523.7018,-173.5001"/>
</g>
<!-- FormsModule -->
<g id="node6" class="node">
<title>FormsModule</title>
<polygon fill="#8dd3c7" stroke="#000000" points="5261.8288,-122 5258.8288,-126 5237.8288,-126 5234.8288,-122 5166.1712,-122 5166.1712,-86 5261.8288,-86 5261.8288,-122"/>
<text text-anchor="middle" x="5214" y="-99.8" font-family="Times,serif" font-size="14.00" fill="#000000">FormsModule</text>
</g>
<!-- FormsModule&#45;&gt;AppModule -->
<g id="edge5" class="edge">
<title>FormsModule&#45;&gt;AppModule</title>
<path fill="none" stroke="#000000" d="M5214,-122.2843C5214,-143.3211 5214,-175 5214,-175 5214,-175 3523.7692,-175 3523.7692,-175"/>
<polygon fill="#000000" stroke="#000000" points="3523.7693,-171.5001 3513.7692,-175 3523.7692,-178.5001 3523.7693,-171.5001"/>
</g>
<!-- BrowserAnimationsModule -->
<g id="node7" class="node">
<title>BrowserAnimationsModule</title>
<polygon fill="#8dd3c7" stroke="#000000" points="5148.3019,-122 5145.3019,-126 5124.3019,-126 5121.3019,-122 4975.6981,-122 4975.6981,-86 5148.3019,-86 5148.3019,-122"/>
<text text-anchor="middle" x="5062" y="-99.8" font-family="Times,serif" font-size="14.00" fill="#000000">BrowserAnimationsModule</text>
</g>
<!-- BrowserAnimationsModule&#45;&gt;AppModule -->
<g id="edge6" class="edge">
<title>BrowserAnimationsModule&#45;&gt;AppModule</title>
<path fill="none" stroke="#000000" d="M5062,-122.2228C5062,-142.3652 5062,-172 5062,-172 5062,-172 3523.7114,-172 3523.7114,-172"/>
<polygon fill="#000000" stroke="#000000" points="3523.7114,-168.5001 3513.7114,-172 3523.7113,-175.5001 3523.7114,-168.5001"/>
</g>
<!-- BrowserModule -->
<g id="node8" class="node">
<title>BrowserModule</title>
<polygon fill="#8dd3c7" stroke="#000000" points="4957.4734,-122 4954.4734,-126 4933.4734,-126 4930.4734,-122 4850.5266,-122 4850.5266,-86 4957.4734,-86 4957.4734,-122"/>
<text text-anchor="middle" x="4904" y="-99.8" font-family="Times,serif" font-size="14.00" fill="#000000">BrowserModule</text>
</g>
<!-- BrowserModule&#45;&gt;AppModule -->
<g id="edge7" class="edge">
<title>BrowserModule&#45;&gt;AppModule</title>
<path fill="none" stroke="#000000" d="M4904,-122.1061C4904,-141.3391 4904,-169 4904,-169 4904,-169 3523.6963,-169 3523.6963,-169"/>
<polygon fill="#000000" stroke="#000000" points="3523.6963,-165.5001 3513.6963,-169 3523.6962,-172.5001 3523.6963,-165.5001"/>
</g>
<!-- ReactiveFormsModule -->
<g id="node9" class="node">
<title>ReactiveFormsModule</title>
<polygon fill="#8dd3c7" stroke="#000000" points="4832.3047,-122 4829.3047,-126 4808.3047,-126 4805.3047,-122 4687.6953,-122 4687.6953,-86 4832.3047,-86 4832.3047,-122"/>
<text text-anchor="middle" x="4760" y="-99.8" font-family="Times,serif" font-size="14.00" fill="#000000">ReactiveFormsModule</text>
</g>
<!-- ReactiveFormsModule&#45;&gt;AppModule -->
<g id="edge8" class="edge">
<title>ReactiveFormsModule&#45;&gt;AppModule</title>
<path fill="none" stroke="#000000" d="M4760,-122.2222C4760,-140.8285 4760,-167 4760,-167 4760,-167 3523.7578,-167 3523.7578,-167"/>
<polygon fill="#000000" stroke="#000000" points="3523.7579,-163.5001 3513.7578,-167 3523.7578,-170.5001 3523.7579,-163.5001"/>
</g>
<!-- StoreModule.forRoot(args) -->
<g id="node10" class="node">
<title>StoreModule.forRoot(args)</title>
<polygon fill="#8dd3c7" stroke="#000000" points="4669.2877,-122 4666.2877,-126 4645.2877,-126 4642.2877,-122 4500.7123,-122 4500.7123,-86 4669.2877,-86 4669.2877,-122"/>
<text text-anchor="middle" x="4585" y="-99.8" font-family="Times,serif" font-size="14.00" fill="#000000">StoreModule.forRoot(args)</text>
</g>
<!-- StoreModule.forRoot(args)&#45;&gt;AppModule -->
<g id="edge9" class="edge">
<title>StoreModule.forRoot(args)&#45;&gt;AppModule</title>
<path fill="none" stroke="#000000" d="M4585,-122.002C4585,-139.6754 4585,-164 4585,-164 4585,-164 3523.9351,-164 3523.9351,-164"/>
<polygon fill="#000000" stroke="#000000" points="3523.9351,-160.5001 3513.9351,-164 3523.9351,-167.5001 3523.9351,-160.5001"/>
</g>
<!-- StoreDevtoolsModule.instrument(args) -->
<g id="node11" class="node">
<title>StoreDevtoolsModule.instrument(args)</title>
<polygon fill="#8dd3c7" stroke="#000000" points="4482.6686,-122 4479.6686,-126 4458.6686,-126 4455.6686,-122 4247.3314,-122 4247.3314,-86 4482.6686,-86 4482.6686,-122"/>
<text text-anchor="middle" x="4365" y="-99.8" font-family="Times,serif" font-size="14.00" fill="#000000">StoreDevtoolsModule.instrument(args)</text>
</g>
<!-- StoreDevtoolsModule.instrument(args)&#45;&gt;AppModule -->
<g id="edge10" class="edge">
<title>StoreDevtoolsModule.instrument(args)&#45;&gt;AppModule</title>
<path fill="none" stroke="#000000" d="M4365,-122.0336C4365,-139.0597 4365,-162 4365,-162 4365,-162 3523.8735,-162 3523.8735,-162"/>
<polygon fill="#000000" stroke="#000000" points="3523.8735,-158.5001 3513.8735,-162 3523.8735,-165.5001 3523.8735,-158.5001"/>
</g>
<!-- EffectsModule.forRoot(args) -->
<g id="node12" class="node">
<title>EffectsModule.forRoot(args)</title>
<polygon fill="#8dd3c7" stroke="#000000" points="4229.3774,-122 4226.3774,-126 4205.3774,-126 4202.3774,-122 4050.6226,-122 4050.6226,-86 4229.3774,-86 4229.3774,-122"/>
<text text-anchor="middle" x="4140" y="-99.8" font-family="Times,serif" font-size="14.00" fill="#000000">EffectsModule.forRoot(args)</text>
</g>
<!-- EffectsModule.forRoot(args)&#45;&gt;AppModule -->
<g id="edge11" class="edge">
<title>EffectsModule.forRoot(args)&#45;&gt;AppModule</title>
<path fill="none" stroke="#000000" d="M4140,-122.0091C4140,-138.0494 4140,-159 4140,-159 4140,-159 3523.7864,-159 3523.7864,-159"/>
<polygon fill="#000000" stroke="#000000" points="3523.7864,-155.5001 3513.7864,-159 3523.7864,-162.5001 3523.7864,-155.5001"/>
</g>
<!-- NgsLayoutModule.forRoot() -->
<g id="node13" class="node">
<title>NgsLayoutModule.forRoot()</title>
<polygon fill="#8dd3c7" stroke="#000000" points="4032.1284,-122 4029.1284,-126 4008.1284,-126 4005.1284,-122 3853.8716,-122 3853.8716,-86 4032.1284,-86 4032.1284,-122"/>
<text text-anchor="middle" x="3943" y="-99.8" font-family="Times,serif" font-size="14.00" fill="#000000">NgsLayoutModule.forRoot()</text>
</g>
<!-- NgsLayoutModule.forRoot()&#45;&gt;AppModule -->
<g id="edge12" class="edge">
<title>NgsLayoutModule.forRoot()&#45;&gt;AppModule</title>
<path fill="none" stroke="#000000" d="M3943,-122.2396C3943,-137.5706 3943,-157 3943,-157 3943,-157 3523.7981,-157 3523.7981,-157"/>
<polygon fill="#000000" stroke="#000000" points="3523.7981,-153.5001 3513.7981,-157 3523.7981,-160.5001 3523.7981,-153.5001"/>
</g>
<!-- NgsAuthenticationModule.forRoot(args) -->
<g id="node14" class="node">
<title>NgsAuthenticationModule.forRoot(args)</title>
<polygon fill="#8dd3c7" stroke="#000000" points="3835.4938,-122 3832.4938,-126 3811.4938,-126 3808.4938,-122 3590.5062,-122 3590.5062,-86 3835.4938,-86 3835.4938,-122"/>
<text text-anchor="middle" x="3713" y="-99.8" font-family="Times,serif" font-size="14.00" fill="#000000">NgsAuthenticationModule.forRoot(args)</text>
</g>
<!-- NgsAuthenticationModule.forRoot(args)&#45;&gt;AppModule -->
<g id="edge13" class="edge">
<title>NgsAuthenticationModule.forRoot(args)&#45;&gt;AppModule</title>
<path fill="none" stroke="#000000" d="M3713,-122.0511C3713,-136.373 3713,-154 3713,-154 3713,-154 3523.7039,-154 3523.7039,-154"/>
<polygon fill="#000000" stroke="#000000" points="3523.7039,-150.5001 3513.7039,-154 3523.7038,-157.5001 3523.7039,-150.5001"/>
</g>
<!-- NgsConfigModule.forRoot(args) -->
<g id="node15" class="node">
<title>NgsConfigModule.forRoot(args)</title>
<polygon fill="#8dd3c7" stroke="#000000" points="3572.1785,-122 3569.1785,-126 3548.1785,-126 3545.1785,-122 3371.8215,-122 3371.8215,-86 3572.1785,-86 3572.1785,-122"/>
<text text-anchor="middle" x="3472" y="-99.8" font-family="Times,serif" font-size="14.00" fill="#000000">NgsConfigModule.forRoot(args)</text>
</g>
<!-- NgsConfigModule.forRoot(args)&#45;&gt;AppModule -->
<g id="edge14" class="edge">
<title>NgsConfigModule.forRoot(args)&#45;&gt;AppModule</title>
<path fill="none" stroke="#000000" d="M3472,-122.1061C3472,-122.1061 3472,-140.991 3472,-140.991"/>
<polygon fill="#000000" stroke="#000000" points="3468.5001,-140.9909 3472,-150.991 3475.5001,-140.991 3468.5001,-140.9909"/>
</g>
<!-- NgsUserModule.forRoot(args) -->
<g id="node16" class="node">
<title>NgsUserModule.forRoot(args)</title>
<polygon fill="#8dd3c7" stroke="#000000" points="3354.2169,-122 3351.2169,-126 3330.2169,-126 3327.2169,-122 3165.7831,-122 3165.7831,-86 3354.2169,-86 3354.2169,-122"/>
<text text-anchor="middle" x="3260" y="-99.8" font-family="Times,serif" font-size="14.00" fill="#000000">NgsUserModule.forRoot(args)</text>
</g>
<!-- NgsUserModule.forRoot(args)&#45;&gt;AppModule -->
<g id="edge15" class="edge">
<title>NgsUserModule.forRoot(args)&#45;&gt;AppModule</title>
<path fill="none" stroke="#000000" d="M3260,-122.0511C3260,-136.373 3260,-154 3260,-154 3260,-154 3420.1156,-154 3420.1156,-154"/>
<polygon fill="#000000" stroke="#000000" points="3420.1157,-157.5001 3430.1156,-154 3420.1156,-150.5001 3420.1157,-157.5001"/>
</g>
<!-- NgsUserRoutingModule -->
<g id="node17" class="node">
<title>NgsUserRoutingModule</title>
<polygon fill="#8dd3c7" stroke="#000000" points="3147.6456,-122 3144.6456,-126 3123.6456,-126 3120.6456,-122 2994.3544,-122 2994.3544,-86 3147.6456,-86 3147.6456,-122"/>
<text text-anchor="middle" x="3071" y="-99.8" font-family="Times,serif" font-size="14.00" fill="#000000">NgsUserRoutingModule</text>
</g>
<!-- NgsUserRoutingModule&#45;&gt;AppModule -->
<g id="edge16" class="edge">
<title>NgsUserRoutingModule&#45;&gt;AppModule</title>
<path fill="none" stroke="#000000" d="M3071,-122.2396C3071,-137.5706 3071,-157 3071,-157 3071,-157 3420.2208,-157 3420.2208,-157"/>
<polygon fill="#000000" stroke="#000000" points="3420.2208,-160.5001 3430.2208,-157 3420.2207,-153.5001 3420.2208,-160.5001"/>
</g>
<!-- SharedModule -->
<g id="node18" class="node">
<title>SharedModule</title>
<polygon fill="#8dd3c7" stroke="#000000" points="2976.4231,-122 2973.4231,-126 2952.4231,-126 2949.4231,-122 2877.5769,-122 2877.5769,-86 2976.4231,-86 2976.4231,-122"/>
<text text-anchor="middle" x="2927" y="-99.8" font-family="Times,serif" font-size="14.00" fill="#000000">SharedModule</text>
</g>
<!-- SharedModule&#45;&gt;AppModule -->
<g id="edge17" class="edge">
<title>SharedModule&#45;&gt;AppModule</title>
<path fill="none" stroke="#000000" d="M2927,-122.0091C2927,-138.0494 2927,-159 2927,-159 2927,-159 3420.1397,-159 3420.1397,-159"/>
<polygon fill="#000000" stroke="#000000" points="3420.1397,-162.5001 3430.1397,-159 3420.1397,-155.5001 3420.1397,-162.5001"/>
</g>
<!-- SourceModule -->
<g id="node19" class="node">
<title>SourceModule</title>
<polygon fill="#8dd3c7" stroke="#000000" points="2860.4231,-122 2857.4231,-126 2836.4231,-126 2833.4231,-122 2761.5769,-122 2761.5769,-86 2860.4231,-86 2860.4231,-122"/>
<text text-anchor="middle" x="2811" y="-99.8" font-family="Times,serif" font-size="14.00" fill="#000000">SourceModule</text>
</g>
<!-- SourceModule&#45;&gt;AppModule -->
<g id="edge18" class="edge">
<title>SourceModule&#45;&gt;AppModule</title>
<path fill="none" stroke="#000000" d="M2811,-122.0336C2811,-139.0597 2811,-162 2811,-162 2811,-162 3420.15,-162 3420.15,-162"/>
<polygon fill="#000000" stroke="#000000" points="3420.1501,-165.5001 3430.15,-162 3420.15,-158.5001 3420.1501,-165.5001"/>
</g>
<!-- StaticPageModule -->
<g id="node20" class="node">
<title>StaticPageModule</title>
<polygon fill="#8dd3c7" stroke="#000000" points="2743.1457,-122 2740.1457,-126 2719.1457,-126 2716.1457,-122 2624.8543,-122 2624.8543,-86 2743.1457,-86 2743.1457,-122"/>
<text text-anchor="middle" x="2684" y="-99.8" font-family="Times,serif" font-size="14.00" fill="#000000">StaticPageModule</text>
</g>
<!-- StaticPageModule&#45;&gt;AppModule -->
<g id="edge19" class="edge">
<title>StaticPageModule&#45;&gt;AppModule</title>
<path fill="none" stroke="#000000" d="M2684,-122.002C2684,-139.6754 2684,-164 2684,-164 2684,-164 3420.1901,-164 3420.1901,-164"/>
<polygon fill="#000000" stroke="#000000" points="3420.1901,-167.5001 3430.1901,-164 3420.19,-160.5001 3420.1901,-167.5001"/>
</g>
<!-- NgsFormModule.forRoot() -->
<g id="node21" class="node">
<title>NgsFormModule.forRoot()</title>
<polygon fill="#8dd3c7" stroke="#000000" points="2606.3045,-122 2603.3045,-126 2582.3045,-126 2579.3045,-122 2437.6955,-122 2437.6955,-86 2606.3045,-86 2606.3045,-122"/>
<text text-anchor="middle" x="2522" y="-99.8" font-family="Times,serif" font-size="14.00" fill="#000000">NgsFormModule.forRoot()</text>
</g>
<!-- NgsFormModule.forRoot()&#45;&gt;AppModule -->
<g id="edge20" class="edge">
<title>NgsFormModule.forRoot()&#45;&gt;AppModule</title>
<path fill="none" stroke="#000000" d="M2522,-122.2222C2522,-140.8285 2522,-167 2522,-167 2522,-167 3420.2619,-167 3420.2619,-167"/>
<polygon fill="#000000" stroke="#000000" points="3420.2619,-170.5001 3430.2619,-167 3420.2618,-163.5001 3420.2619,-170.5001"/>
</g>
<!-- AppRoutingModule -->
<g id="node22" class="node">
<title>AppRoutingModule</title>
<polygon fill="#8dd3c7" stroke="#000000" points="2419.2744,-122 2416.2744,-126 2395.2744,-126 2392.2744,-122 2290.7256,-122 2290.7256,-86 2419.2744,-86 2419.2744,-122"/>
<text text-anchor="middle" x="2355" y="-99.8" font-family="Times,serif" font-size="14.00" fill="#000000">AppRoutingModule</text>
</g>
<!-- AppRoutingModule&#45;&gt;AppModule -->
<g id="edge21" class="edge">
<title>AppRoutingModule&#45;&gt;AppModule</title>
<path fill="none" stroke="#000000" d="M2355,-122.1061C2355,-141.3391 2355,-169 2355,-169 2355,-169 3420.2509,-169 3420.2509,-169"/>
<polygon fill="#000000" stroke="#000000" points="3420.2509,-172.5001 3430.2509,-169 3420.2509,-165.5001 3420.2509,-172.5001"/>
</g>
<!-- MatFormFieldModule -->
<g id="node23" class="node">
<title>MatFormFieldModule</title>
<polygon fill="#8dd3c7" stroke="#000000" points="2272.712,-122 2269.712,-126 2248.712,-126 2245.712,-122 2131.288,-122 2131.288,-86 2272.712,-86 2272.712,-122"/>
<text text-anchor="middle" x="2202" y="-99.8" font-family="Times,serif" font-size="14.00" fill="#000000">MatFormFieldModule</text>
</g>
<!-- MatFormFieldModule&#45;&gt;AppModule -->
<g id="edge22" class="edge">
<title>MatFormFieldModule&#45;&gt;AppModule</title>
<path fill="none" stroke="#000000" d="M2202,-122.2228C2202,-142.3652 2202,-172 2202,-172 2202,-172 3420.1066,-172 3420.1066,-172"/>
<polygon fill="#000000" stroke="#000000" points="3420.1066,-175.5001 3430.1066,-172 3420.1065,-168.5001 3420.1066,-175.5001"/>
</g>
<!-- DashboardModule -->
<g id="node24" class="node">
<title>DashboardModule</title>
<polygon fill="#8dd3c7" stroke="#000000" points="2113.191,-122 2110.191,-126 2089.191,-126 2086.191,-122 1992.809,-122 1992.809,-86 2113.191,-86 2113.191,-122"/>
<text text-anchor="middle" x="2053" y="-99.8" font-family="Times,serif" font-size="14.00" fill="#000000">DashboardModule</text>
</g>
<!-- DashboardModule&#45;&gt;AppModule -->
<g id="edge23" class="edge">
<title>DashboardModule&#45;&gt;AppModule</title>
<path fill="none" stroke="#000000" d="M2053,-122.2843C2053,-143.3211 2053,-175 2053,-175 2053,-175 3420.3005,-175 3420.3005,-175"/>
<polygon fill="#000000" stroke="#000000" points="3420.3005,-178.5001 3430.3005,-175 3420.3005,-171.5001 3420.3005,-178.5001"/>
</g>
<!-- OiModule -->
<g id="node25" class="node">
<title>OiModule</title>
<polygon fill="#8dd3c7" stroke="#000000" points="1974.5484,-122 1971.5484,-126 1950.5484,-126 1947.5484,-122 1901.4516,-122 1901.4516,-86 1974.5484,-86 1974.5484,-122"/>
<text text-anchor="middle" x="1938" y="-99.8" font-family="Times,serif" font-size="14.00" fill="#000000">OiModule</text>
</g>
<!-- OiModule&#45;&gt;AppModule -->
<g id="edge24" class="edge">
<title>OiModule&#45;&gt;AppModule</title>
<path fill="none" stroke="#000000" d="M1938,-122.0449C1938,-143.6623 1938,-177 1938,-177 1938,-177 3420.1736,-177 3420.1736,-177"/>
<polygon fill="#000000" stroke="#000000" points="3420.1737,-180.5001 3430.1736,-177 3420.1736,-173.5001 3420.1737,-180.5001"/>
</g>
<!-- { provide: LOCALE_ID, useValue: &#39;fa&#45;IR&#39; } -->
<g id="node27" class="node">
<title>{ provide: LOCALE_ID, useValue: &#39;fa&#45;IR&#39; }</title>
<ellipse fill="#fdb462" stroke="#000000" cx="1692" cy="-104" rx="185.463" ry="18"/>
<text text-anchor="middle" x="1692" y="-99.8" font-family="Times,serif" font-size="14.00" fill="#000000">{ provide: LOCALE_ID, useValue: &#39;fa&#45;IR&#39; }</text>
</g>
<!-- { provide: LOCALE_ID, useValue: &#39;fa&#45;IR&#39; }&#45;&gt;AppModule -->
<g id="edge26" class="edge">
<title>{ provide: LOCALE_ID, useValue: &#39;fa&#45;IR&#39; }&#45;&gt;AppModule</title>
<path fill="none" stroke="#000000" d="M1692,-122.0109C1692,-144.4852 1692,-180 1692,-180 1692,-180 3420.1891,-180 3420.1891,-180"/>
<polygon fill="#000000" stroke="#000000" points="3420.1892,-183.5001 3430.1891,-180 3420.1891,-176.5001 3420.1892,-183.5001"/>
</g>
<!-- { provide: DateAdapter, useClass: JalaliMomentDateAdapter, deps: [MAT_DATE_LOCALE] } -->
<g id="node28" class="node">
<title>{ provide: DateAdapter, useClass: JalaliMomentDateAdapter, deps: [MAT_DATE_LOCALE] }</title>
<ellipse fill="#fdb462" stroke="#000000" cx="1104" cy="-104" rx="384.4004" ry="18"/>
<text text-anchor="middle" x="1104" y="-99.8" font-family="Times,serif" font-size="14.00" fill="#000000">{ provide: DateAdapter, useClass: JalaliMomentDateAdapter, deps: [MAT_DATE_LOCALE] }</text>
</g>
<!-- { provide: DateAdapter, useClass: JalaliMomentDateAdapter, deps: [MAT_DATE_LOCALE] }&#45;&gt;AppModule -->
<g id="edge27" class="edge">
<title>{ provide: DateAdapter, useClass: JalaliMomentDateAdapter, deps: [MAT_DATE_LOCALE] }&#45;&gt;AppModule</title>
<path fill="none" stroke="#000000" d="M1104,-122.0908C1104,-145.1328 1104,-182 1104,-182 1104,-182 3420.1462,-182 3420.1462,-182"/>
<polygon fill="#000000" stroke="#000000" points="3420.1463,-185.5001 3430.1462,-182 3420.1462,-178.5001 3420.1463,-185.5001"/>
</g>
<!-- { provide: MAT_DATE_FORMATS, useValue: JALALI_MOMENT_FORMATS } -->
<g id="node29" class="node">
<title>{ provide: MAT_DATE_FORMATS, useValue: JALALI_MOMENT_FORMATS }</title>
<ellipse fill="#fdb462" stroke="#000000" cx="363" cy="-104" rx="338.8452" ry="18"/>
<text text-anchor="middle" x="363" y="-99.8" font-family="Times,serif" font-size="14.00" fill="#000000">{ provide: MAT_DATE_FORMATS, useValue: JALALI_MOMENT_FORMATS }</text>
</g>
<!-- { provide: MAT_DATE_FORMATS, useValue: JALALI_MOMENT_FORMATS }&#45;&gt;AppModule -->
<g id="edge28" class="edge">
<title>{ provide: MAT_DATE_FORMATS, useValue: JALALI_MOMENT_FORMATS }&#45;&gt;AppModule</title>
<path fill="none" stroke="#000000" d="M363,-122.3802C363,-146.2785 363,-185 363,-185 363,-185 3420.1107,-185 3420.1107,-185"/>
<polygon fill="#000000" stroke="#000000" points="3420.1107,-188.5001 3430.1107,-185 3420.1106,-181.5001 3420.1107,-188.5001"/>
</g>
</g>
</svg>
