<?xml version="1.0" encoding="UTF-8" standalone="no"?>
<!DOCTYPE svg PUBLIC "-//W3C//DTD SVG 1.1//EN"
 "http://www.w3.org/Graphics/SVG/1.1/DTD/svg11.dtd">
<!-- Generated by graphviz version 2.40.1 (20161225.0304)
 -->
<!-- Title: dependencies Pages: 1 -->
<svg width="2816pt" height="284pt"
 viewBox="0.00 0.00 2816.00 284.00" xmlns="http://www.w3.org/2000/svg" xmlns:xlink="http://www.w3.org/1999/xlink">
<g id="graph0" class="graph" transform="scale(1 1) rotate(0) translate(4 280)">
<title>dependencies</title>
<polygon fill="#ffffff" stroke="transparent" points="-4,4 -4,-280 2812,-280 2812,4 -4,4"/>
<text text-anchor="start" x="1383.0091" y="-42.4" font-family="sans-serif" font-weight="bold" font-size="14.00" fill="#000000">Legend</text>
<polygon fill="#ffffb3" stroke="transparent" points="1170,-10 1170,-30 1190,-30 1190,-10 1170,-10"/>
<text text-anchor="start" x="1193.629" y="-15.4" font-family="sans-serif" font-size="14.00" fill="#000000"> &#160;Declarations</text>
<polygon fill="#8dd3c7" stroke="transparent" points="1283,-10 1283,-30 1303,-30 1303,-10 1283,-10"/>
<text text-anchor="start" x="1306.7251" y="-15.4" font-family="sans-serif" font-size="14.00" fill="#000000"> &#160;Module</text>
<polygon fill="#80b1d3" stroke="transparent" points="1369,-10 1369,-30 1389,-30 1389,-10 1369,-10"/>
<text text-anchor="start" x="1392.7812" y="-15.4" font-family="sans-serif" font-size="14.00" fill="#000000"> &#160;Bootstrap</text>
<polygon fill="#fdb462" stroke="transparent" points="1466,-10 1466,-30 1486,-30 1486,-10 1466,-10"/>
<text text-anchor="start" x="1489.6732" y="-15.4" font-family="sans-serif" font-size="14.00" fill="#000000"> &#160;Providers</text>
<polygon fill="#fb8072" stroke="transparent" points="1562,-10 1562,-30 1582,-30 1582,-10 1562,-10"/>
<text text-anchor="start" x="1585.7258" y="-15.4" font-family="sans-serif" font-size="14.00" fill="#000000"> &#160;Exports</text>
<g id="clust1" class="cluster">
<title>cluster_OiCommonModule</title>
<polygon fill="none" stroke="#000000" stroke-dasharray="1,5" points="8,-70 8,-268 2800,-268 2800,-70 8,-70"/>
</g>
<g id="clust2" class="cluster">
<title>cluster_OiCommonModule_declarations</title>
<polygon fill="none" stroke="#000000" points="2344,-78 2344,-130 2792,-130 2792,-78 2344,-78"/>
</g>
<g id="clust6" class="cluster">
<title>cluster_OiCommonModule_imports</title>
<polygon fill="none" stroke="#000000" points="16,-78 16,-130 2336,-130 2336,-78 16,-78"/>
</g>
<g id="clust7" class="cluster">
<title>cluster_OiCommonModule_exports</title>
<polygon fill="none" stroke="#000000" points="1391,-208 1391,-260 1547,-260 1547,-208 1391,-208"/>
</g>
<!-- FooterComponent -->
<g id="node1" class="node">
<title>FooterComponent</title>
<polygon fill="#ffffb3" stroke="#000000" points="2783.8809,-122 2666.1191,-122 2666.1191,-86 2783.8809,-86 2783.8809,-122"/>
<text text-anchor="middle" x="2725" y="-99.8" font-family="Times,serif" font-size="14.00" fill="#000000">FooterComponent</text>
</g>
<!-- OiCommonModule -->
<g id="node4" class="node">
<title>OiCommonModule</title>
<polygon fill="#8dd3c7" stroke="#000000" points="1531.6652,-187 1528.6652,-191 1507.6652,-191 1504.6652,-187 1406.3348,-187 1406.3348,-151 1531.6652,-151 1531.6652,-187"/>
<text text-anchor="middle" x="1469" y="-164.8" font-family="Times,serif" font-size="14.00" fill="#000000">OiCommonModule</text>
</g>
<!-- FooterComponent&#45;&gt;OiCommonModule -->
<g id="edge1" class="edge">
<title>FooterComponent&#45;&gt;OiCommonModule</title>
<path fill="none" stroke="#000000" d="M2725,-122.1532C2725,-145.7566 2725,-184 2725,-184 2725,-184 1541.715,-184 1541.715,-184"/>
<polygon fill="#000000" stroke="#000000" points="1541.715,-180.5001 1531.715,-184 1541.7149,-187.5001 1541.715,-180.5001"/>
</g>
<!-- NewsletterComponent -->
<g id="node2" class="node">
<title>NewsletterComponent</title>
<polygon fill="#ffffb3" stroke="#000000" points="2647.9664,-122 2506.0336,-122 2506.0336,-86 2647.9664,-86 2647.9664,-122"/>
<text text-anchor="middle" x="2577" y="-99.8" font-family="Times,serif" font-size="14.00" fill="#000000">NewsletterComponent</text>
</g>
<!-- NewsletterComponent&#45;&gt;OiCommonModule -->
<g id="edge2" class="edge">
<title>NewsletterComponent&#45;&gt;OiCommonModule</title>
<path fill="none" stroke="#000000" d="M2577,-122.2479C2577,-145.0179 2577,-181 2577,-181 2577,-181 1541.7455,-181 1541.7455,-181"/>
<polygon fill="#000000" stroke="#000000" points="1541.7456,-177.5001 1531.7455,-181 1541.7455,-184.5001 1541.7456,-177.5001"/>
</g>
<!-- ReminderComponent -->
<g id="node3" class="node">
<title>ReminderComponent</title>
<polygon fill="#ffffb3" stroke="#000000" points="2488.0408,-122 2351.9592,-122 2351.9592,-86 2488.0408,-86 2488.0408,-122"/>
<text text-anchor="middle" x="2420" y="-99.8" font-family="Times,serif" font-size="14.00" fill="#000000">ReminderComponent</text>
</g>
<!-- ReminderComponent&#45;&gt;OiCommonModule -->
<g id="edge3" class="edge">
<title>ReminderComponent&#45;&gt;OiCommonModule</title>
<path fill="none" stroke="#000000" d="M2442.7567,-122.2921C2442.7567,-144.2057 2442.7567,-178 2442.7567,-178 2442.7567,-178 1541.7669,-178 1541.7669,-178"/>
<polygon fill="#000000" stroke="#000000" points="1541.7669,-174.5001 1531.7669,-178 1541.7669,-181.5001 1541.7669,-174.5001"/>
</g>
<!-- ReminderComponent&#45;&gt;OiCommonModule -->
<g id="edge4" class="edge">
<title>ReminderComponent&#45;&gt;OiCommonModule</title>
<path fill="none" stroke="#000000" d="M2397.2433,-122.0267C2397.2433,-142.7672 2397.2433,-174 2397.2433,-174 2397.2433,-174 1541.7086,-174 1541.7086,-174"/>
<polygon fill="#000000" stroke="#000000" points="1541.7087,-170.5001 1531.7086,-174 1541.7086,-177.5001 1541.7087,-170.5001"/>
</g>
<!-- ReminderComponent  -->
<g id="node22" class="node">
<title>ReminderComponent </title>
<polygon fill="#fb8072" stroke="#000000" points="1539.04,-252 1398.96,-252 1398.96,-216 1539.04,-216 1539.04,-252"/>
<text text-anchor="middle" x="1469" y="-229.8" font-family="Times,serif" font-size="14.00" fill="#000000">ReminderComponent </text>
</g>
<!-- OiCommonModule&#45;&gt;ReminderComponent  -->
<g id="edge22" class="edge">
<title>OiCommonModule&#45;&gt;ReminderComponent </title>
<path fill="none" stroke="#000000" stroke-dasharray="5,2" d="M1469,-187.1061C1469,-187.1061 1469,-205.991 1469,-205.991"/>
<polygon fill="#000000" stroke="#000000" points="1465.5001,-205.9909 1469,-215.991 1472.5001,-205.991 1465.5001,-205.9909"/>
</g>
<!-- CommonModule -->
<g id="node5" class="node">
<title>CommonModule</title>
<polygon fill="#8dd3c7" stroke="#000000" points="2327.6681,-122 2324.6681,-126 2303.6681,-126 2300.6681,-122 2216.3319,-122 2216.3319,-86 2327.6681,-86 2327.6681,-122"/>
<text text-anchor="middle" x="2272" y="-99.8" font-family="Times,serif" font-size="14.00" fill="#000000">CommonModule</text>
</g>
<!-- CommonModule&#45;&gt;OiCommonModule -->
<g id="edge5" class="edge">
<title>CommonModule&#45;&gt;OiCommonModule</title>
<path fill="none" stroke="#000000" d="M2272,-122.308C2272,-142.1455 2272,-171 2272,-171 2272,-171 1541.6756,-171 1541.6756,-171"/>
<polygon fill="#000000" stroke="#000000" points="1541.6756,-167.5001 1531.6756,-171 1541.6756,-174.5001 1541.6756,-167.5001"/>
</g>
<!-- MatGridListModule -->
<g id="node6" class="node">
<title>MatGridListModule</title>
<polygon fill="#8dd3c7" stroke="#000000" points="2197.5366,-122 2194.5366,-126 2173.5366,-126 2170.5366,-122 2068.4634,-122 2068.4634,-86 2197.5366,-86 2197.5366,-122"/>
<text text-anchor="middle" x="2133" y="-99.8" font-family="Times,serif" font-size="14.00" fill="#000000">MatGridListModule</text>
</g>
<!-- MatGridListModule&#45;&gt;OiCommonModule -->
<g id="edge6" class="edge">
<title>MatGridListModule&#45;&gt;OiCommonModule</title>
<path fill="none" stroke="#000000" d="M2133,-122.1686C2133,-141.0898 2133,-168 2133,-168 2133,-168 1541.7665,-168 1541.7665,-168"/>
<polygon fill="#000000" stroke="#000000" points="1541.7666,-164.5001 1531.7665,-168 1541.7665,-171.5001 1541.7666,-164.5001"/>
</g>
<!-- MatListModule -->
<g id="node7" class="node">
<title>MatListModule</title>
<polygon fill="#8dd3c7" stroke="#000000" points="2049.8781,-122 2046.8781,-126 2025.8781,-126 2022.8781,-122 1946.1219,-122 1946.1219,-86 2049.8781,-86 2049.8781,-122"/>
<text text-anchor="middle" x="1998" y="-99.8" font-family="Times,serif" font-size="14.00" fill="#000000">MatListModule</text>
</g>
<!-- MatListModule&#45;&gt;OiCommonModule -->
<g id="edge7" class="edge">
<title>MatListModule&#45;&gt;OiCommonModule</title>
<path fill="none" stroke="#000000" d="M1998,-122.302C1998,-140.2699 1998,-165 1998,-165 1998,-165 1541.7606,-165 1541.7606,-165"/>
<polygon fill="#000000" stroke="#000000" points="1541.7606,-161.5001 1531.7606,-165 1541.7606,-168.5001 1541.7606,-161.5001"/>
</g>
<!-- MatInputModule -->
<g id="node8" class="node">
<title>MatInputModule</title>
<polygon fill="#8dd3c7" stroke="#000000" points="1927.6513,-122 1924.6513,-126 1903.6513,-126 1900.6513,-122 1816.3487,-122 1816.3487,-86 1927.6513,-86 1927.6513,-122"/>
<text text-anchor="middle" x="1872" y="-99.8" font-family="Times,serif" font-size="14.00" fill="#000000">MatInputModule</text>
</g>
<!-- MatInputModule&#45;&gt;OiCommonModule -->
<g id="edge8" class="edge">
<title>MatInputModule&#45;&gt;OiCommonModule</title>
<path fill="none" stroke="#000000" d="M1872,-122.0352C1872,-138.7344 1872,-161 1872,-161 1872,-161 1541.9688,-161 1541.9688,-161"/>
<polygon fill="#000000" stroke="#000000" points="1541.9688,-157.5001 1531.9688,-161 1541.9687,-164.5001 1541.9688,-157.5001"/>
</g>
<!-- FormsModule -->
<g id="node9" class="node">
<title>FormsModule</title>
<polygon fill="#8dd3c7" stroke="#000000" points="1798.8288,-122 1795.8288,-126 1774.8288,-126 1771.8288,-122 1703.1712,-122 1703.1712,-86 1798.8288,-86 1798.8288,-122"/>
<text text-anchor="middle" x="1751" y="-99.8" font-family="Times,serif" font-size="14.00" fill="#000000">FormsModule</text>
</g>
<!-- FormsModule&#45;&gt;OiCommonModule -->
<g id="edge9" class="edge">
<title>FormsModule&#45;&gt;OiCommonModule</title>
<path fill="none" stroke="#000000" d="M1751,-122.2819C1751,-137.9478 1751,-158 1751,-158 1751,-158 1541.9353,-158 1541.9353,-158"/>
<polygon fill="#000000" stroke="#000000" points="1541.9353,-154.5001 1531.9353,-158 1541.9353,-161.5001 1541.9353,-154.5001"/>
</g>
<!-- MatFormFieldModule -->
<g id="node10" class="node">
<title>MatFormFieldModule</title>
<polygon fill="#8dd3c7" stroke="#000000" points="1685.712,-122 1682.712,-126 1661.712,-126 1658.712,-122 1544.288,-122 1544.288,-86 1685.712,-86 1685.712,-122"/>
<text text-anchor="middle" x="1615" y="-99.8" font-family="Times,serif" font-size="14.00" fill="#000000">MatFormFieldModule</text>
</g>
<!-- MatFormFieldModule&#45;&gt;OiCommonModule -->
<g id="edge10" class="edge">
<title>MatFormFieldModule&#45;&gt;OiCommonModule</title>
<path fill="none" stroke="#000000" d="M1615,-122.1243C1615,-136.7832 1615,-155 1615,-155 1615,-155 1541.7645,-155 1541.7645,-155"/>
<polygon fill="#000000" stroke="#000000" points="1541.7645,-151.5001 1531.7645,-155 1541.7644,-158.5001 1541.7645,-151.5001"/>
</g>
<!-- MatRadioModule -->
<g id="node11" class="node">
<title>MatRadioModule</title>
<polygon fill="#8dd3c7" stroke="#000000" points="1526.5423,-122 1523.5423,-126 1502.5423,-126 1499.5423,-122 1411.4577,-122 1411.4577,-86 1526.5423,-86 1526.5423,-122"/>
<text text-anchor="middle" x="1469" y="-99.8" font-family="Times,serif" font-size="14.00" fill="#000000">MatRadioModule</text>
</g>
<!-- MatRadioModule&#45;&gt;OiCommonModule -->
<g id="edge11" class="edge">
<title>MatRadioModule&#45;&gt;OiCommonModule</title>
<path fill="none" stroke="#000000" d="M1469,-122.1061C1469,-122.1061 1469,-140.991 1469,-140.991"/>
<polygon fill="#000000" stroke="#000000" points="1465.5001,-140.9909 1469,-150.991 1472.5001,-140.991 1465.5001,-140.9909"/>
</g>
<!-- MatCardModule -->
<g id="node12" class="node">
<title>MatCardModule</title>
<polygon fill="#8dd3c7" stroke="#000000" points="1393.8118,-122 1390.8118,-126 1369.8118,-126 1366.8118,-122 1284.1882,-122 1284.1882,-86 1393.8118,-86 1393.8118,-122"/>
<text text-anchor="middle" x="1339" y="-99.8" font-family="Times,serif" font-size="14.00" fill="#000000">MatCardModule</text>
</g>
<!-- MatCardModule&#45;&gt;OiCommonModule -->
<g id="edge12" class="edge">
<title>MatCardModule&#45;&gt;OiCommonModule</title>
<path fill="none" stroke="#000000" d="M1339,-122.1243C1339,-136.7832 1339,-155 1339,-155 1339,-155 1396.2847,-155 1396.2847,-155"/>
<polygon fill="#000000" stroke="#000000" points="1396.2848,-158.5001 1406.2847,-155 1396.2847,-151.5001 1396.2848,-158.5001"/>
</g>
<!-- MatIconModule -->
<g id="node13" class="node">
<title>MatIconModule</title>
<polygon fill="#8dd3c7" stroke="#000000" points="1266.4748,-122 1263.4748,-126 1242.4748,-126 1239.4748,-122 1159.5252,-122 1159.5252,-86 1266.4748,-86 1266.4748,-122"/>
<text text-anchor="middle" x="1213" y="-99.8" font-family="Times,serif" font-size="14.00" fill="#000000">MatIconModule</text>
</g>
<!-- MatIconModule&#45;&gt;OiCommonModule -->
<g id="edge13" class="edge">
<title>MatIconModule&#45;&gt;OiCommonModule</title>
<path fill="none" stroke="#000000" d="M1213,-122.2819C1213,-137.9478 1213,-158 1213,-158 1213,-158 1396.0475,-158 1396.0475,-158"/>
<polygon fill="#000000" stroke="#000000" points="1396.0475,-161.5001 1406.0475,-158 1396.0474,-154.5001 1396.0475,-161.5001"/>
</g>
<!-- MatButtonModule -->
<g id="node14" class="node">
<title>MatButtonModule</title>
<polygon fill="#8dd3c7" stroke="#000000" points="1141.2176,-122 1138.2176,-126 1117.2176,-126 1114.2176,-122 1020.7824,-122 1020.7824,-86 1141.2176,-86 1141.2176,-122"/>
<text text-anchor="middle" x="1081" y="-99.8" font-family="Times,serif" font-size="14.00" fill="#000000">MatButtonModule</text>
</g>
<!-- MatButtonModule&#45;&gt;OiCommonModule -->
<g id="edge14" class="edge">
<title>MatButtonModule&#45;&gt;OiCommonModule</title>
<path fill="none" stroke="#000000" d="M1081,-122.0352C1081,-138.7344 1081,-161 1081,-161 1081,-161 1396.2299,-161 1396.2299,-161"/>
<polygon fill="#000000" stroke="#000000" points="1396.2299,-164.5001 1406.2299,-161 1396.2298,-157.5001 1396.2299,-164.5001"/>
</g>
<!-- RouterModule -->
<g id="node15" class="node">
<title>RouterModule</title>
<polygon fill="#8dd3c7" stroke="#000000" points="1002.6528,-122 999.6528,-126 978.6528,-126 975.6528,-122 905.3472,-122 905.3472,-86 1002.6528,-86 1002.6528,-122"/>
<text text-anchor="middle" x="954" y="-99.8" font-family="Times,serif" font-size="14.00" fill="#000000">RouterModule</text>
</g>
<!-- RouterModule&#45;&gt;OiCommonModule -->
<g id="edge15" class="edge">
<title>RouterModule&#45;&gt;OiCommonModule</title>
<path fill="none" stroke="#000000" d="M954,-122.302C954,-140.2699 954,-165 954,-165 954,-165 1396.1085,-165 1396.1085,-165"/>
<polygon fill="#000000" stroke="#000000" points="1396.1086,-168.5001 1406.1085,-165 1396.1085,-161.5001 1396.1086,-168.5001"/>
</g>
<!-- MatCheckboxModule -->
<g id="node16" class="node">
<title>MatCheckboxModule</title>
<polygon fill="#8dd3c7" stroke="#000000" points="887.3655,-122 884.3655,-126 863.3655,-126 860.3655,-122 748.6345,-122 748.6345,-86 887.3655,-86 887.3655,-122"/>
<text text-anchor="middle" x="818" y="-99.8" font-family="Times,serif" font-size="14.00" fill="#000000">MatCheckboxModule</text>
</g>
<!-- MatCheckboxModule&#45;&gt;OiCommonModule -->
<g id="edge16" class="edge">
<title>MatCheckboxModule&#45;&gt;OiCommonModule</title>
<path fill="none" stroke="#000000" d="M818,-122.1686C818,-141.0898 818,-168 818,-168 818,-168 1396.2839,-168 1396.2839,-168"/>
<polygon fill="#000000" stroke="#000000" points="1396.2839,-171.5001 1406.2839,-168 1396.2839,-164.5001 1396.2839,-171.5001"/>
</g>
<!-- MatSnackBarModule -->
<g id="node17" class="node">
<title>MatSnackBarModule</title>
<polygon fill="#8dd3c7" stroke="#000000" points="730.024,-122 727.024,-126 706.024,-126 703.024,-122 593.976,-122 593.976,-86 730.024,-86 730.024,-122"/>
<text text-anchor="middle" x="662" y="-99.8" font-family="Times,serif" font-size="14.00" fill="#000000">MatSnackBarModule</text>
</g>
<!-- MatSnackBarModule&#45;&gt;OiCommonModule -->
<g id="edge17" class="edge">
<title>MatSnackBarModule&#45;&gt;OiCommonModule</title>
<path fill="none" stroke="#000000" d="M662,-122.308C662,-142.1455 662,-171 662,-171 662,-171 1396.0122,-171 1396.0122,-171"/>
<polygon fill="#000000" stroke="#000000" points="1396.0122,-174.5001 1406.0122,-171 1396.0122,-167.5001 1396.0122,-174.5001"/>
</g>
<!-- ReactiveFormsModule -->
<g id="node18" class="node">
<title>ReactiveFormsModule</title>
<polygon fill="#8dd3c7" stroke="#000000" points="576.3047,-122 573.3047,-126 552.3047,-126 549.3047,-122 431.6953,-122 431.6953,-86 576.3047,-86 576.3047,-122"/>
<text text-anchor="middle" x="504" y="-99.8" font-family="Times,serif" font-size="14.00" fill="#000000">ReactiveFormsModule</text>
</g>
<!-- ReactiveFormsModule&#45;&gt;OiCommonModule -->
<g id="edge18" class="edge">
<title>ReactiveFormsModule&#45;&gt;OiCommonModule</title>
<path fill="none" stroke="#000000" d="M504,-122.0267C504,-142.7672 504,-174 504,-174 504,-174 1396.0559,-174 1396.0559,-174"/>
<polygon fill="#000000" stroke="#000000" points="1396.0559,-177.5001 1406.0559,-174 1396.0559,-170.5001 1396.0559,-177.5001"/>
</g>
<!-- MatTableModule -->
<g id="node19" class="node">
<title>MatTableModule</title>
<polygon fill="#8dd3c7" stroke="#000000" points="413.972,-122 410.972,-126 389.972,-126 386.972,-122 300.028,-122 300.028,-86 413.972,-86 413.972,-122"/>
<text text-anchor="middle" x="357" y="-99.8" font-family="Times,serif" font-size="14.00" fill="#000000">MatTableModule</text>
</g>
<!-- MatTableModule&#45;&gt;OiCommonModule -->
<g id="edge19" class="edge">
<title>MatTableModule&#45;&gt;OiCommonModule</title>
<path fill="none" stroke="#000000" d="M357,-122.2921C357,-144.2057 357,-178 357,-178 357,-178 1396.028,-178 1396.028,-178"/>
<polygon fill="#000000" stroke="#000000" points="1396.028,-181.5001 1406.028,-178 1396.0279,-174.5001 1396.028,-181.5001"/>
</g>
<!-- MatSelectModule -->
<g id="node20" class="node">
<title>MatSelectModule</title>
<polygon fill="#8dd3c7" stroke="#000000" points="282.3076,-122 279.3076,-126 258.3076,-126 255.3076,-122 165.6924,-122 165.6924,-86 282.3076,-86 282.3076,-122"/>
<text text-anchor="middle" x="224" y="-99.8" font-family="Times,serif" font-size="14.00" fill="#000000">MatSelectModule</text>
</g>
<!-- MatSelectModule&#45;&gt;OiCommonModule -->
<g id="edge20" class="edge">
<title>MatSelectModule&#45;&gt;OiCommonModule</title>
<path fill="none" stroke="#000000" d="M224,-122.2479C224,-145.0179 224,-181 224,-181 224,-181 1395.9785,-181 1395.9785,-181"/>
<polygon fill="#000000" stroke="#000000" points="1395.9785,-184.5001 1405.9785,-181 1395.9785,-177.5001 1395.9785,-184.5001"/>
</g>
<!-- FlexLayoutModule -->
<g id="node21" class="node">
<title>FlexLayoutModule</title>
<polygon fill="#8dd3c7" stroke="#000000" points="148.0954,-122 145.0954,-126 124.0954,-126 121.0954,-122 23.9046,-122 23.9046,-86 148.0954,-86 148.0954,-122"/>
<text text-anchor="middle" x="86" y="-99.8" font-family="Times,serif" font-size="14.00" fill="#000000">FlexLayoutModule</text>
</g>
<!-- FlexLayoutModule&#45;&gt;OiCommonModule -->
<g id="edge21" class="edge">
<title>FlexLayoutModule&#45;&gt;OiCommonModule</title>
<path fill="none" stroke="#000000" d="M86,-122.1532C86,-145.7566 86,-184 86,-184 86,-184 1395.9816,-184 1395.9816,-184"/>
<polygon fill="#000000" stroke="#000000" points="1395.9816,-187.5001 1405.9816,-184 1395.9816,-180.5001 1395.9816,-187.5001"/>
</g>
</g>
</svg>
