<?xml version="1.0" encoding="UTF-8" standalone="no"?>
<!DOCTYPE svg PUBLIC "-//W3C//DTD SVG 1.1//EN"
 "http://www.w3.org/Graphics/SVG/1.1/DTD/svg11.dtd">
<!-- Generated by graphviz version 2.40.1 (20161225.0304)
 -->
<!-- Title: dependencies Pages: 1 -->
<svg width="5199pt" height="211pt"
 viewBox="0.00 0.00 5199.00 211.00" xmlns="http://www.w3.org/2000/svg" xmlns:xlink="http://www.w3.org/1999/xlink">
<g id="graph0" class="graph" transform="scale(1 1) rotate(0) translate(4 207)">
<title>dependencies</title>
<polygon fill="#ffffff" stroke="transparent" points="-4,4 -4,-207 5195,-207 5195,4 -4,4"/>
<text text-anchor="start" x="2574.5091" y="-42.4" font-family="sans-serif" font-weight="bold" font-size="14.00" fill="#000000">Legend</text>
<polygon fill="#ffffb3" stroke="transparent" points="2361.5,-10 2361.5,-30 2381.5,-30 2381.5,-10 2361.5,-10"/>
<text text-anchor="start" x="2385.129" y="-15.4" font-family="sans-serif" font-size="14.00" fill="#000000"> &#160;Declarations</text>
<polygon fill="#8dd3c7" stroke="transparent" points="2474.5,-10 2474.5,-30 2494.5,-30 2494.5,-10 2474.5,-10"/>
<text text-anchor="start" x="2498.2251" y="-15.4" font-family="sans-serif" font-size="14.00" fill="#000000"> &#160;Module</text>
<polygon fill="#80b1d3" stroke="transparent" points="2560.5,-10 2560.5,-30 2580.5,-30 2580.5,-10 2560.5,-10"/>
<text text-anchor="start" x="2584.2812" y="-15.4" font-family="sans-serif" font-size="14.00" fill="#000000"> &#160;Bootstrap</text>
<polygon fill="#fdb462" stroke="transparent" points="2657.5,-10 2657.5,-30 2677.5,-30 2677.5,-10 2657.5,-10"/>
<text text-anchor="start" x="2681.1732" y="-15.4" font-family="sans-serif" font-size="14.00" fill="#000000"> &#160;Providers</text>
<polygon fill="#fb8072" stroke="transparent" points="2753.5,-10 2753.5,-30 2773.5,-30 2773.5,-10 2753.5,-10"/>
<text text-anchor="start" x="2777.2258" y="-15.4" font-family="sans-serif" font-size="14.00" fill="#000000"> &#160;Exports</text>
<g id="clust1" class="cluster">
<title>cluster_NgsConfigModule</title>
<polygon fill="none" stroke="#000000" stroke-dasharray="1,5" points="8,-70 8,-195 5183,-195 5183,-70 8,-70"/>
</g>
<g id="clust2" class="cluster">
<title>cluster_NgsConfigModule_declarations</title>
<polygon fill="none" stroke="#000000" points="3438,-78 3438,-130 5175,-130 5175,-78 3438,-78"/>
</g>
<g id="clust11" class="cluster">
<title>cluster_NgsConfigModule_imports</title>
<polygon fill="none" stroke="#000000" points="16,-78 16,-130 3430,-130 3430,-78 16,-78"/>
</g>
<!-- ConfigsComponent -->
<g id="node1" class="node">
<title>ConfigsComponent</title>
<polygon fill="#ffffb3" stroke="#000000" points="5166.6652,-122 5041.3348,-122 5041.3348,-86 5166.6652,-86 5166.6652,-122"/>
<text text-anchor="middle" x="5104" y="-99.8" font-family="Times,serif" font-size="14.00" fill="#000000">ConfigsComponent</text>
</g>
<!-- NgsConfigModule -->
<g id="node9" class="node">
<title>NgsConfigModule</title>
<polygon fill="#8dd3c7" stroke="#000000" points="2430.4888,-187 2427.4888,-191 2406.4888,-191 2403.4888,-187 2309.5112,-187 2309.5112,-151 2430.4888,-151 2430.4888,-187"/>
<text text-anchor="middle" x="2370" y="-164.8" font-family="Times,serif" font-size="14.00" fill="#000000">NgsConfigModule</text>
</g>
<!-- ConfigsComponent&#45;&gt;NgsConfigModule -->
<g id="edge1" class="edge">
<title>ConfigsComponent&#45;&gt;NgsConfigModule</title>
<path fill="none" stroke="#000000" d="M5104,-122.3802C5104,-146.2785 5104,-185 5104,-185 5104,-185 2440.6129,-185 2440.6129,-185"/>
<polygon fill="#000000" stroke="#000000" points="2440.6129,-181.5001 2430.6129,-185 2440.6128,-188.5001 2440.6129,-181.5001"/>
</g>
<!-- ConfigEditComponent -->
<g id="node2" class="node">
<title>ConfigEditComponent</title>
<polygon fill="#ffffb3" stroke="#000000" points="5022.5547,-122 4879.4453,-122 4879.4453,-86 5022.5547,-86 5022.5547,-122"/>
<text text-anchor="middle" x="4951" y="-99.8" font-family="Times,serif" font-size="14.00" fill="#000000">ConfigEditComponent</text>
</g>
<!-- ConfigEditComponent&#45;&gt;NgsConfigModule -->
<g id="edge2" class="edge">
<title>ConfigEditComponent&#45;&gt;NgsConfigModule</title>
<path fill="none" stroke="#000000" d="M4951,-122.3228C4951,-145.6602 4951,-183 4951,-183 4951,-183 2440.6258,-183 2440.6258,-183"/>
<polygon fill="#000000" stroke="#000000" points="2440.6258,-179.5001 2430.6258,-183 2440.6257,-186.5001 2440.6258,-179.5001"/>
</g>
<!-- ConfigAppConfigComponent -->
<g id="node3" class="node">
<title>ConfigAppConfigComponent</title>
<polygon fill="#ffffb3" stroke="#000000" points="4861.7147,-122 4678.2853,-122 4678.2853,-86 4861.7147,-86 4861.7147,-122"/>
<text text-anchor="middle" x="4770" y="-99.8" font-family="Times,serif" font-size="14.00" fill="#000000">ConfigAppConfigComponent</text>
</g>
<!-- ConfigAppConfigComponent&#45;&gt;NgsConfigModule -->
<g id="edge3" class="edge">
<title>ConfigAppConfigComponent&#45;&gt;NgsConfigModule</title>
<path fill="none" stroke="#000000" d="M4770,-122.2479C4770,-145.0179 4770,-181 4770,-181 4770,-181 2440.5265,-181 2440.5265,-181"/>
<polygon fill="#000000" stroke="#000000" points="2440.5265,-177.5001 2430.5265,-181 2440.5265,-184.5001 2440.5265,-177.5001"/>
</g>
<!-- UserModuleConfigComponent -->
<g id="node4" class="node">
<title>UserModuleConfigComponent</title>
<polygon fill="#ffffb3" stroke="#000000" points="4660.1965,-122 4469.8035,-122 4469.8035,-86 4660.1965,-86 4660.1965,-122"/>
<text text-anchor="middle" x="4565" y="-99.8" font-family="Times,serif" font-size="14.00" fill="#000000">UserModuleConfigComponent</text>
</g>
<!-- UserModuleConfigComponent&#45;&gt;NgsConfigModule -->
<g id="edge4" class="edge">
<title>UserModuleConfigComponent&#45;&gt;NgsConfigModule</title>
<path fill="none" stroke="#000000" d="M4565,-122.2921C4565,-144.2057 4565,-178 4565,-178 4565,-178 2440.7097,-178 2440.7097,-178"/>
<polygon fill="#000000" stroke="#000000" points="2440.7098,-174.5001 2430.7097,-178 2440.7097,-181.5001 2440.7098,-174.5001"/>
</g>
<!-- LayoutModuleConfigComponent -->
<g id="node5" class="node">
<title>LayoutModuleConfigComponent</title>
<polygon fill="#ffffb3" stroke="#000000" points="4451.9283,-122 4248.0717,-122 4248.0717,-86 4451.9283,-86 4451.9283,-122"/>
<text text-anchor="middle" x="4350" y="-99.8" font-family="Times,serif" font-size="14.00" fill="#000000">LayoutModuleConfigComponent</text>
</g>
<!-- LayoutModuleConfigComponent&#45;&gt;NgsConfigModule -->
<g id="edge5" class="edge">
<title>LayoutModuleConfigComponent&#45;&gt;NgsConfigModule</title>
<path fill="none" stroke="#000000" d="M4350,-122.1686C4350,-143.498 4350,-176 4350,-176 4350,-176 2440.6103,-176 2440.6103,-176"/>
<polygon fill="#000000" stroke="#000000" points="2440.6103,-172.5001 2430.6103,-176 2440.6102,-179.5001 2440.6103,-172.5001"/>
</g>
<!-- ConfigModuleContainerComponent -->
<g id="node6" class="node">
<title>ConfigModuleContainerComponent</title>
<polygon fill="#ffffb3" stroke="#000000" points="4230.4776,-122 4011.5224,-122 4011.5224,-86 4230.4776,-86 4230.4776,-122"/>
<text text-anchor="middle" x="4121" y="-99.8" font-family="Times,serif" font-size="14.00" fill="#000000">ConfigModuleContainerComponent</text>
</g>
<!-- ConfigModuleContainerComponent&#45;&gt;NgsConfigModule -->
<g id="edge6" class="edge">
<title>ConfigModuleContainerComponent&#45;&gt;NgsConfigModule</title>
<path fill="none" stroke="#000000" d="M4121,-122.0267C4121,-142.7672 4121,-174 4121,-174 4121,-174 2440.5274,-174 2440.5274,-174"/>
<polygon fill="#000000" stroke="#000000" points="2440.5274,-170.5001 2430.5274,-174 2440.5274,-177.5001 2440.5274,-170.5001"/>
</g>
<!-- AuthenticationModuleConfigComponent -->
<g id="node7" class="node">
<title>AuthenticationModuleConfigComponent</title>
<polygon fill="#ffffb3" stroke="#000000" points="3993.4734,-122 3746.5266,-122 3746.5266,-86 3993.4734,-86 3993.4734,-122"/>
<text text-anchor="middle" x="3870" y="-99.8" font-family="Times,serif" font-size="14.00" fill="#000000">AuthenticationModuleConfigComponent</text>
</g>
<!-- AuthenticationModuleConfigComponent&#45;&gt;NgsConfigModule -->
<g id="edge7" class="edge">
<title>AuthenticationModuleConfigComponent&#45;&gt;NgsConfigModule</title>
<path fill="none" stroke="#000000" d="M3870,-122.2228C3870,-142.3652 3870,-172 3870,-172 3870,-172 2440.6596,-172 2440.6596,-172"/>
<polygon fill="#000000" stroke="#000000" points="2440.6596,-168.5001 2430.6596,-172 2440.6596,-175.5001 2440.6596,-168.5001"/>
</g>
<!-- DynamicConfigComponentSelectorComponent -->
<g id="node8" class="node">
<title>DynamicConfigComponentSelectorComponent</title>
<polygon fill="#ffffb3" stroke="#000000" points="3728.2379,-122 3445.7621,-122 3445.7621,-86 3728.2379,-86 3728.2379,-122"/>
<text text-anchor="middle" x="3587" y="-99.8" font-family="Times,serif" font-size="14.00" fill="#000000">DynamicConfigComponentSelectorComponent</text>
</g>
<!-- DynamicConfigComponentSelectorComponent&#45;&gt;NgsConfigModule -->
<g id="edge8" class="edge">
<title>DynamicConfigComponentSelectorComponent&#45;&gt;NgsConfigModule</title>
<path fill="none" stroke="#000000" d="M3587,-122.1061C3587,-141.3391 3587,-169 3587,-169 3587,-169 2440.7676,-169 2440.7676,-169"/>
<polygon fill="#000000" stroke="#000000" points="2440.7676,-165.5001 2430.7676,-169 2440.7676,-172.5001 2440.7676,-165.5001"/>
</g>
<!-- CommonModule -->
<g id="node10" class="node">
<title>CommonModule</title>
<polygon fill="#8dd3c7" stroke="#000000" points="3421.6681,-122 3418.6681,-126 3397.6681,-126 3394.6681,-122 3310.3319,-122 3310.3319,-86 3421.6681,-86 3421.6681,-122"/>
<text text-anchor="middle" x="3366" y="-99.8" font-family="Times,serif" font-size="14.00" fill="#000000">CommonModule</text>
</g>
<!-- CommonModule&#45;&gt;NgsConfigModule -->
<g id="edge9" class="edge">
<title>CommonModule&#45;&gt;NgsConfigModule</title>
<path fill="none" stroke="#000000" d="M3366,-122.2222C3366,-140.8285 3366,-167 3366,-167 3366,-167 2440.805,-167 2440.805,-167"/>
<polygon fill="#000000" stroke="#000000" points="2440.805,-163.5001 2430.805,-167 2440.8049,-170.5001 2440.805,-163.5001"/>
</g>
<!-- RouterModule -->
<g id="node11" class="node">
<title>RouterModule</title>
<polygon fill="#8dd3c7" stroke="#000000" points="3291.6528,-122 3288.6528,-126 3267.6528,-126 3264.6528,-122 3194.3472,-122 3194.3472,-86 3291.6528,-86 3291.6528,-122"/>
<text text-anchor="middle" x="3243" y="-99.8" font-family="Times,serif" font-size="14.00" fill="#000000">RouterModule</text>
</g>
<!-- RouterModule&#45;&gt;NgsConfigModule -->
<g id="edge10" class="edge">
<title>RouterModule&#45;&gt;NgsConfigModule</title>
<path fill="none" stroke="#000000" d="M3243,-122.302C3243,-140.2699 3243,-165 3243,-165 3243,-165 2440.6946,-165 2440.6946,-165"/>
<polygon fill="#000000" stroke="#000000" points="2440.6946,-161.5001 2430.6946,-165 2440.6945,-168.5001 2440.6946,-161.5001"/>
</g>
<!-- FormsModule -->
<g id="node12" class="node">
<title>FormsModule</title>
<polygon fill="#8dd3c7" stroke="#000000" points="3176.8288,-122 3173.8288,-126 3152.8288,-126 3149.8288,-122 3081.1712,-122 3081.1712,-86 3176.8288,-86 3176.8288,-122"/>
<text text-anchor="middle" x="3129" y="-99.8" font-family="Times,serif" font-size="14.00" fill="#000000">FormsModule</text>
</g>
<!-- FormsModule&#45;&gt;NgsConfigModule -->
<g id="edge11" class="edge">
<title>FormsModule&#45;&gt;NgsConfigModule</title>
<path fill="none" stroke="#000000" d="M3129,-122.0225C3129,-139.3734 3129,-163 3129,-163 3129,-163 2440.5102,-163 2440.5102,-163"/>
<polygon fill="#000000" stroke="#000000" points="2440.5102,-159.5001 2430.5102,-163 2440.5101,-166.5001 2440.5102,-159.5001"/>
</g>
<!-- ReactiveFormsModule -->
<g id="node13" class="node">
<title>ReactiveFormsModule</title>
<polygon fill="#8dd3c7" stroke="#000000" points="3063.3047,-122 3060.3047,-126 3039.3047,-126 3036.3047,-122 2918.6953,-122 2918.6953,-86 3063.3047,-86 3063.3047,-122"/>
<text text-anchor="middle" x="2991" y="-99.8" font-family="Times,serif" font-size="14.00" fill="#000000">ReactiveFormsModule</text>
</g>
<!-- ReactiveFormsModule&#45;&gt;NgsConfigModule -->
<g id="edge12" class="edge">
<title>ReactiveFormsModule&#45;&gt;NgsConfigModule</title>
<path fill="none" stroke="#000000" d="M2991,-122.027C2991,-138.3976 2991,-160 2991,-160 2991,-160 2440.6748,-160 2440.6748,-160"/>
<polygon fill="#000000" stroke="#000000" points="2440.6748,-156.5001 2430.6748,-160 2440.6747,-163.5001 2440.6748,-156.5001"/>
</g>
<!-- HttpClientModule -->
<g id="node14" class="node">
<title>HttpClientModule</title>
<polygon fill="#8dd3c7" stroke="#000000" points="2901.1611,-122 2898.1611,-126 2877.1611,-126 2874.1611,-122 2782.8389,-122 2782.8389,-86 2901.1611,-86 2901.1611,-122"/>
<text text-anchor="middle" x="2842" y="-99.8" font-family="Times,serif" font-size="14.00" fill="#000000">HttpClientModule</text>
</g>
<!-- HttpClientModule&#45;&gt;NgsConfigModule -->
<g id="edge13" class="edge">
<title>HttpClientModule&#45;&gt;NgsConfigModule</title>
<path fill="none" stroke="#000000" d="M2842,-122.2819C2842,-137.9478 2842,-158 2842,-158 2842,-158 2440.7395,-158 2440.7395,-158"/>
<polygon fill="#000000" stroke="#000000" points="2440.7395,-154.5001 2430.7395,-158 2440.7394,-161.5001 2440.7395,-154.5001"/>
</g>
<!-- FlexLayoutModule -->
<g id="node15" class="node">
<title>FlexLayoutModule</title>
<polygon fill="#8dd3c7" stroke="#000000" points="2765.0954,-122 2762.0954,-126 2741.0954,-126 2738.0954,-122 2640.9046,-122 2640.9046,-86 2765.0954,-86 2765.0954,-122"/>
<text text-anchor="middle" x="2703" y="-99.8" font-family="Times,serif" font-size="14.00" fill="#000000">FlexLayoutModule</text>
</g>
<!-- FlexLayoutModule&#45;&gt;NgsConfigModule -->
<g id="edge14" class="edge">
<title>FlexLayoutModule&#45;&gt;NgsConfigModule</title>
<path fill="none" stroke="#000000" d="M2703,-122.1871C2703,-137.1824 2703,-156 2703,-156 2703,-156 2440.6901,-156 2440.6901,-156"/>
<polygon fill="#000000" stroke="#000000" points="2440.6902,-152.5001 2430.6901,-156 2440.6901,-159.5001 2440.6902,-152.5001"/>
</g>
<!-- MatIconModule -->
<g id="node16" class="node">
<title>MatIconModule</title>
<polygon fill="#8dd3c7" stroke="#000000" points="2622.4748,-122 2619.4748,-126 2598.4748,-126 2595.4748,-122 2515.5252,-122 2515.5252,-86 2622.4748,-86 2622.4748,-122"/>
<text text-anchor="middle" x="2569" y="-99.8" font-family="Times,serif" font-size="14.00" fill="#000000">MatIconModule</text>
</g>
<!-- MatIconModule&#45;&gt;NgsConfigModule -->
<g id="edge15" class="edge">
<title>MatIconModule&#45;&gt;NgsConfigModule</title>
<path fill="none" stroke="#000000" d="M2569,-122.0511C2569,-136.373 2569,-154 2569,-154 2569,-154 2440.5171,-154 2440.5171,-154"/>
<polygon fill="#000000" stroke="#000000" points="2440.5171,-150.5001 2430.5171,-154 2440.517,-157.5001 2440.5171,-150.5001"/>
</g>
<!-- MatButtonModule -->
<g id="node17" class="node">
<title>MatButtonModule</title>
<polygon fill="#8dd3c7" stroke="#000000" points="2497.2176,-122 2494.2176,-126 2473.2176,-126 2470.2176,-122 2376.7824,-122 2376.7824,-86 2497.2176,-86 2497.2176,-122"/>
<text text-anchor="middle" x="2437" y="-99.8" font-family="Times,serif" font-size="14.00" fill="#000000">MatButtonModule</text>
</g>
<!-- MatButtonModule&#45;&gt;NgsConfigModule -->
<g id="edge16" class="edge">
<title>MatButtonModule&#45;&gt;NgsConfigModule</title>
<path fill="none" stroke="#000000" d="M2403.6929,-122.1061C2403.6929,-122.1061 2403.6929,-140.991 2403.6929,-140.991"/>
<polygon fill="#000000" stroke="#000000" points="2400.1929,-140.9909 2403.6929,-150.991 2407.1929,-140.991 2400.1929,-140.9909"/>
</g>
<!-- MatCardModule -->
<g id="node18" class="node">
<title>MatCardModule</title>
<polygon fill="#8dd3c7" stroke="#000000" points="2358.8118,-122 2355.8118,-126 2334.8118,-126 2331.8118,-122 2249.1882,-122 2249.1882,-86 2358.8118,-86 2358.8118,-122"/>
<text text-anchor="middle" x="2304" y="-99.8" font-family="Times,serif" font-size="14.00" fill="#000000">MatCardModule</text>
</g>
<!-- MatCardModule&#45;&gt;NgsConfigModule -->
<g id="edge17" class="edge">
<title>MatCardModule&#45;&gt;NgsConfigModule</title>
<path fill="none" stroke="#000000" d="M2334.0807,-122.1061C2334.0807,-122.1061 2334.0807,-140.991 2334.0807,-140.991"/>
<polygon fill="#000000" stroke="#000000" points="2330.5807,-140.9909 2334.0807,-150.991 2337.5807,-140.991 2330.5807,-140.9909"/>
</g>
<!-- MatSnackBarModule -->
<g id="node19" class="node">
<title>MatSnackBarModule</title>
<polygon fill="#8dd3c7" stroke="#000000" points="2231.024,-122 2228.024,-126 2207.024,-126 2204.024,-122 2094.976,-122 2094.976,-86 2231.024,-86 2231.024,-122"/>
<text text-anchor="middle" x="2163" y="-99.8" font-family="Times,serif" font-size="14.00" fill="#000000">MatSnackBarModule</text>
</g>
<!-- MatSnackBarModule&#45;&gt;NgsConfigModule -->
<g id="edge18" class="edge">
<title>MatSnackBarModule&#45;&gt;NgsConfigModule</title>
<path fill="none" stroke="#000000" d="M2163,-122.0511C2163,-136.373 2163,-154 2163,-154 2163,-154 2299.2918,-154 2299.2918,-154"/>
<polygon fill="#000000" stroke="#000000" points="2299.2919,-157.5001 2309.2918,-154 2299.2918,-150.5001 2299.2919,-157.5001"/>
</g>
<!-- MatSidenavModule -->
<g id="node20" class="node">
<title>MatSidenavModule</title>
<polygon fill="#8dd3c7" stroke="#000000" points="2076.7022,-122 2073.7022,-126 2052.7022,-126 2049.7022,-122 1949.2978,-122 1949.2978,-86 2076.7022,-86 2076.7022,-122"/>
<text text-anchor="middle" x="2013" y="-99.8" font-family="Times,serif" font-size="14.00" fill="#000000">MatSidenavModule</text>
</g>
<!-- MatSidenavModule&#45;&gt;NgsConfigModule -->
<g id="edge19" class="edge">
<title>MatSidenavModule&#45;&gt;NgsConfigModule</title>
<path fill="none" stroke="#000000" d="M2013,-122.1871C2013,-137.1824 2013,-156 2013,-156 2013,-156 2299.4398,-156 2299.4398,-156"/>
<polygon fill="#000000" stroke="#000000" points="2299.4399,-159.5001 2309.4398,-156 2299.4398,-152.5001 2299.4399,-159.5001"/>
</g>
<!-- MatExpansionModule -->
<g id="node21" class="node">
<title>MatExpansionModule</title>
<polygon fill="#8dd3c7" stroke="#000000" points="1931.7021,-122 1928.7021,-126 1907.7021,-126 1904.7021,-122 1790.2979,-122 1790.2979,-86 1931.7021,-86 1931.7021,-122"/>
<text text-anchor="middle" x="1861" y="-99.8" font-family="Times,serif" font-size="14.00" fill="#000000">MatExpansionModule</text>
</g>
<!-- MatExpansionModule&#45;&gt;NgsConfigModule -->
<g id="edge20" class="edge">
<title>MatExpansionModule&#45;&gt;NgsConfigModule</title>
<path fill="none" stroke="#000000" d="M1861,-122.2819C1861,-137.9478 1861,-158 1861,-158 1861,-158 2299.3605,-158 2299.3605,-158"/>
<polygon fill="#000000" stroke="#000000" points="2299.3605,-161.5001 2309.3605,-158 2299.3604,-154.5001 2299.3605,-161.5001"/>
</g>
<!-- MatSelectModule -->
<g id="node22" class="node">
<title>MatSelectModule</title>
<polygon fill="#8dd3c7" stroke="#000000" points="1772.3076,-122 1769.3076,-126 1748.3076,-126 1745.3076,-122 1655.6924,-122 1655.6924,-86 1772.3076,-86 1772.3076,-122"/>
<text text-anchor="middle" x="1714" y="-99.8" font-family="Times,serif" font-size="14.00" fill="#000000">MatSelectModule</text>
</g>
<!-- MatSelectModule&#45;&gt;NgsConfigModule -->
<g id="edge21" class="edge">
<title>MatSelectModule&#45;&gt;NgsConfigModule</title>
<path fill="none" stroke="#000000" d="M1714,-122.027C1714,-138.3976 1714,-160 1714,-160 1714,-160 2299.4609,-160 2299.4609,-160"/>
<polygon fill="#000000" stroke="#000000" points="2299.461,-163.5001 2309.4609,-160 2299.4609,-156.5001 2299.461,-163.5001"/>
</g>
<!-- MatFormFieldModule -->
<g id="node23" class="node">
<title>MatFormFieldModule</title>
<polygon fill="#8dd3c7" stroke="#000000" points="1637.712,-122 1634.712,-126 1613.712,-126 1610.712,-122 1496.288,-122 1496.288,-86 1637.712,-86 1637.712,-122"/>
<text text-anchor="middle" x="1567" y="-99.8" font-family="Times,serif" font-size="14.00" fill="#000000">MatFormFieldModule</text>
</g>
<!-- MatFormFieldModule&#45;&gt;NgsConfigModule -->
<g id="edge22" class="edge">
<title>MatFormFieldModule&#45;&gt;NgsConfigModule</title>
<path fill="none" stroke="#000000" d="M1567,-122.0225C1567,-139.3734 1567,-163 1567,-163 1567,-163 2299.3153,-163 2299.3153,-163"/>
<polygon fill="#000000" stroke="#000000" points="2299.3154,-166.5001 2309.3153,-163 2299.3153,-159.5001 2299.3154,-166.5001"/>
</g>
<!-- MatListModule -->
<g id="node24" class="node">
<title>MatListModule</title>
<polygon fill="#8dd3c7" stroke="#000000" points="1477.8781,-122 1474.8781,-126 1453.8781,-126 1450.8781,-122 1374.1219,-122 1374.1219,-86 1477.8781,-86 1477.8781,-122"/>
<text text-anchor="middle" x="1426" y="-99.8" font-family="Times,serif" font-size="14.00" fill="#000000">MatListModule</text>
</g>
<!-- MatListModule&#45;&gt;NgsConfigModule -->
<g id="edge23" class="edge">
<title>MatListModule&#45;&gt;NgsConfigModule</title>
<path fill="none" stroke="#000000" d="M1426,-122.302C1426,-140.2699 1426,-165 1426,-165 1426,-165 2299.1512,-165 2299.1512,-165"/>
<polygon fill="#000000" stroke="#000000" points="2299.1512,-168.5001 2309.1512,-165 2299.1511,-161.5001 2299.1512,-168.5001"/>
</g>
<!-- MatMenuModule -->
<g id="node25" class="node">
<title>MatMenuModule</title>
<polygon fill="#8dd3c7" stroke="#000000" points="1356.2591,-122 1353.2591,-126 1332.2591,-126 1329.2591,-122 1241.7409,-122 1241.7409,-86 1356.2591,-86 1356.2591,-122"/>
<text text-anchor="middle" x="1299" y="-99.8" font-family="Times,serif" font-size="14.00" fill="#000000">MatMenuModule</text>
</g>
<!-- MatMenuModule&#45;&gt;NgsConfigModule -->
<g id="edge24" class="edge">
<title>MatMenuModule&#45;&gt;NgsConfigModule</title>
<path fill="none" stroke="#000000" d="M1299,-122.2222C1299,-140.8285 1299,-167 1299,-167 1299,-167 2299.3498,-167 2299.3498,-167"/>
<polygon fill="#000000" stroke="#000000" points="2299.3498,-170.5001 2309.3498,-167 2299.3497,-163.5001 2299.3498,-170.5001"/>
</g>
<!-- MatRadioModule -->
<g id="node26" class="node">
<title>MatRadioModule</title>
<polygon fill="#8dd3c7" stroke="#000000" points="1223.5423,-122 1220.5423,-126 1199.5423,-126 1196.5423,-122 1108.4577,-122 1108.4577,-86 1223.5423,-86 1223.5423,-122"/>
<text text-anchor="middle" x="1166" y="-99.8" font-family="Times,serif" font-size="14.00" fill="#000000">MatRadioModule</text>
</g>
<!-- MatRadioModule&#45;&gt;NgsConfigModule -->
<g id="edge25" class="edge">
<title>MatRadioModule&#45;&gt;NgsConfigModule</title>
<path fill="none" stroke="#000000" d="M1166,-122.1061C1166,-141.3391 1166,-169 1166,-169 1166,-169 2299.4683,-169 2299.4683,-169"/>
<polygon fill="#000000" stroke="#000000" points="2299.4684,-172.5001 2309.4683,-169 2299.4683,-165.5001 2299.4684,-172.5001"/>
</g>
<!-- MatInputModule -->
<g id="node27" class="node">
<title>MatInputModule</title>
<polygon fill="#8dd3c7" stroke="#000000" points="1089.6513,-122 1086.6513,-126 1065.6513,-126 1062.6513,-122 978.3487,-122 978.3487,-86 1089.6513,-86 1089.6513,-122"/>
<text text-anchor="middle" x="1034" y="-99.8" font-family="Times,serif" font-size="14.00" fill="#000000">MatInputModule</text>
</g>
<!-- MatInputModule&#45;&gt;NgsConfigModule -->
<g id="edge26" class="edge">
<title>MatInputModule&#45;&gt;NgsConfigModule</title>
<path fill="none" stroke="#000000" d="M1034,-122.2228C1034,-142.3652 1034,-172 1034,-172 1034,-172 2299.1232,-172 2299.1232,-172"/>
<polygon fill="#000000" stroke="#000000" points="2299.1233,-175.5001 2309.1232,-172 2299.1232,-168.5001 2299.1233,-175.5001"/>
</g>
<!-- MatSlideToggleModule -->
<g id="node28" class="node">
<title>MatSlideToggleModule</title>
<polygon fill="#8dd3c7" stroke="#000000" points="960.0365,-122 957.0365,-126 936.0365,-126 933.0365,-122 809.9635,-122 809.9635,-86 960.0365,-86 960.0365,-122"/>
<text text-anchor="middle" x="885" y="-99.8" font-family="Times,serif" font-size="14.00" fill="#000000">MatSlideToggleModule</text>
</g>
<!-- MatSlideToggleModule&#45;&gt;NgsConfigModule -->
<g id="edge27" class="edge">
<title>MatSlideToggleModule&#45;&gt;NgsConfigModule</title>
<path fill="none" stroke="#000000" d="M885,-122.0267C885,-142.7672 885,-174 885,-174 885,-174 2299.4832,-174 2299.4832,-174"/>
<polygon fill="#000000" stroke="#000000" points="2299.4832,-177.5001 2309.4832,-174 2299.4831,-170.5001 2299.4832,-177.5001"/>
</g>
<!-- MatToolbarModule -->
<g id="node29" class="node">
<title>MatToolbarModule</title>
<polygon fill="#8dd3c7" stroke="#000000" points="792.4187,-122 789.4187,-126 768.4187,-126 765.4187,-122 665.5813,-122 665.5813,-86 792.4187,-86 792.4187,-122"/>
<text text-anchor="middle" x="729" y="-99.8" font-family="Times,serif" font-size="14.00" fill="#000000">MatToolbarModule</text>
</g>
<!-- MatToolbarModule&#45;&gt;NgsConfigModule -->
<g id="edge28" class="edge">
<title>MatToolbarModule&#45;&gt;NgsConfigModule</title>
<path fill="none" stroke="#000000" d="M729,-122.1686C729,-143.498 729,-176 729,-176 729,-176 2299.1587,-176 2299.1587,-176"/>
<polygon fill="#000000" stroke="#000000" points="2299.1587,-179.5001 2309.1587,-176 2299.1587,-172.5001 2299.1587,-179.5001"/>
</g>
<!-- MatDatepickerModule -->
<g id="node30" class="node">
<title>MatDatepickerModule</title>
<polygon fill="#8dd3c7" stroke="#000000" points="647.5072,-122 644.5072,-126 623.5072,-126 620.5072,-122 504.4928,-122 504.4928,-86 647.5072,-86 647.5072,-122"/>
<text text-anchor="middle" x="576" y="-99.8" font-family="Times,serif" font-size="14.00" fill="#000000">MatDatepickerModule</text>
</g>
<!-- MatDatepickerModule&#45;&gt;NgsConfigModule -->
<g id="edge29" class="edge">
<title>MatDatepickerModule&#45;&gt;NgsConfigModule</title>
<path fill="none" stroke="#000000" d="M576,-122.2921C576,-144.2057 576,-178 576,-178 576,-178 2299.2824,-178 2299.2824,-178"/>
<polygon fill="#000000" stroke="#000000" points="2299.2825,-181.5001 2309.2824,-178 2299.2824,-174.5001 2299.2825,-181.5001"/>
</g>
<!-- MatProgressBarModule -->
<g id="node31" class="node">
<title>MatProgressBarModule</title>
<polygon fill="#8dd3c7" stroke="#000000" points="486.0198,-122 483.0198,-126 462.0198,-126 459.0198,-122 335.9802,-122 335.9802,-86 486.0198,-86 486.0198,-122"/>
<text text-anchor="middle" x="411" y="-99.8" font-family="Times,serif" font-size="14.00" fill="#000000">MatProgressBarModule</text>
</g>
<!-- MatProgressBarModule&#45;&gt;NgsConfigModule -->
<g id="edge30" class="edge">
<title>MatProgressBarModule&#45;&gt;NgsConfigModule</title>
<path fill="none" stroke="#000000" d="M411,-122.2479C411,-145.0179 411,-181 411,-181 411,-181 2299.4933,-181 2299.4933,-181"/>
<polygon fill="#000000" stroke="#000000" points="2299.4934,-184.5001 2309.4933,-181 2299.4933,-177.5001 2299.4934,-184.5001"/>
</g>
<!-- BrowserAnimationsModule -->
<g id="node32" class="node">
<title>BrowserAnimationsModule</title>
<polygon fill="#8dd3c7" stroke="#000000" points="318.3019,-122 315.3019,-126 294.3019,-126 291.3019,-122 145.6981,-122 145.6981,-86 318.3019,-86 318.3019,-122"/>
<text text-anchor="middle" x="232" y="-99.8" font-family="Times,serif" font-size="14.00" fill="#000000">BrowserAnimationsModule</text>
</g>
<!-- BrowserAnimationsModule&#45;&gt;NgsConfigModule -->
<g id="edge31" class="edge">
<title>BrowserAnimationsModule&#45;&gt;NgsConfigModule</title>
<path fill="none" stroke="#000000" d="M232,-122.3228C232,-145.6602 232,-183 232,-183 232,-183 2299.4578,-183 2299.4578,-183"/>
<polygon fill="#000000" stroke="#000000" points="2299.4578,-186.5001 2309.4578,-183 2299.4577,-179.5001 2299.4578,-186.5001"/>
</g>
<!-- RoutingModule -->
<g id="node33" class="node">
<title>RoutingModule</title>
<polygon fill="#8dd3c7" stroke="#000000" points="128.1681,-122 125.1681,-126 104.1681,-126 101.1681,-122 23.8319,-122 23.8319,-86 128.1681,-86 128.1681,-122"/>
<text text-anchor="middle" x="76" y="-99.8" font-family="Times,serif" font-size="14.00" fill="#000000">RoutingModule</text>
</g>
<!-- RoutingModule&#45;&gt;NgsConfigModule -->
<g id="edge32" class="edge">
<title>RoutingModule&#45;&gt;NgsConfigModule</title>
<path fill="none" stroke="#000000" d="M76,-122.3802C76,-146.2785 76,-185 76,-185 76,-185 2299.2319,-185 2299.2319,-185"/>
<polygon fill="#000000" stroke="#000000" points="2299.232,-188.5001 2309.2319,-185 2299.2319,-181.5001 2299.232,-188.5001"/>
</g>
</g>
</svg>
