<?xml version="1.0" encoding="UTF-8" standalone="no"?>
<!DOCTYPE svg PUBLIC "-//W3C//DTD SVG 1.1//EN"
 "http://www.w3.org/Graphics/SVG/1.1/DTD/svg11.dtd">
<!-- Generated by graphviz version 2.40.1 (20161225.0304)
 -->
<!-- Title: dependencies Pages: 1 -->
<svg width="730pt" height="284pt"
 viewBox="0.00 0.00 730.00 284.00" xmlns="http://www.w3.org/2000/svg" xmlns:xlink="http://www.w3.org/1999/xlink">
<g id="graph0" class="graph" transform="scale(1 1) rotate(0) translate(4 280)">
<title>dependencies</title>
<polygon fill="#ffffff" stroke="transparent" points="-4,4 -4,-280 726,-280 726,4 -4,4"/>
<text text-anchor="start" x="340.0091" y="-42.4" font-family="sans-serif" font-weight="bold" font-size="14.00" fill="#000000">Legend</text>
<polygon fill="#ffffb3" stroke="transparent" points="127,-10 127,-30 147,-30 147,-10 127,-10"/>
<text text-anchor="start" x="150.629" y="-15.4" font-family="sans-serif" font-size="14.00" fill="#000000"> &#160;Declarations</text>
<polygon fill="#8dd3c7" stroke="transparent" points="240,-10 240,-30 260,-30 260,-10 240,-10"/>
<text text-anchor="start" x="263.7251" y="-15.4" font-family="sans-serif" font-size="14.00" fill="#000000"> &#160;Module</text>
<polygon fill="#80b1d3" stroke="transparent" points="326,-10 326,-30 346,-30 346,-10 326,-10"/>
<text text-anchor="start" x="349.7812" y="-15.4" font-family="sans-serif" font-size="14.00" fill="#000000"> &#160;Bootstrap</text>
<polygon fill="#fdb462" stroke="transparent" points="423,-10 423,-30 443,-30 443,-10 423,-10"/>
<text text-anchor="start" x="446.6732" y="-15.4" font-family="sans-serif" font-size="14.00" fill="#000000"> &#160;Providers</text>
<polygon fill="#fb8072" stroke="transparent" points="519,-10 519,-30 539,-30 539,-10 519,-10"/>
<text text-anchor="start" x="542.7258" y="-15.4" font-family="sans-serif" font-size="14.00" fill="#000000"> &#160;Exports</text>
<g id="clust1" class="cluster">
<title>cluster_RootGeoBoundaryModule</title>
<polygon fill="none" stroke="#000000" stroke-dasharray="1,5" points="8,-70 8,-268 714,-268 714,-70 8,-70"/>
</g>
<g id="clust3" class="cluster">
<title>cluster_RootGeoBoundaryModule_imports</title>
<polygon fill="none" stroke="#000000" points="16,-78 16,-130 706,-130 706,-78 16,-78"/>
</g>
<g id="clust4" class="cluster">
<title>cluster_RootGeoBoundaryModule_exports</title>
<polygon fill="none" stroke="#000000" points="267,-208 267,-260 425,-260 425,-208 267,-208"/>
</g>
<!-- GeoBoundaryModule -->
<g id="node1" class="node">
<title>GeoBoundaryModule</title>
<polygon fill="#8dd3c7" stroke="#000000" points="698.0828,-122 695.0828,-126 674.0828,-126 671.0828,-122 559.9172,-122 559.9172,-86 698.0828,-86 698.0828,-122"/>
<text text-anchor="middle" x="629" y="-99.8" font-family="Times,serif" font-size="14.00" fill="#000000">GeoBoundaryModule</text>
</g>
<!-- RootGeoBoundaryModule -->
<g id="node5" class="node">
<title>RootGeoBoundaryModule</title>
<polygon fill="#8dd3c7" stroke="#000000" points="428.8103,-187 425.8103,-191 404.8103,-191 401.8103,-187 263.1897,-187 263.1897,-151 428.8103,-151 428.8103,-187"/>
<text text-anchor="middle" x="346" y="-164.8" font-family="Times,serif" font-size="14.00" fill="#000000">RootGeoBoundaryModule</text>
</g>
<!-- GeoBoundaryModule&#45;&gt;RootGeoBoundaryModule -->
<g id="edge1" class="edge">
<title>GeoBoundaryModule&#45;&gt;RootGeoBoundaryModule</title>
<path fill="none" stroke="#000000" d="M629,-122.1061C629,-141.3391 629,-169 629,-169 629,-169 438.9972,-169 438.9972,-169"/>
<polygon fill="#000000" stroke="#000000" points="438.9972,-165.5001 428.9972,-169 438.9971,-172.5001 438.9972,-165.5001"/>
</g>
<!-- StoreModule.forFeature(args) -->
<g id="node2" class="node">
<title>StoreModule.forFeature(args)</title>
<polygon fill="#8dd3c7" stroke="#000000" points="541.5386,-122 538.5386,-126 517.5386,-126 514.5386,-122 358.4614,-122 358.4614,-86 541.5386,-86 541.5386,-122"/>
<text text-anchor="middle" x="450" y="-99.8" font-family="Times,serif" font-size="14.00" fill="#000000">StoreModule.forFeature(args)</text>
</g>
<!-- StoreModule.forFeature(args)&#45;&gt;RootGeoBoundaryModule -->
<g id="edge2" class="edge">
<title>StoreModule.forFeature(args)&#45;&gt;RootGeoBoundaryModule</title>
<path fill="none" stroke="#000000" d="M393.443,-122.1061C393.443,-122.1061 393.443,-140.991 393.443,-140.991"/>
<polygon fill="#000000" stroke="#000000" points="389.9431,-140.9909 393.443,-150.991 396.9431,-140.991 389.9431,-140.9909"/>
</g>
<!-- EffectsModule.forFeature(args) -->
<g id="node3" class="node">
<title>EffectsModule.forFeature(args)</title>
<polygon fill="#8dd3c7" stroke="#000000" points="339.6282,-122 336.6282,-126 315.6282,-126 312.6282,-122 146.3718,-122 146.3718,-86 339.6282,-86 339.6282,-122"/>
<text text-anchor="middle" x="243" y="-99.8" font-family="Times,serif" font-size="14.00" fill="#000000">EffectsModule.forFeature(args)</text>
</g>
<!-- EffectsModule.forFeature(args)&#45;&gt;RootGeoBoundaryModule -->
<g id="edge3" class="edge">
<title>EffectsModule.forFeature(args)&#45;&gt;RootGeoBoundaryModule</title>
<path fill="none" stroke="#000000" d="M301.5795,-122.1061C301.5795,-122.1061 301.5795,-140.991 301.5795,-140.991"/>
<polygon fill="#000000" stroke="#000000" points="298.0795,-140.9909 301.5795,-150.991 305.0795,-140.991 298.0795,-140.9909"/>
</g>
<!-- RoutingModule -->
<g id="node4" class="node">
<title>RoutingModule</title>
<polygon fill="#8dd3c7" stroke="#000000" points="128.1681,-122 125.1681,-126 104.1681,-126 101.1681,-122 23.8319,-122 23.8319,-86 128.1681,-86 128.1681,-122"/>
<text text-anchor="middle" x="76" y="-99.8" font-family="Times,serif" font-size="14.00" fill="#000000">RoutingModule</text>
</g>
<!-- RoutingModule&#45;&gt;RootGeoBoundaryModule -->
<g id="edge4" class="edge">
<title>RoutingModule&#45;&gt;RootGeoBoundaryModule</title>
<path fill="none" stroke="#000000" d="M76,-122.1061C76,-141.3391 76,-169 76,-169 76,-169 253.1562,-169 253.1562,-169"/>
<polygon fill="#000000" stroke="#000000" points="253.1562,-172.5001 263.1562,-169 253.1562,-165.5001 253.1562,-172.5001"/>
</g>
<!-- GeoBoundaryModule  -->
<g id="node6" class="node">
<title>GeoBoundaryModule </title>
<polygon fill="#fb8072" stroke="#000000" points="416.5834,-252 275.4166,-252 275.4166,-216 416.5834,-216 416.5834,-252"/>
<text text-anchor="middle" x="346" y="-229.8" font-family="Times,serif" font-size="14.00" fill="#000000">GeoBoundaryModule </text>
</g>
<!-- RootGeoBoundaryModule&#45;&gt;GeoBoundaryModule  -->
<g id="edge5" class="edge">
<title>RootGeoBoundaryModule&#45;&gt;GeoBoundaryModule </title>
<path fill="none" stroke="#000000" stroke-dasharray="5,2" d="M346,-187.1061C346,-187.1061 346,-205.991 346,-205.991"/>
<polygon fill="#000000" stroke="#000000" points="342.5001,-205.9909 346,-215.991 349.5001,-205.991 342.5001,-205.9909"/>
</g>
</g>
</svg>
