<?xml version="1.0" encoding="UTF-8" standalone="no"?>
<!DOCTYPE svg PUBLIC "-//W3C//DTD SVG 1.1//EN"
 "http://www.w3.org/Graphics/SVG/1.1/DTD/svg11.dtd">
<!-- Generated by graphviz version 2.40.1 (20161225.0304)
 -->
<!-- Title: dependencies Pages: 1 -->
<svg width="3822pt" height="211pt"
 viewBox="0.00 0.00 3822.00 211.00" xmlns="http://www.w3.org/2000/svg" xmlns:xlink="http://www.w3.org/1999/xlink">
<g id="graph0" class="graph" transform="scale(1 1) rotate(0) translate(4 207)">
<title>dependencies</title>
<polygon fill="#ffffff" stroke="transparent" points="-4,4 -4,-207 3818,-207 3818,4 -4,4"/>
<text text-anchor="start" x="1886.0091" y="-42.4" font-family="sans-serif" font-weight="bold" font-size="14.00" fill="#000000">Legend</text>
<polygon fill="#ffffb3" stroke="transparent" points="1673,-10 1673,-30 1693,-30 1693,-10 1673,-10"/>
<text text-anchor="start" x="1696.629" y="-15.4" font-family="sans-serif" font-size="14.00" fill="#000000"> &#160;Declarations</text>
<polygon fill="#8dd3c7" stroke="transparent" points="1786,-10 1786,-30 1806,-30 1806,-10 1786,-10"/>
<text text-anchor="start" x="1809.7251" y="-15.4" font-family="sans-serif" font-size="14.00" fill="#000000"> &#160;Module</text>
<polygon fill="#80b1d3" stroke="transparent" points="1872,-10 1872,-30 1892,-30 1892,-10 1872,-10"/>
<text text-anchor="start" x="1895.7812" y="-15.4" font-family="sans-serif" font-size="14.00" fill="#000000"> &#160;Bootstrap</text>
<polygon fill="#fdb462" stroke="transparent" points="1969,-10 1969,-30 1989,-30 1989,-10 1969,-10"/>
<text text-anchor="start" x="1992.6732" y="-15.4" font-family="sans-serif" font-size="14.00" fill="#000000"> &#160;Providers</text>
<polygon fill="#fb8072" stroke="transparent" points="2065,-10 2065,-30 2085,-30 2085,-10 2065,-10"/>
<text text-anchor="start" x="2088.7258" y="-15.4" font-family="sans-serif" font-size="14.00" fill="#000000"> &#160;Exports</text>
<g id="clust1" class="cluster">
<title>cluster_StaticPageModule</title>
<polygon fill="none" stroke="#000000" stroke-dasharray="1,5" points="8,-70 8,-195 3806,-195 3806,-70 8,-70"/>
</g>
<g id="clust2" class="cluster">
<title>cluster_StaticPageModule_declarations</title>
<polygon fill="none" stroke="#000000" points="3044,-78 3044,-130 3798,-130 3798,-78 3044,-78"/>
</g>
<g id="clust8" class="cluster">
<title>cluster_StaticPageModule_imports</title>
<polygon fill="none" stroke="#000000" points="16,-78 16,-130 3036,-130 3036,-78 16,-78"/>
</g>
<!-- PageNotFoundComponent -->
<g id="node1" class="node">
<title>PageNotFoundComponent</title>
<polygon fill="#ffffb3" stroke="#000000" points="3789.8243,-122 3624.1757,-122 3624.1757,-86 3789.8243,-86 3789.8243,-122"/>
<text text-anchor="middle" x="3707" y="-99.8" font-family="Times,serif" font-size="14.00" fill="#000000">PageNotFoundComponent</text>
</g>
<!-- StaticPageModule -->
<g id="node6" class="node">
<title>StaticPageModule</title>
<polygon fill="#8dd3c7" stroke="#000000" points="2060.1457,-187 2057.1457,-191 2036.1457,-191 2033.1457,-187 1941.8543,-187 1941.8543,-151 2060.1457,-151 2060.1457,-187"/>
<text text-anchor="middle" x="2001" y="-164.8" font-family="Times,serif" font-size="14.00" fill="#000000">StaticPageModule</text>
</g>
<!-- PageNotFoundComponent&#45;&gt;StaticPageModule -->
<g id="edge1" class="edge">
<title>PageNotFoundComponent&#45;&gt;StaticPageModule</title>
<path fill="none" stroke="#000000" d="M3707,-122.3802C3707,-146.2785 3707,-185 3707,-185 3707,-185 2070.2198,-185 2070.2198,-185"/>
<polygon fill="#000000" stroke="#000000" points="2070.2198,-181.5001 2060.2198,-185 2070.2198,-188.5001 2070.2198,-181.5001"/>
</g>
<!-- AboutUsComponent -->
<g id="node2" class="node">
<title>AboutUsComponent</title>
<polygon fill="#ffffb3" stroke="#000000" points="3605.8809,-122 3474.1191,-122 3474.1191,-86 3605.8809,-86 3605.8809,-122"/>
<text text-anchor="middle" x="3540" y="-99.8" font-family="Times,serif" font-size="14.00" fill="#000000">AboutUsComponent</text>
</g>
<!-- AboutUsComponent&#45;&gt;StaticPageModule -->
<g id="edge2" class="edge">
<title>AboutUsComponent&#45;&gt;StaticPageModule</title>
<path fill="none" stroke="#000000" d="M3540,-122.0908C3540,-145.1328 3540,-182 3540,-182 3540,-182 2070.3876,-182 2070.3876,-182"/>
<polygon fill="#000000" stroke="#000000" points="2070.3877,-178.5001 2060.3876,-182 2070.3876,-185.5001 2070.3877,-178.5001"/>
</g>
<!-- ContactUsComponent -->
<g id="node3" class="node">
<title>ContactUsComponent</title>
<polygon fill="#ffffb3" stroke="#000000" points="3456.4313,-122 3315.5687,-122 3315.5687,-86 3456.4313,-86 3456.4313,-122"/>
<text text-anchor="middle" x="3386" y="-99.8" font-family="Times,serif" font-size="14.00" fill="#000000">ContactUsComponent</text>
</g>
<!-- ContactUsComponent&#45;&gt;StaticPageModule -->
<g id="edge3" class="edge">
<title>ContactUsComponent&#45;&gt;StaticPageModule</title>
<path fill="none" stroke="#000000" d="M3386,-122.0109C3386,-144.4852 3386,-180 3386,-180 3386,-180 2070.5117,-180 2070.5117,-180"/>
<polygon fill="#000000" stroke="#000000" points="2070.5118,-176.5001 2060.5117,-180 2070.5117,-183.5001 2070.5118,-176.5001"/>
</g>
<!-- PoliciesComponent -->
<g id="node4" class="node">
<title>PoliciesComponent</title>
<polygon fill="#ffffb3" stroke="#000000" points="3297.6611,-122 3172.3389,-122 3172.3389,-86 3297.6611,-86 3297.6611,-122"/>
<text text-anchor="middle" x="3235" y="-99.8" font-family="Times,serif" font-size="14.00" fill="#000000">PoliciesComponent</text>
</g>
<!-- PoliciesComponent&#45;&gt;StaticPageModule -->
<g id="edge4" class="edge">
<title>PoliciesComponent&#45;&gt;StaticPageModule</title>
<path fill="none" stroke="#000000" d="M3235,-122.0449C3235,-143.6623 3235,-177 3235,-177 3235,-177 2070.5184,-177 2070.5184,-177"/>
<polygon fill="#000000" stroke="#000000" points="2070.5184,-173.5001 2060.5184,-177 2070.5183,-180.5001 2070.5184,-173.5001"/>
</g>
<!-- FaqComponent -->
<g id="node5" class="node">
<title>FaqComponent</title>
<polygon fill="#ffffb3" stroke="#000000" points="3154.3301,-122 3051.6699,-122 3051.6699,-86 3154.3301,-86 3154.3301,-122"/>
<text text-anchor="middle" x="3103" y="-99.8" font-family="Times,serif" font-size="14.00" fill="#000000">FaqComponent</text>
</g>
<!-- FaqComponent&#45;&gt;StaticPageModule -->
<g id="edge5" class="edge">
<title>FaqComponent&#45;&gt;StaticPageModule</title>
<path fill="none" stroke="#000000" d="M3103,-122.2843C3103,-143.3211 3103,-175 3103,-175 3103,-175 2070.2483,-175 2070.2483,-175"/>
<polygon fill="#000000" stroke="#000000" points="2070.2483,-171.5001 2060.2483,-175 2070.2483,-178.5001 2070.2483,-171.5001"/>
</g>
<!-- CommonModule -->
<g id="node7" class="node">
<title>CommonModule</title>
<polygon fill="#8dd3c7" stroke="#000000" points="3027.6681,-122 3024.6681,-126 3003.6681,-126 3000.6681,-122 2916.3319,-122 2916.3319,-86 3027.6681,-86 3027.6681,-122"/>
<text text-anchor="middle" x="2972" y="-99.8" font-family="Times,serif" font-size="14.00" fill="#000000">CommonModule</text>
</g>
<!-- CommonModule&#45;&gt;StaticPageModule -->
<g id="edge6" class="edge">
<title>CommonModule&#45;&gt;StaticPageModule</title>
<path fill="none" stroke="#000000" d="M2972,-122.2228C2972,-142.3652 2972,-172 2972,-172 2972,-172 2070.2787,-172 2070.2787,-172"/>
<polygon fill="#000000" stroke="#000000" points="2070.2788,-168.5001 2060.2787,-172 2070.2787,-175.5001 2070.2788,-168.5001"/>
</g>
<!-- RouterModule -->
<g id="node8" class="node">
<title>RouterModule</title>
<polygon fill="#8dd3c7" stroke="#000000" points="2897.6528,-122 2894.6528,-126 2873.6528,-126 2870.6528,-122 2800.3472,-122 2800.3472,-86 2897.6528,-86 2897.6528,-122"/>
<text text-anchor="middle" x="2849" y="-99.8" font-family="Times,serif" font-size="14.00" fill="#000000">RouterModule</text>
</g>
<!-- RouterModule&#45;&gt;StaticPageModule -->
<g id="edge7" class="edge">
<title>RouterModule&#45;&gt;StaticPageModule</title>
<path fill="none" stroke="#000000" d="M2832.7246,-122.2222C2832.7246,-140.8285 2832.7246,-167 2832.7246,-167 2832.7246,-167 2070.1488,-167 2070.1488,-167"/>
<polygon fill="#000000" stroke="#000000" points="2070.1489,-163.5001 2060.1488,-167 2070.1488,-170.5001 2070.1489,-163.5001"/>
</g>
<!-- RouterModule&#45;&gt;StaticPageModule -->
<g id="edge27" class="edge">
<title>RouterModule&#45;&gt;StaticPageModule</title>
<path fill="none" stroke="#000000" d="M2865.2754,-122.1061C2865.2754,-141.3391 2865.2754,-169 2865.2754,-169 2865.2754,-169 2070.4051,-169 2070.4051,-169"/>
<polygon fill="#000000" stroke="#000000" points="2070.4052,-165.5001 2060.4051,-169 2070.4051,-172.5001 2070.4052,-165.5001"/>
</g>
<!-- FormsModule -->
<g id="node9" class="node">
<title>FormsModule</title>
<polygon fill="#8dd3c7" stroke="#000000" points="2782.8288,-122 2779.8288,-126 2758.8288,-126 2755.8288,-122 2687.1712,-122 2687.1712,-86 2782.8288,-86 2782.8288,-122"/>
<text text-anchor="middle" x="2735" y="-99.8" font-family="Times,serif" font-size="14.00" fill="#000000">FormsModule</text>
</g>
<!-- FormsModule&#45;&gt;StaticPageModule -->
<g id="edge8" class="edge">
<title>FormsModule&#45;&gt;StaticPageModule</title>
<path fill="none" stroke="#000000" d="M2735,-122.002C2735,-139.6754 2735,-164 2735,-164 2735,-164 2070.4446,-164 2070.4446,-164"/>
<polygon fill="#000000" stroke="#000000" points="2070.4446,-160.5001 2060.4446,-164 2070.4445,-167.5001 2070.4446,-160.5001"/>
</g>
<!-- HttpClientModule -->
<g id="node10" class="node">
<title>HttpClientModule</title>
<polygon fill="#8dd3c7" stroke="#000000" points="2669.1611,-122 2666.1611,-126 2645.1611,-126 2642.1611,-122 2550.8389,-122 2550.8389,-86 2669.1611,-86 2669.1611,-122"/>
<text text-anchor="middle" x="2610" y="-99.8" font-family="Times,serif" font-size="14.00" fill="#000000">HttpClientModule</text>
</g>
<!-- HttpClientModule&#45;&gt;StaticPageModule -->
<g id="edge9" class="edge">
<title>HttpClientModule&#45;&gt;StaticPageModule</title>
<path fill="none" stroke="#000000" d="M2610,-122.0336C2610,-139.0597 2610,-162 2610,-162 2610,-162 2070.2243,-162 2070.2243,-162"/>
<polygon fill="#000000" stroke="#000000" points="2070.2243,-158.5001 2060.2243,-162 2070.2243,-165.5001 2070.2243,-158.5001"/>
</g>
<!-- FlexLayoutModule -->
<g id="node11" class="node">
<title>FlexLayoutModule</title>
<polygon fill="#8dd3c7" stroke="#000000" points="2533.0954,-122 2530.0954,-126 2509.0954,-126 2506.0954,-122 2408.9046,-122 2408.9046,-86 2533.0954,-86 2533.0954,-122"/>
<text text-anchor="middle" x="2471" y="-99.8" font-family="Times,serif" font-size="14.00" fill="#000000">FlexLayoutModule</text>
</g>
<!-- FlexLayoutModule&#45;&gt;StaticPageModule -->
<g id="edge10" class="edge">
<title>FlexLayoutModule&#45;&gt;StaticPageModule</title>
<path fill="none" stroke="#000000" d="M2471,-122.0091C2471,-138.0494 2471,-159 2471,-159 2471,-159 2070.5258,-159 2070.5258,-159"/>
<polygon fill="#000000" stroke="#000000" points="2070.5259,-155.5001 2060.5258,-159 2070.5258,-162.5001 2070.5259,-155.5001"/>
</g>
<!-- MatIconModule -->
<g id="node12" class="node">
<title>MatIconModule</title>
<polygon fill="#8dd3c7" stroke="#000000" points="2390.4748,-122 2387.4748,-126 2366.4748,-126 2363.4748,-122 2283.5252,-122 2283.5252,-86 2390.4748,-86 2390.4748,-122"/>
<text text-anchor="middle" x="2337" y="-99.8" font-family="Times,serif" font-size="14.00" fill="#000000">MatIconModule</text>
</g>
<!-- MatIconModule&#45;&gt;StaticPageModule -->
<g id="edge11" class="edge">
<title>MatIconModule&#45;&gt;StaticPageModule</title>
<path fill="none" stroke="#000000" d="M2337,-122.2396C2337,-137.5706 2337,-157 2337,-157 2337,-157 2070.2966,-157 2070.2966,-157"/>
<polygon fill="#000000" stroke="#000000" points="2070.2966,-153.5001 2060.2966,-157 2070.2966,-160.5001 2070.2966,-153.5001"/>
</g>
<!-- MatButtonModule -->
<g id="node13" class="node">
<title>MatButtonModule</title>
<polygon fill="#8dd3c7" stroke="#000000" points="2265.2176,-122 2262.2176,-126 2241.2176,-126 2238.2176,-122 2144.7824,-122 2144.7824,-86 2265.2176,-86 2265.2176,-122"/>
<text text-anchor="middle" x="2205" y="-99.8" font-family="Times,serif" font-size="14.00" fill="#000000">MatButtonModule</text>
</g>
<!-- MatButtonModule&#45;&gt;StaticPageModule -->
<g id="edge12" class="edge">
<title>MatButtonModule&#45;&gt;StaticPageModule</title>
<path fill="none" stroke="#000000" d="M2205,-122.0511C2205,-136.373 2205,-154 2205,-154 2205,-154 2070.2793,-154 2070.2793,-154"/>
<polygon fill="#000000" stroke="#000000" points="2070.2793,-150.5001 2060.2793,-154 2070.2792,-157.5001 2070.2793,-150.5001"/>
</g>
<!-- MatCardModule -->
<g id="node14" class="node">
<title>MatCardModule</title>
<polygon fill="#8dd3c7" stroke="#000000" points="2126.8118,-122 2123.8118,-126 2102.8118,-126 2099.8118,-122 2017.1882,-122 2017.1882,-86 2126.8118,-86 2126.8118,-122"/>
<text text-anchor="middle" x="2072" y="-99.8" font-family="Times,serif" font-size="14.00" fill="#000000">MatCardModule</text>
</g>
<!-- MatCardModule&#45;&gt;StaticPageModule -->
<g id="edge13" class="edge">
<title>MatCardModule&#45;&gt;StaticPageModule</title>
<path fill="none" stroke="#000000" d="M2038.8335,-122.1061C2038.8335,-122.1061 2038.8335,-140.991 2038.8335,-140.991"/>
<polygon fill="#000000" stroke="#000000" points="2035.3335,-140.9909 2038.8335,-150.991 2042.3335,-140.991 2035.3335,-140.9909"/>
</g>
<!-- MatSnackBarModule -->
<g id="node15" class="node">
<title>MatSnackBarModule</title>
<polygon fill="#8dd3c7" stroke="#000000" points="1999.024,-122 1996.024,-126 1975.024,-126 1972.024,-122 1862.976,-122 1862.976,-86 1999.024,-86 1999.024,-122"/>
<text text-anchor="middle" x="1931" y="-99.8" font-family="Times,serif" font-size="14.00" fill="#000000">MatSnackBarModule</text>
</g>
<!-- MatSnackBarModule&#45;&gt;StaticPageModule -->
<g id="edge14" class="edge">
<title>MatSnackBarModule&#45;&gt;StaticPageModule</title>
<path fill="none" stroke="#000000" d="M1970.4695,-122.1061C1970.4695,-122.1061 1970.4695,-140.991 1970.4695,-140.991"/>
<polygon fill="#000000" stroke="#000000" points="1966.9696,-140.9909 1970.4695,-150.991 1973.9696,-140.991 1966.9696,-140.9909"/>
</g>
<!-- MatSidenavModule -->
<g id="node16" class="node">
<title>MatSidenavModule</title>
<polygon fill="#8dd3c7" stroke="#000000" points="1844.7022,-122 1841.7022,-126 1820.7022,-126 1817.7022,-122 1717.2978,-122 1717.2978,-86 1844.7022,-86 1844.7022,-122"/>
<text text-anchor="middle" x="1781" y="-99.8" font-family="Times,serif" font-size="14.00" fill="#000000">MatSidenavModule</text>
</g>
<!-- MatSidenavModule&#45;&gt;StaticPageModule -->
<g id="edge15" class="edge">
<title>MatSidenavModule&#45;&gt;StaticPageModule</title>
<path fill="none" stroke="#000000" d="M1781,-122.0511C1781,-136.373 1781,-154 1781,-154 1781,-154 1931.7546,-154 1931.7546,-154"/>
<polygon fill="#000000" stroke="#000000" points="1931.7547,-157.5001 1941.7546,-154 1931.7546,-150.5001 1931.7547,-157.5001"/>
</g>
<!-- MatExpansionModule -->
<g id="node17" class="node">
<title>MatExpansionModule</title>
<polygon fill="#8dd3c7" stroke="#000000" points="1699.7021,-122 1696.7021,-126 1675.7021,-126 1672.7021,-122 1558.2979,-122 1558.2979,-86 1699.7021,-86 1699.7021,-122"/>
<text text-anchor="middle" x="1629" y="-99.8" font-family="Times,serif" font-size="14.00" fill="#000000">MatExpansionModule</text>
</g>
<!-- MatExpansionModule&#45;&gt;StaticPageModule -->
<g id="edge16" class="edge">
<title>MatExpansionModule&#45;&gt;StaticPageModule</title>
<path fill="none" stroke="#000000" d="M1629,-122.2396C1629,-137.5706 1629,-157 1629,-157 1629,-157 1931.6442,-157 1931.6442,-157"/>
<polygon fill="#000000" stroke="#000000" points="1931.6442,-160.5001 1941.6442,-157 1931.6441,-153.5001 1931.6442,-160.5001"/>
</g>
<!-- MatSelectModule -->
<g id="node18" class="node">
<title>MatSelectModule</title>
<polygon fill="#8dd3c7" stroke="#000000" points="1540.3076,-122 1537.3076,-126 1516.3076,-126 1513.3076,-122 1423.6924,-122 1423.6924,-86 1540.3076,-86 1540.3076,-122"/>
<text text-anchor="middle" x="1482" y="-99.8" font-family="Times,serif" font-size="14.00" fill="#000000">MatSelectModule</text>
</g>
<!-- MatSelectModule&#45;&gt;StaticPageModule -->
<g id="edge17" class="edge">
<title>MatSelectModule&#45;&gt;StaticPageModule</title>
<path fill="none" stroke="#000000" d="M1482,-122.0091C1482,-138.0494 1482,-159 1482,-159 1482,-159 1931.717,-159 1931.717,-159"/>
<polygon fill="#000000" stroke="#000000" points="1931.717,-162.5001 1941.717,-159 1931.7169,-155.5001 1931.717,-162.5001"/>
</g>
<!-- MatFormFieldModule -->
<g id="node19" class="node">
<title>MatFormFieldModule</title>
<polygon fill="#8dd3c7" stroke="#000000" points="1405.712,-122 1402.712,-126 1381.712,-126 1378.712,-122 1264.288,-122 1264.288,-86 1405.712,-86 1405.712,-122"/>
<text text-anchor="middle" x="1335" y="-99.8" font-family="Times,serif" font-size="14.00" fill="#000000">MatFormFieldModule</text>
</g>
<!-- MatFormFieldModule&#45;&gt;StaticPageModule -->
<g id="edge18" class="edge">
<title>MatFormFieldModule&#45;&gt;StaticPageModule</title>
<path fill="none" stroke="#000000" d="M1335,-122.0336C1335,-139.0597 1335,-162 1335,-162 1335,-162 1931.6042,-162 1931.6042,-162"/>
<polygon fill="#000000" stroke="#000000" points="1931.6042,-165.5001 1941.6042,-162 1931.6042,-158.5001 1931.6042,-165.5001"/>
</g>
<!-- MatListModule -->
<g id="node20" class="node">
<title>MatListModule</title>
<polygon fill="#8dd3c7" stroke="#000000" points="1245.8781,-122 1242.8781,-126 1221.8781,-126 1218.8781,-122 1142.1219,-122 1142.1219,-86 1245.8781,-86 1245.8781,-122"/>
<text text-anchor="middle" x="1194" y="-99.8" font-family="Times,serif" font-size="14.00" fill="#000000">MatListModule</text>
</g>
<!-- MatListModule&#45;&gt;StaticPageModule -->
<g id="edge19" class="edge">
<title>MatListModule&#45;&gt;StaticPageModule</title>
<path fill="none" stroke="#000000" d="M1194,-122.002C1194,-139.6754 1194,-164 1194,-164 1194,-164 1931.6594,-164 1931.6594,-164"/>
<polygon fill="#000000" stroke="#000000" points="1931.6594,-167.5001 1941.6594,-164 1931.6593,-160.5001 1931.6594,-167.5001"/>
</g>
<!-- MatMenuModule -->
<g id="node21" class="node">
<title>MatMenuModule</title>
<polygon fill="#8dd3c7" stroke="#000000" points="1124.2591,-122 1121.2591,-126 1100.2591,-126 1097.2591,-122 1009.7409,-122 1009.7409,-86 1124.2591,-86 1124.2591,-122"/>
<text text-anchor="middle" x="1067" y="-99.8" font-family="Times,serif" font-size="14.00" fill="#000000">MatMenuModule</text>
</g>
<!-- MatMenuModule&#45;&gt;StaticPageModule -->
<g id="edge20" class="edge">
<title>MatMenuModule&#45;&gt;StaticPageModule</title>
<path fill="none" stroke="#000000" d="M1067,-122.2222C1067,-140.8285 1067,-167 1067,-167 1067,-167 1931.5099,-167 1931.5099,-167"/>
<polygon fill="#000000" stroke="#000000" points="1931.5099,-170.5001 1941.5099,-167 1931.5098,-163.5001 1931.5099,-170.5001"/>
</g>
<!-- MatRadioModule -->
<g id="node22" class="node">
<title>MatRadioModule</title>
<polygon fill="#8dd3c7" stroke="#000000" points="991.5423,-122 988.5423,-126 967.5423,-126 964.5423,-122 876.4577,-122 876.4577,-86 991.5423,-86 991.5423,-122"/>
<text text-anchor="middle" x="934" y="-99.8" font-family="Times,serif" font-size="14.00" fill="#000000">MatRadioModule</text>
</g>
<!-- MatRadioModule&#45;&gt;StaticPageModule -->
<g id="edge21" class="edge">
<title>MatRadioModule&#45;&gt;StaticPageModule</title>
<path fill="none" stroke="#000000" d="M934,-122.1061C934,-141.3391 934,-169 934,-169 934,-169 1931.7309,-169 1931.7309,-169"/>
<polygon fill="#000000" stroke="#000000" points="1931.7309,-172.5001 1941.7309,-169 1931.7309,-165.5001 1931.7309,-172.5001"/>
</g>
<!-- MatInputModule -->
<g id="node23" class="node">
<title>MatInputModule</title>
<polygon fill="#8dd3c7" stroke="#000000" points="857.6513,-122 854.6513,-126 833.6513,-126 830.6513,-122 746.3487,-122 746.3487,-86 857.6513,-86 857.6513,-122"/>
<text text-anchor="middle" x="802" y="-99.8" font-family="Times,serif" font-size="14.00" fill="#000000">MatInputModule</text>
</g>
<!-- MatInputModule&#45;&gt;StaticPageModule -->
<g id="edge22" class="edge">
<title>MatInputModule&#45;&gt;StaticPageModule</title>
<path fill="none" stroke="#000000" d="M802,-122.2228C802,-142.3652 802,-172 802,-172 802,-172 1931.5414,-172 1931.5414,-172"/>
<polygon fill="#000000" stroke="#000000" points="1931.5414,-175.5001 1941.5414,-172 1931.5414,-168.5001 1931.5414,-175.5001"/>
</g>
<!-- MatToolbarModule -->
<g id="node24" class="node">
<title>MatToolbarModule</title>
<polygon fill="#8dd3c7" stroke="#000000" points="728.4187,-122 725.4187,-126 704.4187,-126 701.4187,-122 601.5813,-122 601.5813,-86 728.4187,-86 728.4187,-122"/>
<text text-anchor="middle" x="665" y="-99.8" font-family="Times,serif" font-size="14.00" fill="#000000">MatToolbarModule</text>
</g>
<!-- MatToolbarModule&#45;&gt;StaticPageModule -->
<g id="edge23" class="edge">
<title>MatToolbarModule&#45;&gt;StaticPageModule</title>
<path fill="none" stroke="#000000" d="M665,-122.2843C665,-143.3211 665,-175 665,-175 665,-175 1931.4354,-175 1931.4354,-175"/>
<polygon fill="#000000" stroke="#000000" points="1931.4354,-178.5001 1941.4354,-175 1931.4353,-171.5001 1931.4354,-178.5001"/>
</g>
<!-- MatDatepickerModule -->
<g id="node25" class="node">
<title>MatDatepickerModule</title>
<polygon fill="#8dd3c7" stroke="#000000" points="583.5072,-122 580.5072,-126 559.5072,-126 556.5072,-122 440.4928,-122 440.4928,-86 583.5072,-86 583.5072,-122"/>
<text text-anchor="middle" x="512" y="-99.8" font-family="Times,serif" font-size="14.00" fill="#000000">MatDatepickerModule</text>
</g>
<!-- MatDatepickerModule&#45;&gt;StaticPageModule -->
<g id="edge24" class="edge">
<title>MatDatepickerModule&#45;&gt;StaticPageModule</title>
<path fill="none" stroke="#000000" d="M512,-122.0449C512,-143.6623 512,-177 512,-177 512,-177 1931.7106,-177 1931.7106,-177"/>
<polygon fill="#000000" stroke="#000000" points="1931.7106,-180.5001 1941.7106,-177 1931.7105,-173.5001 1931.7106,-180.5001"/>
</g>
<!-- MatProgressBarModule -->
<g id="node26" class="node">
<title>MatProgressBarModule</title>
<polygon fill="#8dd3c7" stroke="#000000" points="422.0198,-122 419.0198,-126 398.0198,-126 395.0198,-122 271.9802,-122 271.9802,-86 422.0198,-86 422.0198,-122"/>
<text text-anchor="middle" x="347" y="-99.8" font-family="Times,serif" font-size="14.00" fill="#000000">MatProgressBarModule</text>
</g>
<!-- MatProgressBarModule&#45;&gt;StaticPageModule -->
<g id="edge25" class="edge">
<title>MatProgressBarModule&#45;&gt;StaticPageModule</title>
<path fill="none" stroke="#000000" d="M347,-122.0109C347,-144.4852 347,-180 347,-180 347,-180 1931.6456,-180 1931.6456,-180"/>
<polygon fill="#000000" stroke="#000000" points="1931.6456,-183.5001 1941.6456,-180 1931.6456,-176.5001 1931.6456,-183.5001"/>
</g>
<!-- BrowserModule -->
<g id="node27" class="node">
<title>BrowserModule</title>
<polygon fill="#8dd3c7" stroke="#000000" points="253.4734,-122 250.4734,-126 229.4734,-126 226.4734,-122 146.5266,-122 146.5266,-86 253.4734,-86 253.4734,-122"/>
<text text-anchor="middle" x="200" y="-99.8" font-family="Times,serif" font-size="14.00" fill="#000000">BrowserModule</text>
</g>
<!-- BrowserModule&#45;&gt;StaticPageModule -->
<g id="edge26" class="edge">
<title>BrowserModule&#45;&gt;StaticPageModule</title>
<path fill="none" stroke="#000000" d="M200,-122.0908C200,-145.1328 200,-182 200,-182 200,-182 1931.8462,-182 1931.8462,-182"/>
<polygon fill="#000000" stroke="#000000" points="1931.8462,-185.5001 1941.8462,-182 1931.8462,-178.5001 1931.8462,-185.5001"/>
</g>
<!-- RoutingModule -->
<g id="node28" class="node">
<title>RoutingModule</title>
<polygon fill="#8dd3c7" stroke="#000000" points="128.1681,-122 125.1681,-126 104.1681,-126 101.1681,-122 23.8319,-122 23.8319,-86 128.1681,-86 128.1681,-122"/>
<text text-anchor="middle" x="76" y="-99.8" font-family="Times,serif" font-size="14.00" fill="#000000">RoutingModule</text>
</g>
<!-- RoutingModule&#45;&gt;StaticPageModule -->
<g id="edge28" class="edge">
<title>RoutingModule&#45;&gt;StaticPageModule</title>
<path fill="none" stroke="#000000" d="M76,-122.3802C76,-146.2785 76,-185 76,-185 76,-185 1931.8087,-185 1931.8087,-185"/>
<polygon fill="#000000" stroke="#000000" points="1931.8087,-188.5001 1941.8087,-185 1931.8086,-181.5001 1931.8087,-188.5001"/>
</g>
</g>
</svg>
