<?xml version="1.0" encoding="UTF-8" standalone="no"?>
<!DOCTYPE svg PUBLIC "-//W3C//DTD SVG 1.1//EN"
 "http://www.w3.org/Graphics/SVG/1.1/DTD/svg11.dtd">
<!-- Generated by graphviz version 2.40.1 (20161225.0304)
 -->
<!-- Title: dependencies Pages: 1 -->
<svg width="842pt" height="211pt"
 viewBox="0.00 0.00 842.00 211.00" xmlns="http://www.w3.org/2000/svg" xmlns:xlink="http://www.w3.org/1999/xlink">
<g id="graph0" class="graph" transform="scale(1 1) rotate(0) translate(4 207)">
<title>dependencies</title>
<polygon fill="#ffffff" stroke="transparent" points="-4,4 -4,-207 838,-207 838,4 -4,4"/>
<text text-anchor="start" x="396.0091" y="-42.4" font-family="sans-serif" font-weight="bold" font-size="14.00" fill="#000000">Legend</text>
<polygon fill="#ffffb3" stroke="transparent" points="183,-10 183,-30 203,-30 203,-10 183,-10"/>
<text text-anchor="start" x="206.629" y="-15.4" font-family="sans-serif" font-size="14.00" fill="#000000"> &#160;Declarations</text>
<polygon fill="#8dd3c7" stroke="transparent" points="296,-10 296,-30 316,-30 316,-10 296,-10"/>
<text text-anchor="start" x="319.7251" y="-15.4" font-family="sans-serif" font-size="14.00" fill="#000000"> &#160;Module</text>
<polygon fill="#80b1d3" stroke="transparent" points="382,-10 382,-30 402,-30 402,-10 382,-10"/>
<text text-anchor="start" x="405.7812" y="-15.4" font-family="sans-serif" font-size="14.00" fill="#000000"> &#160;Bootstrap</text>
<polygon fill="#fdb462" stroke="transparent" points="479,-10 479,-30 499,-30 499,-10 479,-10"/>
<text text-anchor="start" x="502.6732" y="-15.4" font-family="sans-serif" font-size="14.00" fill="#000000"> &#160;Providers</text>
<polygon fill="#fb8072" stroke="transparent" points="575,-10 575,-30 595,-30 595,-10 575,-10"/>
<text text-anchor="start" x="598.7258" y="-15.4" font-family="sans-serif" font-size="14.00" fill="#000000"> &#160;Exports</text>
<g id="clust1" class="cluster">
<title>cluster_RootNgsAuthenticationModule</title>
<polygon fill="none" stroke="#000000" stroke-dasharray="1,5" points="8,-70 8,-195 826,-195 826,-70 8,-70"/>
</g>
<g id="clust3" class="cluster">
<title>cluster_RootNgsAuthenticationModule_imports</title>
<polygon fill="none" stroke="#000000" points="16,-78 16,-130 818,-130 818,-78 16,-78"/>
</g>
<!-- StoreModule.forFeature(args) -->
<g id="node1" class="node">
<title>StoreModule.forFeature(args)</title>
<polygon fill="#8dd3c7" stroke="#000000" points="809.5386,-122 806.5386,-126 785.5386,-126 782.5386,-122 626.4614,-122 626.4614,-86 809.5386,-86 809.5386,-122"/>
<text text-anchor="middle" x="718" y="-99.8" font-family="Times,serif" font-size="14.00" fill="#000000">StoreModule.forFeature(args)</text>
</g>
<!-- RootNgsAuthenticationModule -->
<g id="node5" class="node">
<title>RootNgsAuthenticationModule</title>
<polygon fill="#8dd3c7" stroke="#000000" points="502.0322,-187 499.0322,-191 478.0322,-191 475.0322,-187 309.9678,-187 309.9678,-151 502.0322,-151 502.0322,-187"/>
<text text-anchor="middle" x="406" y="-164.8" font-family="Times,serif" font-size="14.00" fill="#000000">RootNgsAuthenticationModule</text>
</g>
<!-- StoreModule.forFeature(args)&#45;&gt;RootNgsAuthenticationModule -->
<g id="edge1" class="edge">
<title>StoreModule.forFeature(args)&#45;&gt;RootNgsAuthenticationModule</title>
<path fill="none" stroke="#000000" d="M718,-122.1061C718,-141.3391 718,-169 718,-169 718,-169 512.1561,-169 512.1561,-169"/>
<polygon fill="#000000" stroke="#000000" points="512.1561,-165.5001 502.1561,-169 512.1561,-172.5001 512.1561,-165.5001"/>
</g>
<!-- EffectsModule.forFeature(args) -->
<g id="node2" class="node">
<title>EffectsModule.forFeature(args)</title>
<polygon fill="#8dd3c7" stroke="#000000" points="607.6282,-122 604.6282,-126 583.6282,-126 580.6282,-122 414.3718,-122 414.3718,-86 607.6282,-86 607.6282,-122"/>
<text text-anchor="middle" x="511" y="-99.8" font-family="Times,serif" font-size="14.00" fill="#000000">EffectsModule.forFeature(args)</text>
</g>
<!-- EffectsModule.forFeature(args)&#45;&gt;RootNgsAuthenticationModule -->
<g id="edge2" class="edge">
<title>EffectsModule.forFeature(args)&#45;&gt;RootNgsAuthenticationModule</title>
<path fill="none" stroke="#000000" d="M458.226,-122.1061C458.226,-122.1061 458.226,-140.991 458.226,-140.991"/>
<polygon fill="#000000" stroke="#000000" points="454.726,-140.9909 458.226,-150.991 461.726,-140.991 454.726,-140.9909"/>
</g>
<!-- AuthenticationRoutingModule -->
<g id="node3" class="node">
<title>AuthenticationRoutingModule</title>
<polygon fill="#8dd3c7" stroke="#000000" points="395.871,-122 392.871,-126 371.871,-126 368.871,-122 208.129,-122 208.129,-86 395.871,-86 395.871,-122"/>
<text text-anchor="middle" x="302" y="-99.8" font-family="Times,serif" font-size="14.00" fill="#000000">AuthenticationRoutingModule</text>
</g>
<!-- AuthenticationRoutingModule&#45;&gt;RootNgsAuthenticationModule -->
<g id="edge3" class="edge">
<title>AuthenticationRoutingModule&#45;&gt;RootNgsAuthenticationModule</title>
<path fill="none" stroke="#000000" d="M352.8348,-122.1061C352.8348,-122.1061 352.8348,-140.991 352.8348,-140.991"/>
<polygon fill="#000000" stroke="#000000" points="349.3349,-140.9909 352.8348,-150.991 356.3349,-140.991 349.3349,-140.9909"/>
</g>
<!-- NgsAuthenticationModule -->
<g id="node4" class="node">
<title>NgsAuthenticationModule</title>
<polygon fill="#8dd3c7" stroke="#000000" points="189.8047,-122 186.8047,-126 165.8047,-126 162.8047,-122 24.1953,-122 24.1953,-86 189.8047,-86 189.8047,-122"/>
<text text-anchor="middle" x="107" y="-99.8" font-family="Times,serif" font-size="14.00" fill="#000000">NgsAuthenticationModule</text>
</g>
<!-- NgsAuthenticationModule&#45;&gt;RootNgsAuthenticationModule -->
<g id="edge4" class="edge">
<title>NgsAuthenticationModule&#45;&gt;RootNgsAuthenticationModule</title>
<path fill="none" stroke="#000000" d="M107,-122.1061C107,-141.3391 107,-169 107,-169 107,-169 299.7487,-169 299.7487,-169"/>
<polygon fill="#000000" stroke="#000000" points="299.7487,-172.5001 309.7487,-169 299.7487,-165.5001 299.7487,-172.5001"/>
</g>
</g>
</svg>
