<?xml version="1.0" encoding="UTF-8" standalone="no"?>
<!DOCTYPE svg PUBLIC "-//W3C//DTD SVG 1.1//EN"
 "http://www.w3.org/Graphics/SVG/1.1/DTD/svg11.dtd">
<!-- Generated by graphviz version 2.40.1 (20161225.0304)
 -->
<!-- Title: dependencies Pages: 1 -->
<svg width="1268pt" height="284pt"
 viewBox="0.00 0.00 1268.00 284.00" xmlns="http://www.w3.org/2000/svg" xmlns:xlink="http://www.w3.org/1999/xlink">
<g id="graph0" class="graph" transform="scale(1 1) rotate(0) translate(4 280)">
<title>dependencies</title>
<polygon fill="#ffffff" stroke="transparent" points="-4,4 -4,-280 1264,-280 1264,4 -4,4"/>
<text text-anchor="start" x="609.0091" y="-42.4" font-family="sans-serif" font-weight="bold" font-size="14.00" fill="#000000">Legend</text>
<polygon fill="#ffffb3" stroke="transparent" points="396,-10 396,-30 416,-30 416,-10 396,-10"/>
<text text-anchor="start" x="419.629" y="-15.4" font-family="sans-serif" font-size="14.00" fill="#000000"> &#160;Declarations</text>
<polygon fill="#8dd3c7" stroke="transparent" points="509,-10 509,-30 529,-30 529,-10 509,-10"/>
<text text-anchor="start" x="532.7251" y="-15.4" font-family="sans-serif" font-size="14.00" fill="#000000"> &#160;Module</text>
<polygon fill="#80b1d3" stroke="transparent" points="595,-10 595,-30 615,-30 615,-10 595,-10"/>
<text text-anchor="start" x="618.7812" y="-15.4" font-family="sans-serif" font-size="14.00" fill="#000000"> &#160;Bootstrap</text>
<polygon fill="#fdb462" stroke="transparent" points="692,-10 692,-30 712,-30 712,-10 692,-10"/>
<text text-anchor="start" x="715.6732" y="-15.4" font-family="sans-serif" font-size="14.00" fill="#000000"> &#160;Providers</text>
<polygon fill="#fb8072" stroke="transparent" points="788,-10 788,-30 808,-30 808,-10 788,-10"/>
<text text-anchor="start" x="811.7258" y="-15.4" font-family="sans-serif" font-size="14.00" fill="#000000"> &#160;Exports</text>
<g id="clust1" class="cluster">
<title>cluster_TestModule</title>
<polygon fill="none" stroke="#000000" stroke-dasharray="1,5" points="8,-70 8,-268 1252,-268 1252,-70 8,-70"/>
</g>
<g id="clust2" class="cluster">
<title>cluster_TestModule_declarations</title>
<polygon fill="none" stroke="#000000" points="1122,-78 1122,-130 1244,-130 1244,-78 1122,-78"/>
</g>
<g id="clust4" class="cluster">
<title>cluster_TestModule_imports</title>
<polygon fill="none" stroke="#000000" points="16,-78 16,-130 1114,-130 1114,-78 16,-78"/>
</g>
<g id="clust5" class="cluster">
<title>cluster_TestModule_exports</title>
<polygon fill="none" stroke="#000000" points="516,-208 516,-260 640,-260 640,-208 516,-208"/>
</g>
<!-- TestComponent -->
<g id="node1" class="node">
<title>TestComponent</title>
<polygon fill="#ffffb3" stroke="#000000" points="1235.9357,-122 1130.0643,-122 1130.0643,-86 1235.9357,-86 1235.9357,-122"/>
<text text-anchor="middle" x="1183" y="-99.8" font-family="Times,serif" font-size="14.00" fill="#000000">TestComponent</text>
</g>
<!-- TestModule -->
<g id="node2" class="node">
<title>TestModule</title>
<polygon fill="#8dd3c7" stroke="#000000" points="619.6529,-187 616.6529,-191 595.6529,-191 592.6529,-187 536.3471,-187 536.3471,-151 619.6529,-151 619.6529,-187"/>
<text text-anchor="middle" x="578" y="-164.8" font-family="Times,serif" font-size="14.00" fill="#000000">TestModule</text>
</g>
<!-- TestComponent&#45;&gt;TestModule -->
<g id="edge1" class="edge">
<title>TestComponent&#45;&gt;TestModule</title>
<path fill="none" stroke="#000000" d="M1183,-122.0109C1183,-144.4852 1183,-180 1183,-180 1183,-180 630.0621,-180 630.0621,-180"/>
<polygon fill="#000000" stroke="#000000" points="630.0621,-176.5001 620.0621,-180 630.0621,-183.5001 630.0621,-176.5001"/>
</g>
<!-- TestComponent  -->
<g id="node11" class="node">
<title>TestComponent </title>
<polygon fill="#fb8072" stroke="#000000" points="632.4348,-252 523.5652,-252 523.5652,-216 632.4348,-216 632.4348,-252"/>
<text text-anchor="middle" x="578" y="-229.8" font-family="Times,serif" font-size="14.00" fill="#000000">TestComponent </text>
</g>
<!-- TestModule&#45;&gt;TestComponent  -->
<g id="edge10" class="edge">
<title>TestModule&#45;&gt;TestComponent </title>
<path fill="none" stroke="#000000" stroke-dasharray="5,2" d="M578,-187.1061C578,-187.1061 578,-205.991 578,-205.991"/>
<polygon fill="#000000" stroke="#000000" points="574.5001,-205.9909 578,-215.991 581.5001,-205.991 574.5001,-205.9909"/>
</g>
<!-- NgsAuthenticationModule -->
<g id="node3" class="node">
<title>NgsAuthenticationModule</title>
<polygon fill="#8dd3c7" stroke="#000000" points="1105.8047,-122 1102.8047,-126 1081.8047,-126 1078.8047,-122 940.1953,-122 940.1953,-86 1105.8047,-86 1105.8047,-122"/>
<text text-anchor="middle" x="1023" y="-99.8" font-family="Times,serif" font-size="14.00" fill="#000000">NgsAuthenticationModule</text>
</g>
<!-- NgsAuthenticationModule&#45;&gt;TestModule -->
<g id="edge2" class="edge">
<title>NgsAuthenticationModule&#45;&gt;TestModule</title>
<path fill="none" stroke="#000000" d="M1023,-122.1289C1023,-142.5724 1023,-173 1023,-173 1023,-173 629.8645,-173 629.8645,-173"/>
<polygon fill="#000000" stroke="#000000" points="629.8646,-169.5001 619.8645,-173 629.8645,-176.5001 629.8646,-169.5001"/>
</g>
<!-- NgsConfigModule -->
<g id="node4" class="node">
<title>NgsConfigModule</title>
<polygon fill="#8dd3c7" stroke="#000000" points="922.4888,-122 919.4888,-126 898.4888,-126 895.4888,-122 801.5112,-122 801.5112,-86 922.4888,-86 922.4888,-122"/>
<text text-anchor="middle" x="862" y="-99.8" font-family="Times,serif" font-size="14.00" fill="#000000">NgsConfigModule</text>
</g>
<!-- NgsConfigModule&#45;&gt;TestModule -->
<g id="edge3" class="edge">
<title>NgsConfigModule&#45;&gt;TestModule</title>
<path fill="none" stroke="#000000" d="M862,-122.2667C862,-140.5552 862,-166 862,-166 862,-166 629.9052,-166 629.9052,-166"/>
<polygon fill="#000000" stroke="#000000" points="629.9052,-162.5001 619.9052,-166 629.9051,-169.5001 629.9052,-162.5001"/>
</g>
<!-- NgsDiagramModule -->
<g id="node5" class="node">
<title>NgsDiagramModule</title>
<polygon fill="#8dd3c7" stroke="#000000" points="783.5786,-122 780.5786,-126 759.5786,-126 756.5786,-122 652.4214,-122 652.4214,-86 783.5786,-86 783.5786,-122"/>
<text text-anchor="middle" x="718" y="-99.8" font-family="Times,serif" font-size="14.00" fill="#000000">NgsDiagramModule</text>
</g>
<!-- NgsDiagramModule&#45;&gt;TestModule -->
<g id="edge4" class="edge">
<title>NgsDiagramModule&#45;&gt;TestModule</title>
<path fill="none" stroke="#000000" d="M718,-122.0091C718,-138.0494 718,-159 718,-159 718,-159 630.0046,-159 630.0046,-159"/>
<polygon fill="#000000" stroke="#000000" points="630.0047,-155.5001 620.0046,-159 630.0046,-162.5001 630.0047,-155.5001"/>
</g>
<!-- NgsFormModule -->
<g id="node6" class="node">
<title>NgsFormModule</title>
<polygon fill="#8dd3c7" stroke="#000000" points="634.4356,-122 631.4356,-126 610.4356,-126 607.4356,-122 521.5644,-122 521.5644,-86 634.4356,-86 634.4356,-122"/>
<text text-anchor="middle" x="578" y="-99.8" font-family="Times,serif" font-size="14.00" fill="#000000">NgsFormModule</text>
</g>
<!-- NgsFormModule&#45;&gt;TestModule -->
<g id="edge5" class="edge">
<title>NgsFormModule&#45;&gt;TestModule</title>
<path fill="none" stroke="#000000" d="M578,-122.1061C578,-122.1061 578,-140.991 578,-140.991"/>
<polygon fill="#000000" stroke="#000000" points="574.5001,-140.9909 578,-150.991 581.5001,-140.991 574.5001,-140.9909"/>
</g>
<!-- NgsLayoutModule -->
<g id="node7" class="node">
<title>NgsLayoutModule</title>
<polygon fill="#8dd3c7" stroke="#000000" points="503.759,-122 500.759,-126 479.759,-126 476.759,-122 382.241,-122 382.241,-86 503.759,-86 503.759,-122"/>
<text text-anchor="middle" x="443" y="-99.8" font-family="Times,serif" font-size="14.00" fill="#000000">NgsLayoutModule</text>
</g>
<!-- NgsLayoutModule&#45;&gt;TestModule -->
<g id="edge6" class="edge">
<title>NgsLayoutModule&#45;&gt;TestModule</title>
<path fill="none" stroke="#000000" d="M443,-122.0091C443,-138.0494 443,-159 443,-159 443,-159 526.0252,-159 526.0252,-159"/>
<polygon fill="#000000" stroke="#000000" points="526.0252,-162.5001 536.0252,-159 526.0251,-155.5001 526.0252,-162.5001"/>
</g>
<!-- SharedModule -->
<g id="node8" class="node">
<title>SharedModule</title>
<polygon fill="#8dd3c7" stroke="#000000" points="364.4231,-122 361.4231,-126 340.4231,-126 337.4231,-122 265.5769,-122 265.5769,-86 364.4231,-86 364.4231,-122"/>
<text text-anchor="middle" x="315" y="-99.8" font-family="Times,serif" font-size="14.00" fill="#000000">SharedModule</text>
</g>
<!-- SharedModule&#45;&gt;TestModule -->
<g id="edge7" class="edge">
<title>SharedModule&#45;&gt;TestModule</title>
<path fill="none" stroke="#000000" d="M315,-122.2667C315,-140.5552 315,-166 315,-166 315,-166 526.3269,-166 526.3269,-166"/>
<polygon fill="#000000" stroke="#000000" points="526.3269,-169.5001 536.3269,-166 526.3268,-162.5001 526.3269,-169.5001"/>
</g>
<!-- SourceModule -->
<g id="node9" class="node">
<title>SourceModule</title>
<polygon fill="#8dd3c7" stroke="#000000" points="248.4231,-122 245.4231,-126 224.4231,-126 221.4231,-122 149.5769,-122 149.5769,-86 248.4231,-86 248.4231,-122"/>
<text text-anchor="middle" x="199" y="-99.8" font-family="Times,serif" font-size="14.00" fill="#000000">SourceModule</text>
</g>
<!-- SourceModule&#45;&gt;TestModule -->
<g id="edge8" class="edge">
<title>SourceModule&#45;&gt;TestModule</title>
<path fill="none" stroke="#000000" d="M199,-122.1289C199,-142.5724 199,-173 199,-173 199,-173 525.9923,-173 525.9923,-173"/>
<polygon fill="#000000" stroke="#000000" points="525.9923,-176.5001 535.9923,-173 525.9923,-169.5001 525.9923,-176.5001"/>
</g>
<!-- NgsUserModule -->
<g id="node10" class="node">
<title>NgsUserModule</title>
<polygon fill="#8dd3c7" stroke="#000000" points="132.0284,-122 129.0284,-126 108.0284,-126 105.0284,-122 23.9716,-122 23.9716,-86 132.0284,-86 132.0284,-122"/>
<text text-anchor="middle" x="78" y="-99.8" font-family="Times,serif" font-size="14.00" fill="#000000">NgsUserModule</text>
</g>
<!-- NgsUserModule&#45;&gt;TestModule -->
<g id="edge9" class="edge">
<title>NgsUserModule&#45;&gt;TestModule</title>
<path fill="none" stroke="#000000" d="M78,-122.0109C78,-144.4852 78,-180 78,-180 78,-180 526.2303,-180 526.2303,-180"/>
<polygon fill="#000000" stroke="#000000" points="526.2303,-183.5001 536.2303,-180 526.2302,-176.5001 526.2303,-183.5001"/>
</g>
</g>
</svg>
