<?xml version="1.0" encoding="UTF-8" standalone="no"?>
<!DOCTYPE svg PUBLIC "-//W3C//DTD SVG 1.1//EN"
 "http://www.w3.org/Graphics/SVG/1.1/DTD/svg11.dtd">
<!-- Generated by graphviz version 2.40.1 (20161225.0304)
 -->
<!-- Title: dependencies Pages: 1 -->
<svg width="1552pt" height="211pt"
 viewBox="0.00 0.00 1552.00 211.00" xmlns="http://www.w3.org/2000/svg" xmlns:xlink="http://www.w3.org/1999/xlink">
<g id="graph0" class="graph" transform="scale(1 1) rotate(0) translate(4 207)">
<title>dependencies</title>
<polygon fill="#ffffff" stroke="transparent" points="-4,4 -4,-207 1548,-207 1548,4 -4,4"/>
<text text-anchor="start" x="751.0091" y="-42.4" font-family="sans-serif" font-weight="bold" font-size="14.00" fill="#000000">Legend</text>
<polygon fill="#ffffb3" stroke="transparent" points="538,-10 538,-30 558,-30 558,-10 538,-10"/>
<text text-anchor="start" x="561.629" y="-15.4" font-family="sans-serif" font-size="14.00" fill="#000000"> &#160;Declarations</text>
<polygon fill="#8dd3c7" stroke="transparent" points="651,-10 651,-30 671,-30 671,-10 651,-10"/>
<text text-anchor="start" x="674.7251" y="-15.4" font-family="sans-serif" font-size="14.00" fill="#000000"> &#160;Module</text>
<polygon fill="#80b1d3" stroke="transparent" points="737,-10 737,-30 757,-30 757,-10 737,-10"/>
<text text-anchor="start" x="760.7812" y="-15.4" font-family="sans-serif" font-size="14.00" fill="#000000"> &#160;Bootstrap</text>
<polygon fill="#fdb462" stroke="transparent" points="834,-10 834,-30 854,-30 854,-10 834,-10"/>
<text text-anchor="start" x="857.6732" y="-15.4" font-family="sans-serif" font-size="14.00" fill="#000000"> &#160;Providers</text>
<polygon fill="#fb8072" stroke="transparent" points="930,-10 930,-30 950,-30 950,-10 930,-10"/>
<text text-anchor="start" x="953.7258" y="-15.4" font-family="sans-serif" font-size="14.00" fill="#000000"> &#160;Exports</text>
<g id="clust1" class="cluster">
<title>cluster_OiModule</title>
<polygon fill="none" stroke="#000000" stroke-dasharray="1,5" points="8,-70 8,-195 1536,-195 1536,-70 8,-70"/>
</g>
<g id="clust3" class="cluster">
<title>cluster_OiModule_imports</title>
<polygon fill="none" stroke="#000000" points="642,-78 642,-130 1528,-130 1528,-78 642,-78"/>
</g>
<g id="clust6" class="cluster">
<title>cluster_OiModule_providers</title>
<polygon fill="none" stroke="#000000" points="16,-78 16,-130 634,-130 634,-78 16,-78"/>
</g>
<!-- CommonModule -->
<g id="node1" class="node">
<title>CommonModule</title>
<polygon fill="#8dd3c7" stroke="#000000" points="1519.6681,-122 1516.6681,-126 1495.6681,-126 1492.6681,-122 1408.3319,-122 1408.3319,-86 1519.6681,-86 1519.6681,-122"/>
<text text-anchor="middle" x="1464" y="-99.8" font-family="Times,serif" font-size="14.00" fill="#000000">CommonModule</text>
</g>
<!-- OiModule -->
<g id="node7" class="node">
<title>OiModule</title>
<polygon fill="#8dd3c7" stroke="#000000" points="1049.5484,-187 1046.5484,-191 1025.5484,-191 1022.5484,-187 976.4516,-187 976.4516,-151 1049.5484,-151 1049.5484,-187"/>
<text text-anchor="middle" x="1013" y="-164.8" font-family="Times,serif" font-size="14.00" fill="#000000">OiModule</text>
</g>
<!-- CommonModule&#45;&gt;OiModule -->
<g id="edge1" class="edge">
<title>CommonModule&#45;&gt;OiModule</title>
<path fill="none" stroke="#000000" d="M1464,-122.2921C1464,-144.2057 1464,-178 1464,-178 1464,-178 1059.9072,-178 1059.9072,-178"/>
<polygon fill="#000000" stroke="#000000" points="1059.9073,-174.5001 1049.9072,-178 1059.9072,-181.5001 1059.9073,-174.5001"/>
</g>
<!-- OrderModule.forRoot() -->
<g id="node2" class="node">
<title>OrderModule.forRoot()</title>
<polygon fill="#8dd3c7" stroke="#000000" points="1390.0624,-122 1387.0624,-126 1366.0624,-126 1363.0624,-122 1241.9376,-122 1241.9376,-86 1390.0624,-86 1390.0624,-122"/>
<text text-anchor="middle" x="1316" y="-99.8" font-family="Times,serif" font-size="14.00" fill="#000000">OrderModule.forRoot()</text>
</g>
<!-- OrderModule.forRoot()&#45;&gt;OiModule -->
<g id="edge2" class="edge">
<title>OrderModule.forRoot()&#45;&gt;OiModule</title>
<path fill="none" stroke="#000000" d="M1316,-122.1061C1316,-141.3391 1316,-169 1316,-169 1316,-169 1059.5489,-169 1059.5489,-169"/>
<polygon fill="#000000" stroke="#000000" points="1059.5489,-165.5001 1049.5489,-169 1059.5488,-172.5001 1059.5489,-165.5001"/>
</g>
<!-- PolicyModule -->
<g id="node3" class="node">
<title>PolicyModule</title>
<polygon fill="#8dd3c7" stroke="#000000" points="1223.8288,-122 1220.8288,-126 1199.8288,-126 1196.8288,-122 1128.1712,-122 1128.1712,-86 1223.8288,-86 1223.8288,-122"/>
<text text-anchor="middle" x="1176" y="-99.8" font-family="Times,serif" font-size="14.00" fill="#000000">PolicyModule</text>
</g>
<!-- PolicyModule&#45;&gt;OiModule -->
<g id="edge3" class="edge">
<title>PolicyModule&#45;&gt;OiModule</title>
<path fill="none" stroke="#000000" d="M1176,-122.027C1176,-138.3976 1176,-160 1176,-160 1176,-160 1059.5804,-160 1059.5804,-160"/>
<polygon fill="#000000" stroke="#000000" points="1059.5804,-156.5001 1049.5804,-160 1059.5803,-163.5001 1059.5804,-156.5001"/>
</g>
<!-- GeoBoundaryModule.forRoot() -->
<g id="node4" class="node">
<title>GeoBoundaryModule.forRoot()</title>
<polygon fill="#8dd3c7" stroke="#000000" points="1110.4529,-122 1107.4529,-126 1086.4529,-126 1083.4529,-122 915.5471,-122 915.5471,-86 1110.4529,-86 1110.4529,-122"/>
<text text-anchor="middle" x="1013" y="-99.8" font-family="Times,serif" font-size="14.00" fill="#000000">GeoBoundaryModule.forRoot()</text>
</g>
<!-- GeoBoundaryModule.forRoot()&#45;&gt;OiModule -->
<g id="edge4" class="edge">
<title>GeoBoundaryModule.forRoot()&#45;&gt;OiModule</title>
<path fill="none" stroke="#000000" d="M1013,-122.1061C1013,-122.1061 1013,-140.991 1013,-140.991"/>
<polygon fill="#000000" stroke="#000000" points="1009.5001,-140.9909 1013,-150.991 1016.5001,-140.991 1009.5001,-140.9909"/>
</g>
<!-- OiCommonModule -->
<g id="node5" class="node">
<title>OiCommonModule</title>
<polygon fill="#8dd3c7" stroke="#000000" points="897.6652,-122 894.6652,-126 873.6652,-126 870.6652,-122 772.3348,-122 772.3348,-86 897.6652,-86 897.6652,-122"/>
<text text-anchor="middle" x="835" y="-99.8" font-family="Times,serif" font-size="14.00" fill="#000000">OiCommonModule</text>
</g>
<!-- OiCommonModule&#45;&gt;OiModule -->
<g id="edge5" class="edge">
<title>OiCommonModule&#45;&gt;OiModule</title>
<path fill="none" stroke="#000000" d="M835,-122.027C835,-138.3976 835,-160 835,-160 835,-160 966.1183,-160 966.1183,-160"/>
<polygon fill="#000000" stroke="#000000" points="966.1183,-163.5001 976.1183,-160 966.1182,-156.5001 966.1183,-163.5001"/>
</g>
<!-- RoutingModule -->
<g id="node6" class="node">
<title>RoutingModule</title>
<polygon fill="#8dd3c7" stroke="#000000" points="754.1681,-122 751.1681,-126 730.1681,-126 727.1681,-122 649.8319,-122 649.8319,-86 754.1681,-86 754.1681,-122"/>
<text text-anchor="middle" x="702" y="-99.8" font-family="Times,serif" font-size="14.00" fill="#000000">RoutingModule</text>
</g>
<!-- RoutingModule&#45;&gt;OiModule -->
<g id="edge6" class="edge">
<title>RoutingModule&#45;&gt;OiModule</title>
<path fill="none" stroke="#000000" d="M702,-122.1061C702,-141.3391 702,-169 702,-169 702,-169 966.4098,-169 966.4098,-169"/>
<polygon fill="#000000" stroke="#000000" points="966.4099,-172.5001 976.4098,-169 966.4098,-165.5001 966.4099,-172.5001"/>
</g>
<!-- { provide: HTTP_INTERCEPTORS, useClass: ResultInterceptor, multi: &#160;} -->
<g id="node8" class="node">
<title>{ provide: HTTP_INTERCEPTORS, useClass: ResultInterceptor, multi: &#160;}</title>
<ellipse fill="#fdb462" stroke="#000000" cx="325" cy="-104" rx="300.6652" ry="18"/>
<text text-anchor="middle" x="325" y="-99.8" font-family="Times,serif" font-size="14.00" fill="#000000">{ provide: HTTP_INTERCEPTORS, useClass: ResultInterceptor, multi: &#160;}</text>
</g>
<!-- { provide: HTTP_INTERCEPTORS, useClass: ResultInterceptor, multi: &#160;}&#45;&gt;OiModule -->
<g id="edge7" class="edge">
<title>{ provide: HTTP_INTERCEPTORS, useClass: ResultInterceptor, multi: &#160;}&#45;&gt;OiModule</title>
<path fill="none" stroke="#000000" d="M325,-122.2921C325,-144.2057 325,-178 325,-178 325,-178 966.0101,-178 966.0101,-178"/>
<polygon fill="#000000" stroke="#000000" points="966.0102,-181.5001 976.0101,-178 966.0101,-174.5001 966.0102,-181.5001"/>
</g>
</g>
</svg>
