<?xml version="1.0" encoding="UTF-8" standalone="no"?>
<!DOCTYPE svg PUBLIC "-//W3C//DTD SVG 1.1//EN"
 "http://www.w3.org/Graphics/SVG/1.1/DTD/svg11.dtd">
<!-- Generated by graphviz version 2.40.1 (20161225.0304)
 -->
<!-- Title: dependencies Pages: 1 -->
<svg width="578pt" height="211pt"
 viewBox="0.00 0.00 578.00 211.00" xmlns="http://www.w3.org/2000/svg" xmlns:xlink="http://www.w3.org/1999/xlink">
<g id="graph0" class="graph" transform="scale(1 1) rotate(0) translate(4 207)">
<title>dependencies</title>
<polygon fill="#ffffff" stroke="transparent" points="-4,4 -4,-207 574,-207 574,4 -4,4"/>
<text text-anchor="start" x="264.0091" y="-42.4" font-family="sans-serif" font-weight="bold" font-size="14.00" fill="#000000">Legend</text>
<polygon fill="#ffffb3" stroke="transparent" points="51,-10 51,-30 71,-30 71,-10 51,-10"/>
<text text-anchor="start" x="74.629" y="-15.4" font-family="sans-serif" font-size="14.00" fill="#000000"> &#160;Declarations</text>
<polygon fill="#8dd3c7" stroke="transparent" points="164,-10 164,-30 184,-30 184,-10 164,-10"/>
<text text-anchor="start" x="187.7251" y="-15.4" font-family="sans-serif" font-size="14.00" fill="#000000"> &#160;Module</text>
<polygon fill="#80b1d3" stroke="transparent" points="250,-10 250,-30 270,-30 270,-10 250,-10"/>
<text text-anchor="start" x="273.7812" y="-15.4" font-family="sans-serif" font-size="14.00" fill="#000000"> &#160;Bootstrap</text>
<polygon fill="#fdb462" stroke="transparent" points="347,-10 347,-30 367,-30 367,-10 347,-10"/>
<text text-anchor="start" x="370.6732" y="-15.4" font-family="sans-serif" font-size="14.00" fill="#000000"> &#160;Providers</text>
<polygon fill="#fb8072" stroke="transparent" points="443,-10 443,-30 463,-30 463,-10 443,-10"/>
<text text-anchor="start" x="466.7258" y="-15.4" font-family="sans-serif" font-size="14.00" fill="#000000"> &#160;Exports</text>
<g id="clust1" class="cluster">
<title>cluster_RootNgsUserModule</title>
<polygon fill="none" stroke="#000000" stroke-dasharray="1,5" points="8,-70 8,-195 562,-195 562,-70 8,-70"/>
</g>
<g id="clust3" class="cluster">
<title>cluster_RootNgsUserModule_imports</title>
<polygon fill="none" stroke="#000000" points="16,-78 16,-130 554,-130 554,-78 16,-78"/>
</g>
<!-- NgsUserModule -->
<g id="node1" class="node">
<title>NgsUserModule</title>
<polygon fill="#8dd3c7" stroke="#000000" points="546.0284,-122 543.0284,-126 522.0284,-126 519.0284,-122 437.9716,-122 437.9716,-86 546.0284,-86 546.0284,-122"/>
<text text-anchor="middle" x="492" y="-99.8" font-family="Times,serif" font-size="14.00" fill="#000000">NgsUserModule</text>
</g>
<!-- RootNgsUserModule -->
<g id="node4" class="node">
<title>RootNgsUserModule</title>
<polygon fill="#8dd3c7" stroke="#000000" points="395.7548,-187 392.7548,-191 371.7548,-191 368.7548,-187 260.2452,-187 260.2452,-151 395.7548,-151 395.7548,-187"/>
<text text-anchor="middle" x="328" y="-164.8" font-family="Times,serif" font-size="14.00" fill="#000000">RootNgsUserModule</text>
</g>
<!-- NgsUserModule&#45;&gt;RootNgsUserModule -->
<g id="edge1" class="edge">
<title>NgsUserModule&#45;&gt;RootNgsUserModule</title>
<path fill="none" stroke="#000000" d="M492,-122.1061C492,-141.3391 492,-169 492,-169 492,-169 406.126,-169 406.126,-169"/>
<polygon fill="#000000" stroke="#000000" points="406.126,-165.5001 396.126,-169 406.126,-172.5001 406.126,-165.5001"/>
</g>
<!-- StoreModule.forFeature(args) -->
<g id="node2" class="node">
<title>StoreModule.forFeature(args)</title>
<polygon fill="#8dd3c7" stroke="#000000" points="419.5386,-122 416.5386,-126 395.5386,-126 392.5386,-122 236.4614,-122 236.4614,-86 419.5386,-86 419.5386,-122"/>
<text text-anchor="middle" x="328" y="-99.8" font-family="Times,serif" font-size="14.00" fill="#000000">StoreModule.forFeature(args)</text>
</g>
<!-- StoreModule.forFeature(args)&#45;&gt;RootNgsUserModule -->
<g id="edge2" class="edge">
<title>StoreModule.forFeature(args)&#45;&gt;RootNgsUserModule</title>
<path fill="none" stroke="#000000" d="M328,-122.1061C328,-122.1061 328,-140.991 328,-140.991"/>
<polygon fill="#000000" stroke="#000000" points="324.5001,-140.9909 328,-150.991 331.5001,-140.991 324.5001,-140.9909"/>
</g>
<!-- EffectsModule.forFeature(args) -->
<g id="node3" class="node">
<title>EffectsModule.forFeature(args)</title>
<polygon fill="#8dd3c7" stroke="#000000" points="217.6282,-122 214.6282,-126 193.6282,-126 190.6282,-122 24.3718,-122 24.3718,-86 217.6282,-86 217.6282,-122"/>
<text text-anchor="middle" x="121" y="-99.8" font-family="Times,serif" font-size="14.00" fill="#000000">EffectsModule.forFeature(args)</text>
</g>
<!-- EffectsModule.forFeature(args)&#45;&gt;RootNgsUserModule -->
<g id="edge3" class="edge">
<title>EffectsModule.forFeature(args)&#45;&gt;RootNgsUserModule</title>
<path fill="none" stroke="#000000" d="M121,-122.1061C121,-141.3391 121,-169 121,-169 121,-169 250.2205,-169 250.2205,-169"/>
<polygon fill="#000000" stroke="#000000" points="250.2205,-172.5001 260.2205,-169 250.2204,-165.5001 250.2205,-172.5001"/>
</g>
</g>
</svg>
