<?xml version="1.0" encoding="UTF-8" standalone="no"?>
<!DOCTYPE svg PUBLIC "-//W3C//DTD SVG 1.1//EN"
 "http://www.w3.org/Graphics/SVG/1.1/DTD/svg11.dtd">
<!-- Generated by graphviz version 2.40.1 (20161225.0304)
 -->
<!-- Title: dependencies Pages: 1 -->
<svg width="723pt" height="284pt"
 viewBox="0.00 0.00 723.00 284.00" xmlns="http://www.w3.org/2000/svg" xmlns:xlink="http://www.w3.org/1999/xlink">
<g id="graph0" class="graph" transform="scale(1 1) rotate(0) translate(4 280)">
<title>dependencies</title>
<polygon fill="#ffffff" stroke="transparent" points="-4,4 -4,-280 719,-280 719,4 -4,4"/>
<text text-anchor="start" x="336.5091" y="-42.4" font-family="sans-serif" font-weight="bold" font-size="14.00" fill="#000000">Legend</text>
<polygon fill="#ffffb3" stroke="transparent" points="123.5,-10 123.5,-30 143.5,-30 143.5,-10 123.5,-10"/>
<text text-anchor="start" x="147.129" y="-15.4" font-family="sans-serif" font-size="14.00" fill="#000000"> &#160;Declarations</text>
<polygon fill="#8dd3c7" stroke="transparent" points="236.5,-10 236.5,-30 256.5,-30 256.5,-10 236.5,-10"/>
<text text-anchor="start" x="260.2251" y="-15.4" font-family="sans-serif" font-size="14.00" fill="#000000"> &#160;Module</text>
<polygon fill="#80b1d3" stroke="transparent" points="322.5,-10 322.5,-30 342.5,-30 342.5,-10 322.5,-10"/>
<text text-anchor="start" x="346.2812" y="-15.4" font-family="sans-serif" font-size="14.00" fill="#000000"> &#160;Bootstrap</text>
<polygon fill="#fdb462" stroke="transparent" points="419.5,-10 419.5,-30 439.5,-30 439.5,-10 419.5,-10"/>
<text text-anchor="start" x="443.1732" y="-15.4" font-family="sans-serif" font-size="14.00" fill="#000000"> &#160;Providers</text>
<polygon fill="#fb8072" stroke="transparent" points="515.5,-10 515.5,-30 535.5,-30 535.5,-10 515.5,-10"/>
<text text-anchor="start" x="539.2258" y="-15.4" font-family="sans-serif" font-size="14.00" fill="#000000"> &#160;Exports</text>
<g id="clust1" class="cluster">
<title>cluster_RootNgsDiagramModule</title>
<polygon fill="none" stroke="#000000" stroke-dasharray="1,5" points="8,-70 8,-268 707,-268 707,-70 8,-70"/>
</g>
<g id="clust3" class="cluster">
<title>cluster_RootNgsDiagramModule_imports</title>
<polygon fill="none" stroke="#000000" points="16,-78 16,-130 699,-130 699,-78 16,-78"/>
</g>
<g id="clust4" class="cluster">
<title>cluster_RootNgsDiagramModule_exports</title>
<polygon fill="none" stroke="#000000" points="271,-208 271,-260 421,-260 421,-208 271,-208"/>
</g>
<!-- NgsDiagramModule -->
<g id="node1" class="node">
<title>NgsDiagramModule</title>
<polygon fill="#8dd3c7" stroke="#000000" points="690.5786,-122 687.5786,-126 666.5786,-126 663.5786,-122 559.4214,-122 559.4214,-86 690.5786,-86 690.5786,-122"/>
<text text-anchor="middle" x="625" y="-99.8" font-family="Times,serif" font-size="14.00" fill="#000000">NgsDiagramModule</text>
</g>
<!-- RootNgsDiagramModule -->
<g id="node5" class="node">
<title>RootNgsDiagramModule</title>
<polygon fill="#8dd3c7" stroke="#000000" points="425.3061,-187 422.3061,-191 401.3061,-191 398.3061,-187 266.6939,-187 266.6939,-151 425.3061,-151 425.3061,-187"/>
<text text-anchor="middle" x="346" y="-164.8" font-family="Times,serif" font-size="14.00" fill="#000000">RootNgsDiagramModule</text>
</g>
<!-- NgsDiagramModule&#45;&gt;RootNgsDiagramModule -->
<g id="edge1" class="edge">
<title>NgsDiagramModule&#45;&gt;RootNgsDiagramModule</title>
<path fill="none" stroke="#000000" d="M625,-122.1061C625,-141.3391 625,-169 625,-169 625,-169 435.2039,-169 435.2039,-169"/>
<polygon fill="#000000" stroke="#000000" points="435.204,-165.5001 425.2039,-169 435.2039,-172.5001 435.204,-165.5001"/>
</g>
<!-- StoreModule.forFeature(args) -->
<g id="node2" class="node">
<title>StoreModule.forFeature(args)</title>
<polygon fill="#8dd3c7" stroke="#000000" points="541.5386,-122 538.5386,-126 517.5386,-126 514.5386,-122 358.4614,-122 358.4614,-86 541.5386,-86 541.5386,-122"/>
<text text-anchor="middle" x="450" y="-99.8" font-family="Times,serif" font-size="14.00" fill="#000000">StoreModule.forFeature(args)</text>
</g>
<!-- StoreModule.forFeature(args)&#45;&gt;RootNgsDiagramModule -->
<g id="edge2" class="edge">
<title>StoreModule.forFeature(args)&#45;&gt;RootNgsDiagramModule</title>
<path fill="none" stroke="#000000" d="M391.692,-122.1061C391.692,-122.1061 391.692,-140.991 391.692,-140.991"/>
<polygon fill="#000000" stroke="#000000" points="388.192,-140.9909 391.692,-150.991 395.192,-140.991 388.192,-140.9909"/>
</g>
<!-- EffectsModule.forFeature(args) -->
<g id="node3" class="node">
<title>EffectsModule.forFeature(args)</title>
<polygon fill="#8dd3c7" stroke="#000000" points="339.6282,-122 336.6282,-126 315.6282,-126 312.6282,-122 146.3718,-122 146.3718,-86 339.6282,-86 339.6282,-122"/>
<text text-anchor="middle" x="243" y="-99.8" font-family="Times,serif" font-size="14.00" fill="#000000">EffectsModule.forFeature(args)</text>
</g>
<!-- EffectsModule.forFeature(args)&#45;&gt;RootNgsDiagramModule -->
<g id="edge3" class="edge">
<title>EffectsModule.forFeature(args)&#45;&gt;RootNgsDiagramModule</title>
<path fill="none" stroke="#000000" d="M303.3305,-122.1061C303.3305,-122.1061 303.3305,-140.991 303.3305,-140.991"/>
<polygon fill="#000000" stroke="#000000" points="299.8306,-140.9909 303.3305,-150.991 306.8306,-140.991 299.8306,-140.9909"/>
</g>
<!-- RoutingModule -->
<g id="node4" class="node">
<title>RoutingModule</title>
<polygon fill="#8dd3c7" stroke="#000000" points="128.1681,-122 125.1681,-126 104.1681,-126 101.1681,-122 23.8319,-122 23.8319,-86 128.1681,-86 128.1681,-122"/>
<text text-anchor="middle" x="76" y="-99.8" font-family="Times,serif" font-size="14.00" fill="#000000">RoutingModule</text>
</g>
<!-- RoutingModule&#45;&gt;RootNgsDiagramModule -->
<g id="edge4" class="edge">
<title>RoutingModule&#45;&gt;RootNgsDiagramModule</title>
<path fill="none" stroke="#000000" d="M76,-122.1061C76,-141.3391 76,-169 76,-169 76,-169 256.8154,-169 256.8154,-169"/>
<polygon fill="#000000" stroke="#000000" points="256.8155,-172.5001 266.8154,-169 256.8154,-165.5001 256.8155,-172.5001"/>
</g>
<!-- NgsDiagramModule  -->
<g id="node6" class="node">
<title>NgsDiagramModule </title>
<polygon fill="#fb8072" stroke="#000000" points="413.0793,-252 278.9207,-252 278.9207,-216 413.0793,-216 413.0793,-252"/>
<text text-anchor="middle" x="346" y="-229.8" font-family="Times,serif" font-size="14.00" fill="#000000">NgsDiagramModule </text>
</g>
<!-- RootNgsDiagramModule&#45;&gt;NgsDiagramModule  -->
<g id="edge5" class="edge">
<title>RootNgsDiagramModule&#45;&gt;NgsDiagramModule </title>
<path fill="none" stroke="#000000" stroke-dasharray="5,2" d="M346,-187.1061C346,-187.1061 346,-205.991 346,-205.991"/>
<polygon fill="#000000" stroke="#000000" points="342.5001,-205.9909 346,-215.991 349.5001,-205.991 342.5001,-205.9909"/>
</g>
</g>
</svg>
