<?xml version="1.0" encoding="UTF-8" standalone="no"?>
<!DOCTYPE svg PUBLIC "-//W3C//DTD SVG 1.1//EN"
 "http://www.w3.org/Graphics/SVG/1.1/DTD/svg11.dtd">
<!-- Generated by graphviz version 2.40.1 (20161225.0304)
 -->
<!-- Title: dependencies Pages: 1 -->
<svg width="5878pt" height="284pt"
 viewBox="0.00 0.00 5878.00 284.00" xmlns="http://www.w3.org/2000/svg" xmlns:xlink="http://www.w3.org/1999/xlink">
<g id="graph0" class="graph" transform="scale(1 1) rotate(0) translate(4 280)">
<title>dependencies</title>
<polygon fill="#ffffff" stroke="transparent" points="-4,4 -4,-280 5874,-280 5874,4 -4,4"/>
<text text-anchor="start" x="2914.0091" y="-42.4" font-family="sans-serif" font-weight="bold" font-size="14.00" fill="#000000">Legend</text>
<polygon fill="#ffffb3" stroke="transparent" points="2701,-10 2701,-30 2721,-30 2721,-10 2701,-10"/>
<text text-anchor="start" x="2724.629" y="-15.4" font-family="sans-serif" font-size="14.00" fill="#000000"> &#160;Declarations</text>
<polygon fill="#8dd3c7" stroke="transparent" points="2814,-10 2814,-30 2834,-30 2834,-10 2814,-10"/>
<text text-anchor="start" x="2837.7251" y="-15.4" font-family="sans-serif" font-size="14.00" fill="#000000"> &#160;Module</text>
<polygon fill="#80b1d3" stroke="transparent" points="2900,-10 2900,-30 2920,-30 2920,-10 2900,-10"/>
<text text-anchor="start" x="2923.7812" y="-15.4" font-family="sans-serif" font-size="14.00" fill="#000000"> &#160;Bootstrap</text>
<polygon fill="#fdb462" stroke="transparent" points="2997,-10 2997,-30 3017,-30 3017,-10 2997,-10"/>
<text text-anchor="start" x="3020.6732" y="-15.4" font-family="sans-serif" font-size="14.00" fill="#000000"> &#160;Providers</text>
<polygon fill="#fb8072" stroke="transparent" points="3093,-10 3093,-30 3113,-30 3113,-10 3093,-10"/>
<text text-anchor="start" x="3116.7258" y="-15.4" font-family="sans-serif" font-size="14.00" fill="#000000"> &#160;Exports</text>
<g id="clust1" class="cluster">
<title>cluster_NgsFormModule</title>
<polygon fill="none" stroke="#000000" stroke-dasharray="1,5" points="8,-70 8,-268 5862,-268 5862,-70 8,-70"/>
</g>
<g id="clust2" class="cluster">
<title>cluster_NgsFormModule_declarations</title>
<polygon fill="none" stroke="#000000" points="2808,-78 2808,-130 5854,-130 5854,-78 2808,-78"/>
</g>
<g id="clust22" class="cluster">
<title>cluster_NgsFormModule_imports</title>
<polygon fill="none" stroke="#000000" points="16,-78 16,-130 2800,-130 2800,-78 16,-78"/>
</g>
<g id="clust23" class="cluster">
<title>cluster_NgsFormModule_exports</title>
<polygon fill="none" stroke="#000000" points="2652,-208 2652,-260 2814,-260 2814,-208 2652,-208"/>
</g>
<!-- EditFormContainerComponent -->
<g id="node1" class="node">
<title>EditFormContainerComponent</title>
<polygon fill="#ffffb3" stroke="#000000" points="5846.2077,-122 5655.7923,-122 5655.7923,-86 5846.2077,-86 5846.2077,-122"/>
<text text-anchor="middle" x="5751" y="-99.8" font-family="Times,serif" font-size="14.00" fill="#000000">EditFormContainerComponent</text>
</g>
<!-- NgsFormModule -->
<g id="node20" class="node">
<title>NgsFormModule</title>
<polygon fill="#8dd3c7" stroke="#000000" points="2789.4356,-187 2786.4356,-191 2765.4356,-191 2762.4356,-187 2676.5644,-187 2676.5644,-151 2789.4356,-151 2789.4356,-187"/>
<text text-anchor="middle" x="2733" y="-164.8" font-family="Times,serif" font-size="14.00" fill="#000000">NgsFormModule</text>
</g>
<!-- EditFormContainerComponent&#45;&gt;NgsFormModule -->
<g id="edge1" class="edge">
<title>EditFormContainerComponent&#45;&gt;NgsFormModule</title>
<path fill="none" stroke="#000000" d="M5751,-122.1985C5751,-146.3563 5751,-186 5751,-186 5751,-186 2799.2693,-186 2799.2693,-186"/>
<polygon fill="#000000" stroke="#000000" points="2799.2693,-182.5001 2789.2693,-186 2799.2692,-189.5001 2799.2693,-182.5001"/>
</g>
<!-- EditFormComponent -->
<g id="node2" class="node">
<title>EditFormComponent</title>
<polygon fill="#ffffb3" stroke="#000000" points="5637.5,-122 5502.5,-122 5502.5,-86 5637.5,-86 5637.5,-122"/>
<text text-anchor="middle" x="5570" y="-99.8" font-family="Times,serif" font-size="14.00" fill="#000000">EditFormComponent</text>
</g>
<!-- EditFormComponent&#45;&gt;NgsFormModule -->
<g id="edge2" class="edge">
<title>EditFormComponent&#45;&gt;NgsFormModule</title>
<path fill="none" stroke="#000000" d="M5570,-122.1532C5570,-145.7566 5570,-184 5570,-184 5570,-184 2799.3509,-184 2799.3509,-184"/>
<polygon fill="#000000" stroke="#000000" points="2799.3509,-180.5001 2789.3509,-184 2799.3508,-187.5001 2799.3509,-180.5001"/>
</g>
<!-- FormListContainerComponent -->
<g id="node3" class="node">
<title>FormListContainerComponent</title>
<polygon fill="#ffffb3" stroke="#000000" points="5484.1525,-122 5295.8475,-122 5295.8475,-86 5484.1525,-86 5484.1525,-122"/>
<text text-anchor="middle" x="5390" y="-99.8" font-family="Times,serif" font-size="14.00" fill="#000000">FormListContainerComponent</text>
</g>
<!-- FormListContainerComponent&#45;&gt;NgsFormModule -->
<g id="edge3" class="edge">
<title>FormListContainerComponent&#45;&gt;NgsFormModule</title>
<path fill="none" stroke="#000000" d="M5390,-122.0908C5390,-145.1328 5390,-182 5390,-182 5390,-182 2799.416,-182 2799.416,-182"/>
<polygon fill="#000000" stroke="#000000" points="2799.416,-178.5001 2789.416,-182 2799.4159,-185.5001 2799.416,-178.5001"/>
</g>
<!-- FormListComponent -->
<g id="node4" class="node">
<title>FormListComponent</title>
<polygon fill="#ffffb3" stroke="#000000" points="5277.9453,-122 5144.0547,-122 5144.0547,-86 5277.9453,-86 5277.9453,-122"/>
<text text-anchor="middle" x="5211" y="-99.8" font-family="Times,serif" font-size="14.00" fill="#000000">FormListComponent</text>
</g>
<!-- FormListComponent&#45;&gt;NgsFormModule -->
<g id="edge4" class="edge">
<title>FormListComponent&#45;&gt;NgsFormModule</title>
<path fill="none" stroke="#000000" d="M5211,-122.0109C5211,-144.4852 5211,-180 5211,-180 5211,-180 2799.4124,-180 2799.4124,-180"/>
<polygon fill="#000000" stroke="#000000" points="2799.4124,-176.5001 2789.4124,-180 2799.4123,-183.5001 2799.4124,-176.5001"/>
</g>
<!-- AddFormContainerComponent -->
<g id="node5" class="node">
<title>AddFormContainerComponent</title>
<polygon fill="#ffffb3" stroke="#000000" points="5126.4804,-122 4935.5196,-122 4935.5196,-86 5126.4804,-86 5126.4804,-122"/>
<text text-anchor="middle" x="5031" y="-99.8" font-family="Times,serif" font-size="14.00" fill="#000000">AddFormContainerComponent</text>
</g>
<!-- AddFormContainerComponent&#45;&gt;NgsFormModule -->
<g id="edge5" class="edge">
<title>AddFormContainerComponent&#45;&gt;NgsFormModule</title>
<path fill="none" stroke="#000000" d="M5031,-122.2921C5031,-144.2057 5031,-178 5031,-178 5031,-178 2799.2342,-178 2799.2342,-178"/>
<polygon fill="#000000" stroke="#000000" points="2799.2342,-174.5001 2789.2342,-178 2799.2341,-181.5001 2799.2342,-174.5001"/>
</g>
<!-- MainContainerComponent -->
<g id="node6" class="node">
<title>MainContainerComponent</title>
<polygon fill="#ffffb3" stroke="#000000" points="4917.0898,-122 4750.9102,-122 4750.9102,-86 4917.0898,-86 4917.0898,-122"/>
<text text-anchor="middle" x="4834" y="-99.8" font-family="Times,serif" font-size="14.00" fill="#000000">MainContainerComponent</text>
</g>
<!-- MainContainerComponent&#45;&gt;NgsFormModule -->
<g id="edge6" class="edge">
<title>MainContainerComponent&#45;&gt;NgsFormModule</title>
<path fill="none" stroke="#000000" d="M4834,-122.0449C4834,-143.6623 4834,-177 4834,-177 4834,-177 2799.4682,-177 2799.4682,-177"/>
<polygon fill="#000000" stroke="#000000" points="2799.4682,-173.5001 2789.4682,-177 2799.4681,-180.5001 2799.4682,-173.5001"/>
</g>
<!-- AddFormComponent -->
<g id="node7" class="node">
<title>AddFormComponent</title>
<polygon fill="#ffffb3" stroke="#000000" points="4732.773,-122 4597.227,-122 4597.227,-86 4732.773,-86 4732.773,-122"/>
<text text-anchor="middle" x="4665" y="-99.8" font-family="Times,serif" font-size="14.00" fill="#000000">AddFormComponent</text>
</g>
<!-- AddFormComponent&#45;&gt;NgsFormModule -->
<g id="edge7" class="edge">
<title>AddFormComponent&#45;&gt;NgsFormModule</title>
<path fill="none" stroke="#000000" d="M4665,-122.2843C4665,-143.3211 4665,-175 4665,-175 4665,-175 2799.255,-175 2799.255,-175"/>
<polygon fill="#000000" stroke="#000000" points="2799.255,-171.5001 2789.255,-175 2799.255,-178.5001 2799.255,-171.5001"/>
</g>
<!-- FormGroupComponent -->
<g id="node8" class="node">
<title>FormGroupComponent</title>
<polygon fill="#ffffb3" stroke="#000000" points="4578.934,-122 4431.066,-122 4431.066,-86 4578.934,-86 4578.934,-122"/>
<text text-anchor="middle" x="4505" y="-99.8" font-family="Times,serif" font-size="14.00" fill="#000000">FormGroupComponent</text>
</g>
<!-- FormGroupComponent&#45;&gt;NgsFormModule -->
<g id="edge8" class="edge">
<title>FormGroupComponent&#45;&gt;NgsFormModule</title>
<path fill="none" stroke="#000000" d="M4505,-122.1289C4505,-142.5724 4505,-173 4505,-173 4505,-173 2799.4539,-173 2799.4539,-173"/>
<polygon fill="#000000" stroke="#000000" points="2799.4539,-169.5001 2789.4539,-173 2799.4539,-176.5001 2799.4539,-169.5001"/>
</g>
<!-- FormArrayComponent -->
<g id="node9" class="node">
<title>FormArrayComponent</title>
<polygon fill="#ffffb3" stroke="#000000" points="4413.3089,-122 4268.6911,-122 4268.6911,-86 4413.3089,-86 4413.3089,-122"/>
<text text-anchor="middle" x="4341" y="-99.8" font-family="Times,serif" font-size="14.00" fill="#000000">FormArrayComponent</text>
</g>
<!-- FormArrayComponent&#45;&gt;NgsFormModule -->
<g id="edge9" class="edge">
<title>FormArrayComponent&#45;&gt;NgsFormModule</title>
<path fill="none" stroke="#000000" d="M4341,-122.308C4341,-142.1455 4341,-171 4341,-171 4341,-171 2799.2867,-171 2799.2867,-171"/>
<polygon fill="#000000" stroke="#000000" points="2799.2868,-167.5001 2789.2867,-171 2799.2867,-174.5001 2799.2868,-167.5001"/>
</g>
<!-- FormControlComponent -->
<g id="node10" class="node">
<title>FormControlComponent</title>
<polygon fill="#ffffb3" stroke="#000000" points="4251.4452,-122 4096.5548,-122 4096.5548,-86 4251.4452,-86 4251.4452,-122"/>
<text text-anchor="middle" x="4174" y="-99.8" font-family="Times,serif" font-size="14.00" fill="#000000">FormControlComponent</text>
</g>
<!-- FormControlComponent&#45;&gt;NgsFormModule -->
<g id="edge10" class="edge">
<title>FormControlComponent&#45;&gt;NgsFormModule</title>
<path fill="none" stroke="#000000" d="M4174,-122.1061C4174,-141.3391 4174,-169 4174,-169 4174,-169 2799.4889,-169 2799.4889,-169"/>
<polygon fill="#000000" stroke="#000000" points="2799.4889,-165.5001 2789.4889,-169 2799.4889,-172.5001 2799.4889,-165.5001"/>
</g>
<!-- FormViewComponent -->
<g id="node11" class="node">
<title>FormViewComponent</title>
<polygon fill="#ffffb3" stroke="#000000" points="4078.9846,-122 3937.0154,-122 3937.0154,-86 4078.9846,-86 4078.9846,-122"/>
<text text-anchor="middle" x="4008" y="-99.8" font-family="Times,serif" font-size="14.00" fill="#000000">FormViewComponent</text>
</g>
<!-- FormViewComponent&#45;&gt;NgsFormModule -->
<g id="edge11" class="edge">
<title>FormViewComponent&#45;&gt;NgsFormModule</title>
<path fill="none" stroke="#000000" d="M4008,-122.1686C4008,-141.0898 4008,-168 4008,-168 4008,-168 2799.4303,-168 2799.4303,-168"/>
<polygon fill="#000000" stroke="#000000" points="2799.4303,-164.5001 2789.4303,-168 2799.4303,-171.5001 2799.4303,-164.5001"/>
</g>
<!-- DynamicFieldDirective -->
<g id="node12" class="node">
<title>DynamicFieldDirective</title>
<polygon fill="#ffffb3" stroke="#000000" points="3919.1783,-122 3770.8217,-122 3770.8217,-86 3919.1783,-86 3919.1783,-122"/>
<text text-anchor="middle" x="3845" y="-99.8" font-family="Times,serif" font-size="14.00" fill="#000000">DynamicFieldDirective</text>
</g>
<!-- DynamicFieldDirective&#45;&gt;NgsFormModule -->
<g id="edge12" class="edge">
<title>DynamicFieldDirective&#45;&gt;NgsFormModule</title>
<path fill="none" stroke="#000000" d="M3845,-122.2667C3845,-140.5552 3845,-166 3845,-166 3845,-166 2799.2891,-166 2799.2891,-166"/>
<polygon fill="#000000" stroke="#000000" points="2799.2891,-162.5001 2789.2891,-166 2799.2891,-169.5001 2799.2891,-162.5001"/>
</g>
<!-- SelectComponent -->
<g id="node13" class="node">
<title>SelectComponent</title>
<polygon fill="#ffffb3" stroke="#000000" points="3752.5409,-122 3637.4591,-122 3637.4591,-86 3752.5409,-86 3752.5409,-122"/>
<text text-anchor="middle" x="3695" y="-99.8" font-family="Times,serif" font-size="14.00" fill="#000000">SelectComponent</text>
</g>
<!-- SelectComponent&#45;&gt;NgsFormModule -->
<g id="edge13" class="edge">
<title>SelectComponent&#45;&gt;NgsFormModule</title>
<path fill="none" stroke="#000000" d="M3695,-122.002C3695,-139.6754 3695,-164 3695,-164 3695,-164 2799.2322,-164 2799.2322,-164"/>
<polygon fill="#000000" stroke="#000000" points="2799.2322,-160.5001 2789.2322,-164 2799.2321,-167.5001 2799.2322,-160.5001"/>
</g>
<!-- CheckboxComponent -->
<g id="node14" class="node">
<title>CheckboxComponent</title>
<polygon fill="#ffffb3" stroke="#000000" points="3619.0982,-122 3480.9018,-122 3480.9018,-86 3619.0982,-86 3619.0982,-122"/>
<text text-anchor="middle" x="3550" y="-99.8" font-family="Times,serif" font-size="14.00" fill="#000000">CheckboxComponent</text>
</g>
<!-- CheckboxComponent&#45;&gt;NgsFormModule -->
<g id="edge14" class="edge">
<title>CheckboxComponent&#45;&gt;NgsFormModule</title>
<path fill="none" stroke="#000000" d="M3550,-122.0336C3550,-139.0597 3550,-162 3550,-162 3550,-162 2799.4781,-162 2799.4781,-162"/>
<polygon fill="#000000" stroke="#000000" points="2799.4781,-158.5001 2789.4781,-162 2799.478,-165.5001 2799.4781,-158.5001"/>
</g>
<!-- EmailComponent -->
<g id="node15" class="node">
<title>EmailComponent</title>
<polygon fill="#ffffb3" stroke="#000000" points="3463.2716,-122 3348.7284,-122 3348.7284,-86 3463.2716,-86 3463.2716,-122"/>
<text text-anchor="middle" x="3406" y="-99.8" font-family="Times,serif" font-size="14.00" fill="#000000">EmailComponent</text>
</g>
<!-- EmailComponent&#45;&gt;NgsFormModule -->
<g id="edge15" class="edge">
<title>EmailComponent&#45;&gt;NgsFormModule</title>
<path fill="none" stroke="#000000" d="M3406,-122.027C3406,-138.3976 3406,-160 3406,-160 3406,-160 2799.222,-160 2799.222,-160"/>
<polygon fill="#000000" stroke="#000000" points="2799.2221,-156.5001 2789.222,-160 2799.222,-163.5001 2799.2221,-156.5001"/>
</g>
<!-- ColorComponent -->
<g id="node16" class="node">
<title>ColorComponent</title>
<polygon fill="#ffffb3" stroke="#000000" points="3330.7204,-122 3217.2796,-122 3217.2796,-86 3330.7204,-86 3330.7204,-122"/>
<text text-anchor="middle" x="3274" y="-99.8" font-family="Times,serif" font-size="14.00" fill="#000000">ColorComponent</text>
</g>
<!-- ColorComponent&#45;&gt;NgsFormModule -->
<g id="edge16" class="edge">
<title>ColorComponent&#45;&gt;NgsFormModule</title>
<path fill="none" stroke="#000000" d="M3274,-122.0091C3274,-138.0494 3274,-159 3274,-159 3274,-159 2799.3655,-159 2799.3655,-159"/>
<polygon fill="#000000" stroke="#000000" points="2799.3655,-155.5001 2789.3655,-159 2799.3654,-162.5001 2799.3655,-155.5001"/>
</g>
<!-- TextComponent -->
<g id="node17" class="node">
<title>TextComponent</title>
<polygon fill="#ffffb3" stroke="#000000" points="3199.4902,-122 3092.5098,-122 3092.5098,-86 3199.4902,-86 3199.4902,-122"/>
<text text-anchor="middle" x="3146" y="-99.8" font-family="Times,serif" font-size="14.00" fill="#000000">TextComponent</text>
</g>
<!-- TextComponent&#45;&gt;NgsFormModule -->
<g id="edge17" class="edge">
<title>TextComponent&#45;&gt;NgsFormModule</title>
<path fill="none" stroke="#000000" d="M3146,-122.2396C3146,-137.5706 3146,-157 3146,-157 3146,-157 2799.5599,-157 2799.5599,-157"/>
<polygon fill="#000000" stroke="#000000" points="2799.56,-153.5001 2789.5599,-157 2799.5599,-160.5001 2799.56,-153.5001"/>
</g>
<!-- NumberComponent -->
<g id="node18" class="node">
<title>NumberComponent</title>
<polygon fill="#ffffb3" stroke="#000000" points="3074.705,-122 2947.295,-122 2947.295,-86 3074.705,-86 3074.705,-122"/>
<text text-anchor="middle" x="3011" y="-99.8" font-family="Times,serif" font-size="14.00" fill="#000000">NumberComponent</text>
</g>
<!-- NumberComponent&#45;&gt;NgsFormModule -->
<g id="edge18" class="edge">
<title>NumberComponent&#45;&gt;NgsFormModule</title>
<path fill="none" stroke="#000000" d="M3011,-122.1243C3011,-136.7832 3011,-155 3011,-155 3011,-155 2799.2574,-155 2799.2574,-155"/>
<polygon fill="#000000" stroke="#000000" points="2799.2575,-151.5001 2789.2574,-155 2799.2574,-158.5001 2799.2575,-151.5001"/>
</g>
<!-- TableComponent -->
<g id="node19" class="node">
<title>TableComponent</title>
<polygon fill="#ffffb3" stroke="#000000" points="2929.705,-122 2816.295,-122 2816.295,-86 2929.705,-86 2929.705,-122"/>
<text text-anchor="middle" x="2873" y="-99.8" font-family="Times,serif" font-size="14.00" fill="#000000">TableComponent</text>
</g>
<!-- TableComponent&#45;&gt;NgsFormModule -->
<g id="edge19" class="edge">
<title>TableComponent&#45;&gt;NgsFormModule</title>
<path fill="none" stroke="#000000" d="M2873,-122.2458C2873,-136.1772 2873,-153 2873,-153 2873,-153 2799.5398,-153 2799.5398,-153"/>
<polygon fill="#000000" stroke="#000000" points="2799.5398,-149.5001 2789.5398,-153 2799.5398,-156.5001 2799.5398,-149.5001"/>
</g>
<!-- FormViewComponent  -->
<g id="node41" class="node">
<title>FormViewComponent </title>
<polygon fill="#fb8072" stroke="#000000" points="2805.9854,-252 2660.0146,-252 2660.0146,-216 2805.9854,-216 2805.9854,-252"/>
<text text-anchor="middle" x="2733" y="-229.8" font-family="Times,serif" font-size="14.00" fill="#000000">FormViewComponent </text>
</g>
<!-- NgsFormModule&#45;&gt;FormViewComponent  -->
<g id="edge40" class="edge">
<title>NgsFormModule&#45;&gt;FormViewComponent </title>
<path fill="none" stroke="#000000" stroke-dasharray="5,2" d="M2733,-187.1061C2733,-187.1061 2733,-205.991 2733,-205.991"/>
<polygon fill="#000000" stroke="#000000" points="2729.5001,-205.9909 2733,-215.991 2736.5001,-205.991 2729.5001,-205.9909"/>
</g>
<!-- HttpClientModule -->
<g id="node21" class="node">
<title>HttpClientModule</title>
<polygon fill="#8dd3c7" stroke="#000000" points="2792.1611,-122 2789.1611,-126 2768.1611,-126 2765.1611,-122 2673.8389,-122 2673.8389,-86 2792.1611,-86 2792.1611,-122"/>
<text text-anchor="middle" x="2733" y="-99.8" font-family="Times,serif" font-size="14.00" fill="#000000">HttpClientModule</text>
</g>
<!-- HttpClientModule&#45;&gt;NgsFormModule -->
<g id="edge20" class="edge">
<title>HttpClientModule&#45;&gt;NgsFormModule</title>
<path fill="none" stroke="#000000" d="M2733,-122.1061C2733,-122.1061 2733,-140.991 2733,-140.991"/>
<polygon fill="#000000" stroke="#000000" points="2729.5001,-140.9909 2733,-150.991 2736.5001,-140.991 2729.5001,-140.9909"/>
</g>
<!-- FormsModule -->
<g id="node22" class="node">
<title>FormsModule</title>
<polygon fill="#8dd3c7" stroke="#000000" points="2655.8288,-122 2652.8288,-126 2631.8288,-126 2628.8288,-122 2560.1712,-122 2560.1712,-86 2655.8288,-86 2655.8288,-122"/>
<text text-anchor="middle" x="2608" y="-99.8" font-family="Times,serif" font-size="14.00" fill="#000000">FormsModule</text>
</g>
<!-- FormsModule&#45;&gt;NgsFormModule -->
<g id="edge21" class="edge">
<title>FormsModule&#45;&gt;NgsFormModule</title>
<path fill="none" stroke="#000000" d="M2608,-122.2458C2608,-136.1772 2608,-153 2608,-153 2608,-153 2666.7164,-153 2666.7164,-153"/>
<polygon fill="#000000" stroke="#000000" points="2666.7165,-156.5001 2676.7164,-153 2666.7164,-149.5001 2666.7165,-156.5001"/>
</g>
<!-- RouterModule -->
<g id="node23" class="node">
<title>RouterModule</title>
<polygon fill="#8dd3c7" stroke="#000000" points="2542.6528,-122 2539.6528,-126 2518.6528,-126 2515.6528,-122 2445.3472,-122 2445.3472,-86 2542.6528,-86 2542.6528,-122"/>
<text text-anchor="middle" x="2494" y="-99.8" font-family="Times,serif" font-size="14.00" fill="#000000">RouterModule</text>
</g>
<!-- RouterModule&#45;&gt;NgsFormModule -->
<g id="edge22" class="edge">
<title>RouterModule&#45;&gt;NgsFormModule</title>
<path fill="none" stroke="#000000" d="M2494,-122.1243C2494,-136.7832 2494,-155 2494,-155 2494,-155 2666.663,-155 2666.663,-155"/>
<polygon fill="#000000" stroke="#000000" points="2666.663,-158.5001 2676.663,-155 2666.6629,-151.5001 2666.663,-158.5001"/>
</g>
<!-- CommonModule -->
<g id="node24" class="node">
<title>CommonModule</title>
<polygon fill="#8dd3c7" stroke="#000000" points="2426.6681,-122 2423.6681,-126 2402.6681,-126 2399.6681,-122 2315.3319,-122 2315.3319,-86 2426.6681,-86 2426.6681,-122"/>
<text text-anchor="middle" x="2371" y="-99.8" font-family="Times,serif" font-size="14.00" fill="#000000">CommonModule</text>
</g>
<!-- CommonModule&#45;&gt;NgsFormModule -->
<g id="edge23" class="edge">
<title>CommonModule&#45;&gt;NgsFormModule</title>
<path fill="none" stroke="#000000" d="M2371,-122.2396C2371,-137.5706 2371,-157 2371,-157 2371,-157 2666.4375,-157 2666.4375,-157"/>
<polygon fill="#000000" stroke="#000000" points="2666.4375,-160.5001 2676.4375,-157 2666.4375,-153.5001 2666.4375,-160.5001"/>
</g>
<!-- MatExpansionModule -->
<g id="node25" class="node">
<title>MatExpansionModule</title>
<polygon fill="#8dd3c7" stroke="#000000" points="2297.7021,-122 2294.7021,-126 2273.7021,-126 2270.7021,-122 2156.2979,-122 2156.2979,-86 2297.7021,-86 2297.7021,-122"/>
<text text-anchor="middle" x="2227" y="-99.8" font-family="Times,serif" font-size="14.00" fill="#000000">MatExpansionModule</text>
</g>
<!-- MatExpansionModule&#45;&gt;NgsFormModule -->
<g id="edge24" class="edge">
<title>MatExpansionModule&#45;&gt;NgsFormModule</title>
<path fill="none" stroke="#000000" d="M2227,-122.0091C2227,-138.0494 2227,-159 2227,-159 2227,-159 2666.4282,-159 2666.4282,-159"/>
<polygon fill="#000000" stroke="#000000" points="2666.4283,-162.5001 2676.4282,-159 2666.4282,-155.5001 2666.4283,-162.5001"/>
</g>
<!-- MatSnackBarModule -->
<g id="node26" class="node">
<title>MatSnackBarModule</title>
<polygon fill="#8dd3c7" stroke="#000000" points="2138.024,-122 2135.024,-126 2114.024,-126 2111.024,-122 2001.976,-122 2001.976,-86 2138.024,-86 2138.024,-122"/>
<text text-anchor="middle" x="2070" y="-99.8" font-family="Times,serif" font-size="14.00" fill="#000000">MatSnackBarModule</text>
</g>
<!-- MatSnackBarModule&#45;&gt;NgsFormModule -->
<g id="edge25" class="edge">
<title>MatSnackBarModule&#45;&gt;NgsFormModule</title>
<path fill="none" stroke="#000000" d="M2070,-122.027C2070,-138.3976 2070,-160 2070,-160 2070,-160 2666.759,-160 2666.759,-160"/>
<polygon fill="#000000" stroke="#000000" points="2666.759,-163.5001 2676.759,-160 2666.759,-156.5001 2666.759,-163.5001"/>
</g>
<!-- MatIconModule -->
<g id="node27" class="node">
<title>MatIconModule</title>
<polygon fill="#8dd3c7" stroke="#000000" points="1983.4748,-122 1980.4748,-126 1959.4748,-126 1956.4748,-122 1876.5252,-122 1876.5252,-86 1983.4748,-86 1983.4748,-122"/>
<text text-anchor="middle" x="1930" y="-99.8" font-family="Times,serif" font-size="14.00" fill="#000000">MatIconModule</text>
</g>
<!-- MatIconModule&#45;&gt;NgsFormModule -->
<g id="edge26" class="edge">
<title>MatIconModule&#45;&gt;NgsFormModule</title>
<path fill="none" stroke="#000000" d="M1930,-122.0336C1930,-139.0597 1930,-162 1930,-162 1930,-162 2666.5346,-162 2666.5346,-162"/>
<polygon fill="#000000" stroke="#000000" points="2666.5346,-165.5001 2676.5346,-162 2666.5346,-158.5001 2666.5346,-165.5001"/>
</g>
<!-- MatButtonModule -->
<g id="node28" class="node">
<title>MatButtonModule</title>
<polygon fill="#8dd3c7" stroke="#000000" points="1858.2176,-122 1855.2176,-126 1834.2176,-126 1831.2176,-122 1737.7824,-122 1737.7824,-86 1858.2176,-86 1858.2176,-122"/>
<text text-anchor="middle" x="1798" y="-99.8" font-family="Times,serif" font-size="14.00" fill="#000000">MatButtonModule</text>
</g>
<!-- MatButtonModule&#45;&gt;NgsFormModule -->
<g id="edge27" class="edge">
<title>MatButtonModule&#45;&gt;NgsFormModule</title>
<path fill="none" stroke="#000000" d="M1798,-122.002C1798,-139.6754 1798,-164 1798,-164 1798,-164 2666.6172,-164 2666.6172,-164"/>
<polygon fill="#000000" stroke="#000000" points="2666.6172,-167.5001 2676.6172,-164 2666.6171,-160.5001 2666.6172,-167.5001"/>
</g>
<!-- MatCardModule -->
<g id="node29" class="node">
<title>MatCardModule</title>
<polygon fill="#8dd3c7" stroke="#000000" points="1719.8118,-122 1716.8118,-126 1695.8118,-126 1692.8118,-122 1610.1882,-122 1610.1882,-86 1719.8118,-86 1719.8118,-122"/>
<text text-anchor="middle" x="1665" y="-99.8" font-family="Times,serif" font-size="14.00" fill="#000000">MatCardModule</text>
</g>
<!-- MatCardModule&#45;&gt;NgsFormModule -->
<g id="edge28" class="edge">
<title>MatCardModule&#45;&gt;NgsFormModule</title>
<path fill="none" stroke="#000000" d="M1665,-122.2667C1665,-140.5552 1665,-166 1665,-166 1665,-166 2666.7091,-166 2666.7091,-166"/>
<polygon fill="#000000" stroke="#000000" points="2666.7091,-169.5001 2676.7091,-166 2666.7091,-162.5001 2666.7091,-169.5001"/>
</g>
<!-- MatCheckboxModule -->
<g id="node30" class="node">
<title>MatCheckboxModule</title>
<polygon fill="#8dd3c7" stroke="#000000" points="1592.3655,-122 1589.3655,-126 1568.3655,-126 1565.3655,-122 1453.6345,-122 1453.6345,-86 1592.3655,-86 1592.3655,-122"/>
<text text-anchor="middle" x="1523" y="-99.8" font-family="Times,serif" font-size="14.00" fill="#000000">MatCheckboxModule</text>
</g>
<!-- MatCheckboxModule&#45;&gt;NgsFormModule -->
<g id="edge29" class="edge">
<title>MatCheckboxModule&#45;&gt;NgsFormModule</title>
<path fill="none" stroke="#000000" d="M1523,-122.1686C1523,-141.0898 1523,-168 1523,-168 1523,-168 2666.6647,-168 2666.6647,-168"/>
<polygon fill="#000000" stroke="#000000" points="2666.6647,-171.5001 2676.6647,-168 2666.6646,-164.5001 2666.6647,-171.5001"/>
</g>
<!-- MatTableModule -->
<g id="node31" class="node">
<title>MatTableModule</title>
<polygon fill="#8dd3c7" stroke="#000000" points="1435.972,-122 1432.972,-126 1411.972,-126 1408.972,-122 1322.028,-122 1322.028,-86 1435.972,-86 1435.972,-122"/>
<text text-anchor="middle" x="1379" y="-99.8" font-family="Times,serif" font-size="14.00" fill="#000000">MatTableModule</text>
</g>
<!-- MatTableModule&#45;&gt;NgsFormModule -->
<g id="edge30" class="edge">
<title>MatTableModule&#45;&gt;NgsFormModule</title>
<path fill="none" stroke="#000000" d="M1379,-122.1061C1379,-141.3391 1379,-169 1379,-169 1379,-169 2666.5441,-169 2666.5441,-169"/>
<polygon fill="#000000" stroke="#000000" points="2666.5442,-172.5001 2676.5441,-169 2666.5441,-165.5001 2666.5442,-172.5001"/>
</g>
<!-- MatSelectModule -->
<g id="node32" class="node">
<title>MatSelectModule</title>
<polygon fill="#8dd3c7" stroke="#000000" points="1304.3076,-122 1301.3076,-126 1280.3076,-126 1277.3076,-122 1187.6924,-122 1187.6924,-86 1304.3076,-86 1304.3076,-122"/>
<text text-anchor="middle" x="1246" y="-99.8" font-family="Times,serif" font-size="14.00" fill="#000000">MatSelectModule</text>
</g>
<!-- MatSelectModule&#45;&gt;NgsFormModule -->
<g id="edge31" class="edge">
<title>MatSelectModule&#45;&gt;NgsFormModule</title>
<path fill="none" stroke="#000000" d="M1246,-122.308C1246,-142.1455 1246,-171 1246,-171 1246,-171 2666.5236,-171 2666.5236,-171"/>
<polygon fill="#000000" stroke="#000000" points="2666.5237,-174.5001 2676.5236,-171 2666.5236,-167.5001 2666.5237,-174.5001"/>
</g>
<!-- MatInputModule -->
<g id="node33" class="node">
<title>MatInputModule</title>
<polygon fill="#8dd3c7" stroke="#000000" points="1169.6513,-122 1166.6513,-126 1145.6513,-126 1142.6513,-122 1058.3487,-122 1058.3487,-86 1169.6513,-86 1169.6513,-122"/>
<text text-anchor="middle" x="1114" y="-99.8" font-family="Times,serif" font-size="14.00" fill="#000000">MatInputModule</text>
</g>
<!-- MatInputModule&#45;&gt;NgsFormModule -->
<g id="edge32" class="edge">
<title>MatInputModule&#45;&gt;NgsFormModule</title>
<path fill="none" stroke="#000000" d="M1114,-122.1289C1114,-142.5724 1114,-173 1114,-173 1114,-173 2666.3282,-173 2666.3282,-173"/>
<polygon fill="#000000" stroke="#000000" points="2666.3283,-176.5001 2676.3282,-173 2666.3282,-169.5001 2666.3283,-176.5001"/>
</g>
<!-- MatFormFieldModule -->
<g id="node34" class="node">
<title>MatFormFieldModule</title>
<polygon fill="#8dd3c7" stroke="#000000" points="1040.712,-122 1037.712,-126 1016.712,-126 1013.712,-122 899.288,-122 899.288,-86 1040.712,-86 1040.712,-122"/>
<text text-anchor="middle" x="970" y="-99.8" font-family="Times,serif" font-size="14.00" fill="#000000">MatFormFieldModule</text>
</g>
<!-- MatFormFieldModule&#45;&gt;NgsFormModule -->
<g id="edge33" class="edge">
<title>MatFormFieldModule&#45;&gt;NgsFormModule</title>
<path fill="none" stroke="#000000" d="M970,-122.2843C970,-143.3211 970,-175 970,-175 970,-175 2666.3386,-175 2666.3386,-175"/>
<polygon fill="#000000" stroke="#000000" points="2666.3386,-178.5001 2676.3386,-175 2666.3386,-171.5001 2666.3386,-178.5001"/>
</g>
<!-- MatTabsModule -->
<g id="node35" class="node">
<title>MatTabsModule</title>
<polygon fill="#8dd3c7" stroke="#000000" points="881.8118,-122 878.8118,-126 857.8118,-126 854.8118,-122 772.1882,-122 772.1882,-86 881.8118,-86 881.8118,-122"/>
<text text-anchor="middle" x="827" y="-99.8" font-family="Times,serif" font-size="14.00" fill="#000000">MatTabsModule</text>
</g>
<!-- MatTabsModule&#45;&gt;NgsFormModule -->
<g id="edge34" class="edge">
<title>MatTabsModule&#45;&gt;NgsFormModule</title>
<path fill="none" stroke="#000000" d="M827,-122.0449C827,-143.6623 827,-177 827,-177 827,-177 2666.7321,-177 2666.7321,-177"/>
<polygon fill="#000000" stroke="#000000" points="2666.7321,-180.5001 2676.7321,-177 2666.732,-173.5001 2666.7321,-180.5001"/>
</g>
<!-- MatDividerModule -->
<g id="node36" class="node">
<title>MatDividerModule</title>
<polygon fill="#8dd3c7" stroke="#000000" points="754.3627,-122 751.3627,-126 730.3627,-126 727.3627,-122 629.6373,-122 629.6373,-86 754.3627,-86 754.3627,-122"/>
<text text-anchor="middle" x="692" y="-99.8" font-family="Times,serif" font-size="14.00" fill="#000000">MatDividerModule</text>
</g>
<!-- MatDividerModule&#45;&gt;NgsFormModule -->
<g id="edge35" class="edge">
<title>MatDividerModule&#45;&gt;NgsFormModule</title>
<path fill="none" stroke="#000000" d="M692,-122.2921C692,-144.2057 692,-178 692,-178 692,-178 2666.5496,-178 2666.5496,-178"/>
<polygon fill="#000000" stroke="#000000" points="2666.5497,-181.5001 2676.5496,-178 2666.5496,-174.5001 2666.5497,-181.5001"/>
</g>
<!-- FlexLayoutModule -->
<g id="node37" class="node">
<title>FlexLayoutModule</title>
<polygon fill="#8dd3c7" stroke="#000000" points="612.0954,-122 609.0954,-126 588.0954,-126 585.0954,-122 487.9046,-122 487.9046,-86 612.0954,-86 612.0954,-122"/>
<text text-anchor="middle" x="550" y="-99.8" font-family="Times,serif" font-size="14.00" fill="#000000">FlexLayoutModule</text>
</g>
<!-- FlexLayoutModule&#45;&gt;NgsFormModule -->
<g id="edge36" class="edge">
<title>FlexLayoutModule&#45;&gt;NgsFormModule</title>
<path fill="none" stroke="#000000" d="M550,-122.0109C550,-144.4852 550,-180 550,-180 550,-180 2666.5671,-180 2666.5671,-180"/>
<polygon fill="#000000" stroke="#000000" points="2666.5671,-183.5001 2676.5671,-180 2666.5671,-176.5001 2666.5671,-183.5001"/>
</g>
<!-- MatRadioModule -->
<g id="node38" class="node">
<title>MatRadioModule</title>
<polygon fill="#8dd3c7" stroke="#000000" points="469.5423,-122 466.5423,-126 445.5423,-126 442.5423,-122 354.4577,-122 354.4577,-86 469.5423,-86 469.5423,-122"/>
<text text-anchor="middle" x="412" y="-99.8" font-family="Times,serif" font-size="14.00" fill="#000000">MatRadioModule</text>
</g>
<!-- MatRadioModule&#45;&gt;NgsFormModule -->
<g id="edge37" class="edge">
<title>MatRadioModule&#45;&gt;NgsFormModule</title>
<path fill="none" stroke="#000000" d="M412,-122.0908C412,-145.1328 412,-182 412,-182 412,-182 2666.7767,-182 2666.7767,-182"/>
<polygon fill="#000000" stroke="#000000" points="2666.7767,-185.5001 2676.7767,-182 2666.7766,-178.5001 2666.7767,-185.5001"/>
</g>
<!-- MatSlideToggleModule -->
<g id="node39" class="node">
<title>MatSlideToggleModule</title>
<polygon fill="#8dd3c7" stroke="#000000" points="336.0365,-122 333.0365,-126 312.0365,-126 309.0365,-122 185.9635,-122 185.9635,-86 336.0365,-86 336.0365,-122"/>
<text text-anchor="middle" x="261" y="-99.8" font-family="Times,serif" font-size="14.00" fill="#000000">MatSlideToggleModule</text>
</g>
<!-- MatSlideToggleModule&#45;&gt;NgsFormModule -->
<g id="edge38" class="edge">
<title>MatSlideToggleModule&#45;&gt;NgsFormModule</title>
<path fill="none" stroke="#000000" d="M261,-122.1532C261,-145.7566 261,-184 261,-184 261,-184 2666.7242,-184 2666.7242,-184"/>
<polygon fill="#000000" stroke="#000000" points="2666.7243,-187.5001 2676.7242,-184 2666.7242,-180.5001 2666.7243,-187.5001"/>
</g>
<!-- ReactiveFormsModule -->
<g id="node40" class="node">
<title>ReactiveFormsModule</title>
<polygon fill="#8dd3c7" stroke="#000000" points="168.3047,-122 165.3047,-126 144.3047,-126 141.3047,-122 23.6953,-122 23.6953,-86 168.3047,-86 168.3047,-122"/>
<text text-anchor="middle" x="96" y="-99.8" font-family="Times,serif" font-size="14.00" fill="#000000">ReactiveFormsModule</text>
</g>
<!-- ReactiveFormsModule&#45;&gt;NgsFormModule -->
<g id="edge39" class="edge">
<title>ReactiveFormsModule&#45;&gt;NgsFormModule</title>
<path fill="none" stroke="#000000" d="M96,-122.1985C96,-146.3563 96,-186 96,-186 96,-186 2666.7025,-186 2666.7025,-186"/>
<polygon fill="#000000" stroke="#000000" points="2666.7026,-189.5001 2676.7025,-186 2666.7025,-182.5001 2666.7026,-189.5001"/>
</g>
</g>
</svg>
