<?xml version="1.0" encoding="UTF-8" standalone="no"?>
<!DOCTYPE svg PUBLIC "-//W3C//DTD SVG 1.1//EN"
 "http://www.w3.org/Graphics/SVG/1.1/DTD/svg11.dtd">
<!-- Generated by graphviz version 2.40.1 (20161225.0304)
 -->
<!-- Title: dependencies Pages: 1 -->
<svg width="590pt" height="284pt"
 viewBox="0.00 0.00 590.00 284.00" xmlns="http://www.w3.org/2000/svg" xmlns:xlink="http://www.w3.org/1999/xlink">
<g id="graph0" class="graph" transform="scale(1 1) rotate(0) translate(4 280)">
<title>dependencies</title>
<polygon fill="#ffffff" stroke="transparent" points="-4,4 -4,-280 586,-280 586,4 -4,4"/>
<text text-anchor="start" x="270.0091" y="-42.4" font-family="sans-serif" font-weight="bold" font-size="14.00" fill="#000000">Legend</text>
<polygon fill="#ffffb3" stroke="transparent" points="57,-10 57,-30 77,-30 77,-10 57,-10"/>
<text text-anchor="start" x="80.629" y="-15.4" font-family="sans-serif" font-size="14.00" fill="#000000"> &#160;Declarations</text>
<polygon fill="#8dd3c7" stroke="transparent" points="170,-10 170,-30 190,-30 190,-10 170,-10"/>
<text text-anchor="start" x="193.7251" y="-15.4" font-family="sans-serif" font-size="14.00" fill="#000000"> &#160;Module</text>
<polygon fill="#80b1d3" stroke="transparent" points="256,-10 256,-30 276,-30 276,-10 256,-10"/>
<text text-anchor="start" x="279.7812" y="-15.4" font-family="sans-serif" font-size="14.00" fill="#000000"> &#160;Bootstrap</text>
<polygon fill="#fdb462" stroke="transparent" points="353,-10 353,-30 373,-30 373,-10 353,-10"/>
<text text-anchor="start" x="376.6732" y="-15.4" font-family="sans-serif" font-size="14.00" fill="#000000"> &#160;Providers</text>
<polygon fill="#fb8072" stroke="transparent" points="449,-10 449,-30 469,-30 469,-10 449,-10"/>
<text text-anchor="start" x="472.7258" y="-15.4" font-family="sans-serif" font-size="14.00" fill="#000000"> &#160;Exports</text>
<g id="clust1" class="cluster">
<title>cluster_RootNgsConfigModule</title>
<polygon fill="none" stroke="#000000" stroke-dasharray="1,5" points="8,-70 8,-268 574,-268 574,-70 8,-70"/>
</g>
<g id="clust3" class="cluster">
<title>cluster_RootNgsConfigModule_imports</title>
<polygon fill="none" stroke="#000000" points="16,-78 16,-130 566,-130 566,-78 16,-78"/>
</g>
<g id="clust4" class="cluster">
<title>cluster_RootNgsConfigModule_exports</title>
<polygon fill="none" stroke="#000000" points="258,-208 258,-260 398,-260 398,-208 258,-208"/>
</g>
<!-- NgsConfigModule -->
<g id="node1" class="node">
<title>NgsConfigModule</title>
<polygon fill="#8dd3c7" stroke="#000000" points="558.4888,-122 555.4888,-126 534.4888,-126 531.4888,-122 437.5112,-122 437.5112,-86 558.4888,-86 558.4888,-122"/>
<text text-anchor="middle" x="498" y="-99.8" font-family="Times,serif" font-size="14.00" fill="#000000">NgsConfigModule</text>
</g>
<!-- RootNgsConfigModule -->
<g id="node4" class="node">
<title>RootNgsConfigModule</title>
<polygon fill="#8dd3c7" stroke="#000000" points="402.2162,-187 399.2162,-191 378.2162,-191 375.2162,-187 253.7838,-187 253.7838,-151 402.2162,-151 402.2162,-187"/>
<text text-anchor="middle" x="328" y="-164.8" font-family="Times,serif" font-size="14.00" fill="#000000">RootNgsConfigModule</text>
</g>
<!-- NgsConfigModule&#45;&gt;RootNgsConfigModule -->
<g id="edge1" class="edge">
<title>NgsConfigModule&#45;&gt;RootNgsConfigModule</title>
<path fill="none" stroke="#000000" d="M498,-122.1061C498,-141.3391 498,-169 498,-169 498,-169 412.5645,-169 412.5645,-169"/>
<polygon fill="#000000" stroke="#000000" points="412.5645,-165.5001 402.5645,-169 412.5644,-172.5001 412.5645,-165.5001"/>
</g>
<!-- StoreModule.forFeature(args) -->
<g id="node2" class="node">
<title>StoreModule.forFeature(args)</title>
<polygon fill="#8dd3c7" stroke="#000000" points="419.5386,-122 416.5386,-126 395.5386,-126 392.5386,-122 236.4614,-122 236.4614,-86 419.5386,-86 419.5386,-122"/>
<text text-anchor="middle" x="328" y="-99.8" font-family="Times,serif" font-size="14.00" fill="#000000">StoreModule.forFeature(args)</text>
</g>
<!-- StoreModule.forFeature(args)&#45;&gt;RootNgsConfigModule -->
<g id="edge2" class="edge">
<title>StoreModule.forFeature(args)&#45;&gt;RootNgsConfigModule</title>
<path fill="none" stroke="#000000" d="M328,-122.1061C328,-122.1061 328,-140.991 328,-140.991"/>
<polygon fill="#000000" stroke="#000000" points="324.5001,-140.9909 328,-150.991 331.5001,-140.991 324.5001,-140.9909"/>
</g>
<!-- EffectsModule.forFeature(args) -->
<g id="node3" class="node">
<title>EffectsModule.forFeature(args)</title>
<polygon fill="#8dd3c7" stroke="#000000" points="217.6282,-122 214.6282,-126 193.6282,-126 190.6282,-122 24.3718,-122 24.3718,-86 217.6282,-86 217.6282,-122"/>
<text text-anchor="middle" x="121" y="-99.8" font-family="Times,serif" font-size="14.00" fill="#000000">EffectsModule.forFeature(args)</text>
</g>
<!-- EffectsModule.forFeature(args)&#45;&gt;RootNgsConfigModule -->
<g id="edge3" class="edge">
<title>EffectsModule.forFeature(args)&#45;&gt;RootNgsConfigModule</title>
<path fill="none" stroke="#000000" d="M121,-122.1061C121,-141.3391 121,-169 121,-169 121,-169 243.8529,-169 243.8529,-169"/>
<polygon fill="#000000" stroke="#000000" points="243.853,-172.5001 253.8529,-169 243.8529,-165.5001 243.853,-172.5001"/>
</g>
<!-- NgsConfigModule  -->
<g id="node5" class="node">
<title>NgsConfigModule </title>
<polygon fill="#fb8072" stroke="#000000" points="390.4898,-252 265.5102,-252 265.5102,-216 390.4898,-216 390.4898,-252"/>
<text text-anchor="middle" x="328" y="-229.8" font-family="Times,serif" font-size="14.00" fill="#000000">NgsConfigModule </text>
</g>
<!-- RootNgsConfigModule&#45;&gt;NgsConfigModule  -->
<g id="edge4" class="edge">
<title>RootNgsConfigModule&#45;&gt;NgsConfigModule </title>
<path fill="none" stroke="#000000" stroke-dasharray="5,2" d="M328,-187.1061C328,-187.1061 328,-205.991 328,-205.991"/>
<polygon fill="#000000" stroke="#000000" points="324.5001,-205.9909 328,-215.991 331.5001,-205.991 324.5001,-205.9909"/>
</g>
</g>
</svg>
