<?xml version="1.0" encoding="UTF-8" standalone="no"?>
<!DOCTYPE svg PUBLIC "-//W3C//DTD SVG 1.1//EN"
 "http://www.w3.org/Graphics/SVG/1.1/DTD/svg11.dtd">
<!-- Generated by graphviz version 2.40.1 (20161225.0304)
 -->
<!-- Title: dependencies Pages: 1 -->
<svg width="4676pt" height="211pt"
 viewBox="0.00 0.00 4676.00 211.00" xmlns="http://www.w3.org/2000/svg" xmlns:xlink="http://www.w3.org/1999/xlink">
<g id="graph0" class="graph" transform="scale(1 1) rotate(0) translate(4 207)">
<title>dependencies</title>
<polygon fill="#ffffff" stroke="transparent" points="-4,4 -4,-207 4672,-207 4672,4 -4,4"/>
<text text-anchor="start" x="2313.0091" y="-42.4" font-family="sans-serif" font-weight="bold" font-size="14.00" fill="#000000">Legend</text>
<polygon fill="#ffffb3" stroke="transparent" points="2100,-10 2100,-30 2120,-30 2120,-10 2100,-10"/>
<text text-anchor="start" x="2123.629" y="-15.4" font-family="sans-serif" font-size="14.00" fill="#000000"> &#160;Declarations</text>
<polygon fill="#8dd3c7" stroke="transparent" points="2213,-10 2213,-30 2233,-30 2233,-10 2213,-10"/>
<text text-anchor="start" x="2236.7251" y="-15.4" font-family="sans-serif" font-size="14.00" fill="#000000"> &#160;Module</text>
<polygon fill="#80b1d3" stroke="transparent" points="2299,-10 2299,-30 2319,-30 2319,-10 2299,-10"/>
<text text-anchor="start" x="2322.7812" y="-15.4" font-family="sans-serif" font-size="14.00" fill="#000000"> &#160;Bootstrap</text>
<polygon fill="#fdb462" stroke="transparent" points="2396,-10 2396,-30 2416,-30 2416,-10 2396,-10"/>
<text text-anchor="start" x="2419.6732" y="-15.4" font-family="sans-serif" font-size="14.00" fill="#000000"> &#160;Providers</text>
<polygon fill="#fb8072" stroke="transparent" points="2492,-10 2492,-30 2512,-30 2512,-10 2492,-10"/>
<text text-anchor="start" x="2515.7258" y="-15.4" font-family="sans-serif" font-size="14.00" fill="#000000"> &#160;Exports</text>
<g id="clust1" class="cluster">
<title>cluster_NgsUserModule</title>
<polygon fill="none" stroke="#000000" stroke-dasharray="1,5" points="8,-70 8,-195 4660,-195 4660,-70 8,-70"/>
</g>
<g id="clust2" class="cluster">
<title>cluster_NgsUserModule_declarations</title>
<polygon fill="none" stroke="#000000" points="2530,-78 2530,-130 4652,-130 4652,-78 2530,-78"/>
</g>
<g id="clust14" class="cluster">
<title>cluster_NgsUserModule_imports</title>
<polygon fill="none" stroke="#000000" points="16,-78 16,-130 2522,-130 2522,-78 16,-78"/>
</g>
<!-- SearchComponent -->
<g id="node1" class="node">
<title>SearchComponent</title>
<polygon fill="#ffffb3" stroke="#000000" points="4643.9201,-122 4524.0799,-122 4524.0799,-86 4643.9201,-86 4643.9201,-122"/>
<text text-anchor="middle" x="4584" y="-99.8" font-family="Times,serif" font-size="14.00" fill="#000000">SearchComponent</text>
</g>
<!-- NgsUserModule -->
<g id="node12" class="node">
<title>NgsUserModule</title>
<polygon fill="#8dd3c7" stroke="#000000" points="2147.0284,-187 2144.0284,-191 2123.0284,-191 2120.0284,-187 2038.9716,-187 2038.9716,-151 2147.0284,-151 2147.0284,-187"/>
<text text-anchor="middle" x="2093" y="-164.8" font-family="Times,serif" font-size="14.00" fill="#000000">NgsUserModule</text>
</g>
<!-- SearchComponent&#45;&gt;NgsUserModule -->
<g id="edge1" class="edge">
<title>SearchComponent&#45;&gt;NgsUserModule</title>
<path fill="none" stroke="#000000" d="M4584,-122.3802C4584,-146.2785 4584,-185 4584,-185 4584,-185 2157.0525,-185 2157.0525,-185"/>
<polygon fill="#000000" stroke="#000000" points="2157.0526,-181.5001 2147.0525,-185 2157.0525,-188.5001 2157.0526,-181.5001"/>
</g>
<!-- ProfileComponent -->
<g id="node2" class="node">
<title>ProfileComponent</title>
<polygon fill="#ffffb3" stroke="#000000" points="4506.9328,-122 4387.0672,-122 4387.0672,-86 4506.9328,-86 4506.9328,-122"/>
<text text-anchor="middle" x="4447" y="-99.8" font-family="Times,serif" font-size="14.00" fill="#000000">ProfileComponent</text>
</g>
<!-- ProfileComponent&#45;&gt;NgsUserModule -->
<g id="edge2" class="edge">
<title>ProfileComponent&#45;&gt;NgsUserModule</title>
<path fill="none" stroke="#000000" d="M4447,-122.3228C4447,-145.6602 4447,-183 4447,-183 4447,-183 2157.1548,-183 2157.1548,-183"/>
<polygon fill="#000000" stroke="#000000" points="2157.1548,-179.5001 2147.1548,-183 2157.1548,-186.5001 2157.1548,-179.5001"/>
</g>
<!-- ChangePasswordComponent -->
<g id="node3" class="node">
<title>ChangePasswordComponent</title>
<polygon fill="#ffffb3" stroke="#000000" points="4368.752,-122 4191.248,-122 4191.248,-86 4368.752,-86 4368.752,-122"/>
<text text-anchor="middle" x="4280" y="-99.8" font-family="Times,serif" font-size="14.00" fill="#000000">ChangePasswordComponent</text>
</g>
<!-- ChangePasswordComponent&#45;&gt;NgsUserModule -->
<g id="edge3" class="edge">
<title>ChangePasswordComponent&#45;&gt;NgsUserModule</title>
<path fill="none" stroke="#000000" d="M4280,-122.0109C4280,-144.4852 4280,-180 4280,-180 4280,-180 2157.061,-180 2157.061,-180"/>
<polygon fill="#000000" stroke="#000000" points="2157.061,-176.5001 2147.061,-180 2157.0609,-183.5001 2157.061,-176.5001"/>
</g>
<!-- ProfileEditComponent -->
<g id="node4" class="node">
<title>ProfileEditComponent</title>
<polygon fill="#ffffb3" stroke="#000000" points="4173.266,-122 4030.734,-122 4030.734,-86 4173.266,-86 4173.266,-122"/>
<text text-anchor="middle" x="4102" y="-99.8" font-family="Times,serif" font-size="14.00" fill="#000000">ProfileEditComponent</text>
</g>
<!-- ProfileEditComponent&#45;&gt;NgsUserModule -->
<g id="edge4" class="edge">
<title>ProfileEditComponent&#45;&gt;NgsUserModule</title>
<path fill="none" stroke="#000000" d="M4102,-122.2921C4102,-144.2057 4102,-178 4102,-178 4102,-178 2157.2557,-178 2157.2557,-178"/>
<polygon fill="#000000" stroke="#000000" points="2157.2557,-174.5001 2147.2557,-178 2157.2557,-181.5001 2157.2557,-174.5001"/>
</g>
<!-- ProfileContainerComponent -->
<g id="node5" class="node">
<title>ProfileContainerComponent</title>
<polygon fill="#ffffb3" stroke="#000000" points="4012.14,-122 3837.86,-122 3837.86,-86 4012.14,-86 4012.14,-122"/>
<text text-anchor="middle" x="3925" y="-99.8" font-family="Times,serif" font-size="14.00" fill="#000000">ProfileContainerComponent</text>
</g>
<!-- ProfileContainerComponent&#45;&gt;NgsUserModule -->
<g id="edge5" class="edge">
<title>ProfileContainerComponent&#45;&gt;NgsUserModule</title>
<path fill="none" stroke="#000000" d="M3925,-122.2843C3925,-143.3211 3925,-175 3925,-175 3925,-175 2157.3311,-175 2157.3311,-175"/>
<polygon fill="#000000" stroke="#000000" points="2157.3311,-171.5001 2147.3311,-175 2157.331,-178.5001 2157.3311,-171.5001"/>
</g>
<!-- DashboardLinksComponent -->
<g id="node6" class="node">
<title>DashboardLinksComponent</title>
<polygon fill="#ffffb3" stroke="#000000" points="3819.8613,-122 3646.1387,-122 3646.1387,-86 3819.8613,-86 3819.8613,-122"/>
<text text-anchor="middle" x="3733" y="-99.8" font-family="Times,serif" font-size="14.00" fill="#000000">DashboardLinksComponent</text>
</g>
<!-- DashboardLinksComponent&#45;&gt;NgsUserModule -->
<g id="edge6" class="edge">
<title>DashboardLinksComponent&#45;&gt;NgsUserModule</title>
<path fill="none" stroke="#000000" d="M3733,-122.1289C3733,-142.5724 3733,-173 3733,-173 3733,-173 2157.0986,-173 2157.0986,-173"/>
<polygon fill="#000000" stroke="#000000" points="2157.0987,-169.5001 2147.0986,-173 2157.0986,-176.5001 2157.0987,-169.5001"/>
</g>
<!-- ResetPasswordRequestComponent -->
<g id="node7" class="node">
<title>ResetPasswordRequestComponent</title>
<polygon fill="#ffffb3" stroke="#000000" points="3627.6881,-122 3416.3119,-122 3416.3119,-86 3627.6881,-86 3627.6881,-122"/>
<text text-anchor="middle" x="3522" y="-99.8" font-family="Times,serif" font-size="14.00" fill="#000000">ResetPasswordRequestComponent</text>
</g>
<!-- ResetPasswordRequestComponent&#45;&gt;NgsUserModule -->
<g id="edge7" class="edge">
<title>ResetPasswordRequestComponent&#45;&gt;NgsUserModule</title>
<path fill="none" stroke="#000000" d="M3522,-122.308C3522,-142.1455 3522,-171 3522,-171 3522,-171 2157.2735,-171 2157.2735,-171"/>
<polygon fill="#000000" stroke="#000000" points="2157.2736,-167.5001 2147.2735,-171 2157.2735,-174.5001 2157.2736,-167.5001"/>
</g>
<!-- FeatureContainerComponent -->
<g id="node8" class="node">
<title>FeatureContainerComponent</title>
<polygon fill="#ffffb3" stroke="#000000" points="3398.0183,-122 3219.9817,-122 3219.9817,-86 3398.0183,-86 3398.0183,-122"/>
<text text-anchor="middle" x="3309" y="-99.8" font-family="Times,serif" font-size="14.00" fill="#000000">FeatureContainerComponent</text>
</g>
<!-- FeatureContainerComponent&#45;&gt;NgsUserModule -->
<g id="edge8" class="edge">
<title>FeatureContainerComponent&#45;&gt;NgsUserModule</title>
<path fill="none" stroke="#000000" d="M3309,-122.1686C3309,-141.0898 3309,-168 3309,-168 3309,-168 2157.2145,-168 2157.2145,-168"/>
<polygon fill="#000000" stroke="#000000" points="2157.2145,-164.5001 2147.2145,-168 2157.2145,-171.5001 2157.2145,-164.5001"/>
</g>
<!-- DashboardContainerComponent -->
<g id="node9" class="node">
<title>DashboardContainerComponent</title>
<polygon fill="#ffffb3" stroke="#000000" points="3201.6811,-122 3004.3189,-122 3004.3189,-86 3201.6811,-86 3201.6811,-122"/>
<text text-anchor="middle" x="3103" y="-99.8" font-family="Times,serif" font-size="14.00" fill="#000000">DashboardContainerComponent</text>
</g>
<!-- DashboardContainerComponent&#45;&gt;NgsUserModule -->
<g id="edge9" class="edge">
<title>DashboardContainerComponent&#45;&gt;NgsUserModule</title>
<path fill="none" stroke="#000000" d="M3103,-122.2667C3103,-140.5552 3103,-166 3103,-166 3103,-166 2157.302,-166 2157.302,-166"/>
<polygon fill="#000000" stroke="#000000" points="2157.302,-162.5001 2147.302,-166 2157.302,-169.5001 2157.302,-162.5001"/>
</g>
<!-- ChangePasswordContainerComponent -->
<g id="node10" class="node">
<title>ChangePasswordContainerComponent</title>
<polygon fill="#ffffb3" stroke="#000000" points="2986.4594,-122 2753.5406,-122 2753.5406,-86 2986.4594,-86 2986.4594,-122"/>
<text text-anchor="middle" x="2870" y="-99.8" font-family="Times,serif" font-size="14.00" fill="#000000">ChangePasswordContainerComponent</text>
</g>
<!-- ChangePasswordContainerComponent&#45;&gt;NgsUserModule -->
<g id="edge10" class="edge">
<title>ChangePasswordContainerComponent&#45;&gt;NgsUserModule</title>
<path fill="none" stroke="#000000" d="M2870,-122.0225C2870,-139.3734 2870,-163 2870,-163 2870,-163 2157.3283,-163 2157.3283,-163"/>
<polygon fill="#000000" stroke="#000000" points="2157.3283,-159.5001 2147.3283,-163 2157.3283,-166.5001 2157.3283,-159.5001"/>
</g>
<!-- ProfileEditContainerComponent -->
<g id="node11" class="node">
<title>ProfileEditContainerComponent</title>
<polygon fill="#ffffb3" stroke="#000000" points="2735.9734,-122 2538.0266,-122 2538.0266,-86 2735.9734,-86 2735.9734,-122"/>
<text text-anchor="middle" x="2637" y="-99.8" font-family="Times,serif" font-size="14.00" fill="#000000">ProfileEditContainerComponent</text>
</g>
<!-- ProfileEditContainerComponent&#45;&gt;NgsUserModule -->
<g id="edge11" class="edge">
<title>ProfileEditContainerComponent&#45;&gt;NgsUserModule</title>
<path fill="none" stroke="#000000" d="M2637,-122.0352C2637,-138.7344 2637,-161 2637,-161 2637,-161 2157.1496,-161 2157.1496,-161"/>
<polygon fill="#000000" stroke="#000000" points="2157.1497,-157.5001 2147.1496,-161 2157.1496,-164.5001 2157.1497,-157.5001"/>
</g>
<!-- HttpClientModule -->
<g id="node13" class="node">
<title>HttpClientModule</title>
<polygon fill="#8dd3c7" stroke="#000000" points="2514.1611,-122 2511.1611,-126 2490.1611,-126 2487.1611,-122 2395.8389,-122 2395.8389,-86 2514.1611,-86 2514.1611,-122"/>
<text text-anchor="middle" x="2455" y="-99.8" font-family="Times,serif" font-size="14.00" fill="#000000">HttpClientModule</text>
</g>
<!-- HttpClientModule&#45;&gt;NgsUserModule -->
<g id="edge12" class="edge">
<title>HttpClientModule&#45;&gt;NgsUserModule</title>
<path fill="none" stroke="#000000" d="M2455,-122.0091C2455,-138.0494 2455,-159 2455,-159 2455,-159 2157.1951,-159 2157.1951,-159"/>
<polygon fill="#000000" stroke="#000000" points="2157.1951,-155.5001 2147.1951,-159 2157.195,-162.5001 2157.1951,-155.5001"/>
</g>
<!-- FormsModule -->
<g id="node14" class="node">
<title>FormsModule</title>
<polygon fill="#8dd3c7" stroke="#000000" points="2377.8288,-122 2374.8288,-126 2353.8288,-126 2350.8288,-122 2282.1712,-122 2282.1712,-86 2377.8288,-86 2377.8288,-122"/>
<text text-anchor="middle" x="2330" y="-99.8" font-family="Times,serif" font-size="14.00" fill="#000000">FormsModule</text>
</g>
<!-- FormsModule&#45;&gt;NgsUserModule -->
<g id="edge13" class="edge">
<title>FormsModule&#45;&gt;NgsUserModule</title>
<path fill="none" stroke="#000000" d="M2330,-122.1871C2330,-137.1824 2330,-156 2330,-156 2330,-156 2157.0755,-156 2157.0755,-156"/>
<polygon fill="#000000" stroke="#000000" points="2157.0756,-152.5001 2147.0755,-156 2157.0755,-159.5001 2157.0756,-152.5001"/>
</g>
<!-- RouterModule -->
<g id="node15" class="node">
<title>RouterModule</title>
<polygon fill="#8dd3c7" stroke="#000000" points="2264.6528,-122 2261.6528,-126 2240.6528,-126 2237.6528,-122 2167.3472,-122 2167.3472,-86 2264.6528,-86 2264.6528,-122"/>
<text text-anchor="middle" x="2216" y="-99.8" font-family="Times,serif" font-size="14.00" fill="#000000">RouterModule</text>
</g>
<!-- RouterModule&#45;&gt;NgsUserModule -->
<g id="edge14" class="edge">
<title>RouterModule&#45;&gt;NgsUserModule</title>
<path fill="none" stroke="#000000" d="M2216,-122.0511C2216,-136.373 2216,-154 2216,-154 2216,-154 2157.3076,-154 2157.3076,-154"/>
<polygon fill="#000000" stroke="#000000" points="2157.3077,-150.5001 2147.3076,-154 2157.3076,-157.5001 2157.3077,-150.5001"/>
</g>
<!-- CommonModule -->
<g id="node16" class="node">
<title>CommonModule</title>
<polygon fill="#8dd3c7" stroke="#000000" points="2148.6681,-122 2145.6681,-126 2124.6681,-126 2121.6681,-122 2037.3319,-122 2037.3319,-86 2148.6681,-86 2148.6681,-122"/>
<text text-anchor="middle" x="2093" y="-99.8" font-family="Times,serif" font-size="14.00" fill="#000000">CommonModule</text>
</g>
<!-- CommonModule&#45;&gt;NgsUserModule -->
<g id="edge15" class="edge">
<title>CommonModule&#45;&gt;NgsUserModule</title>
<path fill="none" stroke="#000000" d="M2093,-122.1061C2093,-122.1061 2093,-140.991 2093,-140.991"/>
<polygon fill="#000000" stroke="#000000" points="2089.5001,-140.9909 2093,-150.991 2096.5001,-140.991 2089.5001,-140.9909"/>
</g>
<!-- MatExpansionModule -->
<g id="node17" class="node">
<title>MatExpansionModule</title>
<polygon fill="#8dd3c7" stroke="#000000" points="2019.7021,-122 2016.7021,-126 1995.7021,-126 1992.7021,-122 1878.2979,-122 1878.2979,-86 2019.7021,-86 2019.7021,-122"/>
<text text-anchor="middle" x="1949" y="-99.8" font-family="Times,serif" font-size="14.00" fill="#000000">MatExpansionModule</text>
</g>
<!-- MatExpansionModule&#45;&gt;NgsUserModule -->
<g id="edge16" class="edge">
<title>MatExpansionModule&#45;&gt;NgsUserModule</title>
<path fill="none" stroke="#000000" d="M1949,-122.0511C1949,-136.373 1949,-154 1949,-154 1949,-154 2028.97,-154 2028.97,-154"/>
<polygon fill="#000000" stroke="#000000" points="2028.9701,-157.5001 2038.97,-154 2028.97,-150.5001 2028.9701,-157.5001"/>
</g>
<!-- MatSnackBarModule -->
<g id="node18" class="node">
<title>MatSnackBarModule</title>
<polygon fill="#8dd3c7" stroke="#000000" points="1860.024,-122 1857.024,-126 1836.024,-126 1833.024,-122 1723.976,-122 1723.976,-86 1860.024,-86 1860.024,-122"/>
<text text-anchor="middle" x="1792" y="-99.8" font-family="Times,serif" font-size="14.00" fill="#000000">MatSnackBarModule</text>
</g>
<!-- MatSnackBarModule&#45;&gt;NgsUserModule -->
<g id="edge17" class="edge">
<title>MatSnackBarModule&#45;&gt;NgsUserModule</title>
<path fill="none" stroke="#000000" d="M1792,-122.1871C1792,-137.1824 1792,-156 1792,-156 1792,-156 2028.8396,-156 2028.8396,-156"/>
<polygon fill="#000000" stroke="#000000" points="2028.8396,-159.5001 2038.8396,-156 2028.8396,-152.5001 2028.8396,-159.5001"/>
</g>
<!-- MatIconModule -->
<g id="node19" class="node">
<title>MatIconModule</title>
<polygon fill="#8dd3c7" stroke="#000000" points="1705.4748,-122 1702.4748,-126 1681.4748,-126 1678.4748,-122 1598.5252,-122 1598.5252,-86 1705.4748,-86 1705.4748,-122"/>
<text text-anchor="middle" x="1652" y="-99.8" font-family="Times,serif" font-size="14.00" fill="#000000">MatIconModule</text>
</g>
<!-- MatIconModule&#45;&gt;NgsUserModule -->
<g id="edge18" class="edge">
<title>MatIconModule&#45;&gt;NgsUserModule</title>
<path fill="none" stroke="#000000" d="M1652,-122.0091C1652,-138.0494 1652,-159 1652,-159 1652,-159 2028.9247,-159 2028.9247,-159"/>
<polygon fill="#000000" stroke="#000000" points="2028.9248,-162.5001 2038.9247,-159 2028.9247,-155.5001 2028.9248,-162.5001"/>
</g>
<!-- MatButtonModule -->
<g id="node20" class="node">
<title>MatButtonModule</title>
<polygon fill="#8dd3c7" stroke="#000000" points="1580.2176,-122 1577.2176,-126 1556.2176,-126 1553.2176,-122 1459.7824,-122 1459.7824,-86 1580.2176,-86 1580.2176,-122"/>
<text text-anchor="middle" x="1520" y="-99.8" font-family="Times,serif" font-size="14.00" fill="#000000">MatButtonModule</text>
</g>
<!-- MatButtonModule&#45;&gt;NgsUserModule -->
<g id="edge19" class="edge">
<title>MatButtonModule&#45;&gt;NgsUserModule</title>
<path fill="none" stroke="#000000" d="M1520,-122.0352C1520,-138.7344 1520,-161 1520,-161 1520,-161 2028.8355,-161 2028.8355,-161"/>
<polygon fill="#000000" stroke="#000000" points="2028.8355,-164.5001 2038.8355,-161 2028.8355,-157.5001 2028.8355,-164.5001"/>
</g>
<!-- MatCardModule -->
<g id="node21" class="node">
<title>MatCardModule</title>
<polygon fill="#8dd3c7" stroke="#000000" points="1441.8118,-122 1438.8118,-126 1417.8118,-126 1414.8118,-122 1332.1882,-122 1332.1882,-86 1441.8118,-86 1441.8118,-122"/>
<text text-anchor="middle" x="1387" y="-99.8" font-family="Times,serif" font-size="14.00" fill="#000000">MatCardModule</text>
</g>
<!-- MatCardModule&#45;&gt;NgsUserModule -->
<g id="edge20" class="edge">
<title>MatCardModule&#45;&gt;NgsUserModule</title>
<path fill="none" stroke="#000000" d="M1387,-122.0225C1387,-139.3734 1387,-163 1387,-163 1387,-163 2028.7736,-163 2028.7736,-163"/>
<polygon fill="#000000" stroke="#000000" points="2028.7737,-166.5001 2038.7736,-163 2028.7736,-159.5001 2028.7737,-166.5001"/>
</g>
<!-- MatSelectModule -->
<g id="node22" class="node">
<title>MatSelectModule</title>
<polygon fill="#8dd3c7" stroke="#000000" points="1314.3076,-122 1311.3076,-126 1290.3076,-126 1287.3076,-122 1197.6924,-122 1197.6924,-86 1314.3076,-86 1314.3076,-122"/>
<text text-anchor="middle" x="1256" y="-99.8" font-family="Times,serif" font-size="14.00" fill="#000000">MatSelectModule</text>
</g>
<!-- MatSelectModule&#45;&gt;NgsUserModule -->
<g id="edge21" class="edge">
<title>MatSelectModule&#45;&gt;NgsUserModule</title>
<path fill="none" stroke="#000000" d="M1256,-122.2667C1256,-140.5552 1256,-166 1256,-166 1256,-166 2028.727,-166 2028.727,-166"/>
<polygon fill="#000000" stroke="#000000" points="2028.727,-169.5001 2038.727,-166 2028.727,-162.5001 2028.727,-169.5001"/>
</g>
<!-- MatInputModule -->
<g id="node23" class="node">
<title>MatInputModule</title>
<polygon fill="#8dd3c7" stroke="#000000" points="1179.6513,-122 1176.6513,-126 1155.6513,-126 1152.6513,-122 1068.3487,-122 1068.3487,-86 1179.6513,-86 1179.6513,-122"/>
<text text-anchor="middle" x="1124" y="-99.8" font-family="Times,serif" font-size="14.00" fill="#000000">MatInputModule</text>
</g>
<!-- MatInputModule&#45;&gt;NgsUserModule -->
<g id="edge22" class="edge">
<title>MatInputModule&#45;&gt;NgsUserModule</title>
<path fill="none" stroke="#000000" d="M1124,-122.1686C1124,-141.0898 1124,-168 1124,-168 1124,-168 2028.826,-168 2028.826,-168"/>
<polygon fill="#000000" stroke="#000000" points="2028.826,-171.5001 2038.826,-168 2028.826,-164.5001 2028.826,-171.5001"/>
</g>
<!-- MatFormFieldModule -->
<g id="node24" class="node">
<title>MatFormFieldModule</title>
<polygon fill="#8dd3c7" stroke="#000000" points="1050.712,-122 1047.712,-126 1026.712,-126 1023.712,-122 909.288,-122 909.288,-86 1050.712,-86 1050.712,-122"/>
<text text-anchor="middle" x="980" y="-99.8" font-family="Times,serif" font-size="14.00" fill="#000000">MatFormFieldModule</text>
</g>
<!-- MatFormFieldModule&#45;&gt;NgsUserModule -->
<g id="edge23" class="edge">
<title>MatFormFieldModule&#45;&gt;NgsUserModule</title>
<path fill="none" stroke="#000000" d="M980,-122.308C980,-142.1455 980,-171 980,-171 980,-171 2028.9416,-171 2028.9416,-171"/>
<polygon fill="#000000" stroke="#000000" points="2028.9416,-174.5001 2038.9416,-171 2028.9415,-167.5001 2028.9416,-174.5001"/>
</g>
<!-- MatTabsModule -->
<g id="node25" class="node">
<title>MatTabsModule</title>
<polygon fill="#8dd3c7" stroke="#000000" points="891.8118,-122 888.8118,-126 867.8118,-126 864.8118,-122 782.1882,-122 782.1882,-86 891.8118,-86 891.8118,-122"/>
<text text-anchor="middle" x="837" y="-99.8" font-family="Times,serif" font-size="14.00" fill="#000000">MatTabsModule</text>
</g>
<!-- MatTabsModule&#45;&gt;NgsUserModule -->
<g id="edge24" class="edge">
<title>MatTabsModule&#45;&gt;NgsUserModule</title>
<path fill="none" stroke="#000000" d="M837,-122.1289C837,-142.5724 837,-173 837,-173 837,-173 2028.6281,-173 2028.6281,-173"/>
<polygon fill="#000000" stroke="#000000" points="2028.6281,-176.5001 2038.6281,-173 2028.6281,-169.5001 2028.6281,-176.5001"/>
</g>
<!-- FlexLayoutModule -->
<g id="node26" class="node">
<title>FlexLayoutModule</title>
<polygon fill="#8dd3c7" stroke="#000000" points="764.0954,-122 761.0954,-126 740.0954,-126 737.0954,-122 639.9046,-122 639.9046,-86 764.0954,-86 764.0954,-122"/>
<text text-anchor="middle" x="702" y="-99.8" font-family="Times,serif" font-size="14.00" fill="#000000">FlexLayoutModule</text>
</g>
<!-- FlexLayoutModule&#45;&gt;NgsUserModule -->
<g id="edge25" class="edge">
<title>FlexLayoutModule&#45;&gt;NgsUserModule</title>
<path fill="none" stroke="#000000" d="M702,-122.2843C702,-143.3211 702,-175 702,-175 702,-175 2028.8981,-175 2028.8981,-175"/>
<polygon fill="#000000" stroke="#000000" points="2028.8981,-178.5001 2038.8981,-175 2028.898,-171.5001 2028.8981,-178.5001"/>
</g>
<!-- MatRadioModule -->
<g id="node27" class="node">
<title>MatRadioModule</title>
<polygon fill="#8dd3c7" stroke="#000000" points="621.5423,-122 618.5423,-126 597.5423,-126 594.5423,-122 506.4577,-122 506.4577,-86 621.5423,-86 621.5423,-122"/>
<text text-anchor="middle" x="564" y="-99.8" font-family="Times,serif" font-size="14.00" fill="#000000">MatRadioModule</text>
</g>
<!-- MatRadioModule&#45;&gt;NgsUserModule -->
<g id="edge26" class="edge">
<title>MatRadioModule&#45;&gt;NgsUserModule</title>
<path fill="none" stroke="#000000" d="M564,-122.2921C564,-144.2057 564,-178 564,-178 564,-178 2028.5821,-178 2028.5821,-178"/>
<polygon fill="#000000" stroke="#000000" points="2028.5821,-181.5001 2038.5821,-178 2028.582,-174.5001 2028.5821,-181.5001"/>
</g>
<!-- ReactiveFormsModule -->
<g id="node28" class="node">
<title>ReactiveFormsModule</title>
<polygon fill="#8dd3c7" stroke="#000000" points="488.3047,-122 485.3047,-126 464.3047,-126 461.3047,-122 343.6953,-122 343.6953,-86 488.3047,-86 488.3047,-122"/>
<text text-anchor="middle" x="416" y="-99.8" font-family="Times,serif" font-size="14.00" fill="#000000">ReactiveFormsModule</text>
</g>
<!-- ReactiveFormsModule&#45;&gt;NgsUserModule -->
<g id="edge27" class="edge">
<title>ReactiveFormsModule&#45;&gt;NgsUserModule</title>
<path fill="none" stroke="#000000" d="M416,-122.0109C416,-144.4852 416,-180 416,-180 416,-180 2028.6305,-180 2028.6305,-180"/>
<polygon fill="#000000" stroke="#000000" points="2028.6306,-183.5001 2038.6305,-180 2028.6305,-176.5001 2028.6306,-183.5001"/>
</g>
<!-- BrowserAnimationsModule -->
<g id="node29" class="node">
<title>BrowserAnimationsModule</title>
<polygon fill="#8dd3c7" stroke="#000000" points="326.3019,-122 323.3019,-126 302.3019,-126 299.3019,-122 153.6981,-122 153.6981,-86 326.3019,-86 326.3019,-122"/>
<text text-anchor="middle" x="240" y="-99.8" font-family="Times,serif" font-size="14.00" fill="#000000">BrowserAnimationsModule</text>
</g>
<!-- BrowserAnimationsModule&#45;&gt;NgsUserModule -->
<g id="edge28" class="edge">
<title>BrowserAnimationsModule&#45;&gt;NgsUserModule</title>
<path fill="none" stroke="#000000" d="M240,-122.3228C240,-145.6602 240,-183 240,-183 240,-183 2028.5468,-183 2028.5468,-183"/>
<polygon fill="#000000" stroke="#000000" points="2028.5468,-186.5001 2038.5468,-183 2028.5467,-179.5001 2028.5468,-186.5001"/>
</g>
<!-- NgsFormModule -->
<g id="node30" class="node">
<title>NgsFormModule</title>
<polygon fill="#8dd3c7" stroke="#000000" points="136.4356,-122 133.4356,-126 112.4356,-126 109.4356,-122 23.5644,-122 23.5644,-86 136.4356,-86 136.4356,-122"/>
<text text-anchor="middle" x="80" y="-99.8" font-family="Times,serif" font-size="14.00" fill="#000000">NgsFormModule</text>
</g>
<!-- NgsFormModule&#45;&gt;NgsUserModule -->
<g id="edge29" class="edge">
<title>NgsFormModule&#45;&gt;NgsUserModule</title>
<path fill="none" stroke="#000000" d="M80,-122.3802C80,-146.2785 80,-185 80,-185 80,-185 2028.897,-185 2028.897,-185"/>
<polygon fill="#000000" stroke="#000000" points="2028.897,-188.5001 2038.897,-185 2028.8969,-181.5001 2028.897,-188.5001"/>
</g>
</g>
</svg>
