<?xml version="1.0" encoding="UTF-8" standalone="no"?>
<!DOCTYPE svg PUBLIC "-//W3C//DTD SVG 1.1//EN"
 "http://www.w3.org/Graphics/SVG/1.1/DTD/svg11.dtd">
<!-- Generated by graphviz version 2.40.1 (20161225.0304)
 -->
<!-- Title: dependencies Pages: 1 -->
<svg width="4153pt" height="284pt"
 viewBox="0.00 0.00 4153.00 284.00" xmlns="http://www.w3.org/2000/svg" xmlns:xlink="http://www.w3.org/1999/xlink">
<g id="graph0" class="graph" transform="scale(1 1) rotate(0) translate(4 280)">
<title>dependencies</title>
<polygon fill="#ffffff" stroke="transparent" points="-4,4 -4,-280 4149,-280 4149,4 -4,4"/>
<text text-anchor="start" x="2051.5091" y="-42.4" font-family="sans-serif" font-weight="bold" font-size="14.00" fill="#000000">Legend</text>
<polygon fill="#ffffb3" stroke="transparent" points="1838.5,-10 1838.5,-30 1858.5,-30 1858.5,-10 1838.5,-10"/>
<text text-anchor="start" x="1862.129" y="-15.4" font-family="sans-serif" font-size="14.00" fill="#000000"> &#160;Declarations</text>
<polygon fill="#8dd3c7" stroke="transparent" points="1951.5,-10 1951.5,-30 1971.5,-30 1971.5,-10 1951.5,-10"/>
<text text-anchor="start" x="1975.2251" y="-15.4" font-family="sans-serif" font-size="14.00" fill="#000000"> &#160;Module</text>
<polygon fill="#80b1d3" stroke="transparent" points="2037.5,-10 2037.5,-30 2057.5,-30 2057.5,-10 2037.5,-10"/>
<text text-anchor="start" x="2061.2812" y="-15.4" font-family="sans-serif" font-size="14.00" fill="#000000"> &#160;Bootstrap</text>
<polygon fill="#fdb462" stroke="transparent" points="2134.5,-10 2134.5,-30 2154.5,-30 2154.5,-10 2134.5,-10"/>
<text text-anchor="start" x="2158.1732" y="-15.4" font-family="sans-serif" font-size="14.00" fill="#000000"> &#160;Providers</text>
<polygon fill="#fb8072" stroke="transparent" points="2230.5,-10 2230.5,-30 2250.5,-30 2250.5,-10 2230.5,-10"/>
<text text-anchor="start" x="2254.2258" y="-15.4" font-family="sans-serif" font-size="14.00" fill="#000000"> &#160;Exports</text>
<g id="clust1" class="cluster">
<title>cluster_NgsLayoutModule</title>
<polygon fill="none" stroke="#000000" stroke-dasharray="1,5" points="8,-70 8,-268 4137,-268 4137,-70 8,-70"/>
</g>
<g id="clust2" class="cluster">
<title>cluster_NgsLayoutModule_declarations</title>
<polygon fill="none" stroke="#000000" points="3059,-78 3059,-130 4129,-130 4129,-78 3059,-78"/>
</g>
<g id="clust10" class="cluster">
<title>cluster_NgsLayoutModule_imports</title>
<polygon fill="none" stroke="#000000" points="16,-78 16,-130 3051,-130 3051,-78 16,-78"/>
</g>
<g id="clust11" class="cluster">
<title>cluster_NgsLayoutModule_exports</title>
<polygon fill="none" stroke="#000000" points="1672,-208 1672,-260 2769,-260 2769,-208 1672,-208"/>
</g>
<!-- MainMenuComponent -->
<g id="node1" class="node">
<title>MainMenuComponent</title>
<polygon fill="#ffffb3" stroke="#000000" points="4120.5421,-122 3977.4579,-122 3977.4579,-86 4120.5421,-86 4120.5421,-122"/>
<text text-anchor="middle" x="4049" y="-99.8" font-family="Times,serif" font-size="14.00" fill="#000000">MainMenuComponent</text>
</g>
<!-- NgsLayoutModule -->
<g id="node8" class="node">
<title>NgsLayoutModule</title>
<polygon fill="#8dd3c7" stroke="#000000" points="2222.759,-187 2219.759,-191 2198.759,-191 2195.759,-187 2101.241,-187 2101.241,-151 2222.759,-151 2222.759,-187"/>
<text text-anchor="middle" x="2162" y="-164.8" font-family="Times,serif" font-size="14.00" fill="#000000">NgsLayoutModule</text>
</g>
<!-- MainMenuComponent&#45;&gt;NgsLayoutModule -->
<g id="edge1" class="edge">
<title>MainMenuComponent&#45;&gt;NgsLayoutModule</title>
<path fill="none" stroke="#000000" d="M4049,-122.1554C4049,-144.3519 4049,-179 4049,-179 4049,-179 2232.912,-179 2232.912,-179"/>
<polygon fill="#000000" stroke="#000000" points="2232.912,-175.5001 2222.912,-179 2232.9119,-182.5001 2232.912,-175.5001"/>
</g>
<!-- SearchBoxComponent -->
<g id="node2" class="node">
<title>SearchBoxComponent</title>
<polygon fill="#ffffb3" stroke="#000000" points="3959.2562,-122 3816.7438,-122 3816.7438,-86 3959.2562,-86 3959.2562,-122"/>
<text text-anchor="middle" x="3888" y="-99.8" font-family="Times,serif" font-size="14.00" fill="#000000">SearchBoxComponent</text>
</g>
<!-- SearchBoxComponent&#45;&gt;NgsLayoutModule -->
<g id="edge2" class="edge">
<title>SearchBoxComponent&#45;&gt;NgsLayoutModule</title>
<path fill="none" stroke="#000000" d="M3888,-122.0449C3888,-143.6623 3888,-177 3888,-177 3888,-177 2232.9223,-177 2232.9223,-177"/>
<polygon fill="#000000" stroke="#000000" points="2232.9223,-173.5001 2222.9223,-177 2232.9222,-180.5001 2232.9223,-173.5001"/>
</g>
<!-- LogoContainerComponent -->
<g id="node3" class="node">
<title>LogoContainerComponent</title>
<polygon fill="#ffffb3" stroke="#000000" points="3799.0926,-122 3632.9074,-122 3632.9074,-86 3799.0926,-86 3799.0926,-122"/>
<text text-anchor="middle" x="3716" y="-99.8" font-family="Times,serif" font-size="14.00" fill="#000000">LogoContainerComponent</text>
</g>
<!-- LogoContainerComponent&#45;&gt;NgsLayoutModule -->
<g id="edge3" class="edge">
<title>LogoContainerComponent&#45;&gt;NgsLayoutModule</title>
<path fill="none" stroke="#000000" d="M3716,-122.2843C3716,-143.3211 3716,-175 3716,-175 3716,-175 2232.9186,-175 2232.9186,-175"/>
<polygon fill="#000000" stroke="#000000" points="2232.9187,-171.5001 2222.9186,-175 2232.9186,-178.5001 2232.9187,-171.5001"/>
</g>
<!-- ToolbarMenuComponent -->
<g id="node4" class="node">
<title>ToolbarMenuComponent</title>
<polygon fill="#ffffb3" stroke="#000000" points="3615.3103,-122 3456.6897,-122 3456.6897,-86 3615.3103,-86 3615.3103,-122"/>
<text text-anchor="middle" x="3536" y="-99.8" font-family="Times,serif" font-size="14.00" fill="#000000">ToolbarMenuComponent</text>
</g>
<!-- ToolbarMenuComponent&#45;&gt;NgsLayoutModule -->
<g id="edge4" class="edge">
<title>ToolbarMenuComponent&#45;&gt;NgsLayoutModule</title>
<path fill="none" stroke="#000000" d="M3536,-122.1289C3536,-142.5724 3536,-173 3536,-173 3536,-173 2232.8119,-173 2232.8119,-173"/>
<polygon fill="#000000" stroke="#000000" points="2232.812,-169.5001 2222.8119,-173 2232.8119,-176.5001 2232.812,-169.5001"/>
</g>
<!-- FooterComponent -->
<g id="node5" class="node">
<title>FooterComponent</title>
<polygon fill="#ffffb3" stroke="#000000" points="3438.8809,-122 3321.1191,-122 3321.1191,-86 3438.8809,-86 3438.8809,-122"/>
<text text-anchor="middle" x="3380" y="-99.8" font-family="Times,serif" font-size="14.00" fill="#000000">FooterComponent</text>
</g>
<!-- FooterComponent&#45;&gt;NgsLayoutModule -->
<g id="edge5" class="edge">
<title>FooterComponent&#45;&gt;NgsLayoutModule</title>
<path fill="none" stroke="#000000" d="M3380,-122.308C3380,-142.1455 3380,-171 3380,-171 3380,-171 2232.8175,-171 2232.8175,-171"/>
<polygon fill="#000000" stroke="#000000" points="2232.8176,-167.5001 2222.8175,-171 2232.8175,-174.5001 2232.8176,-167.5001"/>
</g>
<!-- TitleComponent -->
<g id="node6" class="node">
<title>TitleComponent</title>
<polygon fill="#ffffb3" stroke="#000000" points="3302.7716,-122 3195.2284,-122 3195.2284,-86 3302.7716,-86 3302.7716,-122"/>
<text text-anchor="middle" x="3249" y="-99.8" font-family="Times,serif" font-size="14.00" fill="#000000">TitleComponent</text>
</g>
<!-- TitleComponent&#45;&gt;NgsLayoutModule -->
<g id="edge6" class="edge">
<title>TitleComponent&#45;&gt;NgsLayoutModule</title>
<path fill="none" stroke="#000000" d="M3249,-122.1061C3249,-141.3391 3249,-169 3249,-169 3249,-169 2232.771,-169 2232.771,-169"/>
<polygon fill="#000000" stroke="#000000" points="2232.7711,-165.5001 2222.771,-169 2232.771,-172.5001 2232.7711,-165.5001"/>
</g>
<!-- MainComponent -->
<g id="node7" class="node">
<title>MainComponent</title>
<polygon fill="#ffffb3" stroke="#000000" points="3177.3823,-122 3066.6177,-122 3066.6177,-86 3177.3823,-86 3177.3823,-122"/>
<text text-anchor="middle" x="3122" y="-99.8" font-family="Times,serif" font-size="14.00" fill="#000000">MainComponent</text>
</g>
<!-- MainComponent&#45;&gt;NgsLayoutModule -->
<g id="edge7" class="edge">
<title>MainComponent&#45;&gt;NgsLayoutModule</title>
<path fill="none" stroke="#000000" d="M3122,-122.2222C3122,-140.8285 3122,-167 3122,-167 3122,-167 2232.7806,-167 2232.7806,-167"/>
<polygon fill="#000000" stroke="#000000" points="2232.7806,-163.5001 2222.7806,-167 2232.7806,-170.5001 2232.7806,-163.5001"/>
</g>
<!-- MainMenuComponent  -->
<g id="node31" class="node">
<title>MainMenuComponent </title>
<polygon fill="#fb8072" stroke="#000000" points="2760.5414,-252 2613.4586,-252 2613.4586,-216 2760.5414,-216 2760.5414,-252"/>
<text text-anchor="middle" x="2687" y="-229.8" font-family="Times,serif" font-size="14.00" fill="#000000">MainMenuComponent </text>
</g>
<!-- NgsLayoutModule&#45;&gt;MainMenuComponent  -->
<g id="edge31" class="edge">
<title>NgsLayoutModule&#45;&gt;MainMenuComponent </title>
<path fill="none" stroke="#000000" stroke-dasharray="5,2" d="M2222.9914,-181C2352.5756,-181 2643.5717,-181 2643.5717,-181 2643.5717,-181 2643.5717,-205.7604 2643.5717,-205.7604"/>
<polygon fill="#000000" stroke="#000000" points="2640.0718,-205.7604 2643.5717,-215.7604 2647.0718,-205.7604 2640.0718,-205.7604"/>
</g>
<!-- SearchBoxComponent  -->
<g id="node32" class="node">
<title>SearchBoxComponent </title>
<polygon fill="#fb8072" stroke="#000000" points="2595.2562,-252 2448.7438,-252 2448.7438,-216 2595.2562,-216 2595.2562,-252"/>
<text text-anchor="middle" x="2522" y="-229.8" font-family="Times,serif" font-size="14.00" fill="#000000">SearchBoxComponent </text>
</g>
<!-- NgsLayoutModule&#45;&gt;SearchBoxComponent  -->
<g id="edge32" class="edge">
<title>NgsLayoutModule&#45;&gt;SearchBoxComponent </title>
<path fill="none" stroke="#000000" stroke-dasharray="5,2" d="M2222.8554,-183C2321.3053,-183 2504.6012,-183 2504.6012,-183 2504.6012,-183 2504.6012,-205.8757 2504.6012,-205.8757"/>
<polygon fill="#000000" stroke="#000000" points="2501.1012,-205.8757 2504.6012,-215.8757 2508.1012,-205.8757 2501.1012,-205.8757"/>
</g>
<!-- LogoContainerComponent  -->
<g id="node33" class="node">
<title>LogoContainerComponent </title>
<polygon fill="#fb8072" stroke="#000000" points="2430.5931,-252 2261.4069,-252 2261.4069,-216 2430.5931,-216 2430.5931,-252"/>
<text text-anchor="middle" x="2346" y="-229.8" font-family="Times,serif" font-size="14.00" fill="#000000">LogoContainerComponent </text>
</g>
<!-- NgsLayoutModule&#45;&gt;LogoContainerComponent  -->
<g id="edge33" class="edge">
<title>NgsLayoutModule&#45;&gt;LogoContainerComponent </title>
<path fill="none" stroke="#000000" stroke-dasharray="5,2" d="M2223.0667,-185C2248.1136,-185 2271.3456,-185 2271.3456,-185 2271.3456,-185 2271.3456,-205.7542 2271.3456,-205.7542"/>
<polygon fill="#000000" stroke="#000000" points="2267.8456,-205.7542 2271.3456,-215.7542 2274.8456,-205.7542 2267.8456,-205.7542"/>
</g>
<!-- ToolbarMenuComponent  -->
<g id="node34" class="node">
<title>ToolbarMenuComponent </title>
<polygon fill="#fb8072" stroke="#000000" points="2242.8101,-252 2081.1899,-252 2081.1899,-216 2242.8101,-216 2242.8101,-252"/>
<text text-anchor="middle" x="2162" y="-229.8" font-family="Times,serif" font-size="14.00" fill="#000000">ToolbarMenuComponent </text>
</g>
<!-- NgsLayoutModule&#45;&gt;ToolbarMenuComponent  -->
<g id="edge34" class="edge">
<title>NgsLayoutModule&#45;&gt;ToolbarMenuComponent </title>
<path fill="none" stroke="#000000" stroke-dasharray="5,2" d="M2162,-187.1061C2162,-187.1061 2162,-205.991 2162,-205.991"/>
<polygon fill="#000000" stroke="#000000" points="2158.5001,-205.9909 2162,-215.991 2165.5001,-205.991 2158.5001,-205.9909"/>
</g>
<!-- FooterComponent  -->
<g id="node35" class="node">
<title>FooterComponent </title>
<polygon fill="#fb8072" stroke="#000000" points="2062.8814,-252 1941.1186,-252 1941.1186,-216 2062.8814,-216 2062.8814,-252"/>
<text text-anchor="middle" x="2002" y="-229.8" font-family="Times,serif" font-size="14.00" fill="#000000">FooterComponent </text>
</g>
<!-- NgsLayoutModule&#45;&gt;FooterComponent  -->
<g id="edge35" class="edge">
<title>NgsLayoutModule&#45;&gt;FooterComponent </title>
<path fill="none" stroke="#000000" stroke-dasharray="5,2" d="M2101.0272,-185C2074.4705,-185 2049.2909,-185 2049.2909,-185 2049.2909,-185 2049.2909,-205.7542 2049.2909,-205.7542"/>
<polygon fill="#000000" stroke="#000000" points="2045.7909,-205.7542 2049.2909,-215.7542 2052.7909,-205.7542 2045.7909,-205.7542"/>
</g>
<!-- TitleComponent  -->
<g id="node36" class="node">
<title>TitleComponent </title>
<polygon fill="#fb8072" stroke="#000000" points="1923.7717,-252 1812.2283,-252 1812.2283,-216 1923.7717,-216 1923.7717,-252"/>
<text text-anchor="middle" x="1868" y="-229.8" font-family="Times,serif" font-size="14.00" fill="#000000">TitleComponent </text>
</g>
<!-- NgsLayoutModule&#45;&gt;TitleComponent  -->
<g id="edge36" class="edge">
<title>NgsLayoutModule&#45;&gt;TitleComponent </title>
<path fill="none" stroke="#000000" stroke-dasharray="5,2" d="M2101.1885,-183C2028.3379,-183 1915.99,-183 1915.99,-183 1915.99,-183 1915.99,-205.8757 1915.99,-205.8757"/>
<polygon fill="#000000" stroke="#000000" points="1912.4901,-205.8757 1915.99,-215.8757 1919.4901,-205.8757 1912.4901,-205.8757"/>
</g>
<!-- MainComponent  -->
<g id="node37" class="node">
<title>MainComponent </title>
<polygon fill="#fb8072" stroke="#000000" points="1794.3828,-252 1679.6172,-252 1679.6172,-216 1794.3828,-216 1794.3828,-252"/>
<text text-anchor="middle" x="1737" y="-229.8" font-family="Times,serif" font-size="14.00" fill="#000000">MainComponent </text>
</g>
<!-- NgsLayoutModule&#45;&gt;MainComponent  -->
<g id="edge37" class="edge">
<title>NgsLayoutModule&#45;&gt;MainComponent </title>
<path fill="none" stroke="#000000" stroke-dasharray="5,2" d="M2100.9426,-181C1991.6665,-181 1773.9648,-181 1773.9648,-181 1773.9648,-181 1773.9648,-205.7604 1773.9648,-205.7604"/>
<polygon fill="#000000" stroke="#000000" points="1770.4648,-205.7604 1773.9648,-215.7604 1777.4648,-205.7604 1770.4648,-205.7604"/>
</g>
<!-- CommonModule -->
<g id="node9" class="node">
<title>CommonModule</title>
<polygon fill="#8dd3c7" stroke="#000000" points="3042.6681,-122 3039.6681,-126 3018.6681,-126 3015.6681,-122 2931.3319,-122 2931.3319,-86 3042.6681,-86 3042.6681,-122"/>
<text text-anchor="middle" x="2987" y="-99.8" font-family="Times,serif" font-size="14.00" fill="#000000">CommonModule</text>
</g>
<!-- CommonModule&#45;&gt;NgsLayoutModule -->
<g id="edge8" class="edge">
<title>CommonModule&#45;&gt;NgsLayoutModule</title>
<path fill="none" stroke="#000000" d="M2987,-122.302C2987,-140.2699 2987,-165 2987,-165 2987,-165 2232.9993,-165 2232.9993,-165"/>
<polygon fill="#000000" stroke="#000000" points="2232.9993,-161.5001 2222.9993,-165 2232.9992,-168.5001 2232.9993,-161.5001"/>
</g>
<!-- BrowserModule -->
<g id="node10" class="node">
<title>BrowserModule</title>
<polygon fill="#8dd3c7" stroke="#000000" points="2913.4734,-122 2910.4734,-126 2889.4734,-126 2886.4734,-122 2806.5266,-122 2806.5266,-86 2913.4734,-86 2913.4734,-122"/>
<text text-anchor="middle" x="2860" y="-99.8" font-family="Times,serif" font-size="14.00" fill="#000000">BrowserModule</text>
</g>
<!-- BrowserModule&#45;&gt;NgsLayoutModule -->
<g id="edge9" class="edge">
<title>BrowserModule&#45;&gt;NgsLayoutModule</title>
<path fill="none" stroke="#000000" d="M2860,-122.0225C2860,-139.3734 2860,-163 2860,-163 2860,-163 2233.0262,-163 2233.0262,-163"/>
<polygon fill="#000000" stroke="#000000" points="2233.0262,-159.5001 2223.0262,-163 2233.0261,-166.5001 2233.0262,-159.5001"/>
</g>
<!-- RouterModule -->
<g id="node11" class="node">
<title>RouterModule</title>
<polygon fill="#8dd3c7" stroke="#000000" points="2788.6528,-122 2785.6528,-126 2764.6528,-126 2761.6528,-122 2691.3472,-122 2691.3472,-86 2788.6528,-86 2788.6528,-122"/>
<text text-anchor="middle" x="2740" y="-99.8" font-family="Times,serif" font-size="14.00" fill="#000000">RouterModule</text>
</g>
<!-- RouterModule&#45;&gt;NgsLayoutModule -->
<g id="edge10" class="edge">
<title>RouterModule&#45;&gt;NgsLayoutModule</title>
<path fill="none" stroke="#000000" d="M2737.4051,-122.0352C2737.4051,-138.7344 2737.4051,-161 2737.4051,-161 2737.4051,-161 2232.762,-161 2232.762,-161"/>
<polygon fill="#000000" stroke="#000000" points="2232.7621,-157.5001 2222.762,-161 2232.762,-164.5001 2232.7621,-157.5001"/>
</g>
<!-- RouterModule&#45;&gt;NgsLayoutModule -->
<g id="edge29" class="edge">
<title>RouterModule&#45;&gt;NgsLayoutModule</title>
<path fill="none" stroke="#000000" d="M2714.2895,-122.0091C2714.2895,-138.0494 2714.2895,-159 2714.2895,-159 2714.2895,-159 2232.9494,-159 2232.9494,-159"/>
<polygon fill="#000000" stroke="#000000" points="2232.9495,-155.5001 2222.9494,-159 2232.9494,-162.5001 2232.9495,-155.5001"/>
</g>
<!-- FormsModule -->
<g id="node12" class="node">
<title>FormsModule</title>
<polygon fill="#8dd3c7" stroke="#000000" points="2673.8288,-122 2670.8288,-126 2649.8288,-126 2646.8288,-122 2578.1712,-122 2578.1712,-86 2673.8288,-86 2673.8288,-122"/>
<text text-anchor="middle" x="2626" y="-99.8" font-family="Times,serif" font-size="14.00" fill="#000000">FormsModule</text>
</g>
<!-- FormsModule&#45;&gt;NgsLayoutModule -->
<g id="edge11" class="edge">
<title>FormsModule&#45;&gt;NgsLayoutModule</title>
<path fill="none" stroke="#000000" d="M2586.732,-122.2396C2586.732,-137.5706 2586.732,-157 2586.732,-157 2586.732,-157 2232.8537,-157 2232.8537,-157"/>
<polygon fill="#000000" stroke="#000000" points="2232.8538,-153.5001 2222.8537,-157 2232.8537,-160.5001 2232.8538,-153.5001"/>
</g>
<!-- HttpClientModule -->
<g id="node13" class="node">
<title>HttpClientModule</title>
<polygon fill="#8dd3c7" stroke="#000000" points="2560.1611,-122 2557.1611,-126 2536.1611,-126 2533.1611,-122 2441.8389,-122 2441.8389,-86 2560.1611,-86 2560.1611,-122"/>
<text text-anchor="middle" x="2501" y="-99.8" font-family="Times,serif" font-size="14.00" fill="#000000">HttpClientModule</text>
</g>
<!-- HttpClientModule&#45;&gt;NgsLayoutModule -->
<g id="edge12" class="edge">
<title>HttpClientModule&#45;&gt;NgsLayoutModule</title>
<path fill="none" stroke="#000000" d="M2445.2709,-122.1243C2445.2709,-136.7832 2445.2709,-155 2445.2709,-155 2445.2709,-155 2232.7687,-155 2232.7687,-155"/>
<polygon fill="#000000" stroke="#000000" points="2232.7687,-151.5001 2222.7687,-155 2232.7687,-158.5001 2232.7687,-151.5001"/>
</g>
<!-- FlexLayoutModule -->
<g id="node14" class="node">
<title>FlexLayoutModule</title>
<polygon fill="#8dd3c7" stroke="#000000" points="2424.0954,-122 2421.0954,-126 2400.0954,-126 2397.0954,-122 2299.9046,-122 2299.9046,-86 2424.0954,-86 2424.0954,-122"/>
<text text-anchor="middle" x="2362" y="-99.8" font-family="Times,serif" font-size="14.00" fill="#000000">FlexLayoutModule</text>
</g>
<!-- FlexLayoutModule&#45;&gt;NgsLayoutModule -->
<g id="edge13" class="edge">
<title>FlexLayoutModule&#45;&gt;NgsLayoutModule</title>
<path fill="none" stroke="#000000" d="M2362,-122.2458C2362,-136.1772 2362,-153 2362,-153 2362,-153 2232.8212,-153 2232.8212,-153"/>
<polygon fill="#000000" stroke="#000000" points="2232.8212,-149.5001 2222.8212,-153 2232.8211,-156.5001 2232.8212,-149.5001"/>
</g>
<!-- MatIconModule -->
<g id="node15" class="node">
<title>MatIconModule</title>
<polygon fill="#8dd3c7" stroke="#000000" points="2281.4748,-122 2278.4748,-126 2257.4748,-126 2254.4748,-122 2174.5252,-122 2174.5252,-86 2281.4748,-86 2281.4748,-122"/>
<text text-anchor="middle" x="2228" y="-99.8" font-family="Times,serif" font-size="14.00" fill="#000000">MatIconModule</text>
</g>
<!-- MatIconModule&#45;&gt;NgsLayoutModule -->
<g id="edge14" class="edge">
<title>MatIconModule&#45;&gt;NgsLayoutModule</title>
<path fill="none" stroke="#000000" d="M2198.696,-122.1061C2198.696,-122.1061 2198.696,-140.991 2198.696,-140.991"/>
<polygon fill="#000000" stroke="#000000" points="2195.1961,-140.9909 2198.696,-150.991 2202.1961,-140.991 2195.1961,-140.9909"/>
</g>
<!-- MatButtonModule -->
<g id="node16" class="node">
<title>MatButtonModule</title>
<polygon fill="#8dd3c7" stroke="#000000" points="2156.2176,-122 2153.2176,-126 2132.2176,-126 2129.2176,-122 2035.7824,-122 2035.7824,-86 2156.2176,-86 2156.2176,-122"/>
<text text-anchor="middle" x="2096" y="-99.8" font-family="Times,serif" font-size="14.00" fill="#000000">MatButtonModule</text>
</g>
<!-- MatButtonModule&#45;&gt;NgsLayoutModule -->
<g id="edge15" class="edge">
<title>MatButtonModule&#45;&gt;NgsLayoutModule</title>
<path fill="none" stroke="#000000" d="M2128.6147,-122.1061C2128.6147,-122.1061 2128.6147,-140.991 2128.6147,-140.991"/>
<polygon fill="#000000" stroke="#000000" points="2125.1147,-140.9909 2128.6147,-150.991 2132.1147,-140.991 2125.1147,-140.9909"/>
</g>
<!-- MatCardModule -->
<g id="node17" class="node">
<title>MatCardModule</title>
<polygon fill="#8dd3c7" stroke="#000000" points="2017.8118,-122 2014.8118,-126 1993.8118,-126 1990.8118,-122 1908.1882,-122 1908.1882,-86 2017.8118,-86 2017.8118,-122"/>
<text text-anchor="middle" x="1963" y="-99.8" font-family="Times,serif" font-size="14.00" fill="#000000">MatCardModule</text>
</g>
<!-- MatCardModule&#45;&gt;NgsLayoutModule -->
<g id="edge16" class="edge">
<title>MatCardModule&#45;&gt;NgsLayoutModule</title>
<path fill="none" stroke="#000000" d="M1979.4827,-122.2458C1979.4827,-136.1772 1979.4827,-153 1979.4827,-153 1979.4827,-153 2091.2244,-153 2091.2244,-153"/>
<polygon fill="#000000" stroke="#000000" points="2091.2244,-156.5001 2101.2244,-153 2091.2243,-149.5001 2091.2244,-156.5001"/>
</g>
<!-- MatSnackBarModule -->
<g id="node18" class="node">
<title>MatSnackBarModule</title>
<polygon fill="#8dd3c7" stroke="#000000" points="1890.024,-122 1887.024,-126 1866.024,-126 1863.024,-122 1753.976,-122 1753.976,-86 1890.024,-86 1890.024,-122"/>
<text text-anchor="middle" x="1822" y="-99.8" font-family="Times,serif" font-size="14.00" fill="#000000">MatSnackBarModule</text>
</g>
<!-- MatSnackBarModule&#45;&gt;NgsLayoutModule -->
<g id="edge17" class="edge">
<title>MatSnackBarModule&#45;&gt;NgsLayoutModule</title>
<path fill="none" stroke="#000000" d="M1851.313,-122.1243C1851.313,-136.7832 1851.313,-155 1851.313,-155 1851.313,-155 2090.9889,-155 2090.9889,-155"/>
<polygon fill="#000000" stroke="#000000" points="2090.989,-158.5001 2100.9889,-155 2090.9889,-151.5001 2090.989,-158.5001"/>
</g>
<!-- MatSidenavModule -->
<g id="node19" class="node">
<title>MatSidenavModule</title>
<polygon fill="#8dd3c7" stroke="#000000" points="1735.7022,-122 1732.7022,-126 1711.7022,-126 1708.7022,-122 1608.2978,-122 1608.2978,-86 1735.7022,-86 1735.7022,-122"/>
<text text-anchor="middle" x="1672" y="-99.8" font-family="Times,serif" font-size="14.00" fill="#000000">MatSidenavModule</text>
</g>
<!-- MatSidenavModule&#45;&gt;NgsLayoutModule -->
<g id="edge18" class="edge">
<title>MatSidenavModule&#45;&gt;NgsLayoutModule</title>
<path fill="none" stroke="#000000" d="M1707.705,-122.2396C1707.705,-137.5706 1707.705,-157 1707.705,-157 1707.705,-157 2091.2031,-157 2091.2031,-157"/>
<polygon fill="#000000" stroke="#000000" points="2091.2032,-160.5001 2101.2031,-157 2091.2031,-153.5001 2091.2032,-160.5001"/>
</g>
<!-- MatExpansionModule -->
<g id="node20" class="node">
<title>MatExpansionModule</title>
<polygon fill="#8dd3c7" stroke="#000000" points="1590.7021,-122 1587.7021,-126 1566.7021,-126 1563.7021,-122 1449.2979,-122 1449.2979,-86 1590.7021,-86 1590.7021,-122"/>
<text text-anchor="middle" x="1520" y="-99.8" font-family="Times,serif" font-size="14.00" fill="#000000">MatExpansionModule</text>
</g>
<!-- MatExpansionModule&#45;&gt;NgsLayoutModule -->
<g id="edge19" class="edge">
<title>MatExpansionModule&#45;&gt;NgsLayoutModule</title>
<path fill="none" stroke="#000000" d="M1520,-122.0091C1520,-138.0494 1520,-159 1520,-159 1520,-159 2091.0234,-159 2091.0234,-159"/>
<polygon fill="#000000" stroke="#000000" points="2091.0234,-162.5001 2101.0234,-159 2091.0234,-155.5001 2091.0234,-162.5001"/>
</g>
<!-- MatSelectModule -->
<g id="node21" class="node">
<title>MatSelectModule</title>
<polygon fill="#8dd3c7" stroke="#000000" points="1431.3076,-122 1428.3076,-126 1407.3076,-126 1404.3076,-122 1314.6924,-122 1314.6924,-86 1431.3076,-86 1431.3076,-122"/>
<text text-anchor="middle" x="1373" y="-99.8" font-family="Times,serif" font-size="14.00" fill="#000000">MatSelectModule</text>
</g>
<!-- MatSelectModule&#45;&gt;NgsLayoutModule -->
<g id="edge20" class="edge">
<title>MatSelectModule&#45;&gt;NgsLayoutModule</title>
<path fill="none" stroke="#000000" d="M1373,-122.0352C1373,-138.7344 1373,-161 1373,-161 1373,-161 2091.0722,-161 2091.0722,-161"/>
<polygon fill="#000000" stroke="#000000" points="2091.0722,-164.5001 2101.0722,-161 2091.0721,-157.5001 2091.0722,-164.5001"/>
</g>
<!-- MatFormFieldModule -->
<g id="node22" class="node">
<title>MatFormFieldModule</title>
<polygon fill="#8dd3c7" stroke="#000000" points="1296.712,-122 1293.712,-126 1272.712,-126 1269.712,-122 1155.288,-122 1155.288,-86 1296.712,-86 1296.712,-122"/>
<text text-anchor="middle" x="1226" y="-99.8" font-family="Times,serif" font-size="14.00" fill="#000000">MatFormFieldModule</text>
</g>
<!-- MatFormFieldModule&#45;&gt;NgsLayoutModule -->
<g id="edge21" class="edge">
<title>MatFormFieldModule&#45;&gt;NgsLayoutModule</title>
<path fill="none" stroke="#000000" d="M1226,-122.0225C1226,-139.3734 1226,-163 1226,-163 1226,-163 2090.9475,-163 2090.9475,-163"/>
<polygon fill="#000000" stroke="#000000" points="2090.9475,-166.5001 2100.9475,-163 2090.9474,-159.5001 2090.9475,-166.5001"/>
</g>
<!-- MatListModule -->
<g id="node23" class="node">
<title>MatListModule</title>
<polygon fill="#8dd3c7" stroke="#000000" points="1136.8781,-122 1133.8781,-126 1112.8781,-126 1109.8781,-122 1033.1219,-122 1033.1219,-86 1136.8781,-86 1136.8781,-122"/>
<text text-anchor="middle" x="1085" y="-99.8" font-family="Times,serif" font-size="14.00" fill="#000000">MatListModule</text>
</g>
<!-- MatListModule&#45;&gt;NgsLayoutModule -->
<g id="edge22" class="edge">
<title>MatListModule&#45;&gt;NgsLayoutModule</title>
<path fill="none" stroke="#000000" d="M1085,-122.302C1085,-140.2699 1085,-165 1085,-165 1085,-165 2091.01,-165 2091.01,-165"/>
<polygon fill="#000000" stroke="#000000" points="2091.01,-168.5001 2101.01,-165 2091.01,-161.5001 2091.01,-168.5001"/>
</g>
<!-- MatMenuModule -->
<g id="node24" class="node">
<title>MatMenuModule</title>
<polygon fill="#8dd3c7" stroke="#000000" points="1015.2591,-122 1012.2591,-126 991.2591,-126 988.2591,-122 900.7409,-122 900.7409,-86 1015.2591,-86 1015.2591,-122"/>
<text text-anchor="middle" x="958" y="-99.8" font-family="Times,serif" font-size="14.00" fill="#000000">MatMenuModule</text>
</g>
<!-- MatMenuModule&#45;&gt;NgsLayoutModule -->
<g id="edge23" class="edge">
<title>MatMenuModule&#45;&gt;NgsLayoutModule</title>
<path fill="none" stroke="#000000" d="M958,-122.2222C958,-140.8285 958,-167 958,-167 958,-167 2091.0539,-167 2091.0539,-167"/>
<polygon fill="#000000" stroke="#000000" points="2091.0539,-170.5001 2101.0539,-167 2091.0539,-163.5001 2091.0539,-170.5001"/>
</g>
<!-- MatRadioModule -->
<g id="node25" class="node">
<title>MatRadioModule</title>
<polygon fill="#8dd3c7" stroke="#000000" points="882.5423,-122 879.5423,-126 858.5423,-126 855.5423,-122 767.4577,-122 767.4577,-86 882.5423,-86 882.5423,-122"/>
<text text-anchor="middle" x="825" y="-99.8" font-family="Times,serif" font-size="14.00" fill="#000000">MatRadioModule</text>
</g>
<!-- MatRadioModule&#45;&gt;NgsLayoutModule -->
<g id="edge24" class="edge">
<title>MatRadioModule&#45;&gt;NgsLayoutModule</title>
<path fill="none" stroke="#000000" d="M825,-122.1061C825,-141.3391 825,-169 825,-169 825,-169 2091.0777,-169 2091.0777,-169"/>
<polygon fill="#000000" stroke="#000000" points="2091.0777,-172.5001 2101.0777,-169 2091.0776,-165.5001 2091.0777,-172.5001"/>
</g>
<!-- MatInputModule -->
<g id="node26" class="node">
<title>MatInputModule</title>
<polygon fill="#8dd3c7" stroke="#000000" points="748.6513,-122 745.6513,-126 724.6513,-126 721.6513,-122 637.3487,-122 637.3487,-86 748.6513,-86 748.6513,-122"/>
<text text-anchor="middle" x="693" y="-99.8" font-family="Times,serif" font-size="14.00" fill="#000000">MatInputModule</text>
</g>
<!-- MatInputModule&#45;&gt;NgsLayoutModule -->
<g id="edge25" class="edge">
<title>MatInputModule&#45;&gt;NgsLayoutModule</title>
<path fill="none" stroke="#000000" d="M693,-122.308C693,-142.1455 693,-171 693,-171 693,-171 2091.2128,-171 2091.2128,-171"/>
<polygon fill="#000000" stroke="#000000" points="2091.2128,-174.5001 2101.2128,-171 2091.2127,-167.5001 2091.2128,-174.5001"/>
</g>
<!-- MatToolbarModule -->
<g id="node27" class="node">
<title>MatToolbarModule</title>
<polygon fill="#8dd3c7" stroke="#000000" points="619.4187,-122 616.4187,-126 595.4187,-126 592.4187,-122 492.5813,-122 492.5813,-86 619.4187,-86 619.4187,-122"/>
<text text-anchor="middle" x="556" y="-99.8" font-family="Times,serif" font-size="14.00" fill="#000000">MatToolbarModule</text>
</g>
<!-- MatToolbarModule&#45;&gt;NgsLayoutModule -->
<g id="edge26" class="edge">
<title>MatToolbarModule&#45;&gt;NgsLayoutModule</title>
<path fill="none" stroke="#000000" d="M556,-122.1289C556,-142.5724 556,-173 556,-173 556,-173 2091.004,-173 2091.004,-173"/>
<polygon fill="#000000" stroke="#000000" points="2091.004,-176.5001 2101.004,-173 2091.004,-169.5001 2091.004,-176.5001"/>
</g>
<!-- MatDatepickerModule -->
<g id="node28" class="node">
<title>MatDatepickerModule</title>
<polygon fill="#8dd3c7" stroke="#000000" points="474.5072,-122 471.5072,-126 450.5072,-126 447.5072,-122 331.4928,-122 331.4928,-86 474.5072,-86 474.5072,-122"/>
<text text-anchor="middle" x="403" y="-99.8" font-family="Times,serif" font-size="14.00" fill="#000000">MatDatepickerModule</text>
</g>
<!-- MatDatepickerModule&#45;&gt;NgsLayoutModule -->
<g id="edge27" class="edge">
<title>MatDatepickerModule&#45;&gt;NgsLayoutModule</title>
<path fill="none" stroke="#000000" d="M403,-122.2843C403,-143.3211 403,-175 403,-175 403,-175 2091.1961,-175 2091.1961,-175"/>
<polygon fill="#000000" stroke="#000000" points="2091.1961,-178.5001 2101.1961,-175 2091.196,-171.5001 2091.1961,-178.5001"/>
</g>
<!-- MatProgressBarModule -->
<g id="node29" class="node">
<title>MatProgressBarModule</title>
<polygon fill="#8dd3c7" stroke="#000000" points="313.0198,-122 310.0198,-126 289.0198,-126 286.0198,-122 162.9802,-122 162.9802,-86 313.0198,-86 313.0198,-122"/>
<text text-anchor="middle" x="238" y="-99.8" font-family="Times,serif" font-size="14.00" fill="#000000">MatProgressBarModule</text>
</g>
<!-- MatProgressBarModule&#45;&gt;NgsLayoutModule -->
<g id="edge28" class="edge">
<title>MatProgressBarModule&#45;&gt;NgsLayoutModule</title>
<path fill="none" stroke="#000000" d="M238,-122.0449C238,-143.6623 238,-177 238,-177 238,-177 2091.2408,-177 2091.2408,-177"/>
<polygon fill="#000000" stroke="#000000" points="2091.2408,-180.5001 2101.2408,-177 2091.2407,-173.5001 2091.2408,-180.5001"/>
</g>
<!-- NgsConfigModule -->
<g id="node30" class="node">
<title>NgsConfigModule</title>
<polygon fill="#8dd3c7" stroke="#000000" points="144.4888,-122 141.4888,-126 120.4888,-126 117.4888,-122 23.5112,-122 23.5112,-86 144.4888,-86 144.4888,-122"/>
<text text-anchor="middle" x="84" y="-99.8" font-family="Times,serif" font-size="14.00" fill="#000000">NgsConfigModule</text>
</g>
<!-- NgsConfigModule&#45;&gt;NgsLayoutModule -->
<g id="edge30" class="edge">
<title>NgsConfigModule&#45;&gt;NgsLayoutModule</title>
<path fill="none" stroke="#000000" d="M84,-122.1554C84,-144.3519 84,-179 84,-179 84,-179 2091.2146,-179 2091.2146,-179"/>
<polygon fill="#000000" stroke="#000000" points="2091.2146,-182.5001 2101.2146,-179 2091.2146,-175.5001 2091.2146,-182.5001"/>
</g>
</g>
</svg>
