<?xml version="1.0" encoding="UTF-8" standalone="no"?>
<!DOCTYPE svg PUBLIC "-//W3C//DTD SVG 1.1//EN"
 "http://www.w3.org/Graphics/SVG/1.1/DTD/svg11.dtd">
<!-- Generated by graphviz version 2.40.1 (20161225.0304)
 -->
<!-- Title: dependencies Pages: 1 -->
<svg width="7179pt" height="211pt"
 viewBox="0.00 0.00 7179.00 211.00" xmlns="http://www.w3.org/2000/svg" xmlns:xlink="http://www.w3.org/1999/xlink">
<g id="graph0" class="graph" transform="scale(1 1) rotate(0) translate(4 207)">
<title>dependencies</title>
<polygon fill="#ffffff" stroke="transparent" points="-4,4 -4,-207 7175,-207 7175,4 -4,4"/>
<text text-anchor="start" x="3564.5091" y="-42.4" font-family="sans-serif" font-weight="bold" font-size="14.00" fill="#000000">Legend</text>
<polygon fill="#ffffb3" stroke="transparent" points="3351.5,-10 3351.5,-30 3371.5,-30 3371.5,-10 3351.5,-10"/>
<text text-anchor="start" x="3375.129" y="-15.4" font-family="sans-serif" font-size="14.00" fill="#000000"> &#160;Declarations</text>
<polygon fill="#8dd3c7" stroke="transparent" points="3464.5,-10 3464.5,-30 3484.5,-30 3484.5,-10 3464.5,-10"/>
<text text-anchor="start" x="3488.2251" y="-15.4" font-family="sans-serif" font-size="14.00" fill="#000000"> &#160;Module</text>
<polygon fill="#80b1d3" stroke="transparent" points="3550.5,-10 3550.5,-30 3570.5,-30 3570.5,-10 3550.5,-10"/>
<text text-anchor="start" x="3574.2812" y="-15.4" font-family="sans-serif" font-size="14.00" fill="#000000"> &#160;Bootstrap</text>
<polygon fill="#fdb462" stroke="transparent" points="3647.5,-10 3647.5,-30 3667.5,-30 3667.5,-10 3647.5,-10"/>
<text text-anchor="start" x="3671.1732" y="-15.4" font-family="sans-serif" font-size="14.00" fill="#000000"> &#160;Providers</text>
<polygon fill="#fb8072" stroke="transparent" points="3743.5,-10 3743.5,-30 3763.5,-30 3763.5,-10 3743.5,-10"/>
<text text-anchor="start" x="3767.2258" y="-15.4" font-family="sans-serif" font-size="14.00" fill="#000000"> &#160;Exports</text>
<g id="clust1" class="cluster">
<title>cluster_NgsDiagramModule</title>
<polygon fill="none" stroke="#000000" stroke-dasharray="1,5" points="8,-70 8,-195 7163,-195 7163,-70 8,-70"/>
</g>
<g id="clust2" class="cluster">
<title>cluster_NgsDiagramModule_declarations</title>
<polygon fill="none" stroke="#000000" points="3158,-78 3158,-130 7155,-130 7155,-78 3158,-78"/>
</g>
<g id="clust21" class="cluster">
<title>cluster_NgsDiagramModule_imports</title>
<polygon fill="none" stroke="#000000" points="16,-78 16,-130 3150,-130 3150,-78 16,-78"/>
</g>
<!-- AddDiagramComponent -->
<g id="node1" class="node">
<title>AddDiagramComponent</title>
<polygon fill="#ffffb3" stroke="#000000" points="7147.4172,-122 6992.5828,-122 6992.5828,-86 7147.4172,-86 7147.4172,-122"/>
<text text-anchor="middle" x="7070" y="-99.8" font-family="Times,serif" font-size="14.00" fill="#000000">AddDiagramComponent</text>
</g>
<!-- NgsDiagramModule -->
<g id="node19" class="node">
<title>NgsDiagramModule</title>
<polygon fill="#8dd3c7" stroke="#000000" points="2966.5786,-187 2963.5786,-191 2942.5786,-191 2939.5786,-187 2835.4214,-187 2835.4214,-151 2966.5786,-151 2966.5786,-187"/>
<text text-anchor="middle" x="2901" y="-164.8" font-family="Times,serif" font-size="14.00" fill="#000000">NgsDiagramModule</text>
</g>
<!-- AddDiagramComponent&#45;&gt;NgsDiagramModule -->
<g id="edge1" class="edge">
<title>AddDiagramComponent&#45;&gt;NgsDiagramModule</title>
<path fill="none" stroke="#000000" d="M7070,-122.1985C7070,-146.3563 7070,-186 7070,-186 7070,-186 2976.9053,-186 2976.9053,-186"/>
<polygon fill="#000000" stroke="#000000" points="2976.9053,-182.5001 2966.9053,-186 2976.9052,-189.5001 2976.9053,-182.5001"/>
</g>
<!-- DiagramsComponent -->
<g id="node2" class="node">
<title>DiagramsComponent</title>
<polygon fill="#ffffb3" stroke="#000000" points="6974.7548,-122 6839.2452,-122 6839.2452,-86 6974.7548,-86 6974.7548,-122"/>
<text text-anchor="middle" x="6907" y="-99.8" font-family="Times,serif" font-size="14.00" fill="#000000">DiagramsComponent</text>
</g>
<!-- DiagramsComponent&#45;&gt;NgsDiagramModule -->
<g id="edge2" class="edge">
<title>DiagramsComponent&#45;&gt;NgsDiagramModule</title>
<path fill="none" stroke="#000000" d="M6907,-122.1532C6907,-145.7566 6907,-184 6907,-184 6907,-184 2976.777,-184 2976.777,-184"/>
<polygon fill="#000000" stroke="#000000" points="2976.777,-180.5001 2966.777,-184 2976.7769,-187.5001 2976.777,-180.5001"/>
</g>
<!-- diagramViewComponent -->
<g id="node3" class="node">
<title>diagramViewComponent</title>
<polygon fill="#ffffb3" stroke="#000000" points="6820.5225,-122 6663.4775,-122 6663.4775,-86 6820.5225,-86 6820.5225,-122"/>
<text text-anchor="middle" x="6742" y="-99.8" font-family="Times,serif" font-size="14.00" fill="#000000">diagramViewComponent</text>
</g>
<!-- diagramViewComponent&#45;&gt;NgsDiagramModule -->
<g id="edge3" class="edge">
<title>diagramViewComponent&#45;&gt;NgsDiagramModule</title>
<path fill="none" stroke="#000000" d="M6742,-122.0908C6742,-145.1328 6742,-182 6742,-182 6742,-182 2976.8596,-182 2976.8596,-182"/>
<polygon fill="#000000" stroke="#000000" points="2976.8596,-178.5001 2966.8596,-182 2976.8596,-185.5001 2976.8596,-178.5001"/>
</g>
<!-- EditDiagramComponent -->
<g id="node4" class="node">
<title>EditDiagramComponent</title>
<polygon fill="#ffffb3" stroke="#000000" points="6644.6442,-122 6491.3558,-122 6491.3558,-86 6644.6442,-86 6644.6442,-122"/>
<text text-anchor="middle" x="6568" y="-99.8" font-family="Times,serif" font-size="14.00" fill="#000000">EditDiagramComponent</text>
</g>
<!-- EditDiagramComponent&#45;&gt;NgsDiagramModule -->
<g id="edge4" class="edge">
<title>EditDiagramComponent&#45;&gt;NgsDiagramModule</title>
<path fill="none" stroke="#000000" d="M6568,-122.0109C6568,-144.4852 6568,-180 6568,-180 6568,-180 2976.5958,-180 2976.5958,-180"/>
<polygon fill="#000000" stroke="#000000" points="2976.5959,-176.5001 2966.5958,-180 2976.5958,-183.5001 2976.5959,-176.5001"/>
</g>
<!-- DynamicConfigComponentSelectorComponent -->
<g id="node5" class="node">
<title>DynamicConfigComponentSelectorComponent</title>
<polygon fill="#ffffb3" stroke="#000000" points="6473.2379,-122 6190.7621,-122 6190.7621,-86 6473.2379,-86 6473.2379,-122"/>
<text text-anchor="middle" x="6332" y="-99.8" font-family="Times,serif" font-size="14.00" fill="#000000">DynamicConfigComponentSelectorComponent</text>
</g>
<!-- DynamicConfigComponentSelectorComponent&#45;&gt;NgsDiagramModule -->
<g id="edge5" class="edge">
<title>DynamicConfigComponentSelectorComponent&#45;&gt;NgsDiagramModule</title>
<path fill="none" stroke="#000000" d="M6332,-122.2921C6332,-144.2057 6332,-178 6332,-178 6332,-178 2976.8541,-178 2976.8541,-178"/>
<polygon fill="#000000" stroke="#000000" points="2976.8541,-174.5001 2966.8541,-178 2976.854,-181.5001 2976.8541,-174.5001"/>
</g>
<!-- DiagramComponent -->
<g id="node6" class="node">
<title>DiagramComponent</title>
<polygon fill="#ffffb3" stroke="#000000" points="6172.3104,-122 6041.6896,-122 6041.6896,-86 6172.3104,-86 6172.3104,-122"/>
<text text-anchor="middle" x="6107" y="-99.8" font-family="Times,serif" font-size="14.00" fill="#000000">DiagramComponent</text>
</g>
<!-- DiagramComponent&#45;&gt;NgsDiagramModule -->
<g id="edge6" class="edge">
<title>DiagramComponent&#45;&gt;NgsDiagramModule</title>
<path fill="none" stroke="#000000" d="M6107,-122.0449C6107,-143.6623 6107,-177 6107,-177 6107,-177 2976.8594,-177 2976.8594,-177"/>
<polygon fill="#000000" stroke="#000000" points="2976.8595,-173.5001 2966.8594,-177 2976.8594,-180.5001 2976.8595,-173.5001"/>
</g>
<!-- DynamicComponentSelectorComponent -->
<g id="node7" class="node">
<title>DynamicComponentSelectorComponent</title>
<polygon fill="#ffffb3" stroke="#000000" points="6023.85,-122 5780.15,-122 5780.15,-86 6023.85,-86 6023.85,-122"/>
<text text-anchor="middle" x="5902" y="-99.8" font-family="Times,serif" font-size="14.00" fill="#000000">DynamicComponentSelectorComponent</text>
</g>
<!-- DynamicComponentSelectorComponent&#45;&gt;NgsDiagramModule -->
<g id="edge7" class="edge">
<title>DynamicComponentSelectorComponent&#45;&gt;NgsDiagramModule</title>
<path fill="none" stroke="#000000" d="M5902,-122.2843C5902,-143.3211 5902,-175 5902,-175 5902,-175 2976.8239,-175 2976.8239,-175"/>
<polygon fill="#000000" stroke="#000000" points="2976.824,-171.5001 2966.8239,-175 2976.8239,-178.5001 2976.824,-171.5001"/>
</g>
<!-- DiagramModuleContainerComponent -->
<g id="node8" class="node">
<title>DiagramModuleContainerComponent</title>
<polygon fill="#ffffb3" stroke="#000000" points="5762.5674,-122 5533.4326,-122 5533.4326,-86 5762.5674,-86 5762.5674,-122"/>
<text text-anchor="middle" x="5648" y="-99.8" font-family="Times,serif" font-size="14.00" fill="#000000">DiagramModuleContainerComponent</text>
</g>
<!-- DiagramModuleContainerComponent&#45;&gt;NgsDiagramModule -->
<g id="edge8" class="edge">
<title>DiagramModuleContainerComponent&#45;&gt;NgsDiagramModule</title>
<path fill="none" stroke="#000000" d="M5648,-122.1289C5648,-142.5724 5648,-173 5648,-173 5648,-173 2976.8669,-173 2976.8669,-173"/>
<polygon fill="#000000" stroke="#000000" points="2976.8669,-169.5001 2966.8669,-173 2976.8668,-176.5001 2976.8669,-169.5001"/>
</g>
<!-- DataMapperComponent -->
<g id="node9" class="node">
<title>DataMapperComponent</title>
<polygon fill="#ffffb3" stroke="#000000" points="5515.7935,-122 5364.2065,-122 5364.2065,-86 5515.7935,-86 5515.7935,-122"/>
<text text-anchor="middle" x="5440" y="-99.8" font-family="Times,serif" font-size="14.00" fill="#000000">DataMapperComponent</text>
</g>
<!-- DataMapperComponent&#45;&gt;NgsDiagramModule -->
<g id="edge9" class="edge">
<title>DataMapperComponent&#45;&gt;NgsDiagramModule</title>
<path fill="none" stroke="#000000" d="M5440,-122.308C5440,-142.1455 5440,-171 5440,-171 5440,-171 2976.6359,-171 2976.6359,-171"/>
<polygon fill="#000000" stroke="#000000" points="2976.6359,-167.5001 2966.6359,-171 2976.6358,-174.5001 2976.6359,-167.5001"/>
</g>
<!-- NumericDiagramComponent -->
<g id="node10" class="node">
<title>NumericDiagramComponent</title>
<polygon fill="#ffffb3" stroke="#000000" points="5346.7878,-122 5167.2122,-122 5167.2122,-86 5346.7878,-86 5346.7878,-122"/>
<text text-anchor="middle" x="5257" y="-99.8" font-family="Times,serif" font-size="14.00" fill="#000000">NumericDiagramComponent</text>
</g>
<!-- NumericDiagramComponent&#45;&gt;NgsDiagramModule -->
<g id="edge10" class="edge">
<title>NumericDiagramComponent&#45;&gt;NgsDiagramModule</title>
<path fill="none" stroke="#000000" d="M5257,-122.1061C5257,-141.3391 5257,-169 5257,-169 5257,-169 2976.7818,-169 2976.7818,-169"/>
<polygon fill="#000000" stroke="#000000" points="2976.7818,-165.5001 2966.7818,-169 2976.7817,-172.5001 2976.7818,-165.5001"/>
</g>
<!-- ServerStatusDiagramComponent -->
<g id="node11" class="node">
<title>ServerStatusDiagramComponent</title>
<polygon fill="#ffffb3" stroke="#000000" points="5149.566,-122 4948.434,-122 4948.434,-86 5149.566,-86 5149.566,-122"/>
<text text-anchor="middle" x="5049" y="-99.8" font-family="Times,serif" font-size="14.00" fill="#000000">ServerStatusDiagramComponent</text>
</g>
<!-- ServerStatusDiagramComponent&#45;&gt;NgsDiagramModule -->
<g id="edge11" class="edge">
<title>ServerStatusDiagramComponent&#45;&gt;NgsDiagramModule</title>
<path fill="none" stroke="#000000" d="M5049,-122.1686C5049,-141.0898 5049,-168 5049,-168 5049,-168 2976.753,-168 2976.753,-168"/>
<polygon fill="#000000" stroke="#000000" points="2976.753,-164.5001 2966.753,-168 2976.7529,-171.5001 2976.753,-164.5001"/>
</g>
<!-- DiagramPartialConfigEditComponent -->
<g id="node12" class="node">
<title>DiagramPartialConfigEditComponent</title>
<polygon fill="#ffffb3" stroke="#000000" points="4930.5758,-122 4701.4242,-122 4701.4242,-86 4930.5758,-86 4930.5758,-122"/>
<text text-anchor="middle" x="4816" y="-99.8" font-family="Times,serif" font-size="14.00" fill="#000000">DiagramPartialConfigEditComponent</text>
</g>
<!-- DiagramPartialConfigEditComponent&#45;&gt;NgsDiagramModule -->
<g id="edge12" class="edge">
<title>DiagramPartialConfigEditComponent&#45;&gt;NgsDiagramModule</title>
<path fill="none" stroke="#000000" d="M4816,-122.2667C4816,-140.5552 4816,-166 4816,-166 4816,-166 2976.6414,-166 2976.6414,-166"/>
<polygon fill="#000000" stroke="#000000" points="2976.6414,-162.5001 2966.6414,-166 2976.6413,-169.5001 2976.6414,-162.5001"/>
</g>
<!-- PieDiagramPartialConfigComponent -->
<g id="node13" class="node">
<title>PieDiagramPartialConfigComponent</title>
<polygon fill="#ffffb3" stroke="#000000" points="4683.6301,-122 4460.3699,-122 4460.3699,-86 4683.6301,-86 4683.6301,-122"/>
<text text-anchor="middle" x="4572" y="-99.8" font-family="Times,serif" font-size="14.00" fill="#000000">PieDiagramPartialConfigComponent</text>
</g>
<!-- PieDiagramPartialConfigComponent&#45;&gt;NgsDiagramModule -->
<g id="edge13" class="edge">
<title>PieDiagramPartialConfigComponent&#45;&gt;NgsDiagramModule</title>
<path fill="none" stroke="#000000" d="M4572,-122.002C4572,-139.6754 4572,-164 4572,-164 4572,-164 2976.7623,-164 2976.7623,-164"/>
<polygon fill="#000000" stroke="#000000" points="2976.7623,-160.5001 2966.7623,-164 2976.7623,-167.5001 2976.7623,-160.5001"/>
</g>
<!-- BooleanoWidgetPartialConfigComponent -->
<g id="node14" class="node">
<title>BooleanoWidgetPartialConfigComponent</title>
<polygon fill="#ffffb3" stroke="#000000" points="4441.6315,-122 4190.3685,-122 4190.3685,-86 4441.6315,-86 4441.6315,-122"/>
<text text-anchor="middle" x="4316" y="-99.8" font-family="Times,serif" font-size="14.00" fill="#000000">BooleanoWidgetPartialConfigComponent</text>
</g>
<!-- BooleanoWidgetPartialConfigComponent&#45;&gt;NgsDiagramModule -->
<g id="edge14" class="edge">
<title>BooleanoWidgetPartialConfigComponent&#45;&gt;NgsDiagramModule</title>
<path fill="none" stroke="#000000" d="M4316,-122.0336C4316,-139.0597 4316,-162 4316,-162 4316,-162 2976.8798,-162 2976.8798,-162"/>
<polygon fill="#000000" stroke="#000000" points="2976.8798,-158.5001 2966.8798,-162 2976.8797,-165.5001 2976.8798,-158.5001"/>
</g>
<!-- NumericWidgetPartialConfigComponent -->
<g id="node15" class="node">
<title>NumericWidgetPartialConfigComponent</title>
<polygon fill="#ffffb3" stroke="#000000" points="4172.4524,-122 3925.5476,-122 3925.5476,-86 4172.4524,-86 4172.4524,-122"/>
<text text-anchor="middle" x="4049" y="-99.8" font-family="Times,serif" font-size="14.00" fill="#000000">NumericWidgetPartialConfigComponent</text>
</g>
<!-- NumericWidgetPartialConfigComponent&#45;&gt;NgsDiagramModule -->
<g id="edge15" class="edge">
<title>NumericWidgetPartialConfigComponent&#45;&gt;NgsDiagramModule</title>
<path fill="none" stroke="#000000" d="M4049,-122.027C4049,-138.3976 4049,-160 4049,-160 4049,-160 2976.8447,-160 2976.8447,-160"/>
<polygon fill="#000000" stroke="#000000" points="2976.8448,-156.5001 2966.8447,-160 2976.8447,-163.5001 2976.8448,-156.5001"/>
</g>
<!-- ServerConnectingTimeDiagramComponent -->
<g id="node16" class="node">
<title>ServerConnectingTimeDiagramComponent</title>
<polygon fill="#ffffb3" stroke="#000000" points="3907.4384,-122 3646.5616,-122 3646.5616,-86 3907.4384,-86 3907.4384,-122"/>
<text text-anchor="middle" x="3777" y="-99.8" font-family="Times,serif" font-size="14.00" fill="#000000">ServerConnectingTimeDiagramComponent</text>
</g>
<!-- ServerConnectingTimeDiagramComponent&#45;&gt;NgsDiagramModule -->
<g id="edge16" class="edge">
<title>ServerConnectingTimeDiagramComponent&#45;&gt;NgsDiagramModule</title>
<path fill="none" stroke="#000000" d="M3777,-122.0091C3777,-138.0494 3777,-159 3777,-159 3777,-159 2976.8424,-159 2976.8424,-159"/>
<polygon fill="#000000" stroke="#000000" points="2976.8424,-155.5001 2966.8424,-159 2976.8423,-162.5001 2976.8424,-155.5001"/>
</g>
<!-- NumericEditDiagramComponent -->
<g id="node17" class="node">
<title>NumericEditDiagramComponent</title>
<polygon fill="#ffffb3" stroke="#000000" points="3628.1218,-122 3425.8782,-122 3425.8782,-86 3628.1218,-86 3628.1218,-122"/>
<text text-anchor="middle" x="3527" y="-99.8" font-family="Times,serif" font-size="14.00" fill="#000000">NumericEditDiagramComponent</text>
</g>
<!-- NumericEditDiagramComponent&#45;&gt;NgsDiagramModule -->
<g id="edge17" class="edge">
<title>NumericEditDiagramComponent&#45;&gt;NgsDiagramModule</title>
<path fill="none" stroke="#000000" d="M3527,-122.2396C3527,-137.5706 3527,-157 3527,-157 3527,-157 2976.8098,-157 2976.8098,-157"/>
<polygon fill="#000000" stroke="#000000" points="2976.8098,-153.5001 2966.8098,-157 2976.8098,-160.5001 2976.8098,-153.5001"/>
</g>
<!-- LinearDiagramPartialConfigComponent -->
<g id="node18" class="node">
<title>LinearDiagramPartialConfigComponent</title>
<polygon fill="#ffffb3" stroke="#000000" points="3408.2752,-122 3165.7248,-122 3165.7248,-86 3408.2752,-86 3408.2752,-122"/>
<text text-anchor="middle" x="3287" y="-99.8" font-family="Times,serif" font-size="14.00" fill="#000000">LinearDiagramPartialConfigComponent</text>
</g>
<!-- LinearDiagramPartialConfigComponent&#45;&gt;NgsDiagramModule -->
<g id="edge18" class="edge">
<title>LinearDiagramPartialConfigComponent&#45;&gt;NgsDiagramModule</title>
<path fill="none" stroke="#000000" d="M3287,-122.1243C3287,-136.7832 3287,-155 3287,-155 3287,-155 2976.9172,-155 2976.9172,-155"/>
<polygon fill="#000000" stroke="#000000" points="2976.9172,-151.5001 2966.9172,-155 2976.9171,-158.5001 2976.9172,-151.5001"/>
</g>
<!-- HttpClientModule -->
<g id="node20" class="node">
<title>HttpClientModule</title>
<polygon fill="#8dd3c7" stroke="#000000" points="3142.1611,-122 3139.1611,-126 3118.1611,-126 3115.1611,-122 3023.8389,-122 3023.8389,-86 3142.1611,-86 3142.1611,-122"/>
<text text-anchor="middle" x="3083" y="-99.8" font-family="Times,serif" font-size="14.00" fill="#000000">HttpClientModule</text>
</g>
<!-- HttpClientModule&#45;&gt;NgsDiagramModule -->
<g id="edge19" class="edge">
<title>HttpClientModule&#45;&gt;NgsDiagramModule</title>
<path fill="none" stroke="#000000" d="M3083,-122.2458C3083,-136.1772 3083,-153 3083,-153 3083,-153 2976.7062,-153 2976.7062,-153"/>
<polygon fill="#000000" stroke="#000000" points="2976.7062,-149.5001 2966.7062,-153 2976.7061,-156.5001 2976.7062,-149.5001"/>
</g>
<!-- FormsModule -->
<g id="node21" class="node">
<title>FormsModule</title>
<polygon fill="#8dd3c7" stroke="#000000" points="3005.8288,-122 3002.8288,-126 2981.8288,-126 2978.8288,-122 2910.1712,-122 2910.1712,-86 3005.8288,-86 3005.8288,-122"/>
<text text-anchor="middle" x="2958" y="-99.8" font-family="Times,serif" font-size="14.00" fill="#000000">FormsModule</text>
</g>
<!-- FormsModule&#45;&gt;NgsDiagramModule -->
<g id="edge20" class="edge">
<title>FormsModule&#45;&gt;NgsDiagramModule</title>
<path fill="none" stroke="#000000" d="M2938.4376,-122.1061C2938.4376,-122.1061 2938.4376,-140.991 2938.4376,-140.991"/>
<polygon fill="#000000" stroke="#000000" points="2934.9377,-140.9909 2938.4376,-150.991 2941.9377,-140.991 2934.9377,-140.9909"/>
</g>
<!-- RouterModule -->
<g id="node22" class="node">
<title>RouterModule</title>
<polygon fill="#8dd3c7" stroke="#000000" points="2892.6528,-122 2889.6528,-126 2868.6528,-126 2865.6528,-122 2795.3472,-122 2795.3472,-86 2892.6528,-86 2892.6528,-122"/>
<text text-anchor="middle" x="2844" y="-99.8" font-family="Times,serif" font-size="14.00" fill="#000000">RouterModule</text>
</g>
<!-- RouterModule&#45;&gt;NgsDiagramModule -->
<g id="edge21" class="edge">
<title>RouterModule&#45;&gt;NgsDiagramModule</title>
<path fill="none" stroke="#000000" d="M2864.1434,-122.1061C2864.1434,-122.1061 2864.1434,-140.991 2864.1434,-140.991"/>
<polygon fill="#000000" stroke="#000000" points="2860.6435,-140.9909 2864.1434,-150.991 2867.6435,-140.991 2860.6435,-140.9909"/>
</g>
<!-- CommonModule -->
<g id="node23" class="node">
<title>CommonModule</title>
<polygon fill="#8dd3c7" stroke="#000000" points="2776.6681,-122 2773.6681,-126 2752.6681,-126 2749.6681,-122 2665.3319,-122 2665.3319,-86 2776.6681,-86 2776.6681,-122"/>
<text text-anchor="middle" x="2721" y="-99.8" font-family="Times,serif" font-size="14.00" fill="#000000">CommonModule</text>
</g>
<!-- CommonModule&#45;&gt;NgsDiagramModule -->
<g id="edge22" class="edge">
<title>CommonModule&#45;&gt;NgsDiagramModule</title>
<path fill="none" stroke="#000000" d="M2721,-122.2458C2721,-136.1772 2721,-153 2721,-153 2721,-153 2825.2518,-153 2825.2518,-153"/>
<polygon fill="#000000" stroke="#000000" points="2825.2518,-156.5001 2835.2518,-153 2825.2518,-149.5001 2825.2518,-156.5001"/>
</g>
<!-- MatExpansionModule -->
<g id="node24" class="node">
<title>MatExpansionModule</title>
<polygon fill="#8dd3c7" stroke="#000000" points="2647.7021,-122 2644.7021,-126 2623.7021,-126 2620.7021,-122 2506.2979,-122 2506.2979,-86 2647.7021,-86 2647.7021,-122"/>
<text text-anchor="middle" x="2577" y="-99.8" font-family="Times,serif" font-size="14.00" fill="#000000">MatExpansionModule</text>
</g>
<!-- MatExpansionModule&#45;&gt;NgsDiagramModule -->
<g id="edge23" class="edge">
<title>MatExpansionModule&#45;&gt;NgsDiagramModule</title>
<path fill="none" stroke="#000000" d="M2577,-122.1243C2577,-136.7832 2577,-155 2577,-155 2577,-155 2825.4338,-155 2825.4338,-155"/>
<polygon fill="#000000" stroke="#000000" points="2825.4338,-158.5001 2835.4338,-155 2825.4337,-151.5001 2825.4338,-158.5001"/>
</g>
<!-- MatSnackBarModule -->
<g id="node25" class="node">
<title>MatSnackBarModule</title>
<polygon fill="#8dd3c7" stroke="#000000" points="2488.024,-122 2485.024,-126 2464.024,-126 2461.024,-122 2351.976,-122 2351.976,-86 2488.024,-86 2488.024,-122"/>
<text text-anchor="middle" x="2420" y="-99.8" font-family="Times,serif" font-size="14.00" fill="#000000">MatSnackBarModule</text>
</g>
<!-- MatSnackBarModule&#45;&gt;NgsDiagramModule -->
<g id="edge24" class="edge">
<title>MatSnackBarModule&#45;&gt;NgsDiagramModule</title>
<path fill="none" stroke="#000000" d="M2420,-122.2396C2420,-137.5706 2420,-157 2420,-157 2420,-157 2825.3788,-157 2825.3788,-157"/>
<polygon fill="#000000" stroke="#000000" points="2825.3788,-160.5001 2835.3788,-157 2825.3787,-153.5001 2825.3788,-160.5001"/>
</g>
<!-- MatIconModule -->
<g id="node26" class="node">
<title>MatIconModule</title>
<polygon fill="#8dd3c7" stroke="#000000" points="2333.4748,-122 2330.4748,-126 2309.4748,-126 2306.4748,-122 2226.5252,-122 2226.5252,-86 2333.4748,-86 2333.4748,-122"/>
<text text-anchor="middle" x="2280" y="-99.8" font-family="Times,serif" font-size="14.00" fill="#000000">MatIconModule</text>
</g>
<!-- MatIconModule&#45;&gt;NgsDiagramModule -->
<g id="edge25" class="edge">
<title>MatIconModule&#45;&gt;NgsDiagramModule</title>
<path fill="none" stroke="#000000" d="M2280,-122.0091C2280,-138.0494 2280,-159 2280,-159 2280,-159 2825.4232,-159 2825.4232,-159"/>
<polygon fill="#000000" stroke="#000000" points="2825.4232,-162.5001 2835.4232,-159 2825.4232,-155.5001 2825.4232,-162.5001"/>
</g>
<!-- MatButtonModule -->
<g id="node27" class="node">
<title>MatButtonModule</title>
<polygon fill="#8dd3c7" stroke="#000000" points="2208.2176,-122 2205.2176,-126 2184.2176,-126 2181.2176,-122 2087.7824,-122 2087.7824,-86 2208.2176,-86 2208.2176,-122"/>
<text text-anchor="middle" x="2148" y="-99.8" font-family="Times,serif" font-size="14.00" fill="#000000">MatButtonModule</text>
</g>
<!-- MatButtonModule&#45;&gt;NgsDiagramModule -->
<g id="edge26" class="edge">
<title>MatButtonModule&#45;&gt;NgsDiagramModule</title>
<path fill="none" stroke="#000000" d="M2148,-122.027C2148,-138.3976 2148,-160 2148,-160 2148,-160 2825.1652,-160 2825.1652,-160"/>
<polygon fill="#000000" stroke="#000000" points="2825.1652,-163.5001 2835.1652,-160 2825.1651,-156.5001 2825.1652,-163.5001"/>
</g>
<!-- MatCardModule -->
<g id="node28" class="node">
<title>MatCardModule</title>
<polygon fill="#8dd3c7" stroke="#000000" points="2069.8118,-122 2066.8118,-126 2045.8118,-126 2042.8118,-122 1960.1882,-122 1960.1882,-86 2069.8118,-86 2069.8118,-122"/>
<text text-anchor="middle" x="2015" y="-99.8" font-family="Times,serif" font-size="14.00" fill="#000000">MatCardModule</text>
</g>
<!-- MatCardModule&#45;&gt;NgsDiagramModule -->
<g id="edge27" class="edge">
<title>MatCardModule&#45;&gt;NgsDiagramModule</title>
<path fill="none" stroke="#000000" d="M2015,-122.0336C2015,-139.0597 2015,-162 2015,-162 2015,-162 2825.1298,-162 2825.1298,-162"/>
<polygon fill="#000000" stroke="#000000" points="2825.1299,-165.5001 2835.1298,-162 2825.1298,-158.5001 2825.1299,-165.5001"/>
</g>
<!-- MatSelectModule -->
<g id="node29" class="node">
<title>MatSelectModule</title>
<polygon fill="#8dd3c7" stroke="#000000" points="1942.3076,-122 1939.3076,-126 1918.3076,-126 1915.3076,-122 1825.6924,-122 1825.6924,-86 1942.3076,-86 1942.3076,-122"/>
<text text-anchor="middle" x="1884" y="-99.8" font-family="Times,serif" font-size="14.00" fill="#000000">MatSelectModule</text>
</g>
<!-- MatSelectModule&#45;&gt;NgsDiagramModule -->
<g id="edge28" class="edge">
<title>MatSelectModule&#45;&gt;NgsDiagramModule</title>
<path fill="none" stroke="#000000" d="M1884,-122.002C1884,-139.6754 1884,-164 1884,-164 1884,-164 2825.4457,-164 2825.4457,-164"/>
<polygon fill="#000000" stroke="#000000" points="2825.4457,-167.5001 2835.4457,-164 2825.4457,-160.5001 2825.4457,-167.5001"/>
</g>
<!-- MatSliderModule -->
<g id="node30" class="node">
<title>MatSliderModule</title>
<polygon fill="#8dd3c7" stroke="#000000" points="1807.5395,-122 1804.5395,-126 1783.5395,-126 1780.5395,-122 1692.4605,-122 1692.4605,-86 1807.5395,-86 1807.5395,-122"/>
<text text-anchor="middle" x="1750" y="-99.8" font-family="Times,serif" font-size="14.00" fill="#000000">MatSliderModule</text>
</g>
<!-- MatSliderModule&#45;&gt;NgsDiagramModule -->
<g id="edge29" class="edge">
<title>MatSliderModule&#45;&gt;NgsDiagramModule</title>
<path fill="none" stroke="#000000" d="M1750,-122.2667C1750,-140.5552 1750,-166 1750,-166 1750,-166 2825.4019,-166 2825.4019,-166"/>
<polygon fill="#000000" stroke="#000000" points="2825.4019,-169.5001 2835.4019,-166 2825.4019,-162.5001 2825.4019,-169.5001"/>
</g>
<!-- MatInputModule -->
<g id="node31" class="node">
<title>MatInputModule</title>
<polygon fill="#8dd3c7" stroke="#000000" points="1673.6513,-122 1670.6513,-126 1649.6513,-126 1646.6513,-122 1562.3487,-122 1562.3487,-86 1673.6513,-86 1673.6513,-122"/>
<text text-anchor="middle" x="1618" y="-99.8" font-family="Times,serif" font-size="14.00" fill="#000000">MatInputModule</text>
</g>
<!-- MatInputModule&#45;&gt;NgsDiagramModule -->
<g id="edge30" class="edge">
<title>MatInputModule&#45;&gt;NgsDiagramModule</title>
<path fill="none" stroke="#000000" d="M1618,-122.1686C1618,-141.0898 1618,-168 1618,-168 1618,-168 2825.1677,-168 2825.1677,-168"/>
<polygon fill="#000000" stroke="#000000" points="2825.1677,-171.5001 2835.1677,-168 2825.1676,-164.5001 2825.1677,-171.5001"/>
</g>
<!-- MatCheckboxModule -->
<g id="node32" class="node">
<title>MatCheckboxModule</title>
<polygon fill="#8dd3c7" stroke="#000000" points="1544.3655,-122 1541.3655,-126 1520.3655,-126 1517.3655,-122 1405.6345,-122 1405.6345,-86 1544.3655,-86 1544.3655,-122"/>
<text text-anchor="middle" x="1475" y="-99.8" font-family="Times,serif" font-size="14.00" fill="#000000">MatCheckboxModule</text>
</g>
<!-- MatCheckboxModule&#45;&gt;NgsDiagramModule -->
<g id="edge31" class="edge">
<title>MatCheckboxModule&#45;&gt;NgsDiagramModule</title>
<path fill="none" stroke="#000000" d="M1475,-122.1061C1475,-141.3391 1475,-169 1475,-169 1475,-169 2825.081,-169 2825.081,-169"/>
<polygon fill="#000000" stroke="#000000" points="2825.081,-172.5001 2835.081,-169 2825.081,-165.5001 2825.081,-172.5001"/>
</g>
<!-- MatFormFieldModule -->
<g id="node33" class="node">
<title>MatFormFieldModule</title>
<polygon fill="#8dd3c7" stroke="#000000" points="1387.712,-122 1384.712,-126 1363.712,-126 1360.712,-122 1246.288,-122 1246.288,-86 1387.712,-86 1387.712,-122"/>
<text text-anchor="middle" x="1317" y="-99.8" font-family="Times,serif" font-size="14.00" fill="#000000">MatFormFieldModule</text>
</g>
<!-- MatFormFieldModule&#45;&gt;NgsDiagramModule -->
<g id="edge32" class="edge">
<title>MatFormFieldModule&#45;&gt;NgsDiagramModule</title>
<path fill="none" stroke="#000000" d="M1317,-122.308C1317,-142.1455 1317,-171 1317,-171 1317,-171 2825.4541,-171 2825.4541,-171"/>
<polygon fill="#000000" stroke="#000000" points="2825.4541,-174.5001 2835.4541,-171 2825.454,-167.5001 2825.4541,-174.5001"/>
</g>
<!-- MatTabsModule -->
<g id="node34" class="node">
<title>MatTabsModule</title>
<polygon fill="#8dd3c7" stroke="#000000" points="1228.8118,-122 1225.8118,-126 1204.8118,-126 1201.8118,-122 1119.1882,-122 1119.1882,-86 1228.8118,-86 1228.8118,-122"/>
<text text-anchor="middle" x="1174" y="-99.8" font-family="Times,serif" font-size="14.00" fill="#000000">MatTabsModule</text>
</g>
<!-- MatTabsModule&#45;&gt;NgsDiagramModule -->
<g id="edge33" class="edge">
<title>MatTabsModule&#45;&gt;NgsDiagramModule</title>
<path fill="none" stroke="#000000" d="M1174,-122.1289C1174,-142.5724 1174,-173 1174,-173 1174,-173 2825.4084,-173 2825.4084,-173"/>
<polygon fill="#000000" stroke="#000000" points="2825.4084,-176.5001 2835.4084,-173 2825.4084,-169.5001 2825.4084,-176.5001"/>
</g>
<!-- FlexLayoutModule -->
<g id="node35" class="node">
<title>FlexLayoutModule</title>
<polygon fill="#8dd3c7" stroke="#000000" points="1101.0954,-122 1098.0954,-126 1077.0954,-126 1074.0954,-122 976.9046,-122 976.9046,-86 1101.0954,-86 1101.0954,-122"/>
<text text-anchor="middle" x="1039" y="-99.8" font-family="Times,serif" font-size="14.00" fill="#000000">FlexLayoutModule</text>
</g>
<!-- FlexLayoutModule&#45;&gt;NgsDiagramModule -->
<g id="edge34" class="edge">
<title>FlexLayoutModule&#45;&gt;NgsDiagramModule</title>
<path fill="none" stroke="#000000" d="M1039,-122.2843C1039,-143.3211 1039,-175 1039,-175 1039,-175 2825.2774,-175 2825.2774,-175"/>
<polygon fill="#000000" stroke="#000000" points="2825.2774,-178.5001 2835.2774,-175 2825.2773,-171.5001 2825.2774,-178.5001"/>
</g>
<!-- MatRadioModule -->
<g id="node36" class="node">
<title>MatRadioModule</title>
<polygon fill="#8dd3c7" stroke="#000000" points="958.5423,-122 955.5423,-126 934.5423,-126 931.5423,-122 843.4577,-122 843.4577,-86 958.5423,-86 958.5423,-122"/>
<text text-anchor="middle" x="901" y="-99.8" font-family="Times,serif" font-size="14.00" fill="#000000">MatRadioModule</text>
</g>
<!-- MatRadioModule&#45;&gt;NgsDiagramModule -->
<g id="edge35" class="edge">
<title>MatRadioModule&#45;&gt;NgsDiagramModule</title>
<path fill="none" stroke="#000000" d="M901,-122.0449C901,-143.6623 901,-177 901,-177 901,-177 2825.3101,-177 2825.3101,-177"/>
<polygon fill="#000000" stroke="#000000" points="2825.3101,-180.5001 2835.3101,-177 2825.31,-173.5001 2825.3101,-180.5001"/>
</g>
<!-- MatTooltipModule -->
<g id="node37" class="node">
<title>MatTooltipModule</title>
<polygon fill="#8dd3c7" stroke="#000000" points="825.8244,-122 822.8244,-126 801.8244,-126 798.8244,-122 702.1756,-122 702.1756,-86 825.8244,-86 825.8244,-122"/>
<text text-anchor="middle" x="764" y="-99.8" font-family="Times,serif" font-size="14.00" fill="#000000">MatTooltipModule</text>
</g>
<!-- MatTooltipModule&#45;&gt;NgsDiagramModule -->
<g id="edge36" class="edge">
<title>MatTooltipModule&#45;&gt;NgsDiagramModule</title>
<path fill="none" stroke="#000000" d="M764,-122.2921C764,-144.2057 764,-178 764,-178 764,-178 2825.2899,-178 2825.2899,-178"/>
<polygon fill="#000000" stroke="#000000" points="2825.29,-181.5001 2835.2899,-178 2825.2899,-174.5001 2825.29,-181.5001"/>
</g>
<!-- MatGridListModule -->
<g id="node38" class="node">
<title>MatGridListModule</title>
<polygon fill="#8dd3c7" stroke="#000000" points="684.5366,-122 681.5366,-126 660.5366,-126 657.5366,-122 555.4634,-122 555.4634,-86 684.5366,-86 684.5366,-122"/>
<text text-anchor="middle" x="620" y="-99.8" font-family="Times,serif" font-size="14.00" fill="#000000">MatGridListModule</text>
</g>
<!-- MatGridListModule&#45;&gt;NgsDiagramModule -->
<g id="edge37" class="edge">
<title>MatGridListModule&#45;&gt;NgsDiagramModule</title>
<path fill="none" stroke="#000000" d="M620,-122.0109C620,-144.4852 620,-180 620,-180 620,-180 2825.1941,-180 2825.1941,-180"/>
<polygon fill="#000000" stroke="#000000" points="2825.1941,-183.5001 2835.1941,-180 2825.194,-176.5001 2825.1941,-183.5001"/>
</g>
<!-- MatAutocompleteModule -->
<g id="node39" class="node">
<title>MatAutocompleteModule</title>
<polygon fill="#8dd3c7" stroke="#000000" points="537.9129,-122 534.9129,-126 513.9129,-126 510.9129,-122 376.0871,-122 376.0871,-86 537.9129,-86 537.9129,-122"/>
<text text-anchor="middle" x="457" y="-99.8" font-family="Times,serif" font-size="14.00" fill="#000000">MatAutocompleteModule</text>
</g>
<!-- MatAutocompleteModule&#45;&gt;NgsDiagramModule -->
<g id="edge38" class="edge">
<title>MatAutocompleteModule&#45;&gt;NgsDiagramModule</title>
<path fill="none" stroke="#000000" d="M457,-122.0908C457,-145.1328 457,-182 457,-182 457,-182 2825.3131,-182 2825.3131,-182"/>
<polygon fill="#000000" stroke="#000000" points="2825.3131,-185.5001 2835.3131,-182 2825.313,-178.5001 2825.3131,-185.5001"/>
</g>
<!-- ReactiveFormsModule -->
<g id="node40" class="node">
<title>ReactiveFormsModule</title>
<polygon fill="#8dd3c7" stroke="#000000" points="358.3047,-122 355.3047,-126 334.3047,-126 331.3047,-122 213.6953,-122 213.6953,-86 358.3047,-86 358.3047,-122"/>
<text text-anchor="middle" x="286" y="-99.8" font-family="Times,serif" font-size="14.00" fill="#000000">ReactiveFormsModule</text>
</g>
<!-- ReactiveFormsModule&#45;&gt;NgsDiagramModule -->
<g id="edge39" class="edge">
<title>ReactiveFormsModule&#45;&gt;NgsDiagramModule</title>
<path fill="none" stroke="#000000" d="M286,-122.1532C286,-145.7566 286,-184 286,-184 286,-184 2825.3794,-184 2825.3794,-184"/>
<polygon fill="#000000" stroke="#000000" points="2825.3795,-187.5001 2835.3794,-184 2825.3794,-180.5001 2825.3795,-187.5001"/>
</g>
<!-- BrowserAnimationsModule -->
<g id="node41" class="node">
<title>BrowserAnimationsModule</title>
<polygon fill="#8dd3c7" stroke="#000000" points="196.3019,-122 193.3019,-126 172.3019,-126 169.3019,-122 23.6981,-122 23.6981,-86 196.3019,-86 196.3019,-122"/>
<text text-anchor="middle" x="110" y="-99.8" font-family="Times,serif" font-size="14.00" fill="#000000">BrowserAnimationsModule</text>
</g>
<!-- BrowserAnimationsModule&#45;&gt;NgsDiagramModule -->
<g id="edge40" class="edge">
<title>BrowserAnimationsModule&#45;&gt;NgsDiagramModule</title>
<path fill="none" stroke="#000000" d="M110,-122.1985C110,-146.3563 110,-186 110,-186 110,-186 2825.4415,-186 2825.4415,-186"/>
<polygon fill="#000000" stroke="#000000" points="2825.4415,-189.5001 2835.4415,-186 2825.4415,-182.5001 2825.4415,-189.5001"/>
</g>
</g>
</svg>
