<?xml version="1.0" encoding="UTF-8" standalone="no"?>
<!DOCTYPE svg PUBLIC "-//W3C//DTD SVG 1.1//EN"
 "http://www.w3.org/Graphics/SVG/1.1/DTD/svg11.dtd">
<!-- Generated by graphviz version 2.40.1 (20161225.0304)
 -->
<!-- Title: dependencies Pages: 1 -->
<svg width="870pt" height="211pt"
 viewBox="0.00 0.00 870.00 211.00" xmlns="http://www.w3.org/2000/svg" xmlns:xlink="http://www.w3.org/1999/xlink">
<g id="graph0" class="graph" transform="scale(1 1) rotate(0) translate(4 207)">
<title>dependencies</title>
<polygon fill="#ffffff" stroke="transparent" points="-4,4 -4,-207 866,-207 866,4 -4,4"/>
<text text-anchor="start" x="410.0091" y="-42.4" font-family="sans-serif" font-weight="bold" font-size="14.00" fill="#000000">Legend</text>
<polygon fill="#ffffb3" stroke="transparent" points="197,-10 197,-30 217,-30 217,-10 197,-10"/>
<text text-anchor="start" x="220.629" y="-15.4" font-family="sans-serif" font-size="14.00" fill="#000000"> &#160;Declarations</text>
<polygon fill="#8dd3c7" stroke="transparent" points="310,-10 310,-30 330,-30 330,-10 310,-10"/>
<text text-anchor="start" x="333.7251" y="-15.4" font-family="sans-serif" font-size="14.00" fill="#000000"> &#160;Module</text>
<polygon fill="#80b1d3" stroke="transparent" points="396,-10 396,-30 416,-30 416,-10 396,-10"/>
<text text-anchor="start" x="419.7812" y="-15.4" font-family="sans-serif" font-size="14.00" fill="#000000"> &#160;Bootstrap</text>
<polygon fill="#fdb462" stroke="transparent" points="493,-10 493,-30 513,-30 513,-10 493,-10"/>
<text text-anchor="start" x="516.6732" y="-15.4" font-family="sans-serif" font-size="14.00" fill="#000000"> &#160;Providers</text>
<polygon fill="#fb8072" stroke="transparent" points="589,-10 589,-30 609,-30 609,-10 589,-10"/>
<text text-anchor="start" x="612.7258" y="-15.4" font-family="sans-serif" font-size="14.00" fill="#000000"> &#160;Exports</text>
<g id="clust1" class="cluster">
<title>cluster_PolicyModule</title>
<polygon fill="none" stroke="#000000" stroke-dasharray="1,5" points="8,-70 8,-195 854,-195 854,-70 8,-70"/>
</g>
<g id="clust2" class="cluster">
<title>cluster_PolicyModule_declarations</title>
<polygon fill="none" stroke="#000000" points="724,-78 724,-130 846,-130 846,-78 724,-78"/>
</g>
<g id="clust4" class="cluster">
<title>cluster_PolicyModule_imports</title>
<polygon fill="none" stroke="#000000" points="16,-78 16,-130 716,-130 716,-78 16,-78"/>
</g>
<!-- TestComponent -->
<g id="node1" class="node">
<title>TestComponent</title>
<polygon fill="#ffffb3" stroke="#000000" points="837.9357,-122 732.0643,-122 732.0643,-86 837.9357,-86 837.9357,-122"/>
<text text-anchor="middle" x="785" y="-99.8" font-family="Times,serif" font-size="14.00" fill="#000000">TestComponent</text>
</g>
<!-- PolicyModule -->
<g id="node2" class="node">
<title>PolicyModule</title>
<polygon fill="#8dd3c7" stroke="#000000" points="555.8288,-187 552.8288,-191 531.8288,-191 528.8288,-187 460.1712,-187 460.1712,-151 555.8288,-151 555.8288,-187"/>
<text text-anchor="middle" x="508" y="-164.8" font-family="Times,serif" font-size="14.00" fill="#000000">PolicyModule</text>
</g>
<!-- TestComponent&#45;&gt;PolicyModule -->
<g id="edge1" class="edge">
<title>TestComponent&#45;&gt;PolicyModule</title>
<path fill="none" stroke="#000000" d="M785,-122.2843C785,-143.3211 785,-175 785,-175 785,-175 565.9335,-175 565.9335,-175"/>
<polygon fill="#000000" stroke="#000000" points="565.9335,-171.5001 555.9335,-175 565.9334,-178.5001 565.9335,-171.5001"/>
</g>
<!-- CommonModule -->
<g id="node3" class="node">
<title>CommonModule</title>
<polygon fill="#8dd3c7" stroke="#000000" points="707.6681,-122 704.6681,-126 683.6681,-126 680.6681,-122 596.3319,-122 596.3319,-86 707.6681,-86 707.6681,-122"/>
<text text-anchor="middle" x="652" y="-99.8" font-family="Times,serif" font-size="14.00" fill="#000000">CommonModule</text>
</g>
<!-- CommonModule&#45;&gt;PolicyModule -->
<g id="edge2" class="edge">
<title>CommonModule&#45;&gt;PolicyModule</title>
<path fill="none" stroke="#000000" d="M652,-122.0225C652,-139.3734 652,-163 652,-163 652,-163 565.9499,-163 565.9499,-163"/>
<polygon fill="#000000" stroke="#000000" points="565.9499,-159.5001 555.9499,-163 565.9499,-166.5001 565.9499,-159.5001"/>
</g>
<!-- PolicyRoutingModule -->
<g id="node4" class="node">
<title>PolicyRoutingModule</title>
<polygon fill="#8dd3c7" stroke="#000000" points="578.4467,-122 575.4467,-126 554.4467,-126 551.4467,-122 437.5533,-122 437.5533,-86 578.4467,-86 578.4467,-122"/>
<text text-anchor="middle" x="508" y="-99.8" font-family="Times,serif" font-size="14.00" fill="#000000">PolicyRoutingModule</text>
</g>
<!-- PolicyRoutingModule&#45;&gt;PolicyModule -->
<g id="edge3" class="edge">
<title>PolicyRoutingModule&#45;&gt;PolicyModule</title>
<path fill="none" stroke="#000000" d="M508,-122.1061C508,-122.1061 508,-140.991 508,-140.991"/>
<polygon fill="#000000" stroke="#000000" points="504.5001,-140.9909 508,-150.991 511.5001,-140.991 504.5001,-140.9909"/>
</g>
<!-- StoreModule.forFeature(args) -->
<g id="node5" class="node">
<title>StoreModule.forFeature(args)</title>
<polygon fill="#8dd3c7" stroke="#000000" points="419.5386,-122 416.5386,-126 395.5386,-126 392.5386,-122 236.4614,-122 236.4614,-86 419.5386,-86 419.5386,-122"/>
<text text-anchor="middle" x="328" y="-99.8" font-family="Times,serif" font-size="14.00" fill="#000000">StoreModule.forFeature(args)</text>
</g>
<!-- StoreModule.forFeature(args)&#45;&gt;PolicyModule -->
<g id="edge4" class="edge">
<title>StoreModule.forFeature(args)&#45;&gt;PolicyModule</title>
<path fill="none" stroke="#000000" d="M328,-122.0225C328,-139.3734 328,-163 328,-163 328,-163 450.2359,-163 450.2359,-163"/>
<polygon fill="#000000" stroke="#000000" points="450.2359,-166.5001 460.2359,-163 450.2358,-159.5001 450.2359,-166.5001"/>
</g>
<!-- EffectsModule.forFeature(args) -->
<g id="node6" class="node">
<title>EffectsModule.forFeature(args)</title>
<polygon fill="#8dd3c7" stroke="#000000" points="217.6282,-122 214.6282,-126 193.6282,-126 190.6282,-122 24.3718,-122 24.3718,-86 217.6282,-86 217.6282,-122"/>
<text text-anchor="middle" x="121" y="-99.8" font-family="Times,serif" font-size="14.00" fill="#000000">EffectsModule.forFeature(args)</text>
</g>
<!-- EffectsModule.forFeature(args)&#45;&gt;PolicyModule -->
<g id="edge5" class="edge">
<title>EffectsModule.forFeature(args)&#45;&gt;PolicyModule</title>
<path fill="none" stroke="#000000" d="M121,-122.2843C121,-143.3211 121,-175 121,-175 121,-175 450.1581,-175 450.1581,-175"/>
<polygon fill="#000000" stroke="#000000" points="450.1581,-178.5001 460.1581,-175 450.158,-171.5001 450.1581,-178.5001"/>
</g>
</g>
</svg>
