<?xml version="1.0" encoding="UTF-8" standalone="no"?>
<!DOCTYPE svg PUBLIC "-//W3C//DTD SVG 1.1//EN"
 "http://www.w3.org/Graphics/SVG/1.1/DTD/svg11.dtd">
<!-- Generated by graphviz version 2.40.1 (20161225.0304)
 -->
<!-- Title: dependencies Pages: 1 -->
<svg width="3099pt" height="211pt"
 viewBox="0.00 0.00 3099.00 211.00" xmlns="http://www.w3.org/2000/svg" xmlns:xlink="http://www.w3.org/1999/xlink">
<g id="graph0" class="graph" transform="scale(1 1) rotate(0) translate(4 207)">
<title>dependencies</title>
<polygon fill="#ffffff" stroke="transparent" points="-4,4 -4,-207 3095,-207 3095,4 -4,4"/>
<text text-anchor="start" x="1524.5091" y="-42.4" font-family="sans-serif" font-weight="bold" font-size="14.00" fill="#000000">Legend</text>
<polygon fill="#ffffb3" stroke="transparent" points="1311.5,-10 1311.5,-30 1331.5,-30 1331.5,-10 1311.5,-10"/>
<text text-anchor="start" x="1335.129" y="-15.4" font-family="sans-serif" font-size="14.00" fill="#000000"> &#160;Declarations</text>
<polygon fill="#8dd3c7" stroke="transparent" points="1424.5,-10 1424.5,-30 1444.5,-30 1444.5,-10 1424.5,-10"/>
<text text-anchor="start" x="1448.2251" y="-15.4" font-family="sans-serif" font-size="14.00" fill="#000000"> &#160;Module</text>
<polygon fill="#80b1d3" stroke="transparent" points="1510.5,-10 1510.5,-30 1530.5,-30 1530.5,-10 1510.5,-10"/>
<text text-anchor="start" x="1534.2812" y="-15.4" font-family="sans-serif" font-size="14.00" fill="#000000"> &#160;Bootstrap</text>
<polygon fill="#fdb462" stroke="transparent" points="1607.5,-10 1607.5,-30 1627.5,-30 1627.5,-10 1607.5,-10"/>
<text text-anchor="start" x="1631.1732" y="-15.4" font-family="sans-serif" font-size="14.00" fill="#000000"> &#160;Providers</text>
<polygon fill="#fb8072" stroke="transparent" points="1703.5,-10 1703.5,-30 1723.5,-30 1723.5,-10 1703.5,-10"/>
<text text-anchor="start" x="1727.2258" y="-15.4" font-family="sans-serif" font-size="14.00" fill="#000000"> &#160;Exports</text>
<g id="clust1" class="cluster">
<title>cluster_CoreModule</title>
<polygon fill="none" stroke="#000000" stroke-dasharray="1,5" points="8,-70 8,-195 3083,-195 3083,-70 8,-70"/>
</g>
<g id="clust3" class="cluster">
<title>cluster_CoreModule_imports</title>
<polygon fill="none" stroke="#000000" points="16,-78 16,-130 3075,-130 3075,-78 16,-78"/>
</g>
<!-- CommonModule -->
<g id="node1" class="node">
<title>CommonModule</title>
<polygon fill="#8dd3c7" stroke="#000000" points="3066.6681,-122 3063.6681,-126 3042.6681,-126 3039.6681,-122 2955.3319,-122 2955.3319,-86 3066.6681,-86 3066.6681,-122"/>
<text text-anchor="middle" x="3011" y="-99.8" font-family="Times,serif" font-size="14.00" fill="#000000">CommonModule</text>
</g>
<!-- CoreModule -->
<g id="node23" class="node">
<title>CoreModule</title>
<polygon fill="#8dd3c7" stroke="#000000" points="1701.2619,-187 1698.2619,-191 1677.2619,-191 1674.2619,-187 1614.7381,-187 1614.7381,-151 1701.2619,-151 1701.2619,-187"/>
<text text-anchor="middle" x="1658" y="-164.8" font-family="Times,serif" font-size="14.00" fill="#000000">CoreModule</text>
</g>
<!-- CommonModule&#45;&gt;CoreModule -->
<g id="edge1" class="edge">
<title>CommonModule&#45;&gt;CoreModule</title>
<path fill="none" stroke="#000000" d="M3011,-122.1532C3011,-145.7566 3011,-184 3011,-184 3011,-184 1711.4843,-184 1711.4843,-184"/>
<polygon fill="#000000" stroke="#000000" points="1711.4844,-180.5001 1701.4843,-184 1711.4843,-187.5001 1711.4844,-180.5001"/>
</g>
<!-- RouterModule -->
<g id="node2" class="node">
<title>RouterModule</title>
<polygon fill="#8dd3c7" stroke="#000000" points="2936.6528,-122 2933.6528,-126 2912.6528,-126 2909.6528,-122 2839.3472,-122 2839.3472,-86 2936.6528,-86 2936.6528,-122"/>
<text text-anchor="middle" x="2888" y="-99.8" font-family="Times,serif" font-size="14.00" fill="#000000">RouterModule</text>
</g>
<!-- RouterModule&#45;&gt;CoreModule -->
<g id="edge2" class="edge">
<title>RouterModule&#45;&gt;CoreModule</title>
<path fill="none" stroke="#000000" d="M2871.7246,-122.2921C2871.7246,-144.2057 2871.7246,-178 2871.7246,-178 2871.7246,-178 1711.555,-178 1711.555,-178"/>
<polygon fill="#000000" stroke="#000000" points="1711.555,-174.5001 1701.555,-178 1711.5549,-181.5001 1711.555,-174.5001"/>
</g>
<!-- RouterModule&#45;&gt;CoreModule -->
<g id="edge23" class="edge">
<title>RouterModule&#45;&gt;CoreModule</title>
<path fill="none" stroke="#000000" d="M2904.2754,-122.0908C2904.2754,-145.1328 2904.2754,-182 2904.2754,-182 2904.2754,-182 1711.6248,-182 1711.6248,-182"/>
<polygon fill="#000000" stroke="#000000" points="1711.6249,-178.5001 1701.6248,-182 1711.6248,-185.5001 1711.6249,-178.5001"/>
</g>
<!-- FormsModule -->
<g id="node3" class="node">
<title>FormsModule</title>
<polygon fill="#8dd3c7" stroke="#000000" points="2821.8288,-122 2818.8288,-126 2797.8288,-126 2794.8288,-122 2726.1712,-122 2726.1712,-86 2821.8288,-86 2821.8288,-122"/>
<text text-anchor="middle" x="2774" y="-99.8" font-family="Times,serif" font-size="14.00" fill="#000000">FormsModule</text>
</g>
<!-- FormsModule&#45;&gt;CoreModule -->
<g id="edge3" class="edge">
<title>FormsModule&#45;&gt;CoreModule</title>
<path fill="none" stroke="#000000" d="M2774,-122.2843C2774,-143.3211 2774,-175 2774,-175 2774,-175 1711.406,-175 1711.406,-175"/>
<polygon fill="#000000" stroke="#000000" points="1711.406,-171.5001 1701.406,-175 1711.406,-178.5001 1711.406,-171.5001"/>
</g>
<!-- HttpClientModule -->
<g id="node4" class="node">
<title>HttpClientModule</title>
<polygon fill="#8dd3c7" stroke="#000000" points="2708.1611,-122 2705.1611,-126 2684.1611,-126 2681.1611,-122 2589.8389,-122 2589.8389,-86 2708.1611,-86 2708.1611,-122"/>
<text text-anchor="middle" x="2649" y="-99.8" font-family="Times,serif" font-size="14.00" fill="#000000">HttpClientModule</text>
</g>
<!-- HttpClientModule&#45;&gt;CoreModule -->
<g id="edge4" class="edge">
<title>HttpClientModule&#45;&gt;CoreModule</title>
<path fill="none" stroke="#000000" d="M2649,-122.2228C2649,-142.3652 2649,-172 2649,-172 2649,-172 1711.5395,-172 1711.5395,-172"/>
<polygon fill="#000000" stroke="#000000" points="1711.5395,-168.5001 1701.5395,-172 1711.5394,-175.5001 1711.5395,-168.5001"/>
</g>
<!-- FlexLayoutModule -->
<g id="node5" class="node">
<title>FlexLayoutModule</title>
<polygon fill="#8dd3c7" stroke="#000000" points="2572.0954,-122 2569.0954,-126 2548.0954,-126 2545.0954,-122 2447.9046,-122 2447.9046,-86 2572.0954,-86 2572.0954,-122"/>
<text text-anchor="middle" x="2510" y="-99.8" font-family="Times,serif" font-size="14.00" fill="#000000">FlexLayoutModule</text>
</g>
<!-- FlexLayoutModule&#45;&gt;CoreModule -->
<g id="edge5" class="edge">
<title>FlexLayoutModule&#45;&gt;CoreModule</title>
<path fill="none" stroke="#000000" d="M2510,-122.1061C2510,-141.3391 2510,-169 2510,-169 2510,-169 1711.4221,-169 1711.4221,-169"/>
<polygon fill="#000000" stroke="#000000" points="1711.4222,-165.5001 1701.4221,-169 1711.4221,-172.5001 1711.4222,-165.5001"/>
</g>
<!-- ReactiveFormsModule -->
<g id="node6" class="node">
<title>ReactiveFormsModule</title>
<polygon fill="#8dd3c7" stroke="#000000" points="2430.3047,-122 2427.3047,-126 2406.3047,-126 2403.3047,-122 2285.6953,-122 2285.6953,-86 2430.3047,-86 2430.3047,-122"/>
<text text-anchor="middle" x="2358" y="-99.8" font-family="Times,serif" font-size="14.00" fill="#000000">ReactiveFormsModule</text>
</g>
<!-- ReactiveFormsModule&#45;&gt;CoreModule -->
<g id="edge6" class="edge">
<title>ReactiveFormsModule&#45;&gt;CoreModule</title>
<path fill="none" stroke="#000000" d="M2358,-122.2222C2358,-140.8285 2358,-167 2358,-167 2358,-167 1711.5237,-167 1711.5237,-167"/>
<polygon fill="#000000" stroke="#000000" points="1711.5237,-163.5001 1701.5237,-167 1711.5236,-170.5001 1711.5237,-163.5001"/>
</g>
<!-- MatIconModule -->
<g id="node7" class="node">
<title>MatIconModule</title>
<polygon fill="#8dd3c7" stroke="#000000" points="2267.4748,-122 2264.4748,-126 2243.4748,-126 2240.4748,-122 2160.5252,-122 2160.5252,-86 2267.4748,-86 2267.4748,-122"/>
<text text-anchor="middle" x="2214" y="-99.8" font-family="Times,serif" font-size="14.00" fill="#000000">MatIconModule</text>
</g>
<!-- MatIconModule&#45;&gt;CoreModule -->
<g id="edge7" class="edge">
<title>MatIconModule&#45;&gt;CoreModule</title>
<path fill="none" stroke="#000000" d="M2214,-122.0225C2214,-139.3734 2214,-163 2214,-163 2214,-163 1711.6284,-163 1711.6284,-163"/>
<polygon fill="#000000" stroke="#000000" points="1711.6284,-159.5001 1701.6284,-163 1711.6284,-166.5001 1711.6284,-159.5001"/>
</g>
<!-- MatButtonModule -->
<g id="node8" class="node">
<title>MatButtonModule</title>
<polygon fill="#8dd3c7" stroke="#000000" points="2142.2176,-122 2139.2176,-126 2118.2176,-126 2115.2176,-122 2021.7824,-122 2021.7824,-86 2142.2176,-86 2142.2176,-122"/>
<text text-anchor="middle" x="2082" y="-99.8" font-family="Times,serif" font-size="14.00" fill="#000000">MatButtonModule</text>
</g>
<!-- MatButtonModule&#45;&gt;CoreModule -->
<g id="edge8" class="edge">
<title>MatButtonModule&#45;&gt;CoreModule</title>
<path fill="none" stroke="#000000" d="M2082,-122.027C2082,-138.3976 2082,-160 2082,-160 2082,-160 1711.3829,-160 1711.3829,-160"/>
<polygon fill="#000000" stroke="#000000" points="1711.3829,-156.5001 1701.3829,-160 1711.3828,-163.5001 1711.3829,-156.5001"/>
</g>
<!-- MatCardModule -->
<g id="node9" class="node">
<title>MatCardModule</title>
<polygon fill="#8dd3c7" stroke="#000000" points="2003.8118,-122 2000.8118,-126 1979.8118,-126 1976.8118,-122 1894.1882,-122 1894.1882,-86 2003.8118,-86 2003.8118,-122"/>
<text text-anchor="middle" x="1949" y="-99.8" font-family="Times,serif" font-size="14.00" fill="#000000">MatCardModule</text>
</g>
<!-- MatCardModule&#45;&gt;CoreModule -->
<g id="edge9" class="edge">
<title>MatCardModule&#45;&gt;CoreModule</title>
<path fill="none" stroke="#000000" d="M1949,-122.2396C1949,-137.5706 1949,-157 1949,-157 1949,-157 1711.5656,-157 1711.5656,-157"/>
<polygon fill="#000000" stroke="#000000" points="1711.5657,-153.5001 1701.5656,-157 1711.5656,-160.5001 1711.5657,-153.5001"/>
</g>
<!-- MatSnackBarModule -->
<g id="node10" class="node">
<title>MatSnackBarModule</title>
<polygon fill="#8dd3c7" stroke="#000000" points="1876.024,-122 1873.024,-126 1852.024,-126 1849.024,-122 1739.976,-122 1739.976,-86 1876.024,-86 1876.024,-122"/>
<text text-anchor="middle" x="1808" y="-99.8" font-family="Times,serif" font-size="14.00" fill="#000000">MatSnackBarModule</text>
</g>
<!-- MatSnackBarModule&#45;&gt;CoreModule -->
<g id="edge10" class="edge">
<title>MatSnackBarModule&#45;&gt;CoreModule</title>
<path fill="none" stroke="#000000" d="M1808,-122.0511C1808,-136.373 1808,-154 1808,-154 1808,-154 1711.3862,-154 1711.3862,-154"/>
<polygon fill="#000000" stroke="#000000" points="1711.3862,-150.5001 1701.3862,-154 1711.3862,-157.5001 1711.3862,-150.5001"/>
</g>
<!-- MatSidenavModule -->
<g id="node11" class="node">
<title>MatSidenavModule</title>
<polygon fill="#8dd3c7" stroke="#000000" points="1721.7022,-122 1718.7022,-126 1697.7022,-126 1694.7022,-122 1594.2978,-122 1594.2978,-86 1721.7022,-86 1721.7022,-122"/>
<text text-anchor="middle" x="1658" y="-99.8" font-family="Times,serif" font-size="14.00" fill="#000000">MatSidenavModule</text>
</g>
<!-- MatSidenavModule&#45;&gt;CoreModule -->
<g id="edge11" class="edge">
<title>MatSidenavModule&#45;&gt;CoreModule</title>
<path fill="none" stroke="#000000" d="M1658,-122.1061C1658,-122.1061 1658,-140.991 1658,-140.991"/>
<polygon fill="#000000" stroke="#000000" points="1654.5001,-140.9909 1658,-150.991 1661.5001,-140.991 1654.5001,-140.9909"/>
</g>
<!-- MatExpansionModule -->
<g id="node12" class="node">
<title>MatExpansionModule</title>
<polygon fill="#8dd3c7" stroke="#000000" points="1576.7021,-122 1573.7021,-126 1552.7021,-126 1549.7021,-122 1435.2979,-122 1435.2979,-86 1576.7021,-86 1576.7021,-122"/>
<text text-anchor="middle" x="1506" y="-99.8" font-family="Times,serif" font-size="14.00" fill="#000000">MatExpansionModule</text>
</g>
<!-- MatExpansionModule&#45;&gt;CoreModule -->
<g id="edge12" class="edge">
<title>MatExpansionModule&#45;&gt;CoreModule</title>
<path fill="none" stroke="#000000" d="M1506,-122.0511C1506,-136.373 1506,-154 1506,-154 1506,-154 1604.4429,-154 1604.4429,-154"/>
<polygon fill="#000000" stroke="#000000" points="1604.4429,-157.5001 1614.4429,-154 1604.4429,-150.5001 1604.4429,-157.5001"/>
</g>
<!-- MatSelectModule -->
<g id="node13" class="node">
<title>MatSelectModule</title>
<polygon fill="#8dd3c7" stroke="#000000" points="1417.3076,-122 1414.3076,-126 1393.3076,-126 1390.3076,-122 1300.6924,-122 1300.6924,-86 1417.3076,-86 1417.3076,-122"/>
<text text-anchor="middle" x="1359" y="-99.8" font-family="Times,serif" font-size="14.00" fill="#000000">MatSelectModule</text>
</g>
<!-- MatSelectModule&#45;&gt;CoreModule -->
<g id="edge13" class="edge">
<title>MatSelectModule&#45;&gt;CoreModule</title>
<path fill="none" stroke="#000000" d="M1359,-122.2396C1359,-137.5706 1359,-157 1359,-157 1359,-157 1604.5228,-157 1604.5228,-157"/>
<polygon fill="#000000" stroke="#000000" points="1604.5229,-160.5001 1614.5228,-157 1604.5228,-153.5001 1604.5229,-160.5001"/>
</g>
<!-- MatFormFieldModule -->
<g id="node14" class="node">
<title>MatFormFieldModule</title>
<polygon fill="#8dd3c7" stroke="#000000" points="1282.712,-122 1279.712,-126 1258.712,-126 1255.712,-122 1141.288,-122 1141.288,-86 1282.712,-86 1282.712,-122"/>
<text text-anchor="middle" x="1212" y="-99.8" font-family="Times,serif" font-size="14.00" fill="#000000">MatFormFieldModule</text>
</g>
<!-- MatFormFieldModule&#45;&gt;CoreModule -->
<g id="edge14" class="edge">
<title>MatFormFieldModule&#45;&gt;CoreModule</title>
<path fill="none" stroke="#000000" d="M1212,-122.027C1212,-138.3976 1212,-160 1212,-160 1212,-160 1604.4236,-160 1604.4236,-160"/>
<polygon fill="#000000" stroke="#000000" points="1604.4236,-163.5001 1614.4236,-160 1604.4236,-156.5001 1604.4236,-163.5001"/>
</g>
<!-- MatListModule -->
<g id="node15" class="node">
<title>MatListModule</title>
<polygon fill="#8dd3c7" stroke="#000000" points="1122.8781,-122 1119.8781,-126 1098.8781,-126 1095.8781,-122 1019.1219,-122 1019.1219,-86 1122.8781,-86 1122.8781,-122"/>
<text text-anchor="middle" x="1071" y="-99.8" font-family="Times,serif" font-size="14.00" fill="#000000">MatListModule</text>
</g>
<!-- MatListModule&#45;&gt;CoreModule -->
<g id="edge15" class="edge">
<title>MatListModule&#45;&gt;CoreModule</title>
<path fill="none" stroke="#000000" d="M1071,-122.0225C1071,-139.3734 1071,-163 1071,-163 1071,-163 1604.3592,-163 1604.3592,-163"/>
<polygon fill="#000000" stroke="#000000" points="1604.3592,-166.5001 1614.3592,-163 1604.3591,-159.5001 1604.3592,-166.5001"/>
</g>
<!-- MatMenuModule -->
<g id="node16" class="node">
<title>MatMenuModule</title>
<polygon fill="#8dd3c7" stroke="#000000" points="1001.2591,-122 998.2591,-126 977.2591,-126 974.2591,-122 886.7409,-122 886.7409,-86 1001.2591,-86 1001.2591,-122"/>
<text text-anchor="middle" x="944" y="-99.8" font-family="Times,serif" font-size="14.00" fill="#000000">MatMenuModule</text>
</g>
<!-- MatMenuModule&#45;&gt;CoreModule -->
<g id="edge16" class="edge">
<title>MatMenuModule&#45;&gt;CoreModule</title>
<path fill="none" stroke="#000000" d="M944,-122.2222C944,-140.8285 944,-167 944,-167 944,-167 1604.6778,-167 1604.6778,-167"/>
<polygon fill="#000000" stroke="#000000" points="1604.6779,-170.5001 1614.6778,-167 1604.6778,-163.5001 1604.6779,-170.5001"/>
</g>
<!-- MatRadioModule -->
<g id="node17" class="node">
<title>MatRadioModule</title>
<polygon fill="#8dd3c7" stroke="#000000" points="868.5423,-122 865.5423,-126 844.5423,-126 841.5423,-122 753.4577,-122 753.4577,-86 868.5423,-86 868.5423,-122"/>
<text text-anchor="middle" x="811" y="-99.8" font-family="Times,serif" font-size="14.00" fill="#000000">MatRadioModule</text>
</g>
<!-- MatRadioModule&#45;&gt;CoreModule -->
<g id="edge17" class="edge">
<title>MatRadioModule&#45;&gt;CoreModule</title>
<path fill="none" stroke="#000000" d="M811,-122.1061C811,-141.3391 811,-169 811,-169 811,-169 1604.5394,-169 1604.5394,-169"/>
<polygon fill="#000000" stroke="#000000" points="1604.5394,-172.5001 1614.5394,-169 1604.5393,-165.5001 1604.5394,-172.5001"/>
</g>
<!-- MatInputModule -->
<g id="node18" class="node">
<title>MatInputModule</title>
<polygon fill="#8dd3c7" stroke="#000000" points="734.6513,-122 731.6513,-126 710.6513,-126 707.6513,-122 623.3487,-122 623.3487,-86 734.6513,-86 734.6513,-122"/>
<text text-anchor="middle" x="679" y="-99.8" font-family="Times,serif" font-size="14.00" fill="#000000">MatInputModule</text>
</g>
<!-- MatInputModule&#45;&gt;CoreModule -->
<g id="edge18" class="edge">
<title>MatInputModule&#45;&gt;CoreModule</title>
<path fill="none" stroke="#000000" d="M679,-122.2228C679,-142.3652 679,-172 679,-172 679,-172 1604.6704,-172 1604.6704,-172"/>
<polygon fill="#000000" stroke="#000000" points="1604.6704,-175.5001 1614.6704,-172 1604.6703,-168.5001 1604.6704,-175.5001"/>
</g>
<!-- MatToolbarModule -->
<g id="node19" class="node">
<title>MatToolbarModule</title>
<polygon fill="#8dd3c7" stroke="#000000" points="605.4187,-122 602.4187,-126 581.4187,-126 578.4187,-122 478.5813,-122 478.5813,-86 605.4187,-86 605.4187,-122"/>
<text text-anchor="middle" x="542" y="-99.8" font-family="Times,serif" font-size="14.00" fill="#000000">MatToolbarModule</text>
</g>
<!-- MatToolbarModule&#45;&gt;CoreModule -->
<g id="edge19" class="edge">
<title>MatToolbarModule&#45;&gt;CoreModule</title>
<path fill="none" stroke="#000000" d="M542,-122.2843C542,-143.3211 542,-175 542,-175 542,-175 1604.594,-175 1604.594,-175"/>
<polygon fill="#000000" stroke="#000000" points="1604.594,-178.5001 1614.594,-175 1604.594,-171.5001 1604.594,-178.5001"/>
</g>
<!-- MatDatepickerModule -->
<g id="node20" class="node">
<title>MatDatepickerModule</title>
<polygon fill="#8dd3c7" stroke="#000000" points="460.5072,-122 457.5072,-126 436.5072,-126 433.5072,-122 317.4928,-122 317.4928,-86 460.5072,-86 460.5072,-122"/>
<text text-anchor="middle" x="389" y="-99.8" font-family="Times,serif" font-size="14.00" fill="#000000">MatDatepickerModule</text>
</g>
<!-- MatDatepickerModule&#45;&gt;CoreModule -->
<g id="edge20" class="edge">
<title>MatDatepickerModule&#45;&gt;CoreModule</title>
<path fill="none" stroke="#000000" d="M389,-122.2921C389,-144.2057 389,-178 389,-178 389,-178 1604.6853,-178 1604.6853,-178"/>
<polygon fill="#000000" stroke="#000000" points="1604.6853,-181.5001 1614.6853,-178 1604.6852,-174.5001 1604.6853,-181.5001"/>
</g>
<!-- MatProgressBarModule -->
<g id="node21" class="node">
<title>MatProgressBarModule</title>
<polygon fill="#8dd3c7" stroke="#000000" points="299.0198,-122 296.0198,-126 275.0198,-126 272.0198,-122 148.9802,-122 148.9802,-86 299.0198,-86 299.0198,-122"/>
<text text-anchor="middle" x="224" y="-99.8" font-family="Times,serif" font-size="14.00" fill="#000000">MatProgressBarModule</text>
</g>
<!-- MatProgressBarModule&#45;&gt;CoreModule -->
<g id="edge21" class="edge">
<title>MatProgressBarModule&#45;&gt;CoreModule</title>
<path fill="none" stroke="#000000" d="M224,-122.0908C224,-145.1328 224,-182 224,-182 224,-182 1604.6925,-182 1604.6925,-182"/>
<polygon fill="#000000" stroke="#000000" points="1604.6926,-185.5001 1614.6925,-182 1604.6925,-178.5001 1604.6926,-185.5001"/>
</g>
<!-- BrowserModule -->
<g id="node22" class="node">
<title>BrowserModule</title>
<polygon fill="#8dd3c7" stroke="#000000" points="130.4734,-122 127.4734,-126 106.4734,-126 103.4734,-122 23.5266,-122 23.5266,-86 130.4734,-86 130.4734,-122"/>
<text text-anchor="middle" x="77" y="-99.8" font-family="Times,serif" font-size="14.00" fill="#000000">BrowserModule</text>
</g>
<!-- BrowserModule&#45;&gt;CoreModule -->
<g id="edge22" class="edge">
<title>BrowserModule&#45;&gt;CoreModule</title>
<path fill="none" stroke="#000000" d="M77,-122.1532C77,-145.7566 77,-184 77,-184 77,-184 1604.4794,-184 1604.4794,-184"/>
<polygon fill="#000000" stroke="#000000" points="1604.4795,-187.5001 1614.4794,-184 1604.4794,-180.5001 1604.4795,-187.5001"/>
</g>
</g>
</svg>
